<svg height="146" viewBox="0 0 343 146" width="343" xmlns="http://www.w3.org/2000/svg"><g fill="none" fill-rule="evenodd"><g fill="#353535" transform="translate(1 126)"><path d="m17.1 1.2c.4.2.7.4 1 .6.3.3.5.6.6 1s.2.8.2 1.2v14.6c0 .1 0 .3-.1.3-.1.1-.2.1-.3.1h-3.6c-.1 0-.2 0-.3-.1s-.1-.2-.1-.3v-13.2h-2.9v13.2c0 .1 0 .3-.1.3-.1.1-.2.1-.3.1h-3.3c-.1 0-.3 0-.3-.1-.1-.1-.1-.2-.1-.3v-13.2h-2.9v13.2c0 .3-.2.5-.5.5h-3.6c-.3 0-.5-.2-.5-.5v-17.1c0-.3.2-.5.5-.5h15.6c.3-.1.7 0 1 .2z"/><path d="m35.2.9c.4 0 .8.1 1.2.2.4.2.7.4 1 .6.3.3.5.6.6 1s.2.8.2 1.2v14.6c0 .1 0 .3-.1.3-.1.1-.2.1-.3.1h-3.6c-.1 0-.3 0-.3-.1-.1-.1-.1-.2-.1-.3v-4.6c0-.1 0-.3-.1-.3-.1-.1-.2-.1-.3-.1h-5.1c-.1 0-.3 0-.3.1-.1.1-.1.2-.1.3v4.6c0 .3-.2.5-.5.5h-3.6c-.3 0-.5-.2-.5-.5v-14.6c0-.4.1-.8.2-1.2.2-.4.4-.7.6-1 .3-.3.6-.5 1-.6.4-.2.8-.2 1.2-.2zm-1.6 8.6v-4.5h-6.1v4.5z"/><path d="m54.5 1.1c.1.1.1.2.1.3v14.6c0 .4-.1.8-.2 1.2-.2.4-.4.7-.6 1-.3.3-.6.5-1 .6-.4.2-.8.2-1.2.2h-7.8c-.4 0-.8-.1-1.2-.2-.4-.2-.7-.4-1-.6-.3-.3-.5-.6-.6-1-.2-.4-.2-.8-.2-1.2v-5.5c0-.3.2-.5.5-.5h3.6c.3 0 .5.2.5.5v3.7c0 .1 0 .2.1.3s.2.1.3.1h3.7c.1 0 .3 0 .3-.1.1-.1.1-.2.1-.3v-12.7c0-.1 0-.3.1-.3.1-.1.2-.1.3-.1h3.6c.3-.2.5-.1.6 0z"/><path d="m70.8.9c.4 0 .8.1 1.2.2.4.2.7.4 1 .6.3.3.5.6.6 1s.2.8.2 1.2v12c0 .4-.1.8-.2 1.2-.2.4-.4.7-.6 1-.3.3-.6.5-1 .6-.4.2-.8.2-1.2.2h-9.1c-.4 0-.8-.1-1.2-.2-.4-.2-.7-.4-1-.6-.3-.3-.5-.6-.6-1-.2-.4-.2-.8-.2-1.2v-12c0-.4.1-.8.2-1.2s.4-.7.6-1c.3-.3.6-.5 1-.6.4-.2.8-.2 1.2-.2zm-1.6 4.4h-6.1v9.3h6.1z"/><path d="m93.6 18.6c.1.1.1.2 0 .3s-.1.1-.3.1h-4.1c-.1 0-.3 0-.4-.1l-.3-.3-2.7-4.9c0-.1-.1-.1-.2-.1h-3.1c-.1 0-.1 0-.1.1v4.8c0 .3-.2.5-.5.5h-3.6c-.3 0-.5-.2-.5-.5v-17.1c0-.3.2-.5.5-.5h11.7c.4 0 .8.1 1.2.2.4.2.7.4 1 .6.3.3.5.6.6 1 .2.4.2.8.2 1.2v6.8c0 .7-.2 1.2-.6 1.8-.4.5-.9.9-1.5 1.1h-.1c-.1 0-.1.1-.1.2v.1zm-5.1-13.5h-6.2v4.4h6.2z"/><path d="m117.9 14.6c.1 0 .2 0 .3.1s.1.2.1.3v3.4c0 .1 0 .3-.1.3-.1.1-.2.1-.3.1h-11.1c-.3 0-.5-.2-.5-.5v-17.1c0-.3.2-.5.5-.5h3.6c.3 0 .5.2.5.5v12.7c0 .1 0 .2.1.3s.2.1.3.1h6.6z"/><path d="m134.6 1.1c.1.1.1.2.1.3v1.5.8 1c0 .1 0 .2-.1.3s-.2.1-.3.1h-1.8-5.4-1.4c-.1 0-.1 0-.1.1v2.8c0 .1 0 .1.1.1h7.4c.1 0 .2 0 .3.1s.1.2.1.3v2.6c0 .1 0 .3-.1.3-.1.1-.2.1-.3.1h-7.4c-.1 0-.1 0-.1.1v1.3 1.5c0 .1 0 .1.1.1h1.1 5.8 1.7c.1 0 .3 0 .3.1.1.1.1.2.1.3v1 1.3.9c0 .1 0 .3-.1.3-.1.1-.2.1-.3.1h-1.5-9.8-1.5c-.3 0-.5-.2-.5-.5v-.9-15-1.2c0-.1 0-.3.1-.3.1-.1.2-.1.3-.1h1.9 10.1.8c.2.4.3.5.4.6z"/><path d="m151 .9c.4 0 .8.1 1.2.2.4.2.7.4 1 .6.3.3.5.6.6 1s.2.8.2 1.2v14.6c0 .1 0 .3-.1.3-.1.1-.2.1-.3.1h-3.7c-.1 0-.3 0-.3-.1-.1-.1-.1-.2-.1-.3v-4.6c0-.1 0-.3-.1-.3-.1-.1-.2-.1-.3-.1h-5.2c-.1 0-.3 0-.3.1-.1.1-.1.2-.1.3v4.6c0 .3-.2.5-.5.5h-3.6c-.3 0-.5-.2-.5-.5v-14.6c0-.4.1-.8.2-1.2.2-.4.4-.7.6-1 .3-.3.6-.5 1-.6.4-.2.8-.2 1.2-.2zm-1.6 8.6v-4.5h-6.1v4.5z"/><path d="m173.1 9.3c.1.1.1.2.1.3v6.4c0 .4-.1.8-.2 1.2-.2.4-.4.7-.6 1-.3.3-.6.5-1 .6-.4.2-.8.2-1.2.2h-9.1c-.4 0-.8-.1-1.2-.2-.4-.2-.7-.4-1-.6-.3-.3-.5-.6-.6-1-.2-.4-.2-.8-.2-1.2v-12c0-.4.1-.8.2-1.2s.4-.7.6-1c.3-.3.6-.5 1-.6.4-.2.8-.2 1.2-.2h10.7c.1 0 .3 0 .3.1.1.1.1.2.1.3v3.4c0 .1 0 .3-.1.3-.1.1-.2.1-.3.1h-8.6c-.1 0-.3 0-.3.1-.1.1-.1.2-.1.3v8.4c0 .1 0 .2.1.3s.2.1.3.1h5.1c.1 0 .2 0 .3-.1s.1-.2.1-.3v-4.5c0-.1 0-.3.1-.3.1-.1.2-.1.3-.1h3.6c.1 0 .3.1.4.2z"/><path d="m192.1 1.1c.1.1.1.2.1.3v14.6c0 .4-.1.8-.2 1.2-.2.4-.4.7-.6 1-.3.3-.6.5-1 .6-.4.2-.8.2-1.2.2h-9.1c-.4 0-.8-.1-1.2-.2-.4-.2-.7-.4-1-.6-.3-.3-.5-.6-.6-1-.2-.4-.2-.8-.2-1.2v-14.6c0-.3.2-.5.5-.5h3.6c.3 0 .5.2.5.5v12.7c0 .1 0 .2.1.3s.2.1.3.1h5.1c.1 0 .2 0 .3-.1s.1-.2.1-.3v-12.7c0-.1 0-.3.1-.3.1-.1.2-.1.3-.1h3.6c.3-.1.4 0 .5.1z"/><path d="m210 1.1c.1.1.1.2.1.3v1.5.8 1c0 .1 0 .2-.1.3s-.2.1-.3.1h-1.8-5.4-1.4c-.1 0-.1 0-.1.1v2.8c0 .1 0 .1.1.1h7.4c.1 0 .2 0 .3.1s.1.2.1.3v2.6c0 .1 0 .3-.1.3-.1.1-.2.1-.3.1h-7.4c-.1 0-.1 0-.1.1v1.3 1.5c0 .1 0 .1.1.1h1.1 5.8 1.7c.1 0 .3 0 .3.1.1.1.1.2.1.3v1 1.3.9c0 .1 0 .3-.1.3-.1.1-.2.1-.3.1h-1.5-9.8-1.5c-.3 0-.5-.2-.5-.5v-.9-15-1.2c0-.1 0-.3.1-.3.1-.1.2-.1.3-.1h1.9 10.1.8c.2.4.3.5.4.6z"/><path d="m237.7.9c.1 0 .3 0 .3.1.1.1.1.2.1.3v17.1c0 .1 0 .3-.1.3-.1.1-.2.1-.3.1h-3.6c-.1 0-.3 0-.3-.1-.1-.1-.1-.2-.1-.3v-6c0-.1 0-.2-.1-.3s-.2-.1-.3-.1h-5.1c-.1 0-.3 0-.3.1-.1.1-.1.2-.1.3v6c0 .3-.2.5-.5.5h-3.6c-.3 0-.5-.2-.5-.5v-17.1c0-.3.2-.5.5-.5h3.6c.3 0 .5.2.5.5v5.8c0 .3.2.5.5.5h5.1c.1 0 .2 0 .3-.1s.1-.2.1-.3v-5.8c0-.1 0-.3.1-.3.1-.1.2-.1.3-.1h3.5z"/><path d="m254.4.9c.4 0 .8.1 1.2.2.4.2.7.4 1 .6.3.3.5.6.6 1s.2.8.2 1.2v14.6c0 .1 0 .3-.1.3-.1.1-.2.1-.3.1h-3.6c-.1 0-.3 0-.3-.1-.1-.1-.1-.2-.1-.3v-4.6c0-.1 0-.3-.1-.3-.1-.1-.2-.1-.3-.1h-5.1c-.1 0-.3 0-.3.1-.1.1-.1.2-.1.3v4.6c0 .3-.2.5-.5.5h-3.6c-.3 0-.5-.2-.5-.5v-14.6c0-.4.1-.8.2-1.2.2-.4.4-.7.6-1 .3-.3.6-.5 1-.6.4-.2.8-.2 1.2-.2zm-1.5 8.6v-4.5h-6.1v4.5z"/><path d="m266.1 5.4c-.1.1-.1.2-.1.3v8.4c0 .1 0 .2.1.3s.2.1.3.1h8.3c.1 0 .3 0 .3.1.1.1.1.2.1.3v3.4c0 .1 0 .3-.1.3-.1.1-.2.1-.3.1h-5.4-4.4-.5c-.4 0-.8-.1-1.2-.2-.4-.2-.7-.4-1-.6-.3-.3-.5-.6-.6-1-.2-.4-.2-.8-.2-1.2v-.5-1.9-6-1.7-2c0-.4.1-.8.2-1.2.2-.4.4-.7.6-1 .3-.3.6-.5 1-.6.4-.2.8-.2 1.2-.2h.5 9.8c.1 0 .3 0 .3.1.1.1.1.2.1.3v3.4c0 .1 0 .3-.1.3-.1.1-.2.1-.3.1h-8.3c-.1.5-.2.6-.3.6z"/><path d="m289.6 8.5c-.1.1-.1.1 0 .2l6 9.9c.1.1.1.2 0 .3s-.1.1-.3.1h-4.3c-.1 0-.3 0-.4-.1s-.2-.2-.3-.3l-3.9-7c-.1-.1-.1-.1-.1 0l-2.1 2.3c-.1.1-.2.2-.2.4-.1.2-.1.3-.1.5v3.8c0 .3-.2.5-.5.5h-3.5c-.3 0-.5-.2-.5-.5v-17.1c0-.3.2-.5.5-.5h3.6c.3 0 .5.2.5.5v7.7l6.7-7.8c.1-.1.2-.2.4-.3s.3-.1.4-.1h4.3c.1 0 .2 0 .2.1s0 .2-.1.3z"/><path d="m303.5 18.5c0 .3-.2.5-.5.5h-3.6c-.3 0-.5-.2-.5-.5v-17.1c0-.3.2-.5.5-.5h3.6c.3 0 .5.2.5.5z"/><path d="m320.9 1.2c.4.2.7.4 1 .6.3.3.5.6.6 1 .2.4.2.8.2 1.2v14.6c0 .1 0 .3-.1.3-.1.1-.2.1-.3.1h-3.6c-.1 0-.2 0-.3-.1s-.1-.2-.1-.3v-12.7c0-.1 0-.2-.1-.3s-.2-.1-.3-.1h-5.1c-.1 0-.3 0-.3.1s-.1.2-.1.3v12.7c0 .3-.2.5-.5.5h-3.6c-.3 0-.5-.2-.5-.5v-17.1c0-.3.2-.5.5-.5h11.7c.2-.1.6 0 .9.2z"/><path d="m341.8 9.3c.1.1.1.2.1.3v6.4c0 .4-.1.8-.2 1.2-.2.4-.4.7-.6 1-.3.3-.6.5-1 .6-.4.2-.8.2-1.2.2h-9.1c-.4 0-.8-.1-1.2-.2-.4-.2-.7-.4-1-.6-.3-.3-.5-.6-.6-1-.2-.4-.2-.8-.2-1.2v-12c0-.4.1-.8.2-1.2s.4-.7.6-1c.3-.3.6-.5 1-.6.4-.2.8-.2 1.2-.2h10.7c.1 0 .3 0 .3.1.1.1.1.2.1.3v3.4c0 .1 0 .3-.1.3-.1.1-.2.1-.3.1h-8.6c-.1 0-.3 0-.3.1-.1.1-.1.2-.1.3v8.4c0 .1 0 .2.1.3s.2.1.3.1h5.1c.1 0 .2 0 .3-.1s.1-.2.1-.3v-4.5c0-.1 0-.3.1-.3.1-.1.2-.1.3-.1h3.6c.2 0 .3.1.4.2z"/></g><path d="m109.8 2.5c2.3 1 4.3 2.4 6 4.1s3 3.7 4.1 6c1 2.3 1.5 4.8 1.5 7.4v94.8c0 .9-.3 1.6-.9 2.2s-1.3.9-2.2.9h-22.7c-.9 0-1.6-.3-2.1-.9s-.8-1.3-.8-2.2v-86.2h-18.3v86.2c0 .9-.3 1.6-.8 2.2s-1.3.9-2.1.9h-20.6c-.9 0-1.6-.3-2.2-.9s-.9-1.3-.9-2.2v-86.2h-18.3v86.2c0 2.1-1 3.1-3.1 3.1h-22.5c-2.1 0-3.1-1-3.1-3.1v-110.7c0-2.1 1-3.1 3.1-3.1h98.4c2.7 0 5.1.5 7.5 1.5z" fill="#c53c02"/><path d="m109.8 2.5c2.3 1 4.3 2.4 6 4.1s3 3.7 4.1 6c1 2.3 1.5 4.8 1.5 7.4v8.4l-28.7.2h-18.3-26.5-18.3l-28.7-.2v-24.4c0-2.1 1-3.1 3.1-3.1h98.4c2.6.1 5 .6 7.4 1.6z" fill="#751b00"/><g transform="translate(139 1)"><path d="m81.3 88.5c.9 0 1.7.3 2.2.9.6.6.9 1.4.9 2.3v22.1c0 .9-.3 1.6-.9 2.3-.6.6-1.3.9-2.2.9h-77.7c-2.2 0-3.3-1.1-3.3-3.2v-110.6c0-2.1 1.1-3.2 3.3-3.2h23.8c2.2 0 3.3 1.1 3.3 3.2v82.4c0 .9.3 1.6 1 2.2.6.6 1.4.8 2.3.8h47.3z" fill="#265a8f"/><path d="m30.5 116.9h-26.9c-2.2 0-3.3-1.1-3.3-3.2v-110.5c0-2.1 1.1-3.2 3.3-3.2h23.8c2.2 0 3.3 1.1 3.3 3.2v82.4c0 .8-.2 31.3-.2 31.3z" fill="#162f51"/></g><g transform="translate(241 1)"><path d="m98.7 0c.9 0 1.7.3 2.3.9s1 1.4 1 2.3v110.9c0 .9-.3 1.6-1 2.3-.6.6-1.4.9-2.3.9h-24.2c-.9 0-1.7-.3-2.3-.9s-1-1.4-1-2.3v-38.7c0-.9-.3-1.6-.9-2.2s-1.3-.8-2.3-.8h-33.9c-.9 0-1.7.3-2.3.8-.6.6-1 1.3-1 2.2v38.7c0 2.1-1.1 3.2-3.3 3.2h-24c-2.2 0-3.3-1.1-3.3-3.2v-110.9c0-2.1 1.1-3.2 3.3-3.2h24c2.2 0 3.3 1.1 3.3 3.2v37.5c0 2.1 1.1 3.2 3.3 3.2h33.9c.9 0 1.7-.3 2.3-.9s.9-1.4.9-2.3v-37.5c0-.9.3-1.6 1-2.3.6-.6 1.4-.9 2.3-.9z" fill="#fdee00"/><g fill="#ecc700"><path d="m30.9 75.4v38.7c0 2.1-1.1 3.2-3.3 3.2h-24c-2.2 0-3.3-1.1-3.3-3.2v-110.9c0-2.1 1.1-3.2 3.3-3.2h24c2.2 0 3.3 1.1 3.3 3.2v37.5z"/><path d="m98.7 0c.9 0 1.7.3 2.3.9s1 1.4 1 2.3v110.9c0 .9-.3 1.6-1 2.3-.6.6-1.4.9-2.3.9h-24.2c-.9 0-1.7-.3-2.3-.9s-1-1.4-1-2.3v-38.7-34.7-37.5c0-.9.3-1.6 1-2.3.6-.6 1.4-.9 2.3-.9z"/></g></g></g></svg>