<?xml version="1.0" encoding="utf-8"?>
<!-- Generator: Adobe Illustrator 28.3.0, SVG Export Plug-In . SVG Version: 6.00 Build 0)  -->
<svg version="1.1" id="Layer_2_00000114037093422296191420000007079651277179876284_"
	 xmlns="http://www.w3.org/2000/svg" xmlns:xlink="http://www.w3.org/1999/xlink" x="0px" y="0px" viewBox="0 0 1785.2 965.5"
	 style="enable-background:new 0 0 1785.2 965.5;" xml:space="preserve">
<style type="text/css">
	.st0{fill:none;stroke:#231F20;stroke-width:2.0001;stroke-miterlimit:10.0004;}
	.st1{fill:#FF7B25;stroke:#231F20;stroke-width:2;stroke-miterlimit:10;}
	.st2{fill:none;stroke:#231F20;stroke-width:2.0001;stroke-miterlimit:10.0005;}
	.st3{fill:#91CDFF;stroke:#231F20;stroke-width:3;stroke-miterlimit:10;}
	.st4{opacity:0.22;fill:none;stroke:#BE1E2D;stroke-width:3;stroke-miterlimit:10;enable-background:new    ;}
	.st5{opacity:0.34;fill:none;stroke:#262262;stroke-width:3;stroke-miterlimit:10;enable-background:new    ;}
	.st6{fill:#FFFFFF;stroke:#231F20;stroke-width:2;stroke-miterlimit:10;}
	.st7{enable-background:new    ;}
	.st8{fill:#3340C6;}
	.st9{fill:#414042;}
	.st10{fill:none;stroke:#414042;stroke-miterlimit:10;}
	.st11{fill:url(#SVGID_1_);}
	.st12{opacity:0.75;}
	.st13{fill:#424242;stroke:#424242;stroke-width:2;}
	.st14{fill:#FFFFFF;stroke:#000000;stroke-width:2;}
	.st15{fill:#F1FE86;stroke:#231F20;stroke-width:2;stroke-miterlimit:10;}
	.st16{fill:#3340C6;stroke:#231F20;stroke-width:2;stroke-miterlimit:10;}
	.st17{fill:#95FCEC;stroke:#231F20;stroke-width:2;stroke-miterlimit:10;}
	.st18{fill:#FFFFFF;}
	.st19{fill:#231F20;}
	.st20{fill:#F1FE86;stroke:#000000;stroke-width:2;stroke-miterlimit:10;}
	.st21{fill:#95FCEC;stroke:#000000;stroke-width:2;stroke-miterlimit:10;}
</style>
<g id="Layer_1-2">
	
		<ellipse transform="matrix(0.9596 -0.2815 0.2815 0.9596 -167.5085 295.3684)" class="st0" cx="944.3" cy="730.7" rx="177.5" ry="144.9"/>
	<path class="st1" d="M1224.5,850.5c-21.8-14.7-48.5-21.8-74.6-19c-10.1-16.8-27.4-30-45-36.7c-29.4-11.3-62.9-6.1-88,12.5
		c-9.3,6.9,1.7,21.1,11,14.2c32.2-23.9,78.3-17.6,102.8,14.1c-8.5,3-16.4,7.8-21.2,15.6c-6.8,11-6.9,26.8,3.7,35.5
		c9.7,8,23.7,6.1,33.2-0.9c10.6-7.8,14.1-21.7,11.5-34.2c-0.2-0.9-0.4-1.7-0.6-2.6c19.8-0.9,39.7,4.6,56.2,15.7
		C1223.1,871.2,1234.1,856.9,1224.5,850.5L1224.5,850.5z M1128.3,874.1c-6.5-0.1-6.7-8-4.1-12.7c3-5.4,9.1-8.2,15.2-9.8
		c1.1,3.7,1.6,7.4,1.1,11.2C1139.6,868.9,1134.6,874.1,1128.3,874.1L1128.3,874.1z"/>
	
		<ellipse transform="matrix(0.1435 -0.9897 0.9897 0.1435 90.0026 305.976)" class="st2" cx="221.8" cy="101" rx="95.7" ry="222.6"/>
	<path class="st3" d="M127.6,83.1v51.3h29.7c0,0,6.8-15.7,20.3-17.1s33.8-7.1,36.5,17.1s-1.4,37.1-16.2,39.9s-29.5-11.4-29.5-11.4
		l-43.7-2l1.9,84.1l37.2-7.4c0,0,5.8-24.9,21.3-26.1s32.5,13.1,33.3,23.3s0,29.4-19.4,31s-38.3-14.3-34.1-16.7s-35.2,4.9-35.2,4.9
		l4.3,75.5l29,5.7c0,0,12.4-29.4,29.8-26.5s27.5,12.7,29,26.5s-17.8,30.2-27.5,31.4s-25.5-15.9-25.5-15.9l-36.8,1.6l-0.8,74.7h36
		c0,0,13.5-26.5,29.8-22.5c16.2,4.1,23,13.9,24.9,22.5s-1.6,37.2-21.4,35.9s-32.1-18-32.1-18l-36.4-1.2l-1.2,69l38.3,9.4
		c0,0,16.6-24.1,32.9-20s22.1,15.1,22.1,27s-10.4,28.6-22.8,28.2S178,547.2,178,547.2l-43.7-4.9v82.9h37.9c0,0,13.2-27.4,27.1-26.1
		s27.1,13.1,24.8,29.8s-9.7,32.7-22.4,30.6s-27.1-15.1-27.1-15.1l-39.4-0.4l-1.1,81.4h37.8c0,0,10-32.2,28.3-29.3
		s29.4,15.2,28.3,29.3s-11.1,32.8-28.9,31.7s-31.1-17-31.1-17l-34.4,0.6l0.8,70.2c0,0,520.5,2,574.1,0c62.2-2.3,244.2-7.5,270.4-8.9
		c32.1-1.8,589.9,14.3,589.9,14.3s-12.3-389-4.2-421.2c8-32.2,2.1-324.5,2.1-324.5s-1097,30.8-1236,14.8
		C293.7,81,127.6,83.1,127.6,83.1L127.6,83.1z"/>
	<path class="st4" d="M1446.5,73.7c0,0-8.7,390.6-8.9,462.6c-0.2,72-8.3,275.8-8.3,275.8"/>
	<line class="st5" x1="242.1" y1="186.3" x2="1569.1" y2="171.2"/>
	<line class="st5" x1="241.3" y1="291.6" x2="1569.1" y2="276.8"/>
	<line class="st5" x1="235" y1="396.9" x2="1566.5" y2="382.2"/>
	<line class="st5" x1="237.6" y1="492.3" x2="1558.9" y2="487.4"/>
	<path class="st5" d="M236.1,607.7c0,0,1241-18.4,1277.4-16.2"/>
	<line class="st5" x1="241.3" y1="704.7" x2="1575.3" y2="704.7"/>
	<path class="st6" d="M716.2,6.9l356.9,26.8c33.2,2.5,58.1,31.4,55.6,64.6l0,0c-2.5,33.2-31.4,58.1-64.6,55.6l-356.9-26.8
		c-33.2-2.5-58.1-31.4-55.6-64.6l0,0C654,29.3,683,4.4,716.2,6.9z"/>
	<g class="st7">
		<path class="st8" d="M702.6,74.3l5.6,0.4c-0.3,4.4,3.8,8.5,9.8,8.9c4.3,0.3,10.1-1.1,10.5-6c0.3-4.6-4.7-6.4-10.1-8.3
			c-6.7-2.4-14.1-5.8-13.5-13.5c0.7-8.9,9.8-11.1,15.7-10.7c8.4,0.6,14.6,6.8,14.1,13.8l-5.6-0.4c0.3-3.9-3.4-7.7-9-8.1
			c-3.4-0.3-9.2,0.6-9.6,5.4c-0.3,4.5,4.6,6.3,10,8.2c6.7,2.4,14.2,5.8,13.6,13.5c-0.7,9.2-10,11.8-16.7,11.3
			C708.6,88.3,702,81.7,702.6,74.3z"/>
		<path class="st8" d="M738.7,74.5c0.7-8.8,8.1-15.4,16-14.8c4.6,0.3,8.3,3,10.5,6.9l0.4-5.1l4.8,0.4l-2.2,29.9l-4.8-0.4l0.4-5.1
			c-2.8,3.5-6.9,5.6-11.4,5.3C744.4,91,738,83.3,738.7,74.5z M753.1,86.5c5.5,0.4,10.3-4.1,10.7-10.1s-3.6-11.2-9.1-11.6
			S744.5,69,744,74.9C743.6,80.9,747.7,86.1,753.1,86.5z"/>
		<path class="st8" d="M780.4,83.9l1.2-16.3l-6.2-0.5l0.4-4.9l6.2,0.5l0.6-7.9l5.3,0.4l-0.6,7.9l8.2,0.6l-0.4,4.9l-8.2-0.6
			l-1.2,16.3c-0.2,2.2,1.5,4,3.6,4.1l4.3,0.3l-0.4,4.9l-4.3-0.3C783.8,93,780,89,780.4,83.9z"/>
		<path class="st8" d="M801.5,88.3l6,0.4l-5.5,14.7l-4.6-0.3L801.5,88.3z"/>
	</g>
	<g class="st7">
		<path class="st8" d="M842.6,55.3l5.1,0.4l12.9,43.1l-6.1-0.5l-2.9-10l-18.4-1.4l-4.4,9.5l-5.5-0.4L842.6,55.3z M850,82.9L844.3,63
			l-8.7,18.8L850,82.9z"/>
	</g>
	<g class="st7">
		<path class="st8" d="M870.9,95.2l-1.2,16.3l-5.3-0.4l3.1-41.9l4.8,0.4l-0.4,5.1c2.8-3.5,6.9-5.6,11.4-5.2
			c7.9,0.6,14.3,8.2,13.6,17s-8.1,15.4-16,14.8C876.7,100.9,873.1,98.6,870.9,95.2z M880.7,96.1c5.5,0.4,10.3-4.2,10.7-10.1
			c0.4-6-3.6-11.2-9.1-11.6s-10.3,4.1-10.7,10.1S875.3,95.7,880.7,96.1z"/>
	</g>
	<g class="st7">
		<path class="st8" d="M904.1,71.9l4.8,0.4l-0.3,3.8c2.4-2.8,5.8-4.3,9.6-4c0.7,0.1,1.4,0.2,2.1,0.3l-0.4,5.1
			c-1.1-0.3-1.9-0.4-2.9-0.5c-4.3-0.3-8.1,2.3-8.4,5.9l-1.4,19.3l-5.3-0.4L904.1,71.9z"/>
	</g>
	<g class="st7">
		<path class="st8" d="M925.4,73.5l5.3,0.4l-2.2,29.9l-5.3-0.4L925.4,73.5z M929.1,60.5c1.9,0.1,3.2,1.8,3.1,3.8
			c-0.1,2-1.7,3.4-3.6,3.3c-1.9-0.1-3.3-1.8-3.1-3.8C925.6,61.8,927.3,60.3,929.1,60.5z"/>
		<path class="st8" d="M939.8,60.7l5.3,0.4l-3.3,43.8l-5.3-0.4L939.8,60.7z"/>
		<path class="st8" d="M983.2,77.5c0.3-4-2.3-7.5-6.5-7.8c-4.3-0.3-7.3,2.7-7.7,7.5l-5.3-0.4c0.6-8.1,6-13,13.5-12.5
			c7.6,0.6,12.2,6.4,11.7,13.3C988.5,83,985,87,980.6,91l-11.4,10.3l17.9,1.3l-0.4,5.4l-26.3-2l0.3-4.1L977,87
			C980,84.1,982.9,81.4,983.2,77.5z"/>
		<path class="st8" d="M993.1,87.7c1-13.2,7.7-21.4,16.9-20.8c9.2,0.7,14.6,9.9,13.6,23c-1,13.2-7.7,21.4-16.9,20.8
			C997.6,110,992.2,100.8,993.1,87.7z M1007.1,105.3c5.8,0.4,10.1-5.9,10.9-15.8c0.7-9.9-2.6-16.8-8.4-17.2
			c-5.8-0.4-10.1,5.9-10.9,15.8C998,98,1001.3,104.9,1007.1,105.3z"/>
	</g>
	<g class="st7">
		<path class="st8" d="M1032.9,102.9l1.2-16.3l-6.2-0.5l0.4-4.9l6.2,0.5l0.6-7.9l5.3,0.4l-0.6,7.9l8.2,0.6l-0.4,4.9l-8.2-0.6
			l-1.2,16.3c-0.2,2.2,1.5,4,3.6,4.1l4.3,0.3l-0.4,4.9l-4.3-0.3C1036.3,112,1032.5,108,1032.9,102.9z"/>
	</g>
	<g class="st7">
		<path class="st8" d="M1054.5,69.3l5.3,0.4l-1.3,16.9c2.3-2.3,5.4-3.6,9-3.4c6.4,0.5,12.1,6,11.6,12.2l-1.5,19.6l-5.3-0.4l1.4-19.3
			c0.3-3.6-3.1-6.8-7.4-7.1c-4.3-0.3-8.1,2.3-8.4,5.9l-1.4,19.3l-5.3-0.4L1054.5,69.3z"/>
	</g>
	<g>
		<g class="st7">
			<path class="st9" d="M1255.5,633c0.9,4.4,3.1,5.6,7,4.8c7.5-1.5,14.2-9.9,28.8-32.7c2.2-3.3,3.3-5.5,4.2-5.6
				c0.7-0.1,2,0.1,2.2,1.3c0.2,1-0.8,3-3.4,7.1c-11.8,18.3-20.6,31.8-31.4,34c-8.4,1.7-11.7-2.5-12.7-7.7
				c-4.8-24.1,37.5-102.6,46.9-104.5c2.6-0.5,5.9,2,6.9,7c2.5,12.6-26.3,61.9-48.5,89.9C1255.3,628.4,1255.2,631.4,1255.5,633z
				 M1298.9,536.8c-0.2-0.9-0.4-1.2-0.8-1.1c-4.1,0.8-34.8,53.3-41.4,83C1278.6,587,1300.5,544.8,1298.9,536.8z"/>
			<path class="st9" d="M1296,635.1c-4.8,1-7.4-2.6-8.2-6.5c-2.5-12.5,8.8-35.8,11.9-36.4c1.9-0.4,3.2,0.8,3.5,2.5
				c0.2,1.2,0.3,2.3-3.1,8.3c-3.7,6.4-8.6,18.9-7.6,23.9c0.5,2.6,2,3.1,3.4,2.9c6.3-1.3,19.5-20.6,25.8-30.7
				c2.1-3.4,3.5-5.5,4.2-5.6s2,0.1,2.2,1.3c0.2,1-0.6,2.4-3.4,7.1C1318.3,611.9,1304,633.5,1296,635.1z M1308.9,558.7
				c-0.6-2.9,0.7-6.3,4.3-7.1c2.2-0.4,4.7,0.6,5.4,3.9c0.6,3.1-0.6,6.5-4.1,7.2C1311.3,563.4,1309.5,561.3,1308.9,558.7z"/>
			<path class="st9" d="M1327.9,572c-4.1,0.8-10.2,2.4-14.8,3.3c-2,0.4-2.9-0.1-3.1-1.2c-0.4-1.9,1-2.9,2.7-3.2
				c3.6-0.7,12.6-2.5,23.3-4.8c4.2-9,8.7-17.9,12.5-25.6c3.2-6.3,4.6-8,5.6-8.2c0.9-0.2,1.7,0.4,2.1,1.9c0.6,0.4,0.9,0.9,1,1.4
				c0.2,1.2,0.1,2.3-3.5,8.3c-2.9,5-6.9,12.4-11,20.6c8.7-1.7,17.9-3.8,25.7-5.3c1.7-0.3,2.9-0.6,3.2,1c0.4,2-0.6,3-3.4,3.5
				c-3.8,0.8-14.6,3.1-28.1,5.8c-10,20.8-20.1,44.8-18.8,51.5c0.6,2.9,2.3,4.2,4.6,3.7c2.9-0.6,9.2-2.6,20.4-13.1c3-2.9,5-4.9,5.4-5
				c0.5-0.1,1.1,0,1.3,1.2c0.5,2.4-3.1,6.7-6.8,9.7c-8.3,7.2-15.9,10.8-19.7,11.6c-4.1,0.8-8.6-0.2-9.9-6.9
				c-1.7-8.7,6.8-29.9,16.7-51.3L1327.9,572z"/>
			<path class="st9" d="M1353.2,612.3c0.8,4.1,3.7,6.2,9,5.1c13.8-2.8,26-18.2,27.4-18.4c0.7-0.1,1.1,0.3,1.3,1.2
				c1,4.8-15.4,19-29.2,21.8c-7.8,1.6-12.2-3.2-13.2-8.4c-3-15.2,13.7-44.1,23.3-46c3.9-0.8,6.9,1.5,7.5,4.9
				c1,5.1-2.2,19.1-26.3,38.8L1353.2,612.3z M1374.8,573.8c-0.3-1.4-1.1-1.7-2.4-1.5c-4.3,0.9-17.7,20.4-19.4,34.4
				C1372.1,588.8,1375.7,578.2,1374.8,573.8z"/>
		</g>
		<g class="st7">
			<path class="st10" d="M1255.5,633c0.9,4.4,3.1,5.6,7,4.8c7.5-1.5,14.2-9.9,28.8-32.7c2.2-3.3,3.3-5.5,4.2-5.6
				c0.7-0.1,2,0.1,2.2,1.3c0.2,1-0.8,3-3.4,7.1c-11.8,18.3-20.6,31.8-31.4,34c-8.4,1.7-11.7-2.5-12.7-7.7
				c-4.8-24.1,37.5-102.6,46.9-104.5c2.6-0.5,5.9,2,6.9,7c2.5,12.6-26.3,61.9-48.5,89.9C1255.3,628.4,1255.2,631.4,1255.5,633z
				 M1298.9,536.8c-0.2-0.9-0.4-1.2-0.8-1.1c-4.1,0.8-34.8,53.3-41.4,83C1278.6,587,1300.5,544.8,1298.9,536.8z"/>
			<path class="st10" d="M1296,635.1c-4.8,1-7.4-2.6-8.2-6.5c-2.5-12.5,8.8-35.8,11.9-36.4c1.9-0.4,3.2,0.8,3.5,2.5
				c0.2,1.2,0.3,2.3-3.1,8.3c-3.7,6.4-8.6,18.9-7.6,23.9c0.5,2.6,2,3.1,3.4,2.9c6.3-1.3,19.5-20.6,25.8-30.7
				c2.1-3.4,3.5-5.5,4.2-5.6s2,0.1,2.2,1.3c0.2,1-0.6,2.4-3.4,7.1C1318.3,611.9,1304,633.5,1296,635.1z M1308.9,558.7
				c-0.6-2.9,0.7-6.3,4.3-7.1c2.2-0.4,4.7,0.6,5.4,3.9c0.6,3.1-0.6,6.5-4.1,7.2C1311.3,563.4,1309.5,561.3,1308.9,558.7z"/>
			<path class="st10" d="M1327.9,572c-4.1,0.8-10.2,2.4-14.8,3.3c-2,0.4-2.9-0.1-3.1-1.2c-0.4-1.9,1-2.9,2.7-3.2
				c3.6-0.7,12.6-2.5,23.3-4.8c4.2-9,8.7-17.9,12.5-25.6c3.2-6.3,4.6-8,5.6-8.2c0.9-0.2,1.7,0.4,2.1,1.9c0.6,0.4,0.9,0.9,1,1.4
				c0.2,1.2,0.1,2.3-3.5,8.3c-2.9,5-6.9,12.4-11,20.6c8.7-1.7,17.9-3.8,25.7-5.3c1.7-0.3,2.9-0.6,3.2,1c0.4,2-0.6,3-3.4,3.5
				c-3.8,0.8-14.6,3.1-28.1,5.8c-10,20.8-20.1,44.8-18.8,51.5c0.6,2.9,2.3,4.2,4.6,3.7c2.9-0.6,9.2-2.6,20.4-13.1c3-2.9,5-4.9,5.4-5
				c0.5-0.1,1.1,0,1.3,1.2c0.5,2.4-3.1,6.7-6.8,9.7c-8.3,7.2-15.9,10.8-19.7,11.6c-4.1,0.8-8.6-0.2-9.9-6.9
				c-1.7-8.7,6.8-29.9,16.7-51.3L1327.9,572z"/>
			<path class="st10" d="M1353.2,612.3c0.8,4.1,3.7,6.2,9,5.1c13.8-2.8,26-18.2,27.4-18.4c0.7-0.1,1.1,0.3,1.3,1.2
				c1,4.8-15.4,19-29.2,21.8c-7.8,1.6-12.2-3.2-13.2-8.4c-3-15.2,13.7-44.1,23.3-46c3.9-0.8,6.9,1.5,7.5,4.9
				c1,5.1-2.2,19.1-26.3,38.8L1353.2,612.3z M1374.8,573.8c-0.3-1.4-1.1-1.7-2.4-1.5c-4.3,0.9-17.7,20.4-19.4,34.4
				C1372.1,588.8,1375.7,578.2,1374.8,573.8z"/>
		</g>
	</g>
	<path class="st9" d="M1256.8,651.5c17.8-4,35.6-8.1,53.4-12.1s35.6-8.1,53.4-12.1c10.1-2.3,20.1-4.6,30.2-6.9l-1.9-4.6
		c-16.2,7.8-32.4,15.5-48.7,23.3c-4.7,2.2-9.3,4.5-14,6.7c-2.6,1.2-0.8,5.4,1.9,4.6c18.8-5.6,37.7-11.3,56.5-16.9
		c3.1-0.9,1.8-5.8-1.3-4.8c-18.8,5.6-37.7,11.3-56.5,16.9l1.9,4.6c16.2-7.8,32.4-15.5,48.7-23.3c4.7-2.2,9.3-4.5,14-6.7
		c2.7-1.3,0.7-5.2-1.9-4.6c-17.8,4-35.6,8.1-53.4,12.1s-35.6,8.1-53.4,12.1c-10.1,2.3-20.1,4.6-30.2,6.9
		C1252.3,647.4,1253.6,652.3,1256.8,651.5L1256.8,651.5z"/>
	
		<linearGradient id="SVGID_1_" gradientUnits="userSpaceOnUse" x1="1391.78" y1="742.7" x2="1453.08" y2="742.7" gradientTransform="matrix(1 0 0 1 0 -112)">
		<stop  offset="0" style="stop-color:#414042"/>
		<stop  offset="6.000000e-02" style="stop-color:#414042"/>
		<stop  offset="9.000000e-02" style="stop-color:#FDE815"/>
		<stop  offset="0.66" style="stop-color:#FDE923"/>
		<stop  offset="0.69" style="stop-color:#FE00AD"/>
	</linearGradient>
	<path class="st11" d="M1397.4,625h49.9c3.1,0,5.7,2.5,5.7,5.7l0,0c0,3.1-2.5,5.7-5.7,5.7h-49.9c-3.1,0-5.7-2.5-5.7-5.7l0,0
		C1391.8,627.6,1394.3,625,1397.4,625z"/>
	<g id="Sx2ID5.tif">
		
			<image style="overflow:visible;enable-background:new    ;" width="448" height="585" xlink:href="F8604B9B63045B06.png"  transform="matrix(0.887 0 0 0.887 1386.1915 443.9819)">
		</image>
	</g>
	<path class="st9" d="M1386.8,631.9l8.9,4.2c1.1,0.5,2.3-0.3,2.3-1.4l0.2-8c0-1.2-1.2-2-2.2-1.5l-9.1,3.8
		C1385.5,629.5,1385.5,631.3,1386.8,631.9L1386.8,631.9z"/>
	<g>
		<g class="st12">
			<path class="st13" d="M284.5,288.7h-42v-21.8h110.2v21.8h-42V388h-26.2V288.7z"/>
			<path class="st13" d="M391.5,266.9h23.6L467.3,388H439l-9.9-24.2h-54.2l-9.9,24.2h-25.5L391.5,266.9z M420.6,343l-18.7-46
				l-18.6,46H420.6z"/>
			<path class="st13" d="M479.1,266.9h36.7l32.4,67.5l32.2-67.5h38.1V388h-26.2v-91.2l-33,67h-23.6l-33-67V388h-23.6V266.9z"/>
			<path class="st13" d="M640.5,342.5v-75.6h26.2v75.6c0,14.7,14.2,26.5,31.9,26.5c17.4,0,31.7-11.8,31.7-26.5v-75.6h26.2v75.6
				c0,26.6-26.1,48.3-57.9,48.3C666.6,390.8,640.5,369.1,640.5,342.5z"/>
			<path class="st13" d="M251.1,474.5h45.6c42.4,0,69.9,27.2,69.9,60.6s-27.6,60.6-69.9,60.6h-45.6V474.5z M340.3,535
				c0-21.5-15.7-38.8-43.7-38.8h-19.3v77.5h19.3C324.6,573.8,340.3,556.5,340.3,535z"/>
			<path class="st13" d="M418.1,474.5h23.6l52.1,121.1h-28.3l-9.9-24.2h-54.2l-9.9,24.2H366L418.1,474.5z M447.2,550.6l-18.7-46
				l-18.6,46H447.2z"/>
			<path class="st13" d="M522.6,496.3h-42v-21.8h110.2v21.8h-42v99.3h-26.2V496.3z"/>
			<path class="st13" d="M629.6,474.5h23.6l52.1,121.1h-28.3l-9.9-24.2h-54.2l-9.9,24.2h-25.5L629.6,474.5z M658.7,550.6l-18.7-46
				l-18.6,46H658.7z"/>
			<path class="st13" d="M734.1,496.3h-42v-21.8h110.2v21.8h-42v99.3h-26.2V496.3z"/>
			<path class="st13" d="M904.9,545.9h-63.7v49.7h-26.2V474.5h26.2v49.7h63.7v-49.7h26.2v121.1h-26.2V545.9z"/>
			<path class="st13" d="M948.5,535c0-34.9,31.3-63.3,69.9-63.3s69.9,28.4,69.9,63.3c0,34.9-31.3,63.3-69.9,63.3
				S948.5,570,948.5,535z M1018.5,576.6c24.2,0,43.7-18.5,43.7-41.5c0-23-19.5-41.5-43.7-41.5S974.8,512,974.8,535
				C974.8,558.1,994.3,576.6,1018.5,576.6z"/>
			<path class="st13" d="M1129.5,512.4v83.2h-23.6V474.5h23.6l69,83.2v-83.2h23.6v121.1h-23.6L1129.5,512.4z"/>
		</g>
		<g>
			<g>
				<path class="st14" d="M275.5,282.7h-42v-21.8h110.2v21.8h-42V382h-26.2V282.7z"/>
				<path class="st14" d="M382.5,260.9h23.6L458.3,382H430l-9.9-24.2h-54.2l-9.9,24.2h-25.5L382.5,260.9z M411.6,337l-18.7-46
					l-18.6,46H411.6z"/>
				<path class="st14" d="M470.1,260.9h36.7l32.4,67.5l32.2-67.5h38.1V382h-26.2v-91.2l-33,67h-23.6l-33-67V382h-23.6V260.9z"/>
				<path class="st14" d="M631.5,336.5v-75.6h26.2v75.6c0,14.7,14.2,26.5,31.9,26.5c17.4,0,31.7-11.8,31.7-26.5v-75.6h26.2v75.6
					c0,26.6-26.1,48.3-57.9,48.3C657.6,384.8,631.5,363.1,631.5,336.5z"/>
				<path class="st14" d="M242.1,468.5h45.6c42.4,0,69.9,27.2,69.9,60.6s-27.6,60.6-69.9,60.6h-45.6V468.5z M331.3,529
					c0-21.5-15.7-38.8-43.7-38.8h-19.3v77.5h19.3C315.6,567.8,331.3,550.5,331.3,529z"/>
				<path class="st14" d="M409.1,468.5h23.6l52.1,121.1h-28.3l-9.9-24.2h-54.2l-9.9,24.2H357L409.1,468.5z M438.2,544.6l-18.7-46
					l-18.6,46H438.2z"/>
				<path class="st14" d="M513.6,490.3h-42v-21.8h110.2v21.8h-42v99.3h-26.2V490.3z"/>
				<path class="st14" d="M620.6,468.5h23.6l52.1,121.1h-28.3l-9.9-24.2h-54.2l-9.9,24.2h-25.5L620.6,468.5z M649.7,544.6l-18.7-46
					l-18.6,46H649.7z"/>
				<path class="st14" d="M725.1,490.3h-42v-21.8h110.2v21.8h-42v99.3h-26.2V490.3z"/>
				<path class="st14" d="M895.9,539.9h-63.7v49.7h-26.2V468.5h26.2v49.7h63.7v-49.7h26.2v121.1h-26.2V539.9z"/>
				<path class="st14" d="M939.5,529c0-34.9,31.3-63.3,69.9-63.3s69.9,28.4,69.9,63.3c0,34.9-31.3,63.3-69.9,63.3
					S939.5,564,939.5,529z M1009.5,570.6c24.2,0,43.7-18.5,43.7-41.5c0-23-19.5-41.5-43.7-41.5S965.8,506,965.8,529
					C965.8,552.1,985.3,570.6,1009.5,570.6z"/>
				<path class="st14" d="M1120.5,506.4v83.2h-23.6V468.5h23.6l69,83.2v-83.2h23.6v121.1h-23.6L1120.5,506.4z"/>
			</g>
		</g>
	</g>
</g>
<g id="Layer_2-2">
	<path class="st15" d="M1427.7,285.2c0-68.4-10.4-88.5-45.7-88.5c35.3,0,45.7-20.1,45.7-88.5c0,68.4,10.4,88.5,45.7,88.5
		C1438.1,196.7,1427.7,216.7,1427.7,285.2z"/>
	<path class="st15" d="M1427.7,285.2c0-68.4-10.4-88.5-45.7-88.5c35.3,0,45.7-20.1,45.7-88.5c0,68.4,10.4,88.5,45.7,88.5
		C1438.1,196.7,1427.7,216.7,1427.7,285.2z"/>
	<path class="st16" d="M144.7,809.4c0-38.2-22.4-66.8-52.2-66.8c29.8,0,52.2-28.6,52.2-66.8c0,38.2,22.4,66.8,52.2,66.8
		C167,742.6,144.7,771.3,144.7,809.4L144.7,809.4z"/>
	<path class="st16" d="M144.7,809.4c0-38.2-22.4-66.8-52.2-66.8c29.8,0,52.2-28.6,52.2-66.8c0,38.2,22.4,66.8,52.2,66.8
		C167,742.6,144.7,771.3,144.7,809.4L144.7,809.4z"/>
	<path class="st17" d="M1293.2,338.3c0-23.8-15.9-41.6-37.1-41.6c21.2,0,37.1-17.8,37.1-41.6c0,23.8,15.9,41.6,37.1,41.6
		C1309.1,296.7,1293.2,314.5,1293.2,338.3z"/>
	<path class="st17" d="M1293.2,338.3c0-23.8-15.9-41.6-37.1-41.6c21.2,0,37.1-17.8,37.1-41.6c0,23.8,15.9,41.6,37.1,41.6
		C1309.1,296.7,1293.2,314.5,1293.2,338.3z"/>
	<path class="st6" d="M1656.4,193.6c-36.8-4.5-74.8,7.5-102.7,31.9c-20.9,18.3-36.8,44.8-42.3,72.6c-9.1,0.2-18.2,1.6-26.7,4.1
		c-39.5,11.7-67,47.2-70.4,88c-0.5,5.7,5.2,10.5,10.5,10.5c6.1,0,10-4.8,10.5-10.5c2.2-26,18.2-49.9,41.2-62.1
		c10.1-5.4,21.5-8.3,32.9-8.9c0.3,16.7,7.6,33.9,24.6,39.3c15.9,5,34.4-3.4,36.2-21.1c1.8-17.9-16-31.5-31.4-35.9
		c-2-0.6-4-1.1-6.1-1.5c5.1-22.5,17.8-43.2,34.8-58.6c24.1-21.6,57.2-30.7,89-26.8c5.6,0.7,10.5-5.3,10.5-10.5
		C1666.9,197.9,1662.1,194.3,1656.4,193.6L1656.4,193.6z M1547.8,331.3c1.1,1.6,1.8,3.2,1.6,4.6c0-0.2-0.6,1.3-0.5,1.1
		c-0.3,0.5-0.6,0.8-0.7,0.8c-1.3,0.7,0.4,0.1-1.3,0.7c-0.4,0.1-2.9,0.6-1.6,0.4c-2.9,0.3-3.5,0.2-6.3-0.8c-0.5-0.2-2.7-1.5-3.6-2.5
		c-1.7-2-2.9-4.3-3.7-6.9c-0.8-2.5-1.2-5.1-1.3-7.8C1537.3,322.6,1543.7,325.6,1547.8,331.3L1547.8,331.3z"/>
	<path class="st1" d="M308.4,154.3c-23.5-11.8-50.8-15.5-76.4-9.4c-12.2-15.4-30.9-26.3-49.3-30.8c-30.6-7.5-63.1,1.9-85.8,23.6
		c-8.4,8,4.4,20.8,12.7,12.7c29-27.8,75.5-27.3,103.8,1c-8.1,4.1-15.3,9.8-19.1,18.2c-5.3,11.8-3.4,27.4,8.2,34.8
		c10.6,6.7,24.2,3.1,32.9-5.1c9.6-9.1,11.2-23.3,7.1-35.4c-0.3-0.8-0.6-1.7-0.9-2.5c19.5-3.4,40-0.5,57.7,8.5
		C309.7,175,318.8,159.5,308.4,154.3L308.4,154.3z M216.1,189.9c-6.5,0.8-7.6-7.1-5.6-12.1c2.2-5.7,8-9.2,13.9-11.6
		c1.6,3.5,2.6,7.2,2.5,11C226.6,183.3,222.2,189.1,216.1,189.9L216.1,189.9z"/>
	<path class="st18" d="M212.1,873.3c-14.5,0-28.6-2.3-42-6.8c-6.6-2.2-10-7.6-8.8-13.6c1.1-5,6.1-9.3,11-9.3c0.9,0,1.8,0.2,2.7,0.4
		c12.2,4.2,24.9,6.2,37.7,6.2c19.4,0,38-4.9,54-14.2c19.8-11.5,35.8-28.8,45.2-48.8c-1.7-0.8-3.3-1.5-4.8-2.3
		c-7.8-4.1-14.9-10.5-19.5-17.5c-5.5-8.4-7-17.2-4.5-25.3c3.5-11,13.3-17.9,25.6-17.9c5.4,0,10.8,1.4,15.6,4.1
		c16.3,9.1,19.3,28.3,16.7,43.5c3.9,0.6,7.8,0.8,11.6,0.8c7.2,0,14.3-1,21-2.9c24.9-7.2,44.9-27,52.3-51.7c1.6-5.5,6-9.1,11.2-9.1
		c0.8,0,1.6,0.1,2.4,0.2c3.1,0.6,6,2.8,7.7,5.7c1.5,2.6,2,5.4,1.2,8c-5.9,19.6-17.2,36.8-32.8,49.7c-15.8,13.2-34.8,21-55,22.6
		c-2.7,0.2-5.5,0.3-8.3,0.3c-6.1,0-12.2-0.5-18.2-1.6c-11,25.5-31.5,48.1-56.4,62.1C258,867.4,235.3,873.3,212.1,873.3L212.1,873.3
		L212.1,873.3z M305.3,748.8c-0.3,1-0.1,2.3,0.6,3.9c2.2,5.1,6.6,9.3,13.1,12.6c0.2-2.2,0.3-4.3,0.1-6.3c-0.2-2.6-0.9-4.9-2.1-7.1
		c-0.5-1-2.2-2.5-2.6-2.8c-2.3-1.4-2.7-1.7-5-1.9c-0.2,0-0.5,0-0.7,0H308c-0.2,0-0.5,0-0.5,0h-0.4c-0.2,0.1-0.5,0.2-0.7,0.3
		c-0.1,0-0.2,0.1-0.4,0.3C305.8,748.1,305.6,748.5,305.3,748.8L305.3,748.8z"/>
	<path class="st19" d="M437.4,710c0.7,0,1.5,0.1,2.2,0.2c5.2,1.1,9.8,7,8.1,12.4c-11.7,39.1-45.9,68.3-87,71.7
		c-2.7,0.2-5.4,0.3-8.2,0.3c-6.3,0-12.6-0.6-18.8-1.7c-11.1,26.1-32.1,48.8-56.3,62.3c-19.9,11.2-42.6,17-65.4,17
		c-14.1,0-28.2-2.2-41.7-6.8c-5.4-1.8-9.4-6.3-8.1-12.4c0.9-4.3,5.4-8.5,10-8.5c0.8,0,1.6,0.1,2.4,0.4c12.3,4.2,25.2,6.3,38,6.3
		c19,0,37.9-4.7,54.5-14.3c19.8-11.5,36.5-29.2,46.1-50.2c-1.9-0.8-3.8-1.7-5.7-2.7c-14.2-7.5-28.8-24.4-23.4-41.6
		c3.6-11.5,13.9-17.2,24.6-17.2c5.1,0,10.4,1.3,15.1,3.9c15.6,8.7,19.2,27.1,16,43.5c4.2,0.7,8.5,1,12.8,1c7.2,0,14.4-1,21.3-3
		c25-7.2,45.5-27.4,53-52.3C428.6,713.6,432.4,710,437.4,710 M308.7,746.1c-0.2,0-0.4,0-0.6,0c-0.3,0-0.6,0-0.8,0
		c-1.8,0.2,0.1,0-1.4,0.4c0,0-0.4,0.2-0.8,0.6l0,0c0,0-0.6,1-0.7,1l0,0c-0.5,1.4-0.2,3.1,0.6,4.9c2.8,6.4,8.5,10.7,14.9,13.7
		c0.4-2.6,0.5-5.3,0.3-7.9c-0.2-2.7-0.9-5.2-2.2-7.5c-0.6-1.2-2.5-2.9-3-3.2c-2.5-1.6-3-1.8-6-2.1
		C309.7,746.1,309.3,746.1,308.7,746.1 M437.4,708L437.4,708c-5.6,0-10.4,3.8-12.1,9.8c-7.3,24.4-27.1,43.9-51.6,51
		c-6.6,1.9-13.6,2.9-20.7,2.9c-3.5,0-7-0.2-10.5-0.7c1.3-8.4,0.8-16.5-1.4-23.5c-2.8-8.8-8.3-15.7-16-20c-4.9-2.8-10.5-4.2-16.1-4.2
		c-12.8,0-22.9,7.1-26.5,18.6c-2.6,8.4-1.1,17.5,4.6,26.1c4.6,7.2,11.9,13.7,19.8,17.8c1.2,0.7,2.5,1.3,3.9,1.9
		c-9.4,19.5-25.1,36.3-44.4,47.5c-15.8,9.2-34.4,14-53.5,14c-12.7,0-25.3-2.1-37.4-6.2c-1-0.3-2-0.5-3-0.5c-5.4,0-10.9,4.6-12,10.1
		c-1.4,6.5,2.3,12.3,9.4,14.7c13.5,4.6,27.7,6.9,42.3,6.9c23.3,0,46.3-6,66.4-17.3c24.8-14,45.3-36.4,56.5-61.8
		c5.8,1,11.7,1.5,17.6,1.5c2.8,0,5.6-0.1,8.4-0.3c20.4-1.7,39.6-9.6,55.6-22.9c15.7-13.1,27.2-30.5,33.1-50.2c0.9-2.8,0.4-6-1.3-8.8
		c-1.9-3.2-5-5.5-8.4-6.2C439.1,708.1,438.2,708,437.4,708L437.4,708L437.4,708z M308.7,748.1c0.2,0,0.4,0,0.6,0
		c2.1,0.2,2.5,0.4,4.5,1.8c0.4,0.3,1.9,1.7,2.3,2.4c1.1,2.1,1.8,4.3,2,6.7c0.1,1.5,0.1,3,0,4.6c-5.5-3.1-9.4-6.9-11.4-11.4
		c-0.5-1.2-0.8-2.2-0.6-3c0.2-0.3,0.4-0.6,0.6-0.8c0.2-0.1,0.4-0.1,0.6-0.2h0.2c0.1,0,0.2,0,0.4,0h0.5L308.7,748.1L308.7,748.1
		L308.7,748.1z"/>
	<path class="st17" d="M384.8,141.2c0-43.4-9.4-56.2-41.3-56.2c31.9,0,41.3-12.8,41.3-56.2c0,43.4,9.4,56.2,41.3,56.2
		C394.2,85,384.8,97.8,384.8,141.2z"/>
	<path class="st17" d="M384.8,141.2c0-43.4-9.4-56.2-41.3-56.2c31.9,0,41.3-12.8,41.3-56.2c0,43.4,9.4,56.2,41.3,56.2
		C394.2,85,384.8,97.8,384.8,141.2z"/>
</g>
<g id="Layer_4">
	<path class="st20" d="M619,673.7V691l-1.6,52.6h66.7h44h62.2h43.2l-8-69.9c0,0-110.5,3.9-131,0S619,673.7,619,673.7L619,673.7z"/>
	<path class="st21" d="M1163.3,673.7l1.9,69.9h-78h-51.5h-72.8h-50.5l9.4-69.9c0,0,129.3,3.9,153.3,0
		C1099,669.8,1163.3,673.7,1163.3,673.7L1163.3,673.7z"/>
	<g class="st7">
		<path class="st19" d="M666.5,695.9h5.3l11.7,27.3h-6.4l-2.2-5.5h-12.2l-2.2,5.5h-5.7L666.5,695.9z M673,713l-4.2-10.4l-4.2,10.4
			H673z"/>
	</g>
	<g class="st7">
		<path class="st19" d="M686.2,695.9H700c5.6,0,10.2,4.3,10.2,9.5c0,5.3-4.6,9.5-10.2,9.5h-8v8.3h-5.9v-27.3H686.2z M704.4,705.4
			c0-2.5-1.9-4.6-4.3-4.6h-8v9.2h8C702.4,710,704.4,707.9,704.4,705.4z"/>
		<path class="st19" d="M713.1,695.9H727c5.6,0,10.2,4.3,10.2,9.5c0,5.3-4.6,9.5-10.2,9.5h-8v8.3h-5.9V695.9z M731.3,705.4
			c0-2.5-1.9-4.6-4.3-4.6h-8v9.2h8C729.3,710,731.3,707.9,731.3,705.4z"/>
	</g>
	<g class="st7">
		<path class="st19" d="M740.8,695.9h5.9v22.4H761v4.9h-20.2V695.9z"/>
	</g>
	<g class="st7">
		<path class="st19" d="M768,712.6l-10.7-16.8h6.4l7.4,12.1l7.4-12.1h6.1l-10.7,16.8v10.5H768V712.6z"/>
	</g>
	<g class="st7">
		<path class="st19" d="M947.9,695.9h10.2c9.5,0,15.7,6.1,15.7,13.7s-6.2,13.7-15.7,13.7h-10.2V695.9z M967.9,709.5
			c0-4.8-3.5-8.7-9.8-8.7h-4.3v17.5h4.3C964.4,718.3,967.9,714.4,967.9,709.5z"/>
		<path class="st19" d="M977.7,695.9h5.9v27.3h-5.9V695.9z"/>
		<path class="st19" d="M987.5,714.8h5.9c0,2.3,2.6,4.3,6.6,4.3c2.8,0,6.1-1.1,6.1-3.4c0-2.3-3.2-3.1-6.8-4c-5-1.2-11-3.3-11-8.5
			c0-6,6.9-8,11.5-8c6.5,0,11.6,3.8,11.6,8.5h-5.9c0-1.9-2.1-3.8-5.9-3.8c-2.3,0-5.4,0.7-5.4,2.9s3.1,3,6.8,3.9
			c5,1.2,11.1,3.4,11.1,8.5c0,6.1-6.9,8.4-12.1,8.4C992.9,723.8,987.5,719.7,987.5,714.8z"/>
		<path class="st19" d="M1014.2,709.5c0-7.9,7.1-14.3,15.7-14.3c7,0,12.9,4.3,14.7,10.2h-5.9c-1.6-3.1-4.9-5.3-8.8-5.3
			c-5.4,0-9.8,4.2-9.8,9.4s4.4,9.4,9.8,9.4c3.9,0,7.2-2.2,8.8-5.3h5.9c-1.9,5.9-7.8,10.3-14.8,10.3
			C1021.3,723.8,1014.2,717.4,1014.2,709.5z"/>
		<path class="st19" d="M1046.8,709.5c0-7.9,7-14.3,15.7-14.3s15.7,6.4,15.7,14.3c0,7.9-7,14.3-15.7,14.3
			C1053.9,723.8,1046.8,717.4,1046.8,709.5z M1062.6,718.9c5.4,0,9.8-4.2,9.8-9.4s-4.4-9.4-9.8-9.4s-9.8,4.2-9.8,9.4
			S1057.1,718.9,1062.6,718.9z"/>
		<path class="st19" d="M1082.2,695.9h14.2c5.4,0,9.9,4.1,9.9,9.1c0,3.7-2.4,6.9-5.9,8.3l6.5,9.8h-6.5l-6.1-9h-6.3v9h-5.9v-27.2
			H1082.2z M1096.4,709.2c2.2,0,4-1.9,4-4.2s-1.8-4.2-4-4.2h-8.3v8.4H1096.4z"/>
		<path class="st19" d="M1110.6,695.9h10.2c9.5,0,15.7,6.1,15.7,13.7s-6.2,13.7-15.7,13.7h-10.2V695.9z M1130.7,709.5
			c0-4.8-3.5-8.7-9.8-8.7h-4.3v17.5h4.3C1127.1,718.3,1130.7,714.4,1130.7,709.5z"/>
	</g>
</g>
</svg>
