<svg xmlns="http://www.w3.org/2000/svg" xmlns:xlink="http://www.w3.org/1999/xlink" xml:space="preserve" id="Layer_2_00000114037093422296191420000007079651277179876284_" x="0" y="0" version="1.1" viewBox="0 0 1785.2 965.5"><style>.st1{fill:#ff7b25;stroke:#231f20;stroke-width:2}.st1,.st5,.st6{stroke-miterlimit:10}.st5{opacity:.34;fill:none;stroke:#262262;stroke-width:3;enable-background:new}.st6{fill:#fff;stroke:#231f20;stroke-width:2}.st7{enable-background:new}.st8{fill:#3340c6}.st9{fill:#414042}.st10{fill:none;stroke:#414042;stroke-miterlimit:10}.st13,.st14{fill:#424242;stroke:#424242;stroke-width:2}.st14{fill:#fff;stroke:#000}.st15,.st16,.st17{fill:#f1fe86;stroke:#231f20;stroke-width:2;stroke-miterlimit:10}.st16,.st17{fill:#3340c6}.st17{fill:#95fcec}</style><g id="Layer_1-2"><ellipse cx="944.3" cy="730.7" rx="177.5" ry="144.9" style="fill:none;stroke:#231f20;stroke-width:2.0001;stroke-miterlimit:10.0004" transform="rotate(-16.349 944.301 730.705)"/><path d="M1224.5 850.5c-21.8-14.7-48.5-21.8-74.6-19-10.1-16.8-27.4-30-45-36.7-29.4-11.3-62.9-6.1-88 12.5-9.3 6.9 1.7 21.1 11 14.2 32.2-23.9 78.3-17.6 102.8 14.1-8.5 3-16.4 7.8-21.2 15.6-6.8 11-6.9 26.8 3.7 35.5 9.7 8 23.7 6.1 33.2-.9 10.6-7.8 14.1-21.7 11.5-34.2-.2-.9-.4-1.7-.6-2.6 19.8-.9 39.7 4.6 56.2 15.7 9.6 6.5 20.6-7.8 11-14.2zm-96.2 23.6c-6.5-.1-6.7-8-4.1-12.7 3-5.4 9.1-8.2 15.2-9.8 1.1 3.7 1.6 7.4 1.1 11.2-.9 6.1-5.9 11.3-12.2 11.3z" class="st1"/><ellipse cx="221.8" cy="101" rx="95.7" ry="222.6" style="fill:none;stroke:#231f20;stroke-width:2.0001;stroke-miterlimit:10.0005" transform="rotate(-81.75 221.76 100.986)"/><path d="M127.6 83.1v51.3h29.7s6.8-15.7 20.3-17.1 33.8-7.1 36.5 17.1-1.4 37.1-16.2 39.9-29.5-11.4-29.5-11.4l-43.7-2 1.9 84.1 37.2-7.4s5.8-24.9 21.3-26.1 32.5 13.1 33.3 23.3 0 29.4-19.4 31-38.3-14.3-34.1-16.7-35.2 4.9-35.2 4.9l4.3 75.5 29 5.7s12.4-29.4 29.8-26.5 27.5 12.7 29 26.5-17.8 30.2-27.5 31.4-25.5-15.9-25.5-15.9l-36.8 1.6-.8 74.7h36s13.5-26.5 29.8-22.5c16.2 4.1 23 13.9 24.9 22.5s-1.6 37.2-21.4 35.9-32.1-18-32.1-18l-36.4-1.2-1.2 69 38.3 9.4s16.6-24.1 32.9-20 22.1 15.1 22.1 27-10.4 28.6-22.8 28.2-23.3-10.1-23.3-10.1l-43.7-4.9v82.9h37.9s13.2-27.4 27.1-26.1 27.1 13.1 24.8 29.8-9.7 32.7-22.4 30.6-27.1-15.1-27.1-15.1l-39.4-.4-1.1 81.4h37.8s10-32.2 28.3-29.3 29.4 15.2 28.3 29.3-11.1 32.8-28.9 31.7-31.1-17-31.1-17l-34.4.6.8 70.2s520.5 2 574.1 0c62.2-2.3 244.2-7.5 270.4-8.9 32.1-1.8 589.9 14.3 589.9 14.3s-12.3-389-4.2-421.2c8-32.2 2.1-324.5 2.1-324.5s-1097 30.8-1236 14.8c-37.5-4.4-203.6-2.3-203.6-2.3z" style="fill:#91cdff;stroke:#231f20;stroke-width:3;stroke-miterlimit:10"/><path d="M1446.5 73.7s-8.7 390.6-8.9 462.6-8.3 275.8-8.3 275.8" style="opacity:.22;fill:none;stroke:#be1e2d;stroke-width:3;stroke-miterlimit:10"/><path d="m242.1 186.3 1327-15.1M241.3 291.6l1327.8-14.8M235 396.9l1331.5-14.7M237.6 492.3l1321.3-4.9M236.1 607.7s1241-18.4 1277.4-16.2M241.3 704.7h1334" class="st5"/><path d="m716.2 6.9 356.9 26.8c33.2 2.5 58.1 31.4 55.6 64.6s-31.4 58.1-64.6 55.6l-356.9-26.8c-33.2-2.5-58.1-31.4-55.6-64.6C654 29.3 683 4.4 716.2 6.9z" class="st6"/><g class="st7"><path d="m702.6 74.3 5.6.4c-.3 4.4 3.8 8.5 9.8 8.9 4.3.3 10.1-1.1 10.5-6 .3-4.6-4.7-6.4-10.1-8.3-6.7-2.4-14.1-5.8-13.5-13.5.7-8.9 9.8-11.1 15.7-10.7 8.4.6 14.6 6.8 14.1 13.8l-5.6-.4c.3-3.9-3.4-7.7-9-8.1-3.4-.3-9.2.6-9.6 5.4-.3 4.5 4.6 6.3 10 8.2 6.7 2.4 14.2 5.8 13.6 13.5-.7 9.2-10 11.8-16.7 11.3-8.8-.5-15.4-7.1-14.8-14.5M738.7 74.5c.7-8.8 8.1-15.4 16-14.8 4.6.3 8.3 3 10.5 6.9l.4-5.1 4.8.4-2.2 29.9-4.8-.4.4-5.1c-2.8 3.5-6.9 5.6-11.4 5.3-8-.6-14.4-8.3-13.7-17.1m14.4 12c5.5.4 10.3-4.1 10.7-10.1s-3.6-11.2-9.1-11.6S744.5 69 744 74.9c-.4 6 3.7 11.2 9.1 11.6M780.4 83.9l1.2-16.3-6.2-.5.4-4.9 6.2.5.6-7.9 5.3.4-.6 7.9 8.2.6-.4 4.9-8.2-.6-1.2 16.3c-.2 2.2 1.5 4 3.6 4.1l4.3.3-.4 4.9-4.3-.3c-5.1-.3-8.9-4.3-8.5-9.4M801.5 88.3l6 .4-5.5 14.7-4.6-.3z" class="st8"/></g><g class="st7"><path d="m842.6 55.3 5.1.4 12.9 43.1-6.1-.5-2.9-10-18.4-1.4-4.4 9.5-5.5-.4zm7.4 27.6L844.3 63l-8.7 18.8z" class="st8"/></g><g class="st7"><path d="m870.9 95.2-1.2 16.3-5.3-.4 3.1-41.9 4.8.4-.4 5.1c2.8-3.5 6.9-5.6 11.4-5.2 7.9.6 14.3 8.2 13.6 17s-8.1 15.4-16 14.8c-4.2-.4-7.8-2.7-10-6.1m9.8.9c5.5.4 10.3-4.2 10.7-10.1.4-6-3.6-11.2-9.1-11.6s-10.3 4.1-10.7 10.1 3.7 11.2 9.1 11.6" class="st8"/></g><g class="st7"><path d="m904.1 71.9 4.8.4-.3 3.8c2.4-2.8 5.8-4.3 9.6-4l2.1.3-.4 5.1c-1.1-.3-1.9-.4-2.9-.5-4.3-.3-8.1 2.3-8.4 5.9l-1.4 19.3-5.3-.4z" class="st8"/></g><g class="st7"><path d="m925.4 73.5 5.3.4-2.2 29.9-5.3-.4zm3.7-13c1.9.1 3.2 1.8 3.1 3.8s-1.7 3.4-3.6 3.3-3.3-1.8-3.1-3.8c.1-2 1.8-3.5 3.6-3.3M939.8 60.7l5.3.4-3.3 43.8-5.3-.4zM983.2 77.5c.3-4-2.3-7.5-6.5-7.8-4.3-.3-7.3 2.7-7.7 7.5l-5.3-.4c.6-8.1 6-13 13.5-12.5 7.6.6 12.2 6.4 11.7 13.3-.4 5.4-3.9 9.4-8.3 13.4l-11.4 10.3 17.9 1.3-.4 5.4-26.3-2 .3-4.1L977 87c3-2.9 5.9-5.6 6.2-9.5M993.1 87.7c1-13.2 7.7-21.4 16.9-20.8 9.2.7 14.6 9.9 13.6 23-1 13.2-7.7 21.4-16.9 20.8-9.1-.7-14.5-9.9-13.6-23m14 17.6c5.8.4 10.1-5.9 10.9-15.8.7-9.9-2.6-16.8-8.4-17.2s-10.1 5.9-10.9 15.8c-.7 9.9 2.6 16.8 8.4 17.2" class="st8"/></g><g class="st7"><path d="m1032.9 102.9 1.2-16.3-6.2-.5.4-4.9 6.2.5.6-7.9 5.3.4-.6 7.9 8.2.6-.4 4.9-8.2-.6-1.2 16.3c-.2 2.2 1.5 4 3.6 4.1l4.3.3-.4 4.9-4.3-.3c-5.1-.3-8.9-4.3-8.5-9.4" class="st8"/></g><g class="st7"><path d="m1054.5 69.3 5.3.4-1.3 16.9c2.3-2.3 5.4-3.6 9-3.4 6.4.5 12.1 6 11.6 12.2l-1.5 19.6-5.3-.4 1.4-19.3c.3-3.6-3.1-6.8-7.4-7.1s-8.1 2.3-8.4 5.9l-1.4 19.3-5.3-.4z" class="st8"/></g><g class="st7"><path d="M1255.5 633c.9 4.4 3.1 5.6 7 4.8 7.5-1.5 14.2-9.9 28.8-32.7 2.2-3.3 3.3-5.5 4.2-5.6.7-.1 2 .1 2.2 1.3.2 1-.8 3-3.4 7.1-11.8 18.3-20.6 31.8-31.4 34-8.4 1.7-11.7-2.5-12.7-7.7-4.8-24.1 37.5-102.6 46.9-104.5 2.6-.5 5.9 2 6.9 7 2.5 12.6-26.3 61.9-48.5 89.9-.2 1.8-.3 4.8 0 6.4m43.4-96.2c-.2-.9-.4-1.2-.8-1.1-4.1.8-34.8 53.3-41.4 83 21.9-31.7 43.8-73.9 42.2-81.9" class="st9"/><path d="M1296 635.1c-4.8 1-7.4-2.6-8.2-6.5-2.5-12.5 8.8-35.8 11.9-36.4 1.9-.4 3.2.8 3.5 2.5.2 1.2.3 2.3-3.1 8.3-3.7 6.4-8.6 18.9-7.6 23.9.5 2.6 2 3.1 3.4 2.9 6.3-1.3 19.5-20.6 25.8-30.7 2.1-3.4 3.5-5.5 4.2-5.6s2 .1 2.2 1.3c.2 1-.6 2.4-3.4 7.1-6.4 10-20.7 31.6-28.7 33.2m12.9-76.4c-.6-2.9.7-6.3 4.3-7.1 2.2-.4 4.7.6 5.4 3.9.6 3.1-.6 6.5-4.1 7.2-3.2.7-5-1.4-5.6-4" class="st9"/><path d="M1327.9 572c-4.1.8-10.2 2.4-14.8 3.3-2 .4-2.9-.1-3.1-1.2-.4-1.9 1-2.9 2.7-3.2 3.6-.7 12.6-2.5 23.3-4.8 4.2-9 8.7-17.9 12.5-25.6 3.2-6.3 4.6-8 5.6-8.2.9-.2 1.7.4 2.1 1.9.6.4.9.9 1 1.4.2 1.2.1 2.3-3.5 8.3-2.9 5-6.9 12.4-11 20.6 8.7-1.7 17.9-3.8 25.7-5.3 1.7-.3 2.9-.6 3.2 1 .4 2-.6 3-3.4 3.5-3.8.8-14.6 3.1-28.1 5.8-10 20.8-20.1 44.8-18.8 51.5.6 2.9 2.3 4.2 4.6 3.7 2.9-.6 9.2-2.6 20.4-13.1 3-2.9 5-4.9 5.4-5 .5-.1 1.1 0 1.3 1.2.5 2.4-3.1 6.7-6.8 9.7-8.3 7.2-15.9 10.8-19.7 11.6-4.1.8-8.6-.2-9.9-6.9-1.7-8.7 6.8-29.9 16.7-51.3z" class="st9"/><path d="M1353.2 612.3c.8 4.1 3.7 6.2 9 5.1 13.8-2.8 26-18.2 27.4-18.4.7-.1 1.1.3 1.3 1.2 1 4.8-15.4 19-29.2 21.8-7.8 1.6-12.2-3.2-13.2-8.4-3-15.2 13.7-44.1 23.3-46 3.9-.8 6.9 1.5 7.5 4.9 1 5.1-2.2 19.1-26.3 38.8zm21.6-38.5c-.3-1.4-1.1-1.7-2.4-1.5-4.3.9-17.7 20.4-19.4 34.4 19.1-17.9 22.7-28.5 21.8-32.9" class="st9"/></g><g class="st7"><path d="M1255.5 633c.9 4.4 3.1 5.6 7 4.8 7.5-1.5 14.2-9.9 28.8-32.7 2.2-3.3 3.3-5.5 4.2-5.6.7-.1 2 .1 2.2 1.3.2 1-.8 3-3.4 7.1-11.8 18.3-20.6 31.8-31.4 34-8.4 1.7-11.7-2.5-12.7-7.7-4.8-24.1 37.5-102.6 46.9-104.5 2.6-.5 5.9 2 6.9 7 2.5 12.6-26.3 61.9-48.5 89.9-.2 1.8-.3 4.8 0 6.4zm43.4-96.2c-.2-.9-.4-1.2-.8-1.1-4.1.8-34.8 53.3-41.4 83 21.9-31.7 43.8-73.9 42.2-81.9z" class="st10"/><path d="M1296 635.1c-4.8 1-7.4-2.6-8.2-6.5-2.5-12.5 8.8-35.8 11.9-36.4 1.9-.4 3.2.8 3.5 2.5.2 1.2.3 2.3-3.1 8.3-3.7 6.4-8.6 18.9-7.6 23.9.5 2.6 2 3.1 3.4 2.9 6.3-1.3 19.5-20.6 25.8-30.7 2.1-3.4 3.5-5.5 4.2-5.6s2 .1 2.2 1.3c.2 1-.6 2.4-3.4 7.1-6.4 10-20.7 31.6-28.7 33.2zm12.9-76.4c-.6-2.9.7-6.3 4.3-7.1 2.2-.4 4.7.6 5.4 3.9.6 3.1-.6 6.5-4.1 7.2-3.2.7-5-1.4-5.6-4z" class="st10"/><path d="M1327.9 572c-4.1.8-10.2 2.4-14.8 3.3-2 .4-2.9-.1-3.1-1.2-.4-1.9 1-2.9 2.7-3.2 3.6-.7 12.6-2.5 23.3-4.8 4.2-9 8.7-17.9 12.5-25.6 3.2-6.3 4.6-8 5.6-8.2.9-.2 1.7.4 2.1 1.9.6.4.9.9 1 1.4.2 1.2.1 2.3-3.5 8.3-2.9 5-6.9 12.4-11 20.6 8.7-1.7 17.9-3.8 25.7-5.3 1.7-.3 2.9-.6 3.2 1 .4 2-.6 3-3.4 3.5-3.8.8-14.6 3.1-28.1 5.8-10 20.8-20.1 44.8-18.8 51.5.6 2.9 2.3 4.2 4.6 3.7 2.9-.6 9.2-2.6 20.4-13.1 3-2.9 5-4.9 5.4-5 .5-.1 1.1 0 1.3 1.2.5 2.4-3.1 6.7-6.8 9.7-8.3 7.2-15.9 10.8-19.7 11.6-4.1.8-8.6-.2-9.9-6.9-1.7-8.7 6.8-29.9 16.7-51.3z" class="st10"/><path d="M1353.2 612.3c.8 4.1 3.7 6.2 9 5.1 13.8-2.8 26-18.2 27.4-18.4.7-.1 1.1.3 1.3 1.2 1 4.8-15.4 19-29.2 21.8-7.8 1.6-12.2-3.2-13.2-8.4-3-15.2 13.7-44.1 23.3-46 3.9-.8 6.9 1.5 7.5 4.9 1 5.1-2.2 19.1-26.3 38.8zm21.6-38.5c-.3-1.4-1.1-1.7-2.4-1.5-4.3.9-17.7 20.4-19.4 34.4 19.1-17.9 22.7-28.5 21.8-32.9z" class="st10"/></g><path d="M1256.8 651.5c17.8-4 35.6-8.1 53.4-12.1s35.6-8.1 53.4-12.1c10.1-2.3 20.1-4.6 30.2-6.9l-1.9-4.6c-16.2 7.8-32.4 15.5-48.7 23.3-4.7 2.2-9.3 4.5-14 6.7-2.6 1.2-.8 5.4 1.9 4.6 18.8-5.6 37.7-11.3 56.5-16.9 3.1-.9 1.8-5.8-1.3-4.8-18.8 5.6-37.7 11.3-56.5 16.9l1.9 4.6c16.2-7.8 32.4-15.5 48.7-23.3 4.7-2.2 9.3-4.5 14-6.7 2.7-1.3.7-5.2-1.9-4.6-17.8 4-35.6 8.1-53.4 12.1s-35.6 8.1-53.4 12.1c-10.1 2.3-20.1 4.6-30.2 6.9-3.2.7-1.9 5.6 1.3 4.8" class="st9"/><linearGradient id="SVGID_1_" x1="1391.78" x2="1453.08" y1="742.7" y2="742.7" gradientTransform="translate(0 -112)" gradientUnits="userSpaceOnUse"><stop offset="0" style="stop-color:#414042"/><stop offset=".06" style="stop-color:#414042"/><stop offset=".09" style="stop-color:#fde815"/><stop offset=".66" style="stop-color:#fde923"/><stop offset=".69" style="stop-color:#fe00ad"/></linearGradient><path d="M1397.4 625h49.9c3.1 0 5.7 2.5 5.7 5.7 0 3.1-2.5 5.7-5.7 5.7h-49.9c-3.1 0-5.7-2.5-5.7-5.7.1-3.1 2.6-5.7 5.7-5.7" style="fill:url(#SVGID_1_)"/><image xlink:href="/static/img/backgrounds/Bear_Mascot.webp" id="Sx2ID5.tif" width="448" height="585" style="overflow:visible" transform="translate(1386.191 443.982)scale(.887)"/><path d="m1386.8 631.9 8.9 4.2c1.1.5 2.3-.3 2.3-1.4l.2-8c0-1.2-1.2-2-2.2-1.5l-9.1 3.8c-1.4.5-1.4 2.3-.1 2.9" class="st9"/><g style="opacity:.75"><path d="M284.5 288.7h-42v-21.8h110.2v21.8h-42V388h-26.2zM391.5 266.9h23.6L467.3 388H439l-9.9-24.2h-54.2L365 388h-25.5zm29.1 76.1-18.7-46-18.6 46zM479.1 266.9h36.7l32.4 67.5 32.2-67.5h38.1V388h-26.2v-91.2l-33 67h-23.6l-33-67V388h-23.6zM640.5 342.5v-75.6h26.2v75.6c0 14.7 14.2 26.5 31.9 26.5 17.4 0 31.7-11.8 31.7-26.5v-75.6h26.2v75.6c0 26.6-26.1 48.3-57.9 48.3-32 0-58.1-21.7-58.1-48.3zM251.1 474.5h45.6c42.4 0 69.9 27.2 69.9 60.6s-27.6 60.6-69.9 60.6h-45.6zm89.2 60.5c0-21.5-15.7-38.8-43.7-38.8h-19.3v77.5h19.3c28 .1 43.7-17.2 43.7-38.7zM418.1 474.5h23.6l52.1 121.1h-28.3l-9.9-24.2h-54.2l-9.9 24.2H366zm29.1 76.1-18.7-46-18.6 46zM522.6 496.3h-42v-21.8h110.2v21.8h-42v99.3h-26.2zM629.6 474.5h23.6l52.1 121.1H677l-9.9-24.2h-54.2l-9.9 24.2h-25.5zm29.1 76.1-18.7-46-18.6 46zM734.1 496.3h-42v-21.8h110.2v21.8h-42v99.3h-26.2zM904.9 545.9h-63.7v49.7H815V474.5h26.2v49.7h63.7v-49.7h26.2v121.1h-26.2zM948.5 535c0-34.9 31.3-63.3 69.9-63.3s69.9 28.4 69.9 63.3-31.3 63.3-69.9 63.3-69.9-28.3-69.9-63.3zm70 41.6c24.2 0 43.7-18.5 43.7-41.5s-19.5-41.5-43.7-41.5-43.7 18.4-43.7 41.4c0 23.1 19.5 41.6 43.7 41.6zM1129.5 512.4v83.2h-23.6V474.5h23.6l69 83.2v-83.2h23.6v121.1h-23.6z" class="st13"/></g><path d="M275.5 282.7h-42v-21.8h110.2v21.8h-42V382h-26.2zM382.5 260.9h23.6L458.3 382H430l-9.9-24.2h-54.2L356 382h-25.5zm29.1 76.1-18.7-46-18.6 46zM470.1 260.9h36.7l32.4 67.5 32.2-67.5h38.1V382h-26.2v-91.2l-33 67h-23.6l-33-67V382h-23.6zM631.5 336.5v-75.6h26.2v75.6c0 14.7 14.2 26.5 31.9 26.5 17.4 0 31.7-11.8 31.7-26.5v-75.6h26.2v75.6c0 26.6-26.1 48.3-57.9 48.3-32 0-58.1-21.7-58.1-48.3zM242.1 468.5h45.6c42.4 0 69.9 27.2 69.9 60.6s-27.6 60.6-69.9 60.6h-45.6zm89.2 60.5c0-21.5-15.7-38.8-43.7-38.8h-19.3v77.5h19.3c28 .1 43.7-17.2 43.7-38.7zM409.1 468.5h23.6l52.1 121.1h-28.3l-9.9-24.2h-54.2l-9.9 24.2H357zm29.1 76.1-18.7-46-18.6 46zM513.6 490.3h-42v-21.8h110.2v21.8h-42v99.3h-26.2zM620.6 468.5h23.6l52.1 121.1H668l-9.9-24.2h-54.2l-9.9 24.2h-25.5zm29.1 76.1-18.7-46-18.6 46zM725.1 490.3h-42v-21.8h110.2v21.8h-42v99.3h-26.2zM895.9 539.9h-63.7v49.7H806V468.5h26.2v49.7h63.7v-49.7h26.2v121.1h-26.2zM939.5 529c0-34.9 31.3-63.3 69.9-63.3s69.9 28.4 69.9 63.3-31.3 63.3-69.9 63.3-69.9-28.3-69.9-63.3zm70 41.6c24.2 0 43.7-18.5 43.7-41.5s-19.5-41.5-43.7-41.5-43.7 18.4-43.7 41.4c0 23.1 19.5 41.6 43.7 41.6zM1120.5 506.4v83.2h-23.6V468.5h23.6l69 83.2v-83.2h23.6v121.1h-23.6z" class="st14"/></g><g id="Layer_2-2"><path d="M1427.7 285.2c0-68.4-10.4-88.5-45.7-88.5 35.3 0 45.7-20.1 45.7-88.5 0 68.4 10.4 88.5 45.7 88.5-35.3 0-45.7 20-45.7 88.5z" class="st15"/><path d="M1427.7 285.2c0-68.4-10.4-88.5-45.7-88.5 35.3 0 45.7-20.1 45.7-88.5 0 68.4 10.4 88.5 45.7 88.5-35.3 0-45.7 20-45.7 88.5z" class="st15"/><path d="M144.7 809.4c0-38.2-22.4-66.8-52.2-66.8 29.8 0 52.2-28.6 52.2-66.8 0 38.2 22.4 66.8 52.2 66.8-29.9 0-52.2 28.7-52.2 66.8z" class="st16"/><path d="M144.7 809.4c0-38.2-22.4-66.8-52.2-66.8 29.8 0 52.2-28.6 52.2-66.8 0 38.2 22.4 66.8 52.2 66.8-29.9 0-52.2 28.7-52.2 66.8z" class="st16"/><path d="M1293.2 338.3c0-23.8-15.9-41.6-37.1-41.6 21.2 0 37.1-17.8 37.1-41.6 0 23.8 15.9 41.6 37.1 41.6-21.2 0-37.1 17.8-37.1 41.6z" class="st17"/><path d="M1293.2 338.3c0-23.8-15.9-41.6-37.1-41.6 21.2 0 37.1-17.8 37.1-41.6 0 23.8 15.9 41.6 37.1 41.6-21.2 0-37.1 17.8-37.1 41.6z" class="st17"/><path d="M1656.4 193.6c-36.8-4.5-74.8 7.5-102.7 31.9-20.9 18.3-36.8 44.8-42.3 72.6-9.1.2-18.2 1.6-26.7 4.1-39.5 11.7-67 47.2-70.4 88-.5 5.7 5.2 10.5 10.5 10.5 6.1 0 10-4.8 10.5-10.5 2.2-26 18.2-49.9 41.2-62.1 10.1-5.4 21.5-8.3 32.9-8.9.3 16.7 7.6 33.9 24.6 39.3 15.9 5 34.4-3.4 36.2-21.1 1.8-17.9-16-31.5-31.4-35.9-2-.6-4-1.1-6.1-1.5 5.1-22.5 17.8-43.2 34.8-58.6 24.1-21.6 57.2-30.7 89-26.8 5.6.7 10.5-5.3 10.5-10.5-.1-6.2-4.9-9.8-10.6-10.5zm-108.6 137.7c1.1 1.6 1.8 3.2 1.6 4.6 0-.2-.6 1.3-.5 1.1-.3.5-.6.8-.7.8-1.3.7.4.1-1.3.7-.4.1-2.9.6-1.6.4-2.9.3-3.5.2-6.3-.8-.5-.2-2.7-1.5-3.6-2.5-1.7-2-2.9-4.3-3.7-6.9-.8-2.5-1.2-5.1-1.3-7.8 6.9 1.7 13.3 4.7 17.4 10.4z" class="st6"/><path d="M308.4 154.3c-23.5-11.8-50.8-15.5-76.4-9.4-12.2-15.4-30.9-26.3-49.3-30.8-30.6-7.5-63.1 1.9-85.8 23.6-8.4 8 4.4 20.8 12.7 12.7 29-27.8 75.5-27.3 103.8 1-8.1 4.1-15.3 9.8-19.1 18.2-5.3 11.8-3.4 27.4 8.2 34.8 10.6 6.7 24.2 3.1 32.9-5.1 9.6-9.1 11.2-23.3 7.1-35.4-.3-.8-.6-1.7-.9-2.5 19.5-3.4 40-.5 57.7 8.5 10.4 5.1 19.5-10.4 9.1-15.6zm-92.3 35.6c-6.5.8-7.6-7.1-5.6-12.1 2.2-5.7 8-9.2 13.9-11.6 1.6 3.5 2.6 7.2 2.5 11-.3 6.1-4.7 11.9-10.8 12.7z" class="st1"/><path d="M212.1 873.3c-14.5 0-28.6-2.3-42-6.8-6.6-2.2-10-7.6-8.8-13.6 1.1-5 6.1-9.3 11-9.3.9 0 1.8.2 2.7.4 12.2 4.2 24.9 6.2 37.7 6.2 19.4 0 38-4.9 54-14.2 19.8-11.5 35.8-28.8 45.2-48.8-1.7-.8-3.3-1.5-4.8-2.3-7.8-4.1-14.9-10.5-19.5-17.5-5.5-8.4-7-17.2-4.5-25.3 3.5-11 13.3-17.9 25.6-17.9 5.4 0 10.8 1.4 15.6 4.1 16.3 9.1 19.3 28.3 16.7 43.5 3.9.6 7.8.8 11.6.8 7.2 0 14.3-1 21-2.9 24.9-7.2 44.9-27 52.3-51.7 1.6-5.5 6-9.1 11.2-9.1.8 0 1.6.1 2.4.2 3.1.6 6 2.8 7.7 5.7 1.5 2.6 2 5.4 1.2 8-5.9 19.6-17.2 36.8-32.8 49.7-15.8 13.2-34.8 21-55 22.6-2.7.2-5.5.3-8.3.3-6.1 0-12.2-.5-18.2-1.6-11 25.5-31.5 48.1-56.4 62.1-19.7 11.5-42.4 17.4-65.6 17.4m93.2-124.5q-.45 1.5.6 3.9c2.2 5.1 6.6 9.3 13.1 12.6.2-2.2.3-4.3.1-6.3-.2-2.6-.9-4.9-2.1-7.1-.5-1-2.2-2.5-2.6-2.8-2.3-1.4-2.7-1.7-5-1.9h-2.3c-.2.1-.5.2-.7.3-.1 0-.2.1-.4.3-.2.3-.4.7-.7 1" style="fill:#fff"/><path d="M437.4 710c.7 0 1.5.1 2.2.2 5.2 1.1 9.8 7 8.1 12.4-11.7 39.1-45.9 68.3-87 71.7-2.7.2-5.4.3-8.2.3-6.3 0-12.6-.6-18.8-1.7-11.1 26.1-32.1 48.8-56.3 62.3-19.9 11.2-42.6 17-65.4 17-14.1 0-28.2-2.2-41.7-6.8-5.4-1.8-9.4-6.3-8.1-12.4.9-4.3 5.4-8.5 10-8.5.8 0 1.6.1 2.4.4 12.3 4.2 25.2 6.3 38 6.3 19 0 37.9-4.7 54.5-14.3 19.8-11.5 36.5-29.2 46.1-50.2q-2.85-1.2-5.7-2.7c-14.2-7.5-28.8-24.4-23.4-41.6 3.6-11.5 13.9-17.2 24.6-17.2 5.1 0 10.4 1.3 15.1 3.9 15.6 8.7 19.2 27.1 16 43.5 4.2.7 8.5 1 12.8 1 7.2 0 14.4-1 21.3-3 25-7.2 45.5-27.4 53-52.3 1.7-4.7 5.5-8.3 10.5-8.3m-128.7 36.1h-1.4c-1.8.2.1 0-1.4.4 0 0-.4.2-.8.6 0 0-.6 1-.7 1-.5 1.4-.2 3.1.6 4.9 2.8 6.4 8.5 10.7 14.9 13.7.4-2.6.5-5.3.3-7.9-.2-2.7-.9-5.2-2.2-7.5-.6-1.2-2.5-2.9-3-3.2-2.5-1.6-3-1.8-6-2.1.7.1.3.1-.3.1M437.4 708c-5.6 0-10.4 3.8-12.1 9.8-7.3 24.4-27.1 43.9-51.6 51-6.6 1.9-13.6 2.9-20.7 2.9-3.5 0-7-.2-10.5-.7 1.3-8.4.8-16.5-1.4-23.5-2.8-8.8-8.3-15.7-16-20-4.9-2.8-10.5-4.2-16.1-4.2-12.8 0-22.9 7.1-26.5 18.6-2.6 8.4-1.1 17.5 4.6 26.1 4.6 7.2 11.9 13.7 19.8 17.8 1.2.7 2.5 1.3 3.9 1.9-9.4 19.5-25.1 36.3-44.4 47.5-15.8 9.2-34.4 14-53.5 14-12.7 0-25.3-2.1-37.4-6.2-1-.3-2-.5-3-.5-5.4 0-10.9 4.6-12 10.1-1.4 6.5 2.3 12.3 9.4 14.7 13.5 4.6 27.7 6.9 42.3 6.9 23.3 0 46.3-6 66.4-17.3 24.8-14 45.3-36.4 56.5-61.8 5.8 1 11.7 1.5 17.6 1.5q4.2 0 8.4-.3c20.4-1.7 39.6-9.6 55.6-22.9 15.7-13.1 27.2-30.5 33.1-50.2.9-2.8.4-6-1.3-8.8-1.9-3.2-5-5.5-8.4-6.2-1-.1-1.9-.2-2.7-.2m-128.7 40.1h.6c2.1.2 2.5.4 4.5 1.8.4.3 1.9 1.7 2.3 2.4 1.1 2.1 1.8 4.3 2 6.7.1 1.5.1 3 0 4.6-5.5-3.1-9.4-6.9-11.4-11.4-.5-1.2-.8-2.2-.6-3 .2-.3.4-.6.6-.8.2-.1.4-.1.6-.2h1.1z" style="fill:#231f20"/><path d="M384.8 141.2c0-43.4-9.4-56.2-41.3-56.2 31.9 0 41.3-12.8 41.3-56.2 0 43.4 9.4 56.2 41.3 56.2-31.9 0-41.3 12.8-41.3 56.2z" class="st17"/><path d="M384.8 141.2c0-43.4-9.4-56.2-41.3-56.2 31.9 0 41.3-12.8 41.3-56.2 0 43.4 9.4 56.2 41.3 56.2-31.9 0-41.3 12.8-41.3 56.2z" class="st17"/></g></svg>