<svg width="954" height="657" viewBox="0 0 954 657" fill="none" xmlns="http://www.w3.org/2000/svg">
<path d="M456.854 45.1924L911.854 310.192L456.854 573.192L0.853516 309.192L456.854 45.1924Z" fill="#F0AB46"/>
<path d="M0.853516 309.192L456.854 573.192V596.192L0.853516 332.192V309.192Z" fill="#E58233"/>
<path d="M911.854 310.192L456.854 573.192V596.192L911.854 333.192V310.192Z" fill="#D45C27"/>
<path d="M58.2028 309.111L78.8805 297.375L477.001 527.127L455.73 539.443L58.2028 309.111Z" stroke="#B76C25"/>
<path d="M79.8892 296.802L100.566 285.067L499.271 514.235L478 526.549L79.8892 296.802Z" stroke="#B76C25"/>
<path d="M146.705 258.708L168.55 246.386L566.084 475.553L544.812 487.868L146.705 258.708Z" stroke="#B76C25"/>
<path d="M169.557 245.812L189.065 234.664L588.352 462.661L567.083 474.974L169.557 245.812Z" stroke="#B76C25"/>
<path d="M101.571 284.491L124.01 271.588L521.543 501.339L500.27 513.656L101.571 284.491Z" stroke="#B76C25"/>
<path d="M125.017 271.015L145.694 259.28L543.813 488.447L522.542 500.761L125.017 271.015Z" stroke="#B76C25"/>
<path d="M190.076 234.09L210.75 222.356L610.621 449.768L589.353 462.081L190.076 234.09Z" stroke="#B76C25"/>
<path d="M211.762 221.781L236.535 207.705L632.898 436.871L611.623 449.188L211.762 221.781Z" stroke="#B76C25"/>
<path d="M279.746 183.101L300.419 171.367L699.704 398.194L678.437 410.507L279.746 183.101Z" stroke="#B76C25"/>
<path d="M301.429 170.791L325.034 157.303L721.979 385.298L700.707 397.613L301.429 170.791Z" stroke="#B76C25"/>
<path d="M237.543 207.133L258.22 195.397L655.168 423.978L633.896 436.293L237.543 207.133Z" stroke="#B76C25"/>
<path d="M259.227 194.823L278.735 183.676L677.435 411.087L656.167 423.4L259.227 194.823Z" stroke="#B76C25"/>
<path d="M326.043 156.729L346.719 144.994L744.249 372.405L722.979 384.719L326.043 156.729Z" stroke="#B76C25"/>
<path d="M347.729 144.421L368.404 132.687L766.518 359.512L745.249 371.826L347.729 144.421Z" stroke="#B76C25"/>
<path d="M415.715 105.742L437.559 93.4196L833.334 320.829L812.062 333.144L415.715 105.742Z" stroke="#B76C25"/>
<path d="M438.564 92.8443L461.003 79.9419L855.607 307.935L834.333 320.251L438.564 92.8443Z" stroke="#B76C25"/>
<path d="M369.416 132.112L390.089 120.379L788.787 346.619L767.52 358.932L369.416 132.112Z" stroke="#B76C25"/>
<path d="M391.099 119.802L414.704 106.314L811.062 333.723L789.79 346.039L391.099 119.802Z" stroke="#B76C25"/>
<path d="M77.1241 321.422L55.8582 309.11L461.001 78.769L478.176 88.7416L77.1241 321.422Z" stroke="#B76C25"/>
<path d="M366.646 489.04L345.373 476.724L747.009 244.044L768.282 256.36L366.646 489.04Z" stroke="#B76C25"/>
<path d="M411.188 514.827L389.914 502.511L791.551 269.831L812.824 282.147L411.188 514.827Z" stroke="#B76C25"/>
<path d="M388.917 501.933L367.644 489.617L769.28 256.937L790.553 269.253L388.917 501.933Z" stroke="#B76C25"/>
<path d="M433.458 527.721L412.185 515.405L813.824 282.723L834.503 294.46L433.458 527.721Z" stroke="#B76C25"/>
<path d="M455.729 540.615L434.455 528.298L835.508 295.032L857.949 307.936L455.729 540.615Z" stroke="#B76C25"/>
<path d="M99.3951 334.316L78.1217 321.999L479.173 89.3196L500.446 101.636L99.3951 334.316Z" stroke="#B76C25"/>
<path d="M143.937 360.103L122.663 347.787L523.715 115.107L544.988 127.423L143.937 360.103Z" stroke="#B76C25"/>
<path d="M121.666 347.209L100.392 334.893L501.444 102.213L522.717 114.529L121.666 347.209Z" stroke="#B76C25"/>
<path d="M166.208 372.997L144.934 360.681L545.989 127.999L567.835 140.322L166.208 372.997Z" stroke="#B76C25"/>
<path d="M210.75 398.784L189.476 386.468L591.113 153.788L612.386 166.104L210.75 398.784Z" stroke="#B76C25"/>
<path d="M188.479 385.891L167.206 373.574L568.842 140.894L590.115 153.21L188.479 385.891Z" stroke="#B76C25"/>
<path d="M233.021 411.678L211.747 399.362L613.384 166.682L634.657 178.998L233.021 411.678Z" stroke="#B76C25"/>
<path d="M277.564 437.466L256.289 425.149L657.927 192.468L681.534 205.958L277.564 437.466Z" stroke="#B76C25"/>
<path d="M255.291 424.572L234.018 412.256L635.655 179.575L656.928 191.891L255.291 424.572Z" stroke="#B76C25"/>
<path d="M299.833 450.359L278.564 438.045L682.538 206.535L701.476 217.675L299.833 450.359Z" stroke="#B76C25"/>
<path d="M344.375 476.146L323.102 463.83L724.739 231.15L746.012 243.466L344.375 476.146Z" stroke="#B76C25"/>
<path d="M322.104 463.253L300.831 450.937L702.468 218.257L723.741 230.573L322.104 463.253Z" stroke="#B76C25"/>
<ellipse cx="551.354" cy="130.692" rx="14.5" ry="8.5" fill="black" fill-opacity="0.2"/>
<ellipse cx="549.854" cy="127.192" rx="16" ry="10" fill="#DDDEDC"/>
<ellipse cx="549.854" cy="123.192" rx="13" ry="6" fill="#EBEBEB"/>
<ellipse cx="549.854" cy="118.692" rx="4" ry="1.5" fill="#FAFDFA"/>
<ellipse cx="502.354" cy="132.692" rx="14.5" ry="8.5" fill="black" fill-opacity="0.2"/>
<ellipse cx="500.854" cy="129.192" rx="16" ry="10" fill="#DDDEDC"/>
<ellipse cx="500.854" cy="125.192" rx="13" ry="6" fill="#EBEBEB"/>
<ellipse cx="500.854" cy="120.692" rx="4" ry="1.5" fill="#FAFDFA"/>
<ellipse cx="433.354" cy="123.692" rx="14.5" ry="8.5" fill="black" fill-opacity="0.2"/>
<ellipse cx="431.854" cy="120.192" rx="16" ry="10" fill="#DDDEDC"/>
<ellipse cx="431.854" cy="116.192" rx="13" ry="6" fill="#EBEBEB"/>
<ellipse cx="431.854" cy="111.692" rx="4" ry="1.5" fill="#FAFDFA"/>
<ellipse cx="107.354" cy="284.692" rx="14.5" ry="8.5" fill="black" fill-opacity="0.2"/>
<ellipse cx="105.854" cy="281.192" rx="16" ry="10" fill="#DDDEDC"/>
<ellipse cx="105.854" cy="277.192" rx="13" ry="6" fill="#EBEBEB"/>
<ellipse cx="105.854" cy="272.692" rx="4" ry="1.5" fill="#FAFDFA"/>
<ellipse cx="154.354" cy="281.692" rx="14.5" ry="8.5" fill="black" fill-opacity="0.2"/>
<ellipse cx="152.854" cy="278.192" rx="16" ry="10" fill="#DDDEDC"/>
<ellipse cx="152.854" cy="274.192" rx="13" ry="6" fill="#EBEBEB"/>
<ellipse cx="152.854" cy="269.692" rx="4" ry="1.5" fill="#FAFDFA"/>
<ellipse cx="208.354" cy="250.692" rx="14.5" ry="8.5" fill="black" fill-opacity="0.2"/>
<ellipse cx="206.854" cy="247.192" rx="16" ry="10" fill="#DDDEDC"/>
<ellipse cx="206.854" cy="243.192" rx="13" ry="6" fill="#EBEBEB"/>
<ellipse cx="206.854" cy="238.692" rx="4" ry="1.5" fill="#FAFDFA"/>
<ellipse cx="390.354" cy="173.692" rx="14.5" ry="8.5" fill="black" fill-opacity="0.2"/>
<ellipse cx="388.854" cy="170.192" rx="16" ry="10" fill="#DDDEDC"/>
<ellipse cx="388.854" cy="166.192" rx="13" ry="6" fill="#EBEBEB"/>
<ellipse cx="388.854" cy="161.692" rx="4" ry="1.5" fill="#FAFDFA"/>
<ellipse cx="478.354" cy="83.6924" rx="14.5" ry="8.5" fill="black" fill-opacity="0.2"/>
<ellipse cx="476.854" cy="80.1924" rx="16" ry="10" fill="#414241"/>
<path d="M489.854 76.1924C489.854 79.5061 484.033 82.1924 476.854 82.1924C469.674 82.1924 463.854 79.5061 463.854 76.1924C463.854 72.8787 469.674 70.1924 476.854 70.1924C484.033 70.1924 489.854 72.8787 489.854 76.1924Z" fill="#555352"/>
<ellipse cx="476.854" cy="71.6924" rx="4" ry="1.5" fill="#636160"/>
<ellipse cx="495.354" cy="111.692" rx="14.5" ry="8.5" fill="black" fill-opacity="0.2"/>
<ellipse cx="493.854" cy="108.192" rx="16" ry="10" fill="#414241"/>
<path d="M506.854 104.192C506.854 107.506 501.033 110.192 493.854 110.192C486.674 110.192 480.854 107.506 480.854 104.192C480.854 100.879 486.674 98.1924 493.854 98.1924C501.033 98.1924 506.854 100.879 506.854 104.192Z" fill="#555352"/>
<ellipse cx="493.854" cy="99.6924" rx="4" ry="1.5" fill="#636160"/>
<ellipse cx="131.354" cy="299.692" rx="14.5" ry="8.5" fill="black" fill-opacity="0.2"/>
<ellipse cx="129.854" cy="296.192" rx="16" ry="10" fill="#414241"/>
<path d="M142.854 292.192C142.854 295.506 137.033 298.192 129.854 298.192C122.674 298.192 116.854 295.506 116.854 292.192C116.854 288.879 122.674 286.192 129.854 286.192C137.033 286.192 142.854 288.879 142.854 292.192Z" fill="#555352"/>
<ellipse cx="129.854" cy="287.692" rx="4" ry="1.5" fill="#636160"/>
<ellipse cx="163.354" cy="325.692" rx="14.5" ry="8.5" fill="black" fill-opacity="0.2"/>
<ellipse cx="161.854" cy="322.192" rx="16" ry="10" fill="#414241"/>
<path d="M174.854 318.192C174.854 321.506 169.033 324.192 161.854 324.192C154.674 324.192 148.854 321.506 148.854 318.192C148.854 314.879 154.674 312.192 161.854 312.192C169.033 312.192 174.854 314.879 174.854 318.192Z" fill="#555352"/>
<ellipse cx="161.854" cy="313.692" rx="4" ry="1.5" fill="#636160"/>
<ellipse cx="436.354" cy="95.6924" rx="14.5" ry="8.5" fill="black" fill-opacity="0.2"/>
<ellipse cx="434.854" cy="92.1924" rx="16" ry="10" fill="#414241"/>
<path d="M447.854 88.1924C447.854 91.5061 442.033 94.1924 434.854 94.1924C427.674 94.1924 421.854 91.5061 421.854 88.1924C421.854 84.8787 427.674 82.1924 434.854 82.1924C442.033 82.1924 447.854 84.8787 447.854 88.1924Z" fill="#555352"/>
<ellipse cx="434.854" cy="83.6924" rx="4" ry="1.5" fill="#636160"/>
<ellipse cx="194.354" cy="297.692" rx="14.5" ry="8.5" fill="black" fill-opacity="0.2"/>
<ellipse cx="192.854" cy="294.192" rx="16" ry="10" fill="#414241"/>
<path d="M205.854 290.192C205.854 293.506 200.033 296.192 192.854 296.192C185.674 296.192 179.854 293.506 179.854 290.192C179.854 286.879 185.674 284.192 192.854 284.192C200.033 284.192 205.854 286.879 205.854 290.192Z" fill="#555352"/>
<ellipse cx="192.854" cy="285.692" rx="4" ry="1.5" fill="#636160"/>
<ellipse cx="234.354" cy="293.692" rx="14.5" ry="8.5" fill="black" fill-opacity="0.2"/>
<ellipse cx="232.854" cy="290.192" rx="16" ry="10" fill="#414241"/>
<path d="M245.854 286.192C245.854 289.506 240.033 292.192 232.854 292.192C225.674 292.192 219.854 289.506 219.854 286.192C219.854 282.879 225.674 280.192 232.854 280.192C240.033 280.192 245.854 282.879 245.854 286.192Z" fill="#555352"/>
<ellipse cx="232.854" cy="281.692" rx="4" ry="1.5" fill="#636160"/>
<ellipse cx="228.354" cy="270.692" rx="14.5" ry="8.5" fill="black" fill-opacity="0.2"/>
<ellipse cx="226.854" cy="267.192" rx="16" ry="10" fill="#414241"/>
<path d="M239.854 263.192C239.854 266.506 234.033 269.192 226.854 269.192C219.674 269.192 213.854 266.506 213.854 263.192C213.854 259.879 219.674 257.192 226.854 257.192C234.033 257.192 239.854 259.879 239.854 263.192Z" fill="#555352"/>
<ellipse cx="226.854" cy="258.692" rx="4" ry="1.5" fill="#636160"/>
<ellipse cx="310.354" cy="168.692" rx="14.5" ry="8.5" fill="black" fill-opacity="0.2"/>
<ellipse cx="308.854" cy="165.192" rx="16" ry="10" fill="#414241"/>
<path d="M321.854 161.192C321.854 164.506 316.033 167.192 308.854 167.192C301.674 167.192 295.854 164.506 295.854 161.192C295.854 157.879 301.674 155.192 308.854 155.192C316.033 155.192 321.854 157.879 321.854 161.192Z" fill="#555352"/>
<ellipse cx="308.854" cy="156.692" rx="4" ry="1.5" fill="#636160"/>
<ellipse cx="328.354" cy="183.692" rx="14.5" ry="8.5" fill="black" fill-opacity="0.2"/>
<ellipse cx="326.854" cy="180.192" rx="16" ry="10" fill="#414241"/>
<path d="M339.854 176.192C339.854 179.506 334.033 182.192 326.854 182.192C319.674 182.192 313.854 179.506 313.854 176.192C313.854 172.879 319.674 170.192 326.854 170.192C334.033 170.192 339.854 172.879 339.854 176.192Z" fill="#555352"/>
<ellipse cx="326.854" cy="171.692" rx="4" ry="1.5" fill="#636160"/>
<ellipse cx="772.354" cy="292.692" rx="14.5" ry="8.5" fill="black" fill-opacity="0.2"/>
<ellipse cx="770.854" cy="289.192" rx="16" ry="10" fill="#DDDEDC"/>
<ellipse cx="770.854" cy="285.192" rx="13" ry="6" fill="#EBEBEB"/>
<ellipse cx="770.854" cy="280.692" rx="4" ry="1.5" fill="#FAFDFA"/>
<ellipse cx="694.354" cy="274.692" rx="14.5" ry="8.5" fill="black" fill-opacity="0.2"/>
<ellipse cx="692.854" cy="271.192" rx="16" ry="10" fill="#DDDEDC"/>
<ellipse cx="692.854" cy="267.192" rx="13" ry="6" fill="#EBEBEB"/>
<ellipse cx="692.854" cy="262.692" rx="4" ry="1.5" fill="#FAFDFA"/>
<ellipse cx="744.354" cy="249.692" rx="14.5" ry="8.5" fill="black" fill-opacity="0.2"/>
<ellipse cx="742.854" cy="246.192" rx="16" ry="10" fill="#DDDEDC"/>
<ellipse cx="742.854" cy="242.192" rx="13" ry="6" fill="#EBEBEB"/>
<ellipse cx="742.854" cy="237.692" rx="4" ry="1.5" fill="#FAFDFA"/>
<ellipse cx="810.354" cy="316.692" rx="14.5" ry="8.5" fill="black" fill-opacity="0.2"/>
<ellipse cx="808.854" cy="313.192" rx="16" ry="10" fill="#DDDEDC"/>
<ellipse cx="808.854" cy="309.192" rx="13" ry="6" fill="#EBEBEB"/>
<ellipse cx="808.854" cy="304.692" rx="4" ry="1.5" fill="#FAFDFA"/>
<ellipse cx="704.354" cy="223.692" rx="14.5" ry="8.5" fill="black" fill-opacity="0.2"/>
<ellipse cx="702.854" cy="220.192" rx="16" ry="10" fill="#DDDEDC"/>
<ellipse cx="702.854" cy="216.192" rx="13" ry="6" fill="#EBEBEB"/>
<ellipse cx="702.854" cy="211.692" rx="4" ry="1.5" fill="#FAFDFA"/>
<ellipse cx="740.354" cy="278.692" rx="14.5" ry="8.5" fill="black" fill-opacity="0.2"/>
<ellipse cx="738.854" cy="275.192" rx="16" ry="10" fill="#DDDEDC"/>
<ellipse cx="738.854" cy="271.192" rx="13" ry="6" fill="#EBEBEB"/>
<ellipse cx="738.854" cy="266.692" rx="4" ry="1.5" fill="#FAFDFA"/>
<ellipse cx="773.354" cy="267.692" rx="14.5" ry="8.5" fill="black" fill-opacity="0.2"/>
<ellipse cx="771.854" cy="264.192" rx="16" ry="10" fill="#414241"/>
<path d="M784.854 260.192C784.854 263.506 779.033 266.192 771.854 266.192C764.674 266.192 758.854 263.506 758.854 260.192C758.854 256.879 764.674 254.192 771.854 254.192C779.033 254.192 784.854 256.879 784.854 260.192Z" fill="#555352"/>
<ellipse cx="771.854" cy="255.692" rx="4" ry="1.5" fill="#636160"/>
<ellipse cx="804.354" cy="270.692" rx="14.5" ry="8.5" fill="black" fill-opacity="0.2"/>
<ellipse cx="802.854" cy="267.192" rx="16" ry="10" fill="#414241"/>
<path d="M815.854 263.192C815.854 266.506 810.033 269.192 802.854 269.192C795.674 269.192 789.854 266.506 789.854 263.192C789.854 259.879 795.674 257.192 802.854 257.192C810.033 257.192 815.854 259.879 815.854 263.192Z" fill="#555352"/>
<ellipse cx="802.854" cy="258.692" rx="4" ry="1.5" fill="#636160"/>
<ellipse cx="784.354" cy="355.692" rx="14.5" ry="8.5" fill="black" fill-opacity="0.2"/>
<ellipse cx="782.854" cy="352.192" rx="16" ry="10" fill="#414241"/>
<path d="M795.854 348.192C795.854 351.506 790.033 354.192 782.854 354.192C775.674 354.192 769.854 351.506 769.854 348.192C769.854 344.879 775.674 342.192 782.854 342.192C790.033 342.192 795.854 344.879 795.854 348.192Z" fill="#555352"/>
<ellipse cx="782.854" cy="343.692" rx="4" ry="1.5" fill="#636160"/>
<ellipse cx="764.354" cy="320.692" rx="14.5" ry="8.5" fill="black" fill-opacity="0.2"/>
<ellipse cx="762.854" cy="317.192" rx="16" ry="10" fill="#414241"/>
<path d="M775.854 313.192C775.854 316.506 770.033 319.192 762.854 319.192C755.674 319.192 749.854 316.506 749.854 313.192C749.854 309.879 755.674 307.192 762.854 307.192C770.033 307.192 775.854 309.879 775.854 313.192Z" fill="#555352"/>
<ellipse cx="762.854" cy="308.692" rx="4" ry="1.5" fill="#636160"/>
<ellipse cx="548.354" cy="232.692" rx="14.5" ry="8.5" fill="black" fill-opacity="0.2"/>
<ellipse cx="546.854" cy="229.192" rx="16" ry="10" fill="#414241"/>
<path d="M559.854 225.192C559.854 228.506 554.033 231.192 546.854 231.192C539.674 231.192 533.854 228.506 533.854 225.192C533.854 221.879 539.674 219.192 546.854 219.192C554.033 219.192 559.854 221.879 559.854 225.192Z" fill="#555352"/>
<ellipse cx="546.854" cy="220.692" rx="4" ry="1.5" fill="#636160"/>
<ellipse cx="392.354" cy="220.692" rx="14.5" ry="8.5" fill="black" fill-opacity="0.2"/>
<ellipse cx="390.854" cy="217.192" rx="16" ry="10" fill="#414241"/>
<path d="M403.854 213.192C403.854 216.506 398.033 219.192 390.854 219.192C383.674 219.192 377.854 216.506 377.854 213.192C377.854 209.879 383.674 207.192 390.854 207.192C398.033 207.192 403.854 209.879 403.854 213.192Z" fill="#555352"/>
<ellipse cx="390.854" cy="208.692" rx="4" ry="1.5" fill="#636160"/>
<ellipse cx="477.354" cy="220.692" rx="14.5" ry="8.5" fill="black" fill-opacity="0.2"/>
<ellipse cx="475.854" cy="217.192" rx="16" ry="10" fill="#414241"/>
<path d="M488.854 213.192C488.854 216.506 483.033 219.192 475.854 219.192C468.674 219.192 462.854 216.506 462.854 213.192C462.854 209.879 468.674 207.192 475.854 207.192C483.033 207.192 488.854 209.879 488.854 213.192Z" fill="#555352"/>
<ellipse cx="475.854" cy="208.692" rx="4" ry="1.5" fill="#636160"/>
<ellipse cx="628.354" cy="182.692" rx="14.5" ry="8.5" fill="black" fill-opacity="0.2"/>
<ellipse cx="626.854" cy="179.192" rx="16" ry="10" fill="#414241"/>
<path d="M639.854 175.192C639.854 178.506 634.033 181.192 626.854 181.192C619.674 181.192 613.854 178.506 613.854 175.192C613.854 171.879 619.674 169.192 626.854 169.192C634.033 169.192 639.854 171.879 639.854 175.192Z" fill="#555352"/>
<ellipse cx="626.854" cy="170.692" rx="4" ry="1.5" fill="#636160"/>
<ellipse cx="453.354" cy="143.692" rx="14.5" ry="8.5" fill="black" fill-opacity="0.2"/>
<ellipse cx="451.854" cy="140.192" rx="16" ry="10" fill="#414241"/>
<path d="M464.854 136.192C464.854 139.506 459.033 142.192 451.854 142.192C444.674 142.192 438.854 139.506 438.854 136.192C438.854 132.879 444.674 130.192 451.854 130.192C459.033 130.192 464.854 132.879 464.854 136.192Z" fill="#555352"/>
<ellipse cx="451.854" cy="131.692" rx="4" ry="1.5" fill="#636160"/>
<ellipse cx="520.354" cy="157.692" rx="14.5" ry="8.5" fill="black" fill-opacity="0.2"/>
<ellipse cx="518.854" cy="154.192" rx="16" ry="10" fill="#414241"/>
<path d="M531.854 150.192C531.854 153.506 526.033 156.192 518.854 156.192C511.674 156.192 505.854 153.506 505.854 150.192C505.854 146.879 511.674 144.192 518.854 144.192C526.033 144.192 531.854 146.879 531.854 150.192Z" fill="#555352"/>
<ellipse cx="518.854" cy="145.692" rx="4" ry="1.5" fill="#636160"/>
<ellipse cx="437.354" cy="158.692" rx="14.5" ry="8.5" fill="black" fill-opacity="0.2"/>
<ellipse cx="435.854" cy="155.192" rx="16" ry="10" fill="#414241"/>
<path d="M448.854 151.192C448.854 154.506 443.033 157.192 435.854 157.192C428.674 157.192 422.854 154.506 422.854 151.192C422.854 147.879 428.674 145.192 435.854 145.192C443.033 145.192 448.854 147.879 448.854 151.192Z" fill="#555352"/>
<ellipse cx="435.854" cy="146.692" rx="4" ry="1.5" fill="#636160"/>
<ellipse cx="291.354" cy="269.692" rx="14.5" ry="8.5" fill="black" fill-opacity="0.2"/>
<ellipse cx="289.854" cy="266.192" rx="16" ry="10" fill="#414241"/>
<path d="M302.854 262.192C302.854 265.506 297.033 268.192 289.854 268.192C282.674 268.192 276.854 265.506 276.854 262.192C276.854 258.879 282.674 256.192 289.854 256.192C297.033 256.192 302.854 258.879 302.854 262.192Z" fill="#555352"/>
<ellipse cx="289.854" cy="257.692" rx="4" ry="1.5" fill="#636160"/>
<ellipse cx="598.354" cy="186.692" rx="14.5" ry="8.5" fill="black" fill-opacity="0.2"/>
<ellipse cx="596.854" cy="183.192" rx="16" ry="10" fill="#414241"/>
<path d="M609.854 179.192C609.854 182.506 604.033 185.192 596.854 185.192C589.674 185.192 583.854 182.506 583.854 179.192C583.854 175.879 589.674 173.192 596.854 173.192C604.033 173.192 609.854 175.879 609.854 179.192Z" fill="#555352"/>
<ellipse cx="596.854" cy="174.692" rx="4" ry="1.5" fill="#636160"/>
<ellipse cx="465.354" cy="178.692" rx="14.5" ry="8.5" fill="black" fill-opacity="0.2"/>
<ellipse cx="463.854" cy="175.192" rx="16" ry="10" fill="#414241"/>
<path d="M476.854 171.192C476.854 174.506 471.033 177.192 463.854 177.192C456.674 177.192 450.854 174.506 450.854 171.192C450.854 167.879 456.674 165.192 463.854 165.192C471.033 165.192 476.854 167.879 476.854 171.192Z" fill="#555352"/>
<ellipse cx="463.854" cy="166.692" rx="4" ry="1.5" fill="#636160"/>
<ellipse cx="390.354" cy="128.692" rx="14.5" ry="8.5" fill="black" fill-opacity="0.2"/>
<ellipse cx="388.854" cy="125.192" rx="16" ry="10" fill="#414241"/>
<path d="M401.854 121.192C401.854 124.506 396.033 127.192 388.854 127.192C381.674 127.192 375.854 124.506 375.854 121.192C375.854 117.879 381.674 115.192 388.854 115.192C396.033 115.192 401.854 117.879 401.854 121.192Z" fill="#555352"/>
<ellipse cx="388.854" cy="116.692" rx="4" ry="1.5" fill="#636160"/>
<ellipse cx="320.354" cy="205.692" rx="14.5" ry="8.5" fill="black" fill-opacity="0.2"/>
<ellipse cx="318.854" cy="202.192" rx="16" ry="10" fill="#DDDEDC"/>
<ellipse cx="318.854" cy="198.192" rx="13" ry="6" fill="#EBEBEB"/>
<ellipse cx="318.854" cy="193.692" rx="4" ry="1.5" fill="#FAFDFA"/>
<ellipse cx="291.354" cy="299.692" rx="14.5" ry="8.5" fill="black" fill-opacity="0.2"/>
<ellipse cx="289.854" cy="296.192" rx="16" ry="10" fill="#DDDEDC"/>
<ellipse cx="289.854" cy="292.192" rx="13" ry="6" fill="#EBEBEB"/>
<ellipse cx="289.854" cy="287.692" rx="4" ry="1.5" fill="#FAFDFA"/>
<ellipse cx="598.354" cy="216.692" rx="14.5" ry="8.5" fill="black" fill-opacity="0.2"/>
<ellipse cx="596.854" cy="213.192" rx="16" ry="10" fill="#DDDEDC"/>
<ellipse cx="596.854" cy="209.192" rx="13" ry="6" fill="#EBEBEB"/>
<ellipse cx="596.854" cy="204.692" rx="4" ry="1.5" fill="#FAFDFA"/>
<ellipse rx="14.5" ry="8.5" transform="matrix(-1 0 0 1 478.354 399.692)" fill="black" fill-opacity="0.2"/>
<ellipse rx="16" ry="10" transform="matrix(-1 0 0 1 479.854 396.192)" fill="#DDDEDC"/>
<path d="M466.854 392.192C466.854 395.506 472.674 398.192 479.854 398.192C487.033 398.192 492.854 395.506 492.854 392.192C492.854 388.879 487.033 386.192 479.854 386.192C472.674 386.192 466.854 388.879 466.854 392.192Z" fill="#EBEBEB"/>
<ellipse rx="4" ry="1.5" transform="matrix(-1 0 0 1 479.854 387.692)" fill="#FAFDFA"/>
<ellipse rx="14.5" ry="8.5" transform="matrix(-1 0 0 1 502.354 411.692)" fill="black" fill-opacity="0.2"/>
<ellipse rx="16" ry="10" transform="matrix(-1 0 0 1 503.854 408.192)" fill="#DDDEDC"/>
<path d="M490.854 404.192C490.854 407.506 496.674 410.192 503.854 410.192C511.033 410.192 516.854 407.506 516.854 404.192C516.854 400.879 511.033 398.192 503.854 398.192C496.674 398.192 490.854 400.879 490.854 404.192Z" fill="#EBEBEB"/>
<ellipse rx="4" ry="1.5" transform="matrix(-1 0 0 1 503.854 399.692)" fill="#FAFDFA"/>
<ellipse rx="14.5" ry="8.5" transform="matrix(-1 0 0 1 525.354 424.692)" fill="black" fill-opacity="0.2"/>
<ellipse rx="16" ry="10" transform="matrix(-1 0 0 1 526.854 421.192)" fill="#DDDEDC"/>
<path d="M513.854 417.192C513.854 420.506 519.674 423.192 526.854 423.192C534.033 423.192 539.854 420.506 539.854 417.192C539.854 413.879 534.033 411.192 526.854 411.192C519.674 411.192 513.854 413.879 513.854 417.192Z" fill="#EBEBEB"/>
<ellipse rx="4" ry="1.5" transform="matrix(-1 0 0 1 526.854 412.692)" fill="#FAFDFA"/>
<ellipse rx="14.5" ry="8.5" transform="matrix(-1 0 0 1 503.354 437.692)" fill="black" fill-opacity="0.2"/>
<ellipse rx="16" ry="10" transform="matrix(-1 0 0 1 504.854 434.192)" fill="#DDDEDC"/>
<path d="M491.854 430.192C491.854 433.506 497.674 436.192 504.854 436.192C512.033 436.192 517.854 433.506 517.854 430.192C517.854 426.879 512.033 424.192 504.854 424.192C497.674 424.192 491.854 426.879 491.854 430.192Z" fill="#EBEBEB"/>
<ellipse rx="4" ry="1.5" transform="matrix(-1 0 0 1 504.854 425.692)" fill="#FAFDFA"/>
<ellipse rx="14.5" ry="8.5" transform="matrix(-1 0 0 1 432.354 424.692)" fill="black" fill-opacity="0.2"/>
<ellipse rx="16" ry="10" transform="matrix(-1 0 0 1 433.854 421.192)" fill="#DDDEDC"/>
<path d="M420.854 417.192C420.854 420.506 426.674 423.192 433.854 423.192C441.033 423.192 446.854 420.506 446.854 417.192C446.854 413.879 441.033 411.192 433.854 411.192C426.674 411.192 420.854 413.879 420.854 417.192Z" fill="#EBEBEB"/>
<ellipse rx="4" ry="1.5" transform="matrix(-1 0 0 1 433.854 412.692)" fill="#FAFDFA"/>
<ellipse rx="14.5" ry="8.5" transform="matrix(-1 0 0 1 456.354 436.692)" fill="black" fill-opacity="0.2"/>
<ellipse rx="16" ry="10" transform="matrix(-1 0 0 1 457.854 433.192)" fill="#DDDEDC"/>
<path d="M444.854 429.192C444.854 432.506 450.674 435.192 457.854 435.192C465.033 435.192 470.854 432.506 470.854 429.192C470.854 425.879 465.033 423.192 457.854 423.192C450.674 423.192 444.854 425.879 444.854 429.192Z" fill="#EBEBEB"/>
<ellipse rx="4" ry="1.5" transform="matrix(-1 0 0 1 457.854 424.692)" fill="#FAFDFA"/>
<ellipse rx="14.5" ry="8.5" transform="matrix(-1 0 0 1 479.354 449.692)" fill="black" fill-opacity="0.2"/>
<ellipse rx="16" ry="10" transform="matrix(-1 0 0 1 480.854 446.192)" fill="#DDDEDC"/>
<path d="M467.854 442.192C467.854 445.506 473.674 448.192 480.854 448.192C488.033 448.192 493.854 445.506 493.854 442.192C493.854 438.879 488.033 436.192 480.854 436.192C473.674 436.192 467.854 438.879 467.854 442.192Z" fill="#EBEBEB"/>
<ellipse rx="4" ry="1.5" transform="matrix(-1 0 0 1 480.854 437.692)" fill="#FAFDFA"/>
<ellipse rx="14.5" ry="8.5" transform="matrix(-1 0 0 1 409.354 436.692)" fill="black" fill-opacity="0.2"/>
<ellipse rx="16" ry="10" transform="matrix(-1 0 0 1 410.854 433.192)" fill="#DDDEDC"/>
<path d="M397.854 429.192C397.854 432.506 403.674 435.192 410.854 435.192C418.033 435.192 423.854 432.506 423.854 429.192C423.854 425.879 418.033 423.192 410.854 423.192C403.674 423.192 397.854 425.879 397.854 429.192Z" fill="#EBEBEB"/>
<ellipse rx="4" ry="1.5" transform="matrix(-1 0 0 1 410.854 424.692)" fill="#FAFDFA"/>
<ellipse rx="14.5" ry="8.5" transform="matrix(-1 0 0 1 387.354 449.692)" fill="black" fill-opacity="0.2"/>
<ellipse rx="16" ry="10" transform="matrix(-1 0 0 1 388.854 446.192)" fill="#DDDEDC"/>
<path d="M375.854 442.192C375.854 445.506 381.674 448.192 388.854 448.192C396.033 448.192 401.854 445.506 401.854 442.192C401.854 438.879 396.033 436.192 388.854 436.192C381.674 436.192 375.854 438.879 375.854 442.192Z" fill="#EBEBEB"/>
<ellipse rx="4" ry="1.5" transform="matrix(-1 0 0 1 388.854 437.692)" fill="#FAFDFA"/>
<ellipse rx="14.5" ry="8.5" transform="matrix(-1 0 0 1 411.354 461.692)" fill="black" fill-opacity="0.2"/>
<ellipse rx="16" ry="10" transform="matrix(-1 0 0 1 412.854 458.192)" fill="#DDDEDC"/>
<path d="M399.854 454.192C399.854 457.506 405.674 460.192 412.854 460.192C420.033 460.192 425.854 457.506 425.854 454.192C425.854 450.879 420.033 448.192 412.854 448.192C405.674 448.192 399.854 450.879 399.854 454.192Z" fill="#EBEBEB"/>
<ellipse rx="4" ry="1.5" transform="matrix(-1 0 0 1 412.854 449.692)" fill="#FAFDFA"/>
<ellipse rx="14.5" ry="8.5" transform="matrix(-1 0 0 1 434.354 474.692)" fill="black" fill-opacity="0.2"/>
<ellipse rx="16" ry="10" transform="matrix(-1 0 0 1 435.854 471.192)" fill="#DDDEDC"/>
<path d="M422.854 467.192C422.854 470.506 428.674 473.192 435.854 473.192C443.033 473.192 448.854 470.506 448.854 467.192C448.854 463.879 443.033 461.192 435.854 461.192C428.674 461.192 422.854 463.879 422.854 467.192Z" fill="#EBEBEB"/>
<ellipse rx="4" ry="1.5" transform="matrix(-1 0 0 1 435.854 462.692)" fill="#FAFDFA"/>
<ellipse rx="14.5" ry="8.5" transform="matrix(-1 0 0 1 390.354 352.692)" fill="black" fill-opacity="0.2"/>
<ellipse rx="16" ry="10" transform="matrix(-1 0 0 1 391.854 349.192)" fill="#DDDEDC"/>
<path d="M378.854 345.192C378.854 348.506 384.674 351.192 391.854 351.192C399.033 351.192 404.854 348.506 404.854 345.192C404.854 341.879 399.033 339.192 391.854 339.192C384.674 339.192 378.854 341.879 378.854 345.192Z" fill="#EBEBEB"/>
<ellipse rx="4" ry="1.5" transform="matrix(-1 0 0 1 391.854 340.692)" fill="#FAFDFA"/>
<ellipse rx="14.5" ry="8.5" transform="matrix(-1 0 0 1 413.354 365.692)" fill="black" fill-opacity="0.2"/>
<ellipse rx="16" ry="10" transform="matrix(-1 0 0 1 414.854 362.192)" fill="#DDDEDC"/>
<path d="M401.854 358.192C401.854 361.506 407.674 364.192 414.854 364.192C422.033 364.192 427.854 361.506 427.854 358.192C427.854 354.879 422.033 352.192 414.854 352.192C407.674 352.192 401.854 354.879 401.854 358.192Z" fill="#EBEBEB"/>
<ellipse rx="4" ry="1.5" transform="matrix(-1 0 0 1 414.854 353.692)" fill="#FAFDFA"/>
<ellipse rx="14.5" ry="8.5" transform="matrix(-1 0 0 1 435.354 377.692)" fill="black" fill-opacity="0.2"/>
<ellipse rx="16" ry="10" transform="matrix(-1 0 0 1 436.854 374.192)" fill="#DDDEDC"/>
<path d="M423.854 370.192C423.854 373.506 429.674 376.192 436.854 376.192C444.033 376.192 449.854 373.506 449.854 370.192C449.854 366.879 444.033 364.192 436.854 364.192C429.674 364.192 423.854 366.879 423.854 370.192Z" fill="#EBEBEB"/>
<ellipse rx="4" ry="1.5" transform="matrix(-1 0 0 1 436.854 365.692)" fill="#FAFDFA"/>
<ellipse rx="14.5" ry="8.5" transform="matrix(-1 0 0 1 415.354 390.692)" fill="black" fill-opacity="0.2"/>
<ellipse rx="16" ry="10" transform="matrix(-1 0 0 1 416.854 387.192)" fill="#DDDEDC"/>
<path d="M403.854 383.192C403.854 386.506 409.674 389.192 416.854 389.192C424.033 389.192 429.854 386.506 429.854 383.192C429.854 379.879 424.033 377.192 416.854 377.192C409.674 377.192 403.854 379.879 403.854 383.192Z" fill="#EBEBEB"/>
<ellipse rx="4" ry="1.5" transform="matrix(-1 0 0 1 416.854 378.692)" fill="#FAFDFA"/>
<ellipse rx="14.5" ry="8.5" transform="matrix(-1 0 0 1 344.354 377.692)" fill="black" fill-opacity="0.2"/>
<ellipse rx="16" ry="10" transform="matrix(-1 0 0 1 345.854 374.192)" fill="#DDDEDC"/>
<path d="M332.854 370.192C332.854 373.506 338.674 376.192 345.854 376.192C353.033 376.192 358.854 373.506 358.854 370.192C358.854 366.879 353.033 364.192 345.854 364.192C338.674 364.192 332.854 366.879 332.854 370.192Z" fill="#EBEBEB"/>
<ellipse rx="4" ry="1.5" transform="matrix(-1 0 0 1 345.854 365.692)" fill="#FAFDFA"/>
<ellipse rx="14.5" ry="8.5" transform="matrix(-1 0 0 1 368.354 389.692)" fill="black" fill-opacity="0.2"/>
<ellipse rx="16" ry="10" transform="matrix(-1 0 0 1 369.854 386.192)" fill="#DDDEDC"/>
<path d="M356.854 382.192C356.854 385.506 362.674 388.192 369.854 388.192C377.033 388.192 382.854 385.506 382.854 382.192C382.854 378.879 377.033 376.192 369.854 376.192C362.674 376.192 356.854 378.879 356.854 382.192Z" fill="#EBEBEB"/>
<ellipse rx="4" ry="1.5" transform="matrix(-1 0 0 1 369.854 377.692)" fill="#FAFDFA"/>
<ellipse rx="14.5" ry="8.5" transform="matrix(-1 0 0 1 391.354 402.692)" fill="black" fill-opacity="0.2"/>
<ellipse rx="16" ry="10" transform="matrix(-1 0 0 1 392.854 399.192)" fill="#DDDEDC"/>
<path d="M379.854 395.192C379.854 398.506 385.674 401.192 392.854 401.192C400.033 401.192 405.854 398.506 405.854 395.192C405.854 391.879 400.033 389.192 392.854 389.192C385.674 389.192 379.854 391.879 379.854 395.192Z" fill="#EBEBEB"/>
<ellipse rx="4" ry="1.5" transform="matrix(-1 0 0 1 392.854 390.692)" fill="#FAFDFA"/>
<ellipse rx="14.5" ry="8.5" transform="matrix(-1 0 0 1 322.354 390.692)" fill="black" fill-opacity="0.2"/>
<ellipse rx="16" ry="10" transform="matrix(-1 0 0 1 323.854 387.192)" fill="#DDDEDC"/>
<path d="M310.854 383.192C310.854 386.506 316.674 389.192 323.854 389.192C331.033 389.192 336.854 386.506 336.854 383.192C336.854 379.879 331.033 377.192 323.854 377.192C316.674 377.192 310.854 379.879 310.854 383.192Z" fill="#EBEBEB"/>
<ellipse rx="4" ry="1.5" transform="matrix(-1 0 0 1 323.854 378.692)" fill="#FAFDFA"/>
<ellipse rx="14.5" ry="8.5" transform="matrix(-1 0 0 1 299.354 402.692)" fill="black" fill-opacity="0.2"/>
<ellipse rx="16" ry="10" transform="matrix(-1 0 0 1 300.854 399.192)" fill="#DDDEDC"/>
<path d="M287.854 395.192C287.854 398.506 293.674 401.192 300.854 401.192C308.033 401.192 313.854 398.506 313.854 395.192C313.854 391.879 308.033 389.192 300.854 389.192C293.674 389.192 287.854 391.879 287.854 395.192Z" fill="#EBEBEB"/>
<ellipse rx="4" ry="1.5" transform="matrix(-1 0 0 1 300.854 390.692)" fill="#FAFDFA"/>
<ellipse rx="14.5" ry="8.5" transform="matrix(-1 0 0 1 323.354 414.692)" fill="black" fill-opacity="0.2"/>
<ellipse rx="16" ry="10" transform="matrix(-1 0 0 1 324.854 411.192)" fill="#DDDEDC"/>
<path d="M311.854 407.192C311.854 410.506 317.674 413.192 324.854 413.192C332.033 413.192 337.854 410.506 337.854 407.192C337.854 403.879 332.033 401.192 324.854 401.192C317.674 401.192 311.854 403.879 311.854 407.192Z" fill="#EBEBEB"/>
<ellipse rx="4" ry="1.5" transform="matrix(-1 0 0 1 324.854 402.692)" fill="#FAFDFA"/>
<ellipse rx="14.5" ry="8.5" transform="matrix(-1 0 0 1 346.354 427.692)" fill="black" fill-opacity="0.2"/>
<ellipse rx="16" ry="10" transform="matrix(-1 0 0 1 347.854 424.192)" fill="#DDDEDC"/>
<path d="M334.854 420.192C334.854 423.506 340.674 426.192 347.854 426.192C355.033 426.192 360.854 423.506 360.854 420.192C360.854 416.879 355.033 414.192 347.854 414.192C340.674 414.192 334.854 416.879 334.854 420.192Z" fill="#EBEBEB"/>
<ellipse rx="4" ry="1.5" transform="matrix(-1 0 0 1 347.854 415.692)" fill="#FAFDFA"/>
<ellipse cx="501.354" cy="263.692" rx="14.5" ry="8.5" fill="black" fill-opacity="0.2"/>
<ellipse cx="499.854" cy="260.192" rx="16" ry="10" fill="#DDDEDC"/>
<ellipse cx="499.854" cy="256.192" rx="13" ry="6" fill="#EBEBEB"/>
<ellipse cx="499.854" cy="251.692" rx="4" ry="1.5" fill="#FAFDFA"/>
<ellipse cx="523.354" cy="276.692" rx="14.5" ry="8.5" fill="black" fill-opacity="0.2"/>
<ellipse cx="521.854" cy="273.192" rx="16" ry="10" fill="#DDDEDC"/>
<ellipse cx="521.854" cy="269.192" rx="13" ry="6" fill="#EBEBEB"/>
<ellipse cx="521.854" cy="264.692" rx="4" ry="1.5" fill="#FAFDFA"/>
<ellipse cx="545.354" cy="289.692" rx="14.5" ry="8.5" fill="black" fill-opacity="0.2"/>
<ellipse cx="543.854" cy="286.192" rx="16" ry="10" fill="#DDDEDC"/>
<ellipse cx="543.854" cy="282.192" rx="13" ry="6" fill="#EBEBEB"/>
<ellipse cx="543.854" cy="277.692" rx="4" ry="1.5" fill="#FAFDFA"/>
<ellipse cx="568.354" cy="302.692" rx="14.5" ry="8.5" fill="black" fill-opacity="0.2"/>
<ellipse cx="566.854" cy="299.192" rx="16" ry="10" fill="#DDDEDC"/>
<ellipse cx="566.854" cy="295.192" rx="13" ry="6" fill="#EBEBEB"/>
<ellipse cx="566.854" cy="290.692" rx="4" ry="1.5" fill="#FAFDFA"/>
<ellipse cx="515.354" cy="294.692" rx="14.5" ry="8.5" fill="black" fill-opacity="0.2"/>
<ellipse cx="513.854" cy="291.192" rx="16" ry="10" fill="#DDDEDC"/>
<ellipse cx="513.854" cy="287.192" rx="13" ry="6" fill="#EBEBEB"/>
<ellipse cx="513.854" cy="282.692" rx="4" ry="1.5" fill="#FAFDFA"/>
<ellipse cx="491.354" cy="305.692" rx="14.5" ry="8.5" fill="black" fill-opacity="0.2"/>
<ellipse cx="489.854" cy="302.192" rx="16" ry="10" fill="#DDDEDC"/>
<ellipse cx="489.854" cy="298.192" rx="13" ry="6" fill="#EBEBEB"/>
<ellipse cx="489.854" cy="293.692" rx="4" ry="1.5" fill="#FAFDFA"/>
<ellipse cx="468.354" cy="317.692" rx="14.5" ry="8.5" fill="black" fill-opacity="0.2"/>
<ellipse cx="466.854" cy="314.192" rx="16" ry="10" fill="#DDDEDC"/>
<ellipse cx="466.854" cy="310.192" rx="13" ry="6" fill="#EBEBEB"/>
<ellipse cx="466.854" cy="305.692" rx="4" ry="1.5" fill="#FAFDFA"/>
<ellipse cx="444.354" cy="329.692" rx="14.5" ry="8.5" fill="black" fill-opacity="0.2"/>
<ellipse cx="442.854" cy="326.192" rx="16" ry="10" fill="#DDDEDC"/>
<ellipse cx="442.854" cy="322.192" rx="13" ry="6" fill="#EBEBEB"/>
<ellipse cx="442.854" cy="317.692" rx="4" ry="1.5" fill="#FAFDFA"/>
<ellipse cx="606.354" cy="322.692" rx="14.5" ry="8.5" fill="black" fill-opacity="0.2"/>
<ellipse cx="604.854" cy="319.192" rx="16" ry="10" fill="#DDDEDC"/>
<ellipse cx="604.854" cy="315.192" rx="13" ry="6" fill="#EBEBEB"/>
<ellipse cx="604.854" cy="310.692" rx="4" ry="1.5" fill="#FAFDFA"/>
<ellipse cx="583.354" cy="335.692" rx="14.5" ry="8.5" fill="black" fill-opacity="0.2"/>
<ellipse cx="581.854" cy="332.192" rx="16" ry="10" fill="#DDDEDC"/>
<ellipse cx="581.854" cy="328.192" rx="13" ry="6" fill="#EBEBEB"/>
<ellipse cx="581.854" cy="323.692" rx="4" ry="1.5" fill="#FAFDFA"/>
<ellipse cx="560.354" cy="348.692" rx="14.5" ry="8.5" fill="black" fill-opacity="0.2"/>
<ellipse cx="558.854" cy="345.192" rx="16" ry="10" fill="#DDDEDC"/>
<ellipse cx="558.854" cy="341.192" rx="13" ry="6" fill="#EBEBEB"/>
<ellipse cx="558.854" cy="336.692" rx="4" ry="1.5" fill="#FAFDFA"/>
<ellipse cx="539.354" cy="362.692" rx="14.5" ry="8.5" fill="black" fill-opacity="0.2"/>
<ellipse cx="537.854" cy="359.192" rx="16" ry="10" fill="#DDDEDC"/>
<ellipse cx="537.854" cy="355.192" rx="13" ry="6" fill="#EBEBEB"/>
<ellipse cx="537.854" cy="350.692" rx="4" ry="1.5" fill="#FAFDFA"/>
<ellipse cx="515.354" cy="374.692" rx="14.5" ry="8.5" fill="black" fill-opacity="0.2"/>
<ellipse cx="513.854" cy="371.192" rx="16" ry="10" fill="#DDDEDC"/>
<ellipse cx="513.854" cy="367.192" rx="13" ry="6" fill="#EBEBEB"/>
<ellipse cx="513.854" cy="362.692" rx="4" ry="1.5" fill="#FAFDFA"/>
<ellipse cx="628.354" cy="335.692" rx="14.5" ry="8.5" fill="black" fill-opacity="0.2"/>
<ellipse cx="626.854" cy="332.192" rx="16" ry="10" fill="#DDDEDC"/>
<ellipse cx="626.854" cy="328.192" rx="13" ry="6" fill="#EBEBEB"/>
<ellipse cx="626.854" cy="323.692" rx="4" ry="1.5" fill="#FAFDFA"/>
<ellipse cx="633.354" cy="354.692" rx="14.5" ry="8.5" fill="black" fill-opacity="0.2"/>
<ellipse cx="631.854" cy="351.192" rx="16" ry="10" fill="#DDDEDC"/>
<ellipse cx="631.854" cy="347.192" rx="13" ry="6" fill="#EBEBEB"/>
<ellipse cx="631.854" cy="342.692" rx="4" ry="1.5" fill="#FAFDFA"/>
<ellipse cx="539.354" cy="386.692" rx="14.5" ry="8.5" fill="black" fill-opacity="0.2"/>
<ellipse cx="537.854" cy="383.192" rx="16" ry="10" fill="#DDDEDC"/>
<ellipse cx="537.854" cy="379.192" rx="13" ry="6" fill="#EBEBEB"/>
<ellipse cx="537.854" cy="374.692" rx="4" ry="1.5" fill="#FAFDFA"/>
<ellipse cx="621.354" cy="371.692" rx="14.5" ry="8.5" fill="black" fill-opacity="0.2"/>
<ellipse cx="619.854" cy="368.192" rx="16" ry="10" fill="#DDDEDC"/>
<ellipse cx="619.854" cy="364.192" rx="13" ry="6" fill="#EBEBEB"/>
<ellipse cx="619.854" cy="359.692" rx="4" ry="1.5" fill="#FAFDFA"/>
<ellipse cx="599.354" cy="385.692" rx="14.5" ry="8.5" fill="black" fill-opacity="0.2"/>
<ellipse cx="597.854" cy="382.192" rx="16" ry="10" fill="#DDDEDC"/>
<ellipse cx="597.854" cy="378.192" rx="13" ry="6" fill="#EBEBEB"/>
<ellipse cx="597.854" cy="373.692" rx="4" ry="1.5" fill="#FAFDFA"/>
<ellipse cx="569.354" cy="390.692" rx="14.5" ry="8.5" fill="black" fill-opacity="0.2"/>
<ellipse cx="567.854" cy="387.192" rx="16" ry="10" fill="#DDDEDC"/>
<ellipse cx="567.854" cy="383.192" rx="13" ry="6" fill="#EBEBEB"/>
<ellipse cx="567.854" cy="378.692" rx="4" ry="1.5" fill="#FAFDFA"/>
<ellipse cx="481.354" cy="157.692" rx="14.5" ry="8.5" fill="black" fill-opacity="0.2"/>
<ellipse cx="479.854" cy="154.192" rx="16" ry="10" fill="#DDDEDC"/>
<ellipse cx="479.854" cy="150.192" rx="13" ry="6" fill="#EBEBEB"/>
<ellipse cx="479.854" cy="145.692" rx="4" ry="1.5" fill="#FAFDFA"/>
<ellipse cx="468.354" cy="121.692" rx="14.5" ry="8.5" fill="black" fill-opacity="0.2"/>
<ellipse cx="466.854" cy="118.192" rx="16" ry="10" fill="#DDDEDC"/>
<ellipse cx="466.854" cy="114.192" rx="13" ry="6" fill="#EBEBEB"/>
<ellipse cx="466.854" cy="109.692" rx="4" ry="1.5" fill="#FAFDFA"/>
<ellipse cx="505.354" cy="193.692" rx="14.5" ry="8.5" fill="black" fill-opacity="0.2"/>
<ellipse cx="503.854" cy="190.192" rx="16" ry="10" fill="#DDDEDC"/>
<ellipse cx="503.854" cy="186.192" rx="13" ry="6" fill="#EBEBEB"/>
<ellipse cx="503.854" cy="181.692" rx="4" ry="1.5" fill="#FAFDFA"/>
<ellipse cx="427.354" cy="195.692" rx="14.5" ry="8.5" fill="black" fill-opacity="0.2"/>
<ellipse cx="425.854" cy="192.192" rx="16" ry="10" fill="#DDDEDC"/>
<ellipse cx="425.854" cy="188.192" rx="13" ry="6" fill="#EBEBEB"/>
<ellipse cx="425.854" cy="183.692" rx="4" ry="1.5" fill="#FAFDFA"/>
<ellipse cx="562.354" cy="196.692" rx="14.5" ry="8.5" fill="black" fill-opacity="0.2"/>
<ellipse cx="560.854" cy="193.192" rx="16" ry="10" fill="#DDDEDC"/>
<ellipse cx="560.854" cy="189.192" rx="13" ry="6" fill="#EBEBEB"/>
<ellipse cx="560.854" cy="184.692" rx="4" ry="1.5" fill="#FAFDFA"/>
<path d="M953.854 509.692C953.854 545.591 918.484 574.692 874.854 574.692C831.223 574.692 795.854 545.591 795.854 509.692C795.854 473.794 831.223 444.692 874.854 444.692C918.484 444.692 953.854 473.794 953.854 509.692Z" fill="#584139"/>
<path d="M953.854 509.692C953.854 545.591 918.484 563.692 874.854 563.692C831.223 563.692 795.854 545.591 795.854 509.692C795.854 473.794 831.223 444.692 874.854 444.692C918.484 444.692 953.854 473.794 953.854 509.692Z" fill="#74564B"/>
<ellipse cx="874.854" cy="477.192" rx="57.5" ry="33" fill="#392821"/>
<ellipse cx="865.854" cy="463.692" rx="14.5" ry="8.5" fill="black" fill-opacity="0.2"/>
<ellipse cx="864.354" cy="460.192" rx="16" ry="10" fill="#DDDEDC"/>
<ellipse cx="864.354" cy="456.192" rx="13" ry="6" fill="#EBEBEB"/>
<ellipse cx="864.354" cy="451.692" rx="4" ry="1.5" fill="#FAFDFA"/>
<ellipse cx="885.854" cy="465.692" rx="14.5" ry="8.5" fill="black" fill-opacity="0.2"/>
<ellipse cx="884.354" cy="462.192" rx="16" ry="10" fill="#DDDEDC"/>
<ellipse cx="884.354" cy="458.192" rx="13" ry="6" fill="#EBEBEB"/>
<ellipse cx="884.354" cy="453.692" rx="4" ry="1.5" fill="#FAFDFA"/>
<ellipse cx="852.854" cy="473.692" rx="14.5" ry="8.5" fill="black" fill-opacity="0.2"/>
<ellipse cx="851.354" cy="470.192" rx="16" ry="10" fill="#DDDEDC"/>
<ellipse cx="851.354" cy="466.192" rx="13" ry="6" fill="#EBEBEB"/>
<ellipse cx="851.354" cy="461.692" rx="4" ry="1.5" fill="#FAFDFA"/>
<ellipse cx="905.854" cy="474.692" rx="14.5" ry="8.5" fill="black" fill-opacity="0.2"/>
<ellipse cx="904.354" cy="471.192" rx="16" ry="10" fill="#DDDEDC"/>
<ellipse cx="904.354" cy="467.192" rx="13" ry="6" fill="#EBEBEB"/>
<ellipse cx="904.354" cy="462.692" rx="4" ry="1.5" fill="#FAFDFA"/>
<ellipse cx="878.854" cy="479.692" rx="14.5" ry="8.5" fill="black" fill-opacity="0.2"/>
<ellipse cx="877.354" cy="476.192" rx="16" ry="10" fill="#DDDEDC"/>
<ellipse cx="877.354" cy="472.192" rx="13" ry="6" fill="#EBEBEB"/>
<ellipse cx="877.354" cy="467.692" rx="4" ry="1.5" fill="#FAFDFA"/>
<ellipse cx="856.854" cy="489.692" rx="14.5" ry="8.5" fill="black" fill-opacity="0.2"/>
<ellipse cx="855.354" cy="486.192" rx="16" ry="10" fill="#DDDEDC"/>
<ellipse cx="855.354" cy="482.192" rx="13" ry="6" fill="#EBEBEB"/>
<ellipse cx="855.354" cy="477.692" rx="4" ry="1.5" fill="#FAFDFA"/>
<ellipse cx="834.854" cy="485.692" rx="14.5" ry="8.5" fill="black" fill-opacity="0.2"/>
<ellipse cx="833.354" cy="482.192" rx="16" ry="10" fill="#DDDEDC"/>
<ellipse cx="833.354" cy="478.192" rx="13" ry="6" fill="#EBEBEB"/>
<ellipse cx="833.354" cy="473.692" rx="4" ry="1.5" fill="#FAFDFA"/>
<ellipse cx="897.854" cy="486.692" rx="14.5" ry="8.5" fill="black" fill-opacity="0.2"/>
<ellipse cx="896.354" cy="483.192" rx="16" ry="10" fill="#DDDEDC"/>
<ellipse cx="896.354" cy="479.192" rx="13" ry="6" fill="#EBEBEB"/>
<ellipse cx="896.354" cy="474.692" rx="4" ry="1.5" fill="#FAFDFA"/>
<ellipse cx="876.854" cy="488.692" rx="14.5" ry="8.5" fill="black" fill-opacity="0.2"/>
<ellipse cx="875.354" cy="485.192" rx="16" ry="10" fill="#DDDEDC"/>
<ellipse cx="875.354" cy="481.192" rx="13" ry="6" fill="#EBEBEB"/>
<ellipse cx="875.354" cy="476.692" rx="4" ry="1.5" fill="#FAFDFA"/>
<ellipse cx="897.854" cy="499.692" rx="14.5" ry="8.5" fill="black" fill-opacity="0.2"/>
<ellipse cx="896.354" cy="496.192" rx="16" ry="10" fill="#DDDEDC"/>
<ellipse cx="896.354" cy="492.192" rx="13" ry="6" fill="#EBEBEB"/>
<ellipse cx="896.354" cy="487.692" rx="4" ry="1.5" fill="#FAFDFA"/>
<ellipse cx="872.854" cy="502.692" rx="14.5" ry="8.5" fill="black" fill-opacity="0.2"/>
<ellipse cx="871.354" cy="499.192" rx="16" ry="10" fill="#DDDEDC"/>
<ellipse cx="871.354" cy="495.192" rx="13" ry="6" fill="#EBEBEB"/>
<ellipse cx="871.354" cy="490.692" rx="4" ry="1.5" fill="#FAFDFA"/>
<ellipse cx="849.854" cy="498.692" rx="14.5" ry="8.5" fill="black" fill-opacity="0.2"/>
<ellipse cx="848.354" cy="495.192" rx="16" ry="10" fill="#DDDEDC"/>
<ellipse cx="848.354" cy="491.192" rx="13" ry="6" fill="#EBEBEB"/>
<ellipse cx="848.354" cy="486.692" rx="4" ry="1.5" fill="#FAFDFA"/>
<ellipse cx="918.854" cy="491.692" rx="14.5" ry="8.5" fill="black" fill-opacity="0.2"/>
<ellipse cx="917.354" cy="488.192" rx="16" ry="10" fill="#DDDEDC"/>
<ellipse cx="917.354" cy="484.192" rx="13" ry="6" fill="#EBEBEB"/>
<ellipse cx="917.354" cy="479.692" rx="4" ry="1.5" fill="#FAFDFA"/>
<ellipse cx="832.854" cy="500.692" rx="14.5" ry="8.5" fill="black" fill-opacity="0.2"/>
<ellipse cx="831.354" cy="497.192" rx="16" ry="10" fill="#DDDEDC"/>
<ellipse cx="831.354" cy="493.192" rx="13" ry="6" fill="#EBEBEB"/>
<ellipse cx="831.354" cy="488.692" rx="4" ry="1.5" fill="#FAFDFA"/>
<ellipse cx="855.854" cy="515.692" rx="14.5" ry="8.5" fill="black" fill-opacity="0.2"/>
<ellipse cx="854.354" cy="512.192" rx="16" ry="10" fill="#DDDEDC"/>
<ellipse cx="854.354" cy="508.192" rx="13" ry="6" fill="#EBEBEB"/>
<ellipse cx="854.354" cy="503.692" rx="4" ry="1.5" fill="#FAFDFA"/>
<ellipse cx="891.854" cy="513.692" rx="14.5" ry="8.5" fill="black" fill-opacity="0.2"/>
<ellipse cx="890.354" cy="510.192" rx="16" ry="10" fill="#DDDEDC"/>
<ellipse cx="890.354" cy="506.192" rx="13" ry="6" fill="#EBEBEB"/>
<ellipse cx="890.354" cy="501.692" rx="4" ry="1.5" fill="#FAFDFA"/>
<ellipse cx="920.854" cy="507.692" rx="14.5" ry="8.5" fill="black" fill-opacity="0.2"/>
<ellipse cx="919.354" cy="504.192" rx="16" ry="10" fill="#DDDEDC"/>
<ellipse cx="919.354" cy="500.192" rx="13" ry="6" fill="#EBEBEB"/>
<ellipse cx="919.354" cy="495.692" rx="4" ry="1.5" fill="#FAFDFA"/>
<mask id="path-459-inside-1_27_4" fill="white">
<path d="M936.653 491.926C934.393 497.911 926.781 503.365 915.229 507.276C903.678 511.186 888.972 513.287 873.841 513.189C858.71 513.091 844.182 510.8 832.954 506.742C821.725 502.684 814.559 497.135 812.784 491.123L824.753 490.558C826.185 495.41 831.97 499.89 841.033 503.166C850.096 506.441 861.823 508.29 874.036 508.369C886.25 508.448 898.12 506.752 907.444 503.596C916.768 500.439 922.912 496.037 924.736 491.206L936.653 491.926Z"/>
</mask>
<path d="M936.653 491.926C934.393 497.911 926.781 503.365 915.229 507.276C903.678 511.186 888.972 513.287 873.841 513.189C858.71 513.091 844.182 510.8 832.954 506.742C821.725 502.684 814.559 497.135 812.784 491.123L824.753 490.558C826.185 495.41 831.97 499.89 841.033 503.166C850.096 506.441 861.823 508.29 874.036 508.369C886.25 508.448 898.12 506.752 907.444 503.596C916.768 500.439 922.912 496.037 924.736 491.206L936.653 491.926Z" stroke="#74564B" stroke-width="60" mask="url(#path-459-inside-1_27_4)"/>
<mask id="path-460-inside-2_27_4" fill="white">
<path d="M936.653 495.926C934.393 501.911 926.781 507.365 915.229 511.276C903.678 515.186 888.972 517.287 873.841 517.189C858.71 517.091 844.182 514.8 832.954 510.742C821.725 506.684 814.559 501.135 812.784 495.123L824.753 494.558C826.185 499.41 831.97 503.89 841.033 507.166C850.096 510.441 861.823 512.29 874.036 512.369C886.25 512.448 898.12 510.752 907.444 507.596C916.768 504.439 922.912 500.037 924.736 495.206L936.653 495.926Z"/>
</mask>
<path d="M936.653 495.926C934.393 501.911 926.781 507.365 915.229 511.276C903.678 515.186 888.972 517.287 873.841 517.189C858.71 517.091 844.182 514.8 832.954 510.742C821.725 506.684 814.559 501.135 812.784 495.123L824.753 494.558C826.185 499.41 831.97 503.89 841.033 507.166C850.096 510.441 861.823 512.29 874.036 512.369C886.25 512.448 898.12 510.752 907.444 507.596C916.768 504.439 922.912 500.037 924.736 495.206L936.653 495.926Z" stroke="#74564B" stroke-width="60" mask="url(#path-460-inside-2_27_4)"/>
<mask id="path-461-inside-3_27_4" fill="white">
<path d="M936.653 499.926C934.393 505.911 926.781 511.365 915.229 515.276C903.678 519.186 888.972 521.287 873.841 521.189C858.71 521.091 844.182 518.8 832.954 514.742C821.725 510.684 814.559 505.135 812.784 499.123L824.753 498.558C826.185 503.41 831.97 507.89 841.033 511.166C850.096 514.441 861.823 516.29 874.036 516.369C886.25 516.448 898.12 514.752 907.444 511.596C916.768 508.439 922.912 504.037 924.736 499.206L936.653 499.926Z"/>
</mask>
<path d="M936.653 499.926C934.393 505.911 926.781 511.365 915.229 515.276C903.678 519.186 888.972 521.287 873.841 521.189C858.71 521.091 844.182 518.8 832.954 514.742C821.725 510.684 814.559 505.135 812.784 499.123L824.753 498.558C826.185 503.41 831.97 507.89 841.033 511.166C850.096 514.441 861.823 516.29 874.036 516.369C886.25 516.448 898.12 514.752 907.444 511.596C916.768 508.439 922.912 504.037 924.736 499.206L936.653 499.926Z" stroke="#74564B" stroke-width="60" mask="url(#path-461-inside-3_27_4)"/>
<mask id="path-462-inside-4_27_4" fill="white">
<path d="M936.653 504.5C934.393 510.605 926.781 516.169 915.229 520.157C903.678 524.146 888.972 526.289 873.841 526.189C858.71 526.089 844.182 523.753 832.954 519.613C821.725 515.474 814.559 509.813 812.784 503.682L824.753 503.105C826.185 508.055 831.97 512.624 841.033 515.965C850.096 519.306 861.823 521.192 874.036 521.273C886.25 521.353 898.12 519.623 907.444 516.404C916.768 513.184 922.912 508.694 924.736 503.766L936.653 504.5Z"/>
</mask>
<path d="M936.653 504.5C934.393 510.605 926.781 516.169 915.229 520.157C903.678 524.146 888.972 526.289 873.841 526.189C858.71 526.089 844.182 523.753 832.954 519.613C821.725 515.474 814.559 509.813 812.784 503.682L824.753 503.105C826.185 508.055 831.97 512.624 841.033 515.965C850.096 519.306 861.823 521.192 874.036 521.273C886.25 521.353 898.12 519.623 907.444 516.404C916.768 513.184 922.912 508.694 924.736 503.766L936.653 504.5Z" stroke="#74564B" stroke-width="60" mask="url(#path-462-inside-4_27_4)"/>
<rect x="921.354" y="499.192" width="19" height="23" fill="#74564B"/>
<path d="M930.854 480.692L945.354 487.192V508.192L922.854 495.692L930.854 480.692Z" fill="#74564B"/>
<path d="M816.354 477.192L825.854 494.192L824.854 513.692L802.354 501.192L816.354 477.192Z" fill="#74564B"/>
<path d="M930.854 477.192C930.854 485.538 924.946 493.383 914.766 499.226C904.626 505.045 890.518 508.692 874.854 508.692C859.189 508.692 845.081 505.045 834.942 499.226C824.761 493.383 818.854 485.538 818.854 477.192C818.854 468.847 824.761 461.002 834.942 455.159C845.081 449.339 859.189 445.692 874.854 445.692C890.518 445.692 904.626 449.339 914.766 455.159C924.946 461.002 930.854 468.847 930.854 477.192Z" stroke="#886E66" stroke-width="3"/>
<path d="M898.854 103.692C898.854 139.591 863.484 168.692 819.854 168.692C776.223 168.692 740.854 139.591 740.854 103.692C740.854 67.7939 776.223 38.6924 819.854 38.6924C863.484 38.6924 898.854 67.7939 898.854 103.692Z" fill="#584139"/>
<path d="M898.854 103.692C898.854 139.591 863.484 157.692 819.854 157.692C776.223 157.692 740.854 139.591 740.854 103.692C740.854 67.7939 776.223 38.6924 819.854 38.6924C863.484 38.6924 898.854 67.7939 898.854 103.692Z" fill="#74564B"/>
<ellipse cx="819.854" cy="71.1924" rx="57.5" ry="33" fill="#392821"/>
<ellipse cx="810.854" cy="57.6924" rx="14.5" ry="8.5" fill="black" fill-opacity="0.2"/>
<ellipse cx="809.354" cy="54.1924" rx="16" ry="10" fill="#414241"/>
<ellipse cx="809.354" cy="50.1924" rx="13" ry="6" fill="#555352"/>
<ellipse cx="809.354" cy="45.6924" rx="4" ry="1.5" fill="#636160"/>
<ellipse cx="830.854" cy="59.6924" rx="14.5" ry="8.5" fill="black" fill-opacity="0.2"/>
<ellipse cx="829.354" cy="56.1924" rx="16" ry="10" fill="#414241"/>
<ellipse cx="829.354" cy="52.1924" rx="13" ry="6" fill="#555352"/>
<ellipse cx="829.354" cy="47.6924" rx="4" ry="1.5" fill="#636160"/>
<ellipse cx="797.854" cy="67.6924" rx="14.5" ry="8.5" fill="black" fill-opacity="0.2"/>
<ellipse cx="796.354" cy="64.1924" rx="16" ry="10" fill="#414241"/>
<ellipse cx="796.354" cy="60.1924" rx="13" ry="6" fill="#555352"/>
<ellipse cx="796.354" cy="55.6924" rx="4" ry="1.5" fill="#636160"/>
<ellipse cx="850.854" cy="68.6924" rx="14.5" ry="8.5" fill="black" fill-opacity="0.2"/>
<ellipse cx="849.354" cy="65.1924" rx="16" ry="10" fill="#414241"/>
<ellipse cx="849.354" cy="61.1924" rx="13" ry="6" fill="#555352"/>
<ellipse cx="849.354" cy="56.6924" rx="4" ry="1.5" fill="#636160"/>
<ellipse cx="823.854" cy="73.6924" rx="14.5" ry="8.5" fill="black" fill-opacity="0.2"/>
<ellipse cx="822.354" cy="70.1924" rx="16" ry="10" fill="#414241"/>
<ellipse cx="822.354" cy="66.1924" rx="13" ry="6" fill="#555352"/>
<ellipse cx="822.354" cy="61.6924" rx="4" ry="1.5" fill="#636160"/>
<ellipse cx="801.854" cy="83.6924" rx="14.5" ry="8.5" fill="black" fill-opacity="0.2"/>
<ellipse cx="800.354" cy="80.1924" rx="16" ry="10" fill="#414241"/>
<ellipse cx="800.354" cy="76.1924" rx="13" ry="6" fill="#555352"/>
<ellipse cx="800.354" cy="71.6924" rx="4" ry="1.5" fill="#636160"/>
<ellipse cx="779.854" cy="79.6924" rx="14.5" ry="8.5" fill="black" fill-opacity="0.2"/>
<ellipse cx="778.354" cy="76.1924" rx="16" ry="10" fill="#414241"/>
<ellipse cx="778.354" cy="72.1924" rx="13" ry="6" fill="#555352"/>
<ellipse cx="778.354" cy="67.6924" rx="4" ry="1.5" fill="#636160"/>
<ellipse cx="842.854" cy="80.6924" rx="14.5" ry="8.5" fill="black" fill-opacity="0.2"/>
<ellipse cx="841.354" cy="77.1924" rx="16" ry="10" fill="#414241"/>
<ellipse cx="841.354" cy="73.1924" rx="13" ry="6" fill="#555352"/>
<ellipse cx="841.354" cy="68.6924" rx="4" ry="1.5" fill="#636160"/>
<ellipse cx="821.854" cy="82.6924" rx="14.5" ry="8.5" fill="black" fill-opacity="0.2"/>
<ellipse cx="820.354" cy="79.1924" rx="16" ry="10" fill="#414241"/>
<ellipse cx="820.354" cy="75.1924" rx="13" ry="6" fill="#555352"/>
<ellipse cx="820.354" cy="70.6924" rx="4" ry="1.5" fill="#636160"/>
<ellipse cx="842.854" cy="93.6924" rx="14.5" ry="8.5" fill="black" fill-opacity="0.2"/>
<ellipse cx="841.354" cy="90.1924" rx="16" ry="10" fill="#414241"/>
<ellipse cx="841.354" cy="86.1924" rx="13" ry="6" fill="#555352"/>
<ellipse cx="841.354" cy="81.6924" rx="4" ry="1.5" fill="#636160"/>
<ellipse cx="817.854" cy="96.6924" rx="14.5" ry="8.5" fill="black" fill-opacity="0.2"/>
<ellipse cx="816.354" cy="93.1924" rx="16" ry="10" fill="#414241"/>
<ellipse cx="816.354" cy="89.1924" rx="13" ry="6" fill="#555352"/>
<ellipse cx="816.354" cy="84.6924" rx="4" ry="1.5" fill="#636160"/>
<ellipse cx="794.854" cy="92.6924" rx="14.5" ry="8.5" fill="black" fill-opacity="0.2"/>
<ellipse cx="793.354" cy="89.1924" rx="16" ry="10" fill="#414241"/>
<ellipse cx="793.354" cy="85.1924" rx="13" ry="6" fill="#555352"/>
<ellipse cx="793.354" cy="80.6924" rx="4" ry="1.5" fill="#636160"/>
<ellipse cx="863.854" cy="85.6924" rx="14.5" ry="8.5" fill="black" fill-opacity="0.2"/>
<ellipse cx="862.354" cy="82.1924" rx="16" ry="10" fill="#414241"/>
<ellipse cx="862.354" cy="78.1924" rx="13" ry="6" fill="#555352"/>
<ellipse cx="862.354" cy="73.6924" rx="4" ry="1.5" fill="#636160"/>
<ellipse cx="777.854" cy="94.6924" rx="14.5" ry="8.5" fill="black" fill-opacity="0.2"/>
<ellipse cx="776.354" cy="91.1924" rx="16" ry="10" fill="#414241"/>
<ellipse cx="776.354" cy="87.1924" rx="13" ry="6" fill="#555352"/>
<ellipse cx="776.354" cy="82.6924" rx="4" ry="1.5" fill="#636160"/>
<ellipse cx="800.854" cy="109.692" rx="14.5" ry="8.5" fill="black" fill-opacity="0.2"/>
<ellipse cx="799.354" cy="106.192" rx="16" ry="10" fill="#414241"/>
<ellipse cx="799.354" cy="102.192" rx="13" ry="6" fill="#555352"/>
<ellipse cx="799.354" cy="97.6924" rx="4" ry="1.5" fill="#636160"/>
<ellipse cx="836.854" cy="107.692" rx="14.5" ry="8.5" fill="black" fill-opacity="0.2"/>
<ellipse cx="835.354" cy="104.192" rx="16" ry="10" fill="#414241"/>
<ellipse cx="835.354" cy="100.192" rx="13" ry="6" fill="#555352"/>
<ellipse cx="835.354" cy="95.6924" rx="4" ry="1.5" fill="#636160"/>
<ellipse cx="865.854" cy="101.692" rx="14.5" ry="8.5" fill="black" fill-opacity="0.2"/>
<ellipse cx="864.354" cy="98.1924" rx="16" ry="10" fill="#414241"/>
<ellipse cx="864.354" cy="94.1924" rx="13" ry="6" fill="#555352"/>
<ellipse cx="864.354" cy="89.6924" rx="4" ry="1.5" fill="#636160"/>
<mask id="path-538-inside-5_27_4" fill="white">
<path d="M881.653 85.9258C879.393 91.9111 871.781 97.3651 860.229 101.276C848.678 105.186 833.972 107.287 818.841 107.189C803.71 107.091 789.182 104.8 777.954 100.742C766.725 96.6844 759.559 91.1346 757.784 85.1232L769.753 84.5581C771.185 89.4104 776.97 93.89 786.033 97.1655C795.096 100.441 806.823 102.29 819.036 102.369C831.25 102.448 843.12 100.752 852.444 97.5958C861.768 94.4394 867.912 90.0371 869.736 85.2059L881.653 85.9258Z"/>
</mask>
<path d="M881.653 85.9258C879.393 91.9111 871.781 97.3651 860.229 101.276C848.678 105.186 833.972 107.287 818.841 107.189C803.71 107.091 789.182 104.8 777.954 100.742C766.725 96.6844 759.559 91.1346 757.784 85.1232L769.753 84.5581C771.185 89.4104 776.97 93.89 786.033 97.1655C795.096 100.441 806.823 102.29 819.036 102.369C831.25 102.448 843.12 100.752 852.444 97.5958C861.768 94.4394 867.912 90.0371 869.736 85.2059L881.653 85.9258Z" stroke="#74564B" stroke-width="60" mask="url(#path-538-inside-5_27_4)"/>
<mask id="path-539-inside-6_27_4" fill="white">
<path d="M881.653 89.9258C879.393 95.9111 871.781 101.365 860.229 105.276C848.678 109.186 833.972 111.287 818.841 111.189C803.71 111.091 789.182 108.8 777.954 104.742C766.725 100.684 759.559 95.1346 757.784 89.1232L769.753 88.5581C771.185 93.4104 776.97 97.89 786.033 101.166C795.096 104.441 806.823 106.29 819.036 106.369C831.25 106.448 843.12 104.752 852.444 101.596C861.768 98.4394 867.912 94.0371 869.736 89.2059L881.653 89.9258Z"/>
</mask>
<path d="M881.653 89.9258C879.393 95.9111 871.781 101.365 860.229 105.276C848.678 109.186 833.972 111.287 818.841 111.189C803.71 111.091 789.182 108.8 777.954 104.742C766.725 100.684 759.559 95.1346 757.784 89.1232L769.753 88.5581C771.185 93.4104 776.97 97.89 786.033 101.166C795.096 104.441 806.823 106.29 819.036 106.369C831.25 106.448 843.12 104.752 852.444 101.596C861.768 98.4394 867.912 94.0371 869.736 89.2059L881.653 89.9258Z" stroke="#74564B" stroke-width="60" mask="url(#path-539-inside-6_27_4)"/>
<mask id="path-540-inside-7_27_4" fill="white">
<path d="M881.653 93.9258C879.393 99.9111 871.781 105.365 860.229 109.276C848.678 113.186 833.972 115.287 818.841 115.189C803.71 115.091 789.182 112.8 777.954 108.742C766.725 104.684 759.559 99.1346 757.784 93.1232L769.753 92.5581C771.185 97.4104 776.97 101.89 786.033 105.166C795.096 108.441 806.823 110.29 819.036 110.369C831.25 110.448 843.12 108.752 852.444 105.596C861.768 102.439 867.912 98.0371 869.736 93.2059L881.653 93.9258Z"/>
</mask>
<path d="M881.653 93.9258C879.393 99.9111 871.781 105.365 860.229 109.276C848.678 113.186 833.972 115.287 818.841 115.189C803.71 115.091 789.182 112.8 777.954 108.742C766.725 104.684 759.559 99.1346 757.784 93.1232L769.753 92.5581C771.185 97.4104 776.97 101.89 786.033 105.166C795.096 108.441 806.823 110.29 819.036 110.369C831.25 110.448 843.12 108.752 852.444 105.596C861.768 102.439 867.912 98.0371 869.736 93.2059L881.653 93.9258Z" stroke="#74564B" stroke-width="60" mask="url(#path-540-inside-7_27_4)"/>
<mask id="path-541-inside-8_27_4" fill="white">
<path d="M881.653 98.5005C879.393 104.605 871.781 110.169 860.229 114.157C848.678 118.146 833.972 120.289 818.841 120.189C803.71 120.089 789.182 117.753 777.954 113.613C766.725 109.474 759.559 103.813 757.784 97.6819L769.753 97.1054C771.185 102.055 776.97 106.624 786.033 109.965C795.096 113.306 806.823 115.192 819.036 115.273C831.25 115.353 843.12 113.623 852.444 110.404C861.768 107.184 867.912 102.694 869.736 97.7662L881.653 98.5005Z"/>
</mask>
<path d="M881.653 98.5005C879.393 104.605 871.781 110.169 860.229 114.157C848.678 118.146 833.972 120.289 818.841 120.189C803.71 120.089 789.182 117.753 777.954 113.613C766.725 109.474 759.559 103.813 757.784 97.6819L769.753 97.1054C771.185 102.055 776.97 106.624 786.033 109.965C795.096 113.306 806.823 115.192 819.036 115.273C831.25 115.353 843.12 113.623 852.444 110.404C861.768 107.184 867.912 102.694 869.736 97.7662L881.653 98.5005Z" stroke="#74564B" stroke-width="60" mask="url(#path-541-inside-8_27_4)"/>
<rect x="866.354" y="93.1924" width="19" height="23" fill="#74564B"/>
<path d="M875.854 74.6924L890.354 81.1924V102.192L867.854 89.6924L875.854 74.6924Z" fill="#74564B"/>
<path d="M761.354 71.1924L770.854 88.1924L769.854 107.692L747.354 95.1924L761.354 71.1924Z" fill="#74564B"/>
<path d="M875.854 71.1924C875.854 79.5378 869.946 87.3829 859.766 93.2259C849.626 99.0453 835.518 102.692 819.854 102.692C804.189 102.692 790.081 99.0453 779.942 93.2259C769.761 87.3829 763.854 79.5378 763.854 71.1924C763.854 62.847 769.761 55.0018 779.942 49.1588C790.081 43.3395 804.189 39.6924 819.854 39.6924C835.518 39.6924 849.626 43.3395 859.766 49.1588C869.946 55.0018 875.854 62.847 875.854 71.1924Z" stroke="#886E66" stroke-width="3"/>
<ellipse cx="768.854" cy="617.692" rx="64" ry="38.5" fill="#74564B"/>
<path d="M821.354 612.192C821.354 620.279 815.761 627.872 806.131 633.526C796.537 639.16 783.184 642.692 768.354 642.692C753.523 642.692 740.17 639.16 730.576 633.526C720.946 627.872 715.354 620.279 715.354 612.192C715.354 604.106 720.946 596.513 730.576 590.858C740.17 585.225 753.523 581.692 768.354 581.692C783.184 581.692 796.537 585.225 806.131 590.858C815.761 596.513 821.354 604.106 821.354 612.192Z" stroke="#886E66" stroke-width="3"/>
<path d="M822.354 614.192C822.354 622.279 816.761 629.872 807.131 635.526C797.537 641.16 784.184 644.692 769.354 644.692C754.523 644.692 741.17 641.16 731.576 635.526C721.946 629.872 716.354 622.279 716.354 614.192C716.354 606.106 721.946 598.513 731.576 592.858C741.17 587.225 754.523 583.692 769.354 583.692C784.184 583.692 797.537 587.225 807.131 592.858C816.761 598.513 822.354 606.106 822.354 614.192Z" stroke="black" stroke-opacity="0.2" stroke-width="3"/>
<path d="M821.354 612.192C821.354 620.279 815.761 627.872 806.131 633.526C796.537 639.16 783.184 642.692 768.354 642.692C753.523 642.692 740.17 639.16 730.576 633.526C720.946 627.872 715.354 620.279 715.354 612.192C715.354 604.106 720.946 596.513 730.576 590.858C740.17 585.225 753.523 581.692 768.354 581.692C783.184 581.692 796.537 585.225 806.131 590.858C815.761 596.513 821.354 604.106 821.354 612.192Z" stroke="#886E66" stroke-width="3"/>
<ellipse cx="667.854" cy="38.6924" rx="64" ry="38.5" fill="#74564B"/>
<path d="M720.354 33.1924C720.354 41.2789 714.761 48.8722 705.131 54.5263C695.537 60.1598 682.184 63.6924 667.354 63.6924C652.523 63.6924 639.17 60.1598 629.576 54.5263C619.946 48.8722 614.354 41.2789 614.354 33.1924C614.354 25.1059 619.946 17.5126 629.576 11.8585C639.17 6.22501 652.523 2.69238 667.354 2.69238C682.184 2.69238 695.537 6.22501 705.131 11.8585C714.761 17.5126 720.354 25.1059 720.354 33.1924Z" stroke="#886E66" stroke-width="3"/>
<path d="M721.354 35.1924C721.354 43.2789 715.761 50.8722 706.131 56.5263C696.537 62.1598 683.184 65.6924 668.354 65.6924C653.523 65.6924 640.17 62.1598 630.576 56.5263C620.946 50.8722 615.354 43.2789 615.354 35.1924C615.354 27.1059 620.946 19.5126 630.576 13.8585C640.17 8.22501 653.523 4.69238 668.354 4.69238C683.184 4.69238 696.537 8.22501 706.131 13.8585C715.761 19.5126 721.354 27.1059 721.354 35.1924Z" stroke="black" stroke-opacity="0.2" stroke-width="3"/>
<path d="M720.354 33.1924C720.354 41.2789 714.761 48.8722 705.131 54.5263C695.537 60.1598 682.184 63.6924 667.354 63.6924C652.523 63.6924 639.17 60.1598 629.576 54.5263C619.946 48.8722 614.354 41.2789 614.354 33.1924C614.354 25.1059 619.946 17.5126 629.576 11.8585C639.17 6.22501 652.523 2.69238 667.354 2.69238C682.184 2.69238 695.537 6.22501 705.131 11.8585C714.761 17.5126 720.354 25.1059 720.354 33.1924Z" stroke="#886E66" stroke-width="3"/>
</svg>
