<svg width="325" height="195" viewBox="0 0 325 195" fill="none" xmlns="http://www.w3.org/2000/svg">
<path d="M0.853516 160.757V47.291L293.404 67.6294V182.165L0.853516 160.757Z" fill="#74564B"/>
<path d="M0.853516 47.2914L46.3951 17.2974L324.749 34.4462L293.404 67.6295L0.853516 47.2914Z" fill="#8E6A5D"/>
<path d="M293.404 182.166V67.6299L324.749 34.4463V147.912L293.404 182.166Z" fill="#624840"/>
<path d="M173.663 28.8936L288.851 35.7039L269.869 55.162L154.249 47.3788L173.663 28.8936Z" fill="white"/>
<path d="M154.249 47.3794L269.869 55.1626V61.0001L154.249 53.2168V47.3794Z" fill="#D1D1D1"/>
<path d="M269.869 55.1607L288.852 35.7026V41.5401L269.869 60.9982V55.1607Z" fill="#BABABA"/>
<path d="M74.0054 0.192383L173.663 28.8931L154.249 47.3783L48.9832 17.7047L74.0054 0.192383Z" fill="white"/>
<path d="M48.983 17.7051L154.249 47.3786V53.216L46.8259 45.4329L48.983 17.7051Z" fill="#D1D1D1"/>
<path d="M11.3015 57.9951L276.686 75.122V135.066L11.3015 117.939V57.9951Z" fill="#7DD5B5"/>
<path d="M9.21216 126.503L90.7083 131.855V146.841L9.21216 141.489V126.503Z" fill="#F0AB46"/>
<path d="M11.3018 124.362L92.798 129.714L90.7083 131.855L9.21216 126.503L11.3018 124.362Z" fill="#E58233"/>
<path d="M90.708 131.855L92.7977 129.714V144.7L90.708 146.841V131.855Z" fill="#D45C27"/>
<path d="M33.0181 134.798H37.382V137.474H33.0181V134.798Z" fill="#BE8229"/>
<path d="M33.0181 136.138L38.8366 132.124V140.152L33.0181 136.138Z" fill="#BE8229"/>
<path d="M40.8725 138.957C41.4281 138.132 41.7297 137.185 41.7451 136.215C41.7604 135.245 41.4889 134.289 40.9595 133.45L40.4569 133.718C40.9334 134.474 41.1778 135.334 41.164 136.207C41.1503 137.08 40.8788 137.933 40.3786 138.675L40.8725 138.957Z" fill="#BE8229"/>
<path d="M42.2367 139.558C42.9312 138.527 43.3082 137.343 43.3274 136.13C43.3465 134.918 43.0071 133.723 42.3454 132.675L41.8405 132.944C42.4491 133.909 42.7613 135.007 42.7437 136.122C42.7261 137.237 42.3793 138.327 41.7405 139.275L42.2367 139.558Z" fill="#BE8229"/>
<path d="M43.4262 140.186C44.2597 138.95 44.7121 137.528 44.7351 136.073C44.7581 134.618 44.3508 133.185 43.5567 131.926L42.9508 132.25C43.6812 133.407 44.0558 134.725 44.0346 136.064C44.0135 137.402 43.5974 138.709 42.8308 139.847L43.4262 140.186Z" fill="#BE8229"/>
<path d="M49.751 141.49L49.7508 130.786" stroke="#BE8229" stroke-width="0.5"/>
<path d="M53.4993 136.088H57.2397V138.278H53.4993V136.088Z" fill="#BE8229"/>
<path d="M53.4993 137.281L58.4866 133.997V140.565L53.4993 137.281Z" fill="#BE8229"/>
<path d="M60.2316 139.478C60.7078 138.804 60.9664 138.028 60.9795 137.235C60.9926 136.441 60.7599 135.659 60.3061 134.973L59.8754 135.192C60.2838 135.81 60.4933 136.514 60.4815 137.228C60.4696 137.943 60.2369 138.641 59.8082 139.248L60.2316 139.478Z" fill="#BE8229"/>
<path d="M61.4004 140.019C61.9957 139.176 62.3189 138.206 62.3353 137.214C62.3517 136.222 62.0608 135.245 61.4936 134.387L61.0608 134.608C61.5825 135.397 61.8501 136.296 61.835 137.208C61.8199 138.12 61.5226 139.012 60.9751 139.788L61.4004 140.019Z" fill="#BE8229"/>
<path d="M62.4203 140.573C63.1347 139.561 63.5224 138.398 63.5421 137.207C63.5618 136.017 63.2127 134.844 62.5321 133.814L62.0128 134.079C62.6388 135.026 62.9599 136.105 62.9418 137.199C62.9236 138.294 62.567 139.364 61.9099 140.295L62.4203 140.573Z" fill="#BE8229"/>
<path d="M62.4982 131.855L54.4381 141.489" stroke="#BE8229" stroke-width="0.5"/>
<path d="M258.729 167.304L258.779 165.911L265.345 166.159L265.295 167.553L262.847 167.46L262.609 174.061L260.939 173.998L261.176 167.397L258.729 167.304ZM268.972 174.302L266.138 174.195L266.426 166.2L269.283 166.308C270.087 166.338 270.774 166.525 271.343 166.867C271.912 167.206 272.341 167.68 272.632 168.288C272.926 168.895 273.057 169.614 273.027 170.445C272.997 171.277 272.814 171.987 272.478 172.574C272.144 173.161 271.678 173.603 271.081 173.901C270.487 174.199 269.784 174.333 268.972 174.302ZM267.88 172.81L268.954 172.851C269.453 172.87 269.877 172.797 270.224 172.633C270.574 172.467 270.842 172.199 271.027 171.831C271.215 171.46 271.32 170.977 271.341 170.381C271.362 169.79 271.293 169.304 271.132 168.923C270.974 168.541 270.727 168.256 270.393 168.066C270.058 167.876 269.641 167.772 269.141 167.753L268.064 167.712L267.88 172.81ZM274.088 174.495L274.132 173.278L277.073 170.75C277.323 170.525 277.534 170.322 277.704 170.141C277.878 169.96 278.011 169.781 278.103 169.605C278.195 169.426 278.245 169.231 278.253 169.02C278.261 168.786 278.215 168.582 278.115 168.409C278.014 168.233 277.873 168.096 277.692 167.998C277.51 167.897 277.303 167.843 277.068 167.834C276.824 167.825 276.609 167.866 276.423 167.958C276.237 168.05 276.092 168.186 275.986 168.368C275.88 168.549 275.823 168.767 275.814 169.022L274.21 168.961C274.228 168.438 274.363 167.988 274.614 167.612C274.865 167.236 275.207 166.95 275.641 166.756C276.076 166.561 276.571 166.474 277.128 166.495C277.701 166.517 278.196 166.637 278.612 166.856C279.032 167.073 279.354 167.364 279.578 167.729C279.802 168.095 279.905 168.508 279.889 168.969C279.878 169.27 279.807 169.566 279.677 169.856C279.549 170.145 279.328 170.464 279.013 170.812C278.698 171.157 278.258 171.569 277.69 172.048L276.482 173.147L276.48 173.202L279.837 173.329L279.787 174.711L274.088 174.495ZM281.012 174.757L281.056 173.539L283.997 171.012C284.247 170.787 284.458 170.584 284.628 170.403C284.802 170.222 284.934 170.043 285.027 169.867C285.119 169.688 285.169 169.493 285.177 169.282C285.185 169.048 285.139 168.844 285.039 168.671C284.938 168.495 284.797 168.358 284.616 168.26C284.434 168.159 284.226 168.105 283.992 168.096C283.748 168.086 283.532 168.128 283.347 168.22C283.161 168.312 283.015 168.448 282.91 168.629C282.804 168.81 282.747 169.028 282.738 169.284L281.133 169.223C281.152 168.7 281.287 168.25 281.538 167.874C281.788 167.498 282.131 167.212 282.565 167.018C283 166.823 283.495 166.736 284.052 166.757C284.625 166.779 285.119 166.899 285.536 167.118C285.956 167.335 286.277 167.626 286.501 167.991C286.725 168.357 286.829 168.77 286.813 169.23C286.802 169.532 286.731 169.828 286.601 170.118C286.473 170.407 286.252 170.726 285.937 171.074C285.622 171.419 285.181 171.831 284.614 172.31L283.406 173.409L283.404 173.464L286.761 173.591L286.711 174.973L281.012 174.757Z" fill="#816A64"/>
<path d="M8.89142 149.276L8.93707 148.009L14.9058 148.235L14.8602 149.502L12.6352 149.418L12.419 155.419L10.9002 155.362L11.1164 149.361L8.89142 149.276ZM15.5985 155.539L15.7949 150.088L17.3066 150.145L17.1102 155.596L15.5985 155.539ZM16.5796 149.414C16.3549 149.406 16.1648 149.324 16.0093 149.169C15.8562 149.011 15.7835 148.827 15.7911 148.617C15.7986 148.409 15.8843 148.233 16.0481 148.09C16.2145 147.945 16.41 147.876 16.6348 147.885C16.8595 147.893 17.0484 147.976 17.2014 148.134C17.3569 148.289 17.4309 148.47 17.4234 148.679C17.4158 148.889 17.3289 149.067 17.1626 149.213C16.9987 149.356 16.8044 149.423 16.5796 149.414ZM18.3212 155.642L18.5176 150.191L19.9583 150.246L19.9237 151.207L19.9875 151.21C20.1126 150.895 20.3109 150.65 20.5825 150.475C20.8542 150.301 21.1745 150.221 21.5435 150.235C21.9173 150.249 22.2322 150.354 22.488 150.551C22.744 150.746 22.91 151.003 22.9861 151.323L23.0429 151.325C23.1653 151.017 23.3754 150.775 23.6731 150.599C23.9733 150.421 24.3233 150.34 24.7231 150.355C25.2317 150.374 25.6387 150.552 25.944 150.888C26.2518 151.222 26.395 151.684 26.3737 152.276L26.2416 155.942L24.7335 155.885L24.8548 152.517C24.8657 152.214 24.7935 151.984 24.6381 151.826C24.4827 151.669 24.2843 151.586 24.043 151.577C23.7686 151.566 23.5513 151.646 23.3912 151.815C23.2312 151.982 23.1461 152.207 23.1359 152.491L23.016 155.82L21.5504 155.764L21.6729 152.365C21.6825 152.097 21.6133 151.881 21.4653 151.717C21.3196 151.553 21.1225 151.466 20.8741 151.457C20.7061 151.45 20.5532 151.487 20.4153 151.567C20.2798 151.645 20.1703 151.758 20.0868 151.907C20.0034 152.053 19.958 152.226 19.9508 152.427L19.8329 155.699L18.3212 155.642ZM29.9159 156.187C29.3552 156.166 28.8767 156.034 28.4804 155.792C28.0865 155.547 27.7882 155.211 27.5857 154.784C27.3832 154.355 27.2923 153.853 27.313 153.278C27.3332 152.717 27.4598 152.229 27.6927 151.814C27.9256 151.399 28.2439 151.08 28.6475 150.859C29.0534 150.637 29.5238 150.536 30.0584 150.557C30.418 150.57 30.7507 150.641 31.0564 150.769C31.3646 150.894 31.6305 151.076 31.854 151.314C32.08 151.552 32.2517 151.848 32.3693 152.201C32.487 152.551 32.5375 152.958 32.5208 153.422L32.5058 153.837L27.9033 153.663L27.937 152.726L31.1166 152.846C31.1244 152.629 31.084 152.434 30.9955 152.262C30.9069 152.091 30.7803 151.955 30.6158 151.854C30.4537 151.75 30.2626 151.694 30.0426 151.686C29.8131 151.677 29.6077 151.723 29.4265 151.823C29.2477 151.92 29.1054 152.056 28.9996 152.229C28.8939 152.401 28.836 152.594 28.8259 152.809L28.7938 153.7C28.7841 153.97 28.8254 154.205 28.9177 154.405C29.0123 154.605 29.15 154.762 29.3307 154.875C29.5114 154.989 29.7283 155.05 29.9814 155.06C30.1494 155.066 30.304 155.048 30.4453 155.006C30.5866 154.964 30.7086 154.898 30.8114 154.807C30.9142 154.716 30.994 154.603 31.051 154.468L32.4458 154.613C32.3628 154.946 32.2067 155.234 31.9777 155.476C31.7511 155.717 31.4625 155.9 31.1121 156.027C30.7641 156.151 30.3654 156.204 29.9159 156.187ZM33.408 156.213L33.6044 150.762L35.07 150.817L35.0357 151.768L35.0925 151.771C35.2041 151.436 35.3801 151.187 35.6205 151.023C35.861 150.857 36.1339 150.779 36.439 150.791C36.5147 150.794 36.5962 150.802 36.6834 150.814C36.7706 150.827 36.847 150.843 36.9126 150.862L36.8643 152.204C36.7941 152.18 36.6966 152.157 36.5718 152.136C36.447 152.114 36.3326 152.102 36.2285 152.098C36.0061 152.089 35.8056 152.13 35.6271 152.221C35.451 152.309 35.309 152.436 35.2011 152.603C35.0956 152.769 35.0389 152.964 35.0309 153.186L34.9197 156.27L33.408 156.213Z" fill="#816A64"/>
<path d="M191.011 138.278L193.101 136.137V151.123L191.011 153.264V138.278Z" fill="#D45C27"/>
<path d="M91.7534 131.854L191.012 138.277V153.263L91.7534 146.841V131.854Z" fill="#F0AB46"/>
<path d="M93.8431 129.714L193.101 136.136L191.012 138.277L91.7534 131.855L93.8431 129.714Z" fill="#E58233"/>
<path d="M132.501 138.278H134.591V146.841H132.501V138.278Z" fill="#BE8229"/>
<path d="M136.68 138.278H138.77V146.841H136.68V138.278Z" fill="#BE8229"/>
<path d="M142.95 138.279L142.95 146.843L149.219 142.561L142.95 138.279Z" fill="#BE8229"/>
<path d="M192.056 138.278L273.552 143.63V158.616L192.056 153.264V138.278Z" fill="#F0AB46"/>
<path d="M194.146 136.137L275.642 141.489L273.552 143.63L192.056 138.278L194.146 136.137Z" fill="#E58233"/>
<path d="M273.552 143.63L275.642 141.489V156.475L273.552 158.616V143.63Z" fill="#D45C27"/>
<path d="M231.55 154.333L231.55 142.559" stroke="#BE8229" stroke-width="0.5"/>
<path d="M220.426 148.982L224.028 151.236" stroke="#BE8229"/>
<line y1="-0.5" x2="7.66264" y2="-0.5" transform="matrix(0.545412 -0.838168 0.825771 0.564006 223.561 152.192)" stroke="#BE8229"/>
<path d="M244.047 148.982C244.047 151.214 242.282 153.014 240.118 153.014C237.953 153.014 236.188 151.214 236.188 148.982C236.188 146.75 237.953 144.95 240.118 144.95C242.282 144.95 244.047 146.75 244.047 148.982Z" stroke="#BE8229" stroke-width="0.5"/>
<path d="M239.073 143.63H241.163V145.771H239.073V143.63Z" fill="#BE8229"/>
<path d="M240.118 145.771V148.982" stroke="#BE8229" stroke-width="0.5"/>
</svg>
