<?xml version="1.0" standalone="no"?><svg xmlns="http://www.w3.org/2000/svg" viewBox="0 0 1440 320"><path fill="#5000ca" fill-opacity="0.4" d="M0,256L30,240C60,224,120,192,180,160C240,128,300,96,360,80C420,64,480,64,540,53.3C600,43,660,21,720,58.7C780,96,840,192,900,234.7C960,277,1020,267,1080,266.7C1140,267,1200,277,1260,256C1320,235,1380,181,1410,154.7L1440,128L1440,320L1410,320C1380,320,1320,320,1260,320C1200,320,1140,320,1080,320C1020,320,960,320,900,320C840,320,780,320,720,320C660,320,600,320,540,320C480,320,420,320,360,320C300,320,240,320,180,320C120,320,60,320,30,320L0,320Z"></path></svg>