<svg xmlns="http://www.w3.org/2000/svg" xml:space="preserve" id="Layer_2_00000057121293318986224740000017460543355059901592_" x="0" y="0" version="1.1" viewBox="0 0 1934.9 232.5"><style>.st1{fill:none;stroke:#fff;stroke-width:3;stroke-miterlimit:10}.st2{fill:#fff}.st4,.st5{fill:#08015f;stroke:#08015f;stroke-width:2}.st5{fill:#fff;stroke:#000}</style><g id="Layer_1-2"><path d="M1.5 1.5h1931.9V231H1.5z" style="fill:#3340c6;stroke:#231f20;stroke-width:3;stroke-miterlimit:10"/><path d="M7.5 142c1.9.6 3.8 1.3 5.7 1.9" class="st1"/><path d="M147.3 166.4c-2.4 0-4.8 0-7.2-.1v-3h.1c4 .1 8 .1 11.7 0h.1v3h-.1c-1.4.1-2.9.1-4.6.1m16.3-.3-.1-3c3.8-.1 7.8-.3 11.7-.6l.2 3h-.1q-5.7.3-11.7.6m-35.2-.1c-4-.2-7.9-.4-11.8-.7h-.1l.2-3c4 .3 7.9.5 11.7.7h.1zm58.8-1.5-.3-2.9h.1c3.9-.4 7.8-.8 11.6-1.3l.4 3h-.1c-3.9.4-7.8.9-11.7 1.2m-82.3-.2c-3.9-.4-7.8-.8-11.8-1.3l.4-2.9c3.8.5 7.7.9 11.6 1.3h.1zm105.7-2.7-.5-3h.1c3.8-.6 7.6-1.2 11.5-2h.1l.5 3c-4 .8-7.9 1.4-11.7 2m-129.1-.1c-3.9-.6-7.8-1.2-11.7-1.9l.5-3c3.8.7 7.7 1.3 11.5 1.9h.1zm-23.2-4.2c-3.9-.8-7.8-1.6-11.6-2.5l.7-2.9c3.8.9 7.6 1.7 11.4 2.5h.1zm175.4 0-.6-2.9q5.85-1.35 11.4-2.7h.1l.7 2.9c-3.9 1-7.7 1.9-11.6 2.7M35.4 152c-3.9-1-7.7-2.1-11.4-3.2l-.1.3v-.4l.8-2.8c3.7 1.1 7.5 2.1 11.3 3.1zm221.2-.5-.9-2.9v-.3l.1.3c3.8-1.1 7.5-2.3 11.1-3.5l1 2.8c-3.7 1.2-7.5 2.4-11.3 3.6m22.3-7.5-1.1-2.8c3.7-1.4 7.3-2.9 10.8-4.4l1.2 2.8h-.1c-3.4 1.5-7 3-10.8 4.4m21.7-9.3-1.3-2.7v-.2l.1.1c3.5-1.7 7-3.5 10.3-5.3l1.4 2.6c-3.3 1.9-6.9 3.7-10.5 5.5m20.7-11.3-1.6-2.6c3.3-2 6.6-4.2 9.8-6.4l1.7 2.5c-3.1 2.2-6.4 4.4-9.9 6.5m19.5-13.5-1.9-2.4c3-2.4 6-4.9 8.9-7.5l2 2.2c-2.8 2.6-5.9 5.2-9 7.7M358.3 94l-2.2-2.1c2.7-2.8 5.3-5.7 7.8-8.6l2.3 1.9c-2.4 3-5.1 5.9-7.9 8.8m15.2-18.2-2.4-1.7c2.2-3.2 4.4-6.4 6.3-9.7l2.6 1.5c-2 3.3-4.2 6.6-6.5 9.9m12-20.4-2.7-1.3c1.7-3.5 3.2-7.1 4.6-10.6l2.8 1.1v.1c-1.3 3.5-2.9 7.1-4.7 10.7m8.5-22.1-2.9-.8v-.1c1.1-3.7 2-7.5 2.7-11.3l3 .6c-.7 3.8-1.7 7.7-2.8 11.6" class="st2"/><path d="M397 9.6c.2-2.5.3-4.6.4-6" class="st1"/><path d="m1490.5 226.8-2.7-1.3c1.6-3.3 3.1-6.8 4.9-10.9l2.8 1.2c-1.8 4.1-3.3 7.6-5 11m9.7-22-2.7-1.2c1.9-4.1 3.6-7.6 5.3-10.9l2.6 1.4c-1.6 3.2-3.3 6.6-5.2 10.7m11.4-20.8-2.5-1.7c2.3-3.4 4.8-6.6 7.4-9.6l2.3 2q-3.9 4.35-7.2 9.3m15.4-17.8-2-2.2q4.35-4.05 9.3-7.8l1.8 2.4c-3.3 2.4-6.3 5-9.1 7.6m18.8-14.3-1.6-2.5q4.95-3.15 10.5-6l1.4 2.6c-3.6 1.9-7 3.9-10.3 5.9m21-11.1-1.2-2.7c3.5-1.6 7.3-3.2 11.1-4.7l1.1 2.8c-3.8 1.4-7.5 3-11 4.6m22.1-8.8-1-2.8c3.7-1.3 7.5-2.6 11.4-3.8l.9 2.9c-3.8 1.2-7.6 2.4-11.3 3.7m22.8-7.1-.8-2.9c3.8-1 7.7-2.1 11.6-3.1l.7 2.9c-3.9 1-7.7 2.1-11.5 3.1m23.2-5.8-.7-2.9c3.8-.8 7.8-1.7 11.8-2.5l.6 2.9c-4 .8-7.9 1.7-11.7 2.5m23.5-4.8-.6-2.9c3.8-.7 7.8-1.4 11.8-2.1l.5 3c-4 .6-7.9 1.3-11.7 2m23.6-4-.5-2.9c3.9-.7 7.9-1.5 11.7-2.3l.6 2.9c-3.9.8-7.8 1.6-11.8 2.3m23.6-5.1-.7-2.9c3.9-1 7.8-2 11.5-3.2l.8 2.9c-3.8 1.1-7.7 2.2-11.6 3.2m23.1-6.8-1-2.8c3.8-1.3 7.6-2.7 11.2-4.1l1.1 2.8c-3.6 1.4-7.4 2.8-11.3 4.1m22.5-8.9-1.2-2.7c3.7-1.7 7.3-3.4 10.7-5.2l1.4 2.7c-3.5 1.7-7.2 3.5-10.9 5.2m21.3-11.3-1.6-2.6c3.4-2.1 6.8-4.4 9.8-6.7l1.8 2.4c-3.1 2.4-6.4 4.7-10 6.9m19.5-14.5-2-2.2c3-2.7 5.8-5.5 8.3-8.4l2.2 2c-2.5 3-5.4 5.9-8.5 8.6m16.1-18.2-2.5-1.7c2.2-3.3 4.2-6.7 5.8-10.2l2.7 1.3c-1.7 3.6-3.7 7.2-6 10.6m10.3-22-2.9-.8c1.1-3.7 1.8-7.6 2.2-11.5l3 .3c-.5 4-1.2 8.1-2.3 12" class="st2"/><g style="opacity:.75"><path d="M818.2 83.9h13.7l30.1 70h-16.4l-5.7-14h-31.3l-5.7 14H788zm16.8 44-10.8-26.6-10.7 26.6zM868.8 83.9h36.8c11.9 0 21.7 9 21.7 19.2 0 6.2-3.7 11.4-9.2 14.4 7.5 2.9 12.7 9 12.7 16.5 0 10.6-10.1 19.9-22.5 19.9h-39.4v-70zm35.5 28.4c4.3 0 7.8-3.7 7.8-8.2s-3.5-8.2-7.8-8.2H884v16.4zm11.3 20.7c0-4.9-3.8-8.9-8.7-8.9h-23v17.8h23c4.9 0 8.7-4 8.7-8.9zM936.7 118.9c0-20.2 18.1-36.6 40.4-36.6s40.4 16.4 40.4 36.6-18.1 36.6-40.4 36.6-40.4-16.4-40.4-36.6zm40.5 24c14 0 25.2-10.7 25.2-24s-11.3-24-25.2-24c-14 0-25.2 10.7-25.2 24s11.2 24 25.2 24zM1026.4 127.6V83.9h15.2v43.7c0 8.5 8.2 15.3 18.4 15.3 10.1 0 18.3-6.8 18.3-15.3V83.9h15.2v43.7c0 15.4-15.1 27.9-33.5 27.9-18.6 0-33.6-12.5-33.6-27.9zM1124.6 96.5h-24.3V83.9h63.7v12.6h-24.3v57.4h-15.2V96.5z" class="st4"/></g><path d="M809.2 77.9h13.7l30.1 70h-16.4l-5.7-14h-31.3l-5.7 14H779zm16.8 44-10.8-26.6-10.7 26.6zM859.8 77.9h36.8c11.9 0 21.7 9 21.7 19.2 0 6.2-3.7 11.4-9.2 14.4 7.5 2.9 12.7 9 12.7 16.5 0 10.6-10.1 19.9-22.5 19.9h-39.4v-70zm35.5 28.4c4.3 0 7.8-3.7 7.8-8.2s-3.5-8.2-7.8-8.2H875v16.4zm11.3 20.7c0-4.9-3.8-8.9-8.7-8.9h-23v17.8h23c4.9 0 8.7-4 8.7-8.9zM927.7 112.9c0-20.2 18.1-36.6 40.4-36.6s40.4 16.4 40.4 36.6-18.1 36.6-40.4 36.6-40.4-16.4-40.4-36.6zm40.5 24c14 0 25.2-10.7 25.2-24s-11.3-24-25.2-24c-14 0-25.2 10.7-25.2 24s11.2 24 25.2 24zM1017.4 121.6V77.9h15.2v43.7c0 8.5 8.2 15.3 18.4 15.3 10.1 0 18.3-6.8 18.3-15.3V77.9h15.2v43.7c0 15.4-15.1 27.9-33.5 27.9-18.6 0-33.6-12.5-33.6-27.9zM1115.6 90.5h-24.3V77.9h63.7v12.6h-24.3v57.4h-15.2V90.5z" class="st5"/></g></svg>