<?xml version="1.0" encoding="utf-8"?>
<!-- Generator: Adobe Illustrator 28.3.0, SVG Export Plug-In . SVG Version: 6.00 Build 0)  -->
<svg version="1.1" id="Layer_2_00000057121293318986224740000017460543355059901592_"
	 xmlns="http://www.w3.org/2000/svg" xmlns:xlink="http://www.w3.org/1999/xlink" x="0px" y="0px" viewBox="0 0 1934.9 232.5"
	 style="enable-background:new 0 0 1934.9 232.5;" xml:space="preserve">
<style type="text/css">
	.st0{fill:#3340C6;stroke:#231F20;stroke-width:3;stroke-miterlimit:10;}
	.st1{fill:none;stroke:#FFFFFF;stroke-width:3;stroke-miterlimit:10;}
	.st2{fill:#FFFFFF;}
	.st3{opacity:0.75;}
	.st4{fill:#08015F;stroke:#08015F;stroke-width:2;}
	.st5{fill:#FFFFFF;stroke:#000000;stroke-width:2;}
</style>
<g id="Layer_1-2">
	<rect x="1.5" y="1.5" class="st0" width="1931.9" height="229.5"/>
	<path class="st1" d="M7.5,142c1.9,0.6,3.8,1.3,5.7,1.9"/>
	<g>
		<path class="st2" d="M147.3,166.4c-2.4,0-4.8,0-7.2-0.1l0,0v-3h0.1c4,0.1,8,0.1,11.7,0h0.1v3h-0.1
			C150.5,166.4,149,166.4,147.3,166.4z M163.6,166.1l-0.1-3l0,0c3.8-0.1,7.8-0.3,11.7-0.6l0,0l0.2,3h-0.1
			C171.5,165.7,167.6,165.9,163.6,166.1L163.6,166.1z M128.4,166L128.4,166c-4-0.2-7.9-0.4-11.8-0.7h-0.1l0.2-3l0,0
			c4,0.3,7.9,0.5,11.7,0.7h0.1L128.4,166z M187.2,164.5L187.2,164.5l-0.3-2.9h0.1l0,0c3.9-0.4,7.8-0.8,11.6-1.3l0,0l0.4,3h-0.1
			C195,163.7,191.1,164.2,187.2,164.5L187.2,164.5z M104.9,164.3L104.9,164.3c-3.9-0.4-7.8-0.8-11.8-1.3l0,0l0,0l0.4-2.9l0,0
			c3.8,0.5,7.7,0.9,11.6,1.3h0.1L104.9,164.3z M210.6,161.6L210.6,161.6l-0.5-3h0.1c3.8-0.6,7.6-1.2,11.5-2h0.1l0.5,3l0,0
			C218.3,160.4,214.4,161,210.6,161.6L210.6,161.6z M81.5,161.5L81.5,161.5c-3.9-0.6-7.8-1.2-11.7-1.9l0,0l0.5-3l0,0
			c3.8,0.7,7.7,1.3,11.5,1.9h0.1L81.5,161.5z M58.3,157.3L58.3,157.3c-3.9-0.8-7.8-1.6-11.6-2.5l0,0l0.7-2.9l0,0
			c3.8,0.9,7.6,1.7,11.4,2.5h0.1L58.3,157.3z M233.7,157.3l-0.6-2.9l0,0c3.9-0.9,7.7-1.8,11.4-2.7h0.1l0.7,2.9l0,0
			C241.4,155.6,237.6,156.5,233.7,157.3L233.7,157.3z M35.4,152L35.4,152c-3.9-1-7.7-2.1-11.4-3.2l-0.1,0.3v-0.4l0,0l0.8-2.8l0,0
			c3.7,1.1,7.5,2.1,11.3,3.1l0,0L35.4,152z M256.6,151.5l-0.9-2.9l0,0v-0.3l0.1,0.3c3.8-1.1,7.5-2.3,11.1-3.5l0,0l1,2.8l0,0
			C264.2,149.1,260.4,150.3,256.6,151.5L256.6,151.5z M278.9,144l-1.1-2.8l0,0c3.7-1.4,7.3-2.9,10.8-4.4l0,0l1.2,2.8h-0.1
			C286.3,141.1,282.7,142.6,278.9,144L278.9,144z M300.6,134.7l-1.3-2.7v-0.2l0.1,0.1c3.5-1.7,7-3.5,10.3-5.3l0,0l1.4,2.6l0,0
			C307.8,131.1,304.2,132.9,300.6,134.7L300.6,134.7z M321.3,123.4l-1.6-2.6l0,0c3.3-2,6.6-4.2,9.8-6.4l0,0l1.7,2.5l0,0
			C328.1,119.1,324.8,121.3,321.3,123.4L321.3,123.4z M340.8,109.9l-1.9-2.4l0,0c3-2.4,6-4.9,8.9-7.5l0,0l2,2.2l0,0
			C347,104.8,343.9,107.4,340.8,109.9L340.8,109.9z M358.3,94l-2.2-2.1l0,0c2.7-2.8,5.3-5.7,7.8-8.6l0,0l2.3,1.9l0,0
			C363.8,88.2,361.1,91.1,358.3,94L358.3,94z M373.5,75.8l-2.4-1.7l0,0c2.2-3.2,4.4-6.4,6.3-9.7l0,0l2.6,1.5l0,0
			C378,69.2,375.8,72.5,373.5,75.8L373.5,75.8z M385.5,55.4l-2.7-1.3l0,0c1.7-3.5,3.2-7.1,4.6-10.6l0,0l2.8,1.1v0.1
			C388.9,48.2,387.3,51.8,385.5,55.4L385.5,55.4z M394,33.3l-2.9-0.8v-0.1c1.1-3.7,2-7.5,2.7-11.3l0,0l3,0.6l0,0
			C396.1,25.5,395.1,29.4,394,33.3L394,33.3z"/>
	</g>
	<path class="st1" d="M397,9.6c0.2-2.5,0.3-4.6,0.4-6"/>
	<g>
		<path class="st2" d="M1490.5,226.8l-2.7-1.3c1.6-3.3,3.1-6.8,4.9-10.9l2.8,1.2C1493.7,219.9,1492.2,223.4,1490.5,226.8
			L1490.5,226.8z M1500.2,204.8l-2.7-1.2c1.9-4.1,3.6-7.6,5.3-10.9l2.6,1.4C1503.8,197.3,1502.1,200.7,1500.2,204.8L1500.2,204.8z
			 M1511.6,184l-2.5-1.7c2.3-3.4,4.8-6.6,7.4-9.6l2.3,2C1516.2,177.6,1513.8,180.7,1511.6,184L1511.6,184z M1527,166.2l-2-2.2
			c2.9-2.7,6-5.3,9.3-7.8l1.8,2.4C1532.8,161,1529.8,163.6,1527,166.2L1527,166.2z M1545.8,151.9l-1.6-2.5c3.3-2.1,6.8-4.1,10.5-6
			l1.4,2.6C1552.5,147.9,1549.1,149.9,1545.8,151.9z M1566.8,140.8l-1.2-2.7c3.5-1.6,7.3-3.2,11.1-4.7l1.1,2.8
			C1574,137.6,1570.3,139.2,1566.8,140.8L1566.8,140.8z M1588.9,132l-1-2.8c3.7-1.3,7.5-2.6,11.4-3.8l0.9,2.9
			C1596.4,129.5,1592.6,130.7,1588.9,132L1588.9,132z M1611.7,124.9l-0.8-2.9c3.8-1,7.7-2.1,11.6-3.1l0.7,2.9
			C1619.3,122.8,1615.5,123.9,1611.7,124.9L1611.7,124.9z M1634.9,119.1l-0.7-2.9c3.8-0.8,7.8-1.7,11.8-2.5l0.6,2.9
			C1642.6,117.4,1638.7,118.3,1634.9,119.1L1634.9,119.1z M1658.4,114.3l-0.6-2.9c3.8-0.7,7.8-1.4,11.8-2.1l0.5,3
			C1666.1,112.9,1662.2,113.6,1658.4,114.3L1658.4,114.3z M1682,110.3l-0.5-2.9c3.9-0.7,7.9-1.5,11.7-2.3l0.6,2.9
			C1689.9,108.8,1686,109.6,1682,110.3z M1705.6,105.2l-0.7-2.9c3.9-1,7.8-2,11.5-3.2l0.8,2.9
			C1713.4,103.1,1709.5,104.2,1705.6,105.2z M1728.7,98.4l-1-2.8c3.8-1.3,7.6-2.7,11.2-4.1l1.1,2.8
			C1736.4,95.7,1732.6,97.1,1728.7,98.4z M1751.2,89.5l-1.2-2.7c3.7-1.7,7.3-3.4,10.7-5.2l1.4,2.7
			C1758.6,86,1754.9,87.8,1751.2,89.5z M1772.5,78.2l-1.6-2.6c3.4-2.1,6.8-4.4,9.8-6.7l1.8,2.4C1779.4,73.7,1776.1,76,1772.5,78.2z
			 M1792,63.7l-2-2.2c3-2.7,5.8-5.5,8.3-8.4l2.2,2C1798,58.1,1795.1,61,1792,63.7z M1808.1,45.5l-2.5-1.7c2.2-3.3,4.2-6.7,5.8-10.2
			l2.7,1.3C1812.4,38.5,1810.4,42.1,1808.1,45.5L1808.1,45.5z M1818.4,23.5l-2.9-0.8c1.1-3.7,1.8-7.6,2.2-11.5l3,0.3
			C1820.2,15.5,1819.5,19.6,1818.4,23.5L1818.4,23.5z"/>
	</g>
	<g>
		<g class="st3">
			<path class="st4" d="M818.2,83.9h13.7l30.1,70h-16.4l-5.7-14h-31.3l-5.7,14H788L818.2,83.9z M835,127.9l-10.8-26.6l-10.7,26.6
				H835z"/>
			<path class="st4" d="M868.8,83.9h36.8c11.9,0,21.7,9,21.7,19.2c0,6.2-3.7,11.4-9.2,14.4c7.5,2.9,12.7,9,12.7,16.5
				c0,10.6-10.1,19.9-22.5,19.9h-39.4V83.9z M904.3,112.3c4.3,0,7.8-3.7,7.8-8.2c0-4.5-3.5-8.2-7.8-8.2H884v16.4H904.3z M915.6,133
				c0-4.9-3.8-8.9-8.7-8.9h-23v17.8h23C911.8,141.9,915.6,137.9,915.6,133z"/>
			<path class="st4" d="M936.7,118.9c0-20.2,18.1-36.6,40.4-36.6c22.3,0,40.4,16.4,40.4,36.6s-18.1,36.6-40.4,36.6
				C954.8,155.5,936.7,139.1,936.7,118.9z M977.2,142.9c14,0,25.2-10.7,25.2-24s-11.3-24-25.2-24c-14,0-25.2,10.7-25.2,24
				S963.2,142.9,977.2,142.9z"/>
			<path class="st4" d="M1026.4,127.6V83.9h15.2v43.7c0,8.5,8.2,15.3,18.4,15.3c10.1,0,18.3-6.8,18.3-15.3V83.9h15.2v43.7
				c0,15.4-15.1,27.9-33.5,27.9C1041.4,155.5,1026.4,143,1026.4,127.6z"/>
			<path class="st4" d="M1124.6,96.5h-24.3V83.9h63.7v12.6h-24.3v57.4h-15.2V96.5z"/>
		</g>
		<g>
			<g>
				<path class="st5" d="M809.2,77.9h13.7l30.1,70h-16.4l-5.7-14h-31.3l-5.7,14H779L809.2,77.9z M826,121.9l-10.8-26.6l-10.7,26.6
					H826z"/>
				<path class="st5" d="M859.8,77.9h36.8c11.9,0,21.7,9,21.7,19.2c0,6.2-3.7,11.4-9.2,14.4c7.5,2.9,12.7,9,12.7,16.5
					c0,10.6-10.1,19.9-22.5,19.9h-39.4V77.9z M895.3,106.3c4.3,0,7.8-3.7,7.8-8.2c0-4.5-3.5-8.2-7.8-8.2H875v16.4H895.3z M906.6,127
					c0-4.9-3.8-8.9-8.7-8.9h-23v17.8h23C902.8,135.9,906.6,131.9,906.6,127z"/>
				<path class="st5" d="M927.7,112.9c0-20.2,18.1-36.6,40.4-36.6c22.3,0,40.4,16.4,40.4,36.6s-18.1,36.6-40.4,36.6
					C945.8,149.5,927.7,133.1,927.7,112.9z M968.2,136.9c14,0,25.2-10.7,25.2-24s-11.3-24-25.2-24c-14,0-25.2,10.7-25.2,24
					S954.2,136.9,968.2,136.9z"/>
				<path class="st5" d="M1017.4,121.6V77.9h15.2v43.7c0,8.5,8.2,15.3,18.4,15.3c10.1,0,18.3-6.8,18.3-15.3V77.9h15.2v43.7
					c0,15.4-15.1,27.9-33.5,27.9C1032.4,149.5,1017.4,137,1017.4,121.6z"/>
				<path class="st5" d="M1115.6,90.5h-24.3V77.9h63.7v12.6h-24.3v57.4h-15.2V90.5z"/>
			</g>
		</g>
	</g>
</g>
</svg>
