<?xml version="1.0" encoding="utf-8"?>
<!-- Generator: Adobe Illustrator 28.3.0, SVG Export Plug-In . SVG Version: 6.00 Build 0)  -->
<svg version="1.1" id="Layer_2_00000083809871066696697220000005918001141564010160_"
	 xmlns="http://www.w3.org/2000/svg" xmlns:xlink="http://www.w3.org/1999/xlink" x="0px" y="0px" viewBox="0 0 1934.9 232.5"
	 style="enable-background:new 0 0 1934.9 232.5;" xml:space="preserve">
<style type="text/css">
	.st0{fill:#3340C6;stroke:#231F20;stroke-width:3;stroke-miterlimit:10;}
	.st1{enable-background:new    ;}
	.st2{fill:#FFFFFF;}
	.st3{fill:none;stroke:#000000;stroke-width:2;stroke-miterlimit:10;}
	.st4{fill:none;stroke:#FFFFFF;stroke-width:3;stroke-miterlimit:10;}
	.st5{fill:none;stroke:#FFFFFF;stroke-width:3;stroke-miterlimit:10;stroke-dasharray:0,0,11.74,11.74;}
</style>
<g id="Layer_1-2">
	<rect x="1.5" y="1.5" class="st0" width="1931.9" height="229.5"/>
	<g class="st1">
		<path class="st2" d="M805,76.9h14l30.8,71.8H833l-5.9-14.4h-32l-5.9,14.4h-15.1L805,76.9z M822.2,122.1l-11.1-27.3l-11,27.3H822.2
			z"/>
	</g>
	<g class="st1">
		<path class="st3" d="M805,76.9h14l30.8,71.8H833l-5.9-14.4h-32l-5.9,14.4h-15.1L805,76.9z M822.2,122.1l-11.1-27.3l-11,27.3H822.2
			z"/>
	</g>
	<g class="st1">
		<path class="st2" d="M856.7,76.9h37.7c12.2,0,22.2,9.2,22.2,19.7c0,6.4-3.8,11.7-9.4,14.8c7.6,3,13,9.2,13,16.9
			c0,10.9-10.3,20.4-23,20.4h-40.3V76.9z M893.1,106.1c4.4,0,8-3.8,8-8.4c0-4.6-3.5-8.4-8-8.4h-20.8v16.8H893.1z M904.6,127.3
			c0-5-3.9-9.1-8.9-9.1h-23.5v18.3h23.5C900.7,136.4,904.6,132.3,904.6,127.3z"/>
		<path class="st2" d="M926.2,112.8c0-20.7,18.5-37.5,41.3-37.5s41.3,16.8,41.3,37.5s-18.5,37.5-41.3,37.5S926.2,133.6,926.2,112.8z
			 M967.5,137.5c14.3,0,25.8-11,25.8-24.6c0-13.6-11.5-24.6-25.8-24.6c-14.3,0-25.8,11-25.8,24.6
			C941.7,126.5,953.2,137.5,967.5,137.5z"/>
	</g>
	<g class="st1">
		<path class="st3" d="M856.7,76.9h37.7c12.2,0,22.2,9.2,22.2,19.7c0,6.4-3.8,11.7-9.4,14.8c7.6,3,13,9.2,13,16.9
			c0,10.9-10.3,20.4-23,20.4h-40.3V76.9z M893.1,106.1c4.4,0,8-3.8,8-8.4c0-4.6-3.5-8.4-8-8.4h-20.8v16.8H893.1z M904.6,127.3
			c0-5-3.9-9.1-8.9-9.1h-23.5v18.3h23.5C900.7,136.4,904.6,132.3,904.6,127.3z"/>
		<path class="st3" d="M926.2,112.8c0-20.7,18.5-37.5,41.3-37.5s41.3,16.8,41.3,37.5s-18.5,37.5-41.3,37.5S926.2,133.6,926.2,112.8z
			 M967.5,137.5c14.3,0,25.8-11,25.8-24.6c0-13.6-11.5-24.6-25.8-24.6c-14.3,0-25.8,11-25.8,24.6
			C941.7,126.5,953.2,137.5,967.5,137.5z"/>
	</g>
	<g class="st1">
		<path class="st2" d="M1017.8,121.8V76.9h15.5v44.8c0,8.7,8.4,15.7,18.8,15.7c10.3,0,18.7-7,18.7-15.7V76.9h15.5v44.8
			c0,15.8-15.4,28.6-34.2,28.6C1033.2,150.4,1017.8,137.6,1017.8,121.8z"/>
	</g>
	<g class="st1">
		<path class="st3" d="M1017.8,121.8V76.9h15.5v44.8c0,8.7,8.4,15.7,18.8,15.7c10.3,0,18.7-7,18.7-15.7V76.9h15.5v44.8
			c0,15.8-15.4,28.6-34.2,28.6C1033.2,150.4,1017.8,137.6,1017.8,121.8z"/>
	</g>
	<g class="st1">
		<path class="st2" d="M1118.3,89.9h-24.8V76.9h65.1v12.9h-24.8v58.9h-15.5V89.9z"/>
	</g>
	<g class="st1">
		<path class="st3" d="M1118.3,89.9h-24.8V76.9h65.1v12.9h-24.8v58.9h-15.5V89.9z"/>
	</g>
	<path class="st4" d="M7.5,142c1.9,0.6,3.8,1.3,5.7,1.9"/>
	<path class="st5" d="M24.4,147.4c102.1,29.9,217.3,20.8,292-22.8c62.5-36.5,76.6-85.3,79.9-109.2"/>
	<path class="st4" d="M397,9.6c0.2-2.5,0.3-4.6,0.4-6"/>
	<path class="st2" d="M1490.5,226.8l-2.7-1.3c1.6-3.3,3.1-6.8,4.9-10.9l2.8,1.2C1493.7,219.9,1492.2,223.4,1490.5,226.8
		L1490.5,226.8z M1500.2,204.8l-2.7-1.2c1.9-4.1,3.6-7.6,5.3-10.9l2.6,1.4C1503.8,197.3,1502.1,200.7,1500.2,204.8L1500.2,204.8z
		 M1511.6,184l-2.5-1.7c2.3-3.4,4.8-6.6,7.4-9.6l2.3,2C1516.2,177.6,1513.8,180.7,1511.6,184L1511.6,184z M1527,166.2l-2-2.2
		c2.9-2.7,6-5.3,9.3-7.8l1.8,2.4C1532.8,161,1529.8,163.6,1527,166.2L1527,166.2z M1545.8,151.9l-1.6-2.5c3.3-2.1,6.8-4.1,10.5-6
		l1.4,2.6C1552.5,147.9,1549.1,149.9,1545.8,151.9z M1566.8,140.8l-1.2-2.7c3.5-1.6,7.3-3.2,11.1-4.7l1.1,2.8
		C1574,137.6,1570.3,139.2,1566.8,140.8L1566.8,140.8z M1588.9,132l-1-2.8c3.7-1.3,7.5-2.6,11.4-3.8l0.9,2.9
		C1596.4,129.5,1592.6,130.7,1588.9,132L1588.9,132z M1611.7,124.9l-0.8-2.9c3.8-1,7.7-2.1,11.6-3.1l0.7,2.9
		C1619.3,122.8,1615.5,123.9,1611.7,124.9L1611.7,124.9z M1634.9,119.1l-0.7-2.9c3.8-0.8,7.8-1.7,11.8-2.5l0.6,2.9
		C1642.6,117.4,1638.7,118.3,1634.9,119.1L1634.9,119.1z M1658.4,114.3l-0.6-2.9c3.8-0.7,7.8-1.4,11.8-2.1l0.5,3
		C1666.1,112.9,1662.2,113.6,1658.4,114.3L1658.4,114.3z M1682,110.3l-0.5-2.9c3.9-0.7,7.9-1.5,11.7-2.3l0.6,2.9
		C1689.9,108.8,1686,109.6,1682,110.3z M1705.6,105.2l-0.7-2.9c3.9-1,7.8-2,11.5-3.2l0.8,2.9
		C1713.4,103.1,1709.5,104.2,1705.6,105.2z M1728.7,98.4l-1-2.8c3.8-1.3,7.6-2.7,11.2-4.1l1.1,2.8
		C1736.4,95.7,1732.6,97.1,1728.7,98.4z M1751.2,89.5l-1.2-2.7c3.7-1.7,7.3-3.4,10.7-5.2l1.4,2.7C1758.6,86,1754.9,87.8,1751.2,89.5
		z M1772.5,78.2l-1.6-2.6c3.4-2.1,6.8-4.4,9.8-6.7l1.8,2.4C1779.4,73.7,1776.1,76,1772.5,78.2z M1792,63.7l-2-2.2
		c3-2.7,5.8-5.5,8.3-8.4l2.2,2C1798,58.1,1795.1,61,1792,63.7z M1808.1,45.5l-2.5-1.7c2.2-3.3,4.2-6.7,5.8-10.2l2.7,1.3
		C1812.4,38.5,1810.4,42.1,1808.1,45.5L1808.1,45.5z M1818.4,23.5l-2.9-0.8c1.1-3.7,1.8-7.6,2.2-11.5l3,0.3
		C1820.2,15.5,1819.5,19.6,1818.4,23.5L1818.4,23.5z"/>
</g>
</svg>
