<?xml version="1.0" encoding="utf-8"?>
<!-- Generator: Adobe Illustrator 28.3.0, SVG Export Plug-In . SVG Version: 6.00 Build 0)  -->
<svg version="1.1" id="Layer_2_00000057121293318986224740000017460543355059901592_"
	 xmlns="http://www.w3.org/2000/svg" xmlns:xlink="http://www.w3.org/1999/xlink" x="0px" y="0px" viewBox="0 0 1934.9 232.5"
	 style="enable-background:new 0 0 1934.9 232.5;" xml:space="preserve">
<style type="text/css">
	.st0{fill:#3340C6;stroke:#231F20;stroke-width:3;stroke-miterlimit:10;}
	.st1{fill:none;stroke:#FFFFFF;stroke-width:3;stroke-miterlimit:10;}
	.st2{fill:#FFFFFF;}
	.st3{enable-background:new    ;}
</style>
<g id="Layer_1-2">
	<rect x="1.5" y="1.5" class="st0" width="1931.9" height="229.5"/>
	<path class="st1" d="M7.5,142c1.9,0.6,3.8,1.3,5.7,1.9"/>
	<g>
		<path class="st2" d="M147.3,166.4c-2.4,0-4.8,0-7.2-0.1l0,0v-3h0.1c4,0.1,8,0.1,11.7,0h0.1v3h-0.1
			C150.5,166.4,149,166.4,147.3,166.4z M163.6,166.1l-0.1-3l0,0c3.8-0.1,7.8-0.3,11.7-0.6l0,0l0.2,3h-0.1
			C171.5,165.7,167.6,165.9,163.6,166.1L163.6,166.1z M128.4,166L128.4,166c-4-0.2-7.9-0.4-11.8-0.7h-0.1l0.2-3l0,0
			c4,0.3,7.9,0.5,11.7,0.7h0.1L128.4,166z M187.2,164.5L187.2,164.5l-0.3-2.9h0.1l0,0c3.9-0.4,7.8-0.8,11.6-1.3l0,0l0.4,3h-0.1
			C195,163.7,191.1,164.2,187.2,164.5L187.2,164.5z M104.9,164.3L104.9,164.3c-3.9-0.4-7.8-0.8-11.8-1.3l0,0l0,0l0.4-2.9l0,0
			c3.8,0.5,7.7,0.9,11.6,1.3h0.1L104.9,164.3z M210.6,161.6L210.6,161.6l-0.5-3h0.1c3.8-0.6,7.6-1.2,11.5-2h0.1l0.5,3l0,0
			C218.3,160.4,214.4,161,210.6,161.6L210.6,161.6z M81.5,161.5L81.5,161.5c-3.9-0.6-7.8-1.2-11.7-1.9l0,0l0.5-3l0,0
			c3.8,0.7,7.7,1.3,11.5,1.9h0.1L81.5,161.5z M58.3,157.3L58.3,157.3c-3.9-0.8-7.8-1.6-11.6-2.5l0,0l0.7-2.9l0,0
			c3.8,0.9,7.6,1.7,11.4,2.5h0.1L58.3,157.3z M233.7,157.3l-0.6-2.9l0,0c3.9-0.9,7.7-1.8,11.4-2.7h0.1l0.7,2.9l0,0
			C241.4,155.6,237.6,156.5,233.7,157.3L233.7,157.3z M35.4,152L35.4,152c-3.9-1-7.7-2.1-11.4-3.2l-0.1,0.3v-0.4l0,0l0.8-2.8l0,0
			c3.7,1.1,7.5,2.1,11.3,3.1l0,0L35.4,152z M256.6,151.5l-0.9-2.9l0,0v-0.3l0.1,0.3c3.8-1.1,7.5-2.3,11.1-3.5l0,0l1,2.8l0,0
			C264.2,149.1,260.4,150.3,256.6,151.5L256.6,151.5z M278.9,144l-1.1-2.8l0,0c3.7-1.4,7.3-2.9,10.8-4.4l0,0l1.2,2.8h-0.1
			C286.3,141.1,282.7,142.6,278.9,144L278.9,144z M300.6,134.7l-1.3-2.7v-0.2l0.1,0.1c3.5-1.7,7-3.5,10.3-5.3l0,0l1.4,2.6l0,0
			C307.8,131.1,304.2,132.9,300.6,134.7L300.6,134.7z M321.3,123.4l-1.6-2.6l0,0c3.3-2,6.6-4.2,9.8-6.4l0,0l1.7,2.5l0,0
			C328.1,119.1,324.8,121.3,321.3,123.4L321.3,123.4z M340.8,109.9l-1.9-2.4l0,0c3-2.4,6-4.9,8.9-7.5l0,0l2,2.2l0,0
			C347,104.8,343.9,107.4,340.8,109.9L340.8,109.9z M358.3,94l-2.2-2.1l0,0c2.7-2.8,5.3-5.7,7.8-8.6l0,0l2.3,1.9l0,0
			C363.8,88.2,361.1,91.1,358.3,94L358.3,94z M373.5,75.8l-2.4-1.7l0,0c2.2-3.2,4.4-6.4,6.3-9.7l0,0l2.6,1.5l0,0
			C378,69.2,375.8,72.5,373.5,75.8L373.5,75.8z M385.5,55.4l-2.7-1.3l0,0c1.7-3.5,3.2-7.1,4.6-10.6l0,0l2.8,1.1v0.1
			C388.9,48.2,387.3,51.8,385.5,55.4L385.5,55.4z M394,33.3l-2.9-0.8v-0.1c1.1-3.7,2-7.5,2.7-11.3l0,0l3,0.6l0,0
			C396.1,25.5,395.1,29.4,394,33.3L394,33.3z"/>
	</g>
	<path class="st1" d="M397,9.6c0.2-2.5,0.3-4.6,0.4-6"/>
	<g>
		<path class="st2" d="M1490.5,226.8l-2.7-1.3c1.6-3.3,3.1-6.8,4.9-10.9l2.8,1.2C1493.7,219.9,1492.2,223.4,1490.5,226.8
			L1490.5,226.8z M1500.2,204.8l-2.7-1.2c1.9-4.1,3.6-7.6,5.3-10.9l2.6,1.4C1503.8,197.3,1502.1,200.7,1500.2,204.8L1500.2,204.8z
			 M1511.6,184l-2.5-1.7c2.3-3.4,4.8-6.6,7.4-9.6l2.3,2C1516.2,177.6,1513.8,180.7,1511.6,184L1511.6,184z M1527,166.2l-2-2.2
			c2.9-2.7,6-5.3,9.3-7.8l1.8,2.4C1532.8,161,1529.8,163.6,1527,166.2L1527,166.2z M1545.8,151.9l-1.6-2.5c3.3-2.1,6.8-4.1,10.5-6
			l1.4,2.6C1552.5,147.9,1549.1,149.9,1545.8,151.9z M1566.8,140.8l-1.2-2.7c3.5-1.6,7.3-3.2,11.1-4.7l1.1,2.8
			C1574,137.6,1570.3,139.2,1566.8,140.8L1566.8,140.8z M1588.9,132l-1-2.8c3.7-1.3,7.5-2.6,11.4-3.8l0.9,2.9
			C1596.4,129.5,1592.6,130.7,1588.9,132L1588.9,132z M1611.7,124.9l-0.8-2.9c3.8-1,7.7-2.1,11.6-3.1l0.7,2.9
			C1619.3,122.8,1615.5,123.9,1611.7,124.9L1611.7,124.9z M1634.9,119.1l-0.7-2.9c3.8-0.8,7.8-1.7,11.8-2.5l0.6,2.9
			C1642.6,117.4,1638.7,118.3,1634.9,119.1L1634.9,119.1z M1658.4,114.3l-0.6-2.9c3.8-0.7,7.8-1.4,11.8-2.1l0.5,3
			C1666.1,112.9,1662.2,113.6,1658.4,114.3L1658.4,114.3z M1682,110.3l-0.5-2.9c3.9-0.7,7.9-1.5,11.7-2.3l0.6,2.9
			C1689.9,108.8,1686,109.6,1682,110.3z M1705.6,105.2l-0.7-2.9c3.9-1,7.8-2,11.5-3.2l0.8,2.9
			C1713.4,103.1,1709.5,104.2,1705.6,105.2z M1728.7,98.4l-1-2.8c3.8-1.3,7.6-2.7,11.2-4.1l1.1,2.8
			C1736.4,95.7,1732.6,97.1,1728.7,98.4z M1751.2,89.5l-1.2-2.7c3.7-1.7,7.3-3.4,10.7-5.2l1.4,2.7
			C1758.6,86,1754.9,87.8,1751.2,89.5z M1772.5,78.2l-1.6-2.6c3.4-2.1,6.8-4.4,9.8-6.7l1.8,2.4C1779.4,73.7,1776.1,76,1772.5,78.2z
			 M1792,63.7l-2-2.2c3-2.7,5.8-5.5,8.3-8.4l2.2,2C1798,58.1,1795.1,61,1792,63.7z M1808.1,45.5l-2.5-1.7c2.2-3.3,4.2-6.7,5.8-10.2
			l2.7,1.3C1812.4,38.5,1810.4,42.1,1808.1,45.5L1808.1,45.5z M1818.4,23.5l-2.9-0.8c1.1-3.7,1.8-7.6,2.2-11.5l3,0.3
			C1820.2,15.5,1819.5,19.6,1818.4,23.5L1818.4,23.5z"/>
	</g>
	<g>
		<g class="st3">
			<g>
				<path class="st2" d="M810.4,76.2H824l30,70h-16.3l-5.7-14h-31.2l-5.7,14h-14.7L810.4,76.2z M827.1,120.2l-10.8-26.6l-10.7,26.6
					H827.1z"/>
			</g>
		</g>
		<g class="st3">
			<g>
				<path d="M855.5,147.2H837l-5.7-14h-29.9l-5.7,14h-16.9l30.9-72h14.9L855.5,147.2z M838.3,145.2h14.1l-29.1-68H811l-29.1,68h12.5
					l5.7-14h32.5L838.3,145.2z M828.5,121.2h-24.5l12.2-30.3L828.5,121.2z M807,119.2h18.5l-9.3-22.9L807,119.2z"/>
			</g>
		</g>
		<g class="st3">
			<g>
				<path class="st2" d="M860.8,76.2h36.7c11.9,0,21.6,9,21.6,19.2c0,6.2-3.7,11.4-9.2,14.4c7.5,2.9,12.6,9,12.6,16.5
					c0,10.6-10,19.9-22.5,19.9h-39.3v-70H860.8z M896.3,104.6c4.3,0,7.8-3.7,7.8-8.2s-3.5-8.2-7.8-8.2H876v16.4
					C876,104.6,896.3,104.6,896.3,104.6z M907.5,125.3c0-4.9-3.8-8.9-8.6-8.9H876v17.8h22.9C903.7,134.2,907.5,130.2,907.5,125.3z"
					/>
			</g>
			<g>
				<path class="st2" d="M928.6,111.2c0-20.2,18-36.6,40.3-36.6c22.2,0,40.3,16.4,40.3,36.6s-18,36.6-40.3,36.6
					C946.6,147.8,928.6,131.4,928.6,111.2z M968.8,135.2c13.9,0,25.2-10.7,25.2-24s-11.2-24-25.2-24c-13.9,0-25.2,10.7-25.2,24
					S954.9,135.2,968.8,135.2z"/>
			</g>
		</g>
		<g class="st3">
			<g>
				<path d="M900,147.2h-40.3v-72h37.8c12.3,0,22.6,9.3,22.6,20.2c0,5.6-3,10.8-8,14.2c7.1,3.4,11.4,9.6,11.4,16.6
					C923.5,137.6,912.7,147.2,900,147.2z M861.7,145.2H900c11.7,0,21.5-8.7,21.5-18.9c0-6.7-4.6-12.7-12-15.6l-2-0.8l1.9-1
					c5.4-3,8.7-8,8.7-13.5c0-9.9-9.4-18.2-20.6-18.2h-35.8V145.2z M898.9,135.2H875v-19.8h23.9c5.3,0,9.6,4.4,9.6,9.9
					S904.2,135.2,898.9,135.2z M877,133.2h21.9c4.2,0,7.6-3.5,7.6-7.9s-3.4-7.9-7.6-7.9H877V133.2z M896.3,105.6H875V87.2h21.3
					c4.9,0,8.8,4.1,8.8,9.2C905.1,101.5,901.1,105.6,896.3,105.6z M877,103.6h19.3c3.7,0,6.8-3.2,6.8-7.2c0-4-3.1-7.2-6.8-7.2H877
					V103.6z"/>
			</g>
			<g>
				<path d="M968.9,148.8c-22.8,0-41.3-16.9-41.3-37.6c0-20.7,18.5-37.6,41.3-37.6c22.8,0,41.3,16.9,41.3,37.6
					C1010.2,131.9,991.6,148.8,968.9,148.8z M968.9,75.6c-21.7,0-39.3,16-39.3,35.6s17.6,35.6,39.3,35.6c21.7,0,39.3-16,39.3-35.6
					S990.5,75.6,968.9,75.6z M968.8,136.2c-14.4,0-26.2-11.2-26.2-25s11.8-25,26.2-25c14.4,0,26.2,11.2,26.2,25
					S983.2,136.2,968.8,136.2z M968.8,88.2c-13.3,0-24.2,10.3-24.2,23c0,12.7,10.9,23,24.2,23c13.3,0,24.2-10.3,24.2-23
					C993,98.5,982.1,88.2,968.8,88.2z"/>
			</g>
		</g>
		<g class="st3">
			<g>
				<path class="st2" d="M1017.9,119.9V76.2h15.1v43.7c0,8.5,8.2,15.3,18.4,15.3c10,0,18.3-6.8,18.3-15.3V76.2h15.1v43.7
					c0,15.4-15,27.9-33.4,27.9C1032.9,147.8,1017.9,135.3,1017.9,119.9z"/>
			</g>
		</g>
		<g class="st3">
			<g>
				<path d="M1051.4,148.8c-19,0-34.5-13-34.5-28.9V75.2h17.1v44.7c0,7.9,7.8,14.3,17.4,14.3c9.5,0,17.3-6.4,17.3-14.3V75.2h17.1
					v44.7C1085.8,135.8,1070.3,148.8,1051.4,148.8z M1018.9,77.2v42.7c0,14.8,14.6,26.9,32.5,26.9c17.9,0,32.4-12.1,32.4-26.9V77.2
					h-13.1v42.7c0,9-8.7,16.3-19.3,16.3c-10.7,0-19.4-7.3-19.4-16.3V77.2H1018.9z"/>
			</g>
		</g>
		<g class="st3">
			<g>
				<path class="st2" d="M1115.8,88.8h-24.2V76.2h63.5v12.6h-24.2v57.4h-15.1L1115.8,88.8L1115.8,88.8z"/>
			</g>
		</g>
		<g class="st3">
			<g>
				<path d="M1131.9,147.2h-17.1V89.8h-24.2V75.2h65.5v14.6h-24.2V147.2z M1116.8,145.2h13.1V87.8h24.2V77.2h-61.5v10.6h24.2V145.2z
					"/>
			</g>
		</g>
	</g>
</g>
</svg>
