<?xml version="1.0" encoding="utf-8"?>
<!-- Generator: Adobe Illustrator 28.3.0, SVG Export Plug-In . SVG Version: 6.00 Build 0)  -->
<svg version="1.1" id="Layer_2_00000017498921519825193550000012456279117974907816_"
	 xmlns="http://www.w3.org/2000/svg" xmlns:xlink="http://www.w3.org/1999/xlink" x="0px" y="0px" viewBox="0 0 1934.9 233.5"
	 style="enable-background:new 0 0 1934.9 233.5;" xml:space="preserve">
<style type="text/css">
	.st0{fill:#3340C6;stroke:#231F20;stroke-width:3;stroke-miterlimit:10;}
	.st1{fill:#FFFFFF;}
	.st2{enable-background:new    ;}
</style>
<g id="Layer_1-2">
	<polygon class="st0" points="1933.4,231 1.5,232 1.5,1.5 1933.4,1.5 	"/>
	<g>
		<path class="st1" d="M194.1,139.8c-1.7,0-3.4-0.1-5.1-0.2h-0.1l0.2-3l0,0c3.9,0.2,7.9,0.2,11.7-0.1l0,0l0.2,3l0,0
			C198.7,139.7,196.4,139.8,194.1,139.8z M177,138.2L177,138.2c-3.9-0.8-7.9-1.7-11.8-3l0,0l0.9-2.9l0,0c3.8,1.2,7.6,2.2,11.4,2.9
			h0.1L177,138.2z M212.9,137.8l-0.6-2.9l0,0c3.8-0.8,7.6-1.9,11.2-3.3l0,0l1,2.8l0,0C220.8,135.8,216.9,136.9,212.9,137.8
			L212.9,137.8z M154,130.9L154,130.9c-3.6-1.6-7.2-3.5-10.8-5.6l0,0l1.5-2.6l0,0c3.4,2,6.9,3.8,10.4,5.4l0,0L154,130.9z
			 M235.6,129.5L235.6,129.5l-1.4-2.7l0,0c3.4-1.8,6.8-3.8,10-6.1l0,0l1.7,2.5l0,0C242.7,125.5,239.2,127.6,235.6,129.5L235.6,129.5
			z M133.2,118.8L133.2,118.8c-3.2-2.4-6.4-4.9-9.4-7.6l0,0l2-2.2l0,0c3,2.6,6,5.1,9.1,7.4l0,0L133.2,118.8z M255.4,115.8l-1.9-2.4
			l0.1-0.1l0,0c3-2.4,6.3-4.8,9.6-7h0.1l1.7,2.5l0,0C261.7,111.1,258.5,113.4,255.4,115.8L255.4,115.8z M115.2,102.8L115.2,102.8
			c-2.7-2.9-5.4-6-7.9-9.1l0,0l2.4-1.9l0,0c2.5,3.1,5.1,6.1,7.7,8.9l0,0L115.2,102.8z M275,102.6l-1.5-2.6v-0.2l0.1,0.1
			c3.4-1.9,6.9-3.9,10.5-5.7l0,0l1.4,2.7l0,0C281.8,98.8,278.3,100.7,275,102.6L275,102.6z M296.1,91.9l-1.2-2.7h0.1
			c3.5-1.6,7.2-3.1,11-4.7h0.1l1.1,2.8l0,0C303.3,88.8,299.6,90.4,296.1,91.9L296.1,91.9z M100.2,84L100.2,84
			c-2.2-3.3-4.3-6.7-6.3-10.2l0,0v-0.2l0,0l2.6-1.4l0,0c1.9,3.4,4,6.8,6.2,10l0,0L100.2,84z M318.1,83.1l-1-2.8h0.1
			c3.6-1.3,7.4-2.6,11.3-3.9l0,0l0.9,2.9h-0.1C325.5,80.5,321.7,81.8,318.1,83.1L318.1,83.1z M340.6,75.7l-0.9-2.9l0,0
			c3.7-1.1,7.5-2.2,11.5-3.3l0,0l0.8,2.9h-0.1C348.2,73.4,344.4,74.5,340.6,75.7L340.6,75.7z M363.6,69.2l-0.8-2.9l0,0
			c3.7-1,7.5-1.9,11.6-3h0.1l0.7,2.9h-0.1C371,67.3,367.2,68.3,363.6,69.2L363.6,69.2z M386.7,63.4L386.7,63.4l-0.7-2.9h0.1
			c4-1,8.1-2,11.6-2.8h0.1l0.7,2.9l0,0C393.7,61.7,390.1,62.6,386.7,63.4L386.7,63.4z M88.4,63.1L88.4,63.1
			c-1.7-3.6-3.3-7.3-4.8-11.1l0,0l0,0l2.7-1.1h0.4L86.5,51c1.4,3.6,3,7.3,4.6,10.8l0,0L88.4,63.1z M409.9,57.9L409.9,57.9l-0.7-2.9
			l0,0c4.4-1.1,8.2-2,11.6-2.8l0,0l0.7,2.9l0,0C418.2,55.9,414.6,56.7,409.9,57.9L409.9,57.9z M433,52.1l-0.8-2.9l0,0
			c4.2-1.1,7.9-2.1,11.5-3.1l0,0l0.8,2.9h-0.1C441.1,50,437.3,51,433,52.1L433,52.1z M456,45.5l-0.9-2.9h0.1c4-1.3,7.8-2.6,11.2-3.9
			h0.1l1.1,2.8l0,0C464,42.8,460.2,44.2,456,45.5L456,45.5z M79.7,40.7L79.7,40.7c-1.2-3.8-2.3-7.7-3.2-11.6l0,0l2.9-0.7v0.1
			c0.9,3.8,2,7.6,3.2,11.4V40L79.7,40.7z M478.4,36.7l-1.3-2.7l0,0c3.8-1.9,7.2-4,9.9-6l0,0l1.8,2.4l0,0
			C485.9,32.5,482.5,34.6,478.4,36.7L478.4,36.7z M497.3,21.5l-2.5-1.6l0,0c2.1-3.2,3.2-6.6,3.3-10.3l0,0l3,0.1l0,0
			C501,13.9,499.7,17.8,497.3,21.5L497.3,21.5z M74.1,17.4L74.1,17.4c-0.7-3.9-1.3-7.9-1.8-11.9V5.4l0,0L75.2,5l0,0
			c0.5,3.9,1,7.9,1.7,11.7l0,0L74.1,17.4z"/>
	</g>
	<g>
		<path class="st1" d="M1840,222.8l-3-0.5l0,0c0.6-3.8,1-7.7,1.1-11.6l0,0l3,0.1l0,0C1841,214.8,1840.6,218.8,1840,222.8L1840,222.8
			z M1837.7,199L1837.7,199c-0.4-3.9-1-7.8-1.8-11.7v-0.1l2.9-0.6l0,0c0.8,4,1.5,8,1.8,11.9v0.1L1837.7,199z M1832.9,176L1832.9,176
			c-1.2-3.7-2.6-7.4-4.1-11.1l0,0l2.8-1.2v0.1c1.6,3.7,3,7.5,4.2,11.3l0,0L1832.9,176z M1823.7,154.4L1823.7,154.4
			c-1.9-3.4-3.9-6.8-6.1-10.1l0,0v-0.2l0,0l2.5-1.6l0,0c2.2,3.3,4.3,6.8,6.2,10.3l0,0L1823.7,154.4z M1810.6,134.9L1810.6,134.9
			c-2.5-3.1-5.1-6-7.8-8.8l0,0V126l0,0l2.1-2.1l0,0c2.8,2.9,5.5,5.9,8,9l0,0L1810.6,134.9z M1794.1,118L1794.1,118
			c-3-2.6-6.2-5-9.4-7.2l0,0l1.7-2.5l0,0c3.3,2.3,6.5,4.7,9.6,7.3l0,0L1794.1,118z M1774.8,104.7L1774.8,104.7
			c-3.5-1.9-7-3.7-10.6-5.2l0,0l1.3-2.9v0.2c3.7,1.6,7.3,3.3,10.8,5.3h0.1L1774.8,104.7z M1609.6,99.9c-3.2,0-6.5,0-9.7-0.1l0,0
			l0.2-3l0,0c3.8,0.1,7.8,0.2,11.8,0.1h0.1v3l0,0C1611.1,99.9,1610.3,99.9,1609.6,99.9z M1623.7,99.6l-0.1-3l0,0
			c3.8-0.1,7.8-0.3,11.9-0.6l0,0l0.2,3l0,0C1631.7,99.3,1627.7,99.5,1623.7,99.6L1623.7,99.6z M1588,99.2L1588,99.2
			c-4.1-0.3-8.1-0.7-12-1.1l0,0l0.4-3h0.1c3.8,0.5,7.8,0.8,11.8,1.1l0,0L1588,99.2z M1647.6,98.2l-0.2-3l0,0
			c3.8-0.3,7.8-0.7,11.8-1.1l0,0l0.3,3l0,0C1655.4,97.5,1651.4,97.9,1647.6,98.2L1647.6,98.2z M1564.2,96.2L1564.2,96.2
			c-4.1-0.8-8.1-1.6-11.8-2.6l0,0l0.9-2.9l0,0c3.6,1,7.5,1.8,11.5,2.6l0,0L1564.2,96.2z M1671.3,95.7l-0.4-3l0,0
			c3.9-0.5,7.9-1,11.8-1.5l0,0l0.4,3l0,0C1679.1,94.7,1675.2,95.2,1671.3,95.7L1671.3,95.7z M1753.3,95.4L1753.3,95.4
			c-3.8-1.2-7.6-2.1-11.4-2.9l0,0l0.6-2.9l0,0c3.9,0.8,7.9,1.8,11.7,3l0,0L1753.3,95.4z M1695,92.5l-0.5-3l0,0
			c1.4-0.2,2.8-0.4,4.4-0.7c2.5-0.4,5-0.7,7.5-1h0.1l0.3,3l0,0c-2.4,0.2-4.9,0.6-7.3,0.9C1698,92,1696.5,92.2,1695,92.5L1695,92.5z
			 M1730.3,90.8L1730.3,90.8c-3.8-0.4-7.6-0.5-11.3-0.5l-0.5-0.1v-2.9h0.5c3.9,0,7.8,0.2,11.6,0.6l0,0L1730.3,90.8z M1541,90
			L1541,90c-3.9-1.5-7.7-3.1-11.1-4.9l0,0l1.4-2.7l0,0c3.3,1.7,6.9,3.3,10.7,4.7l0,0L1541,90z M1519.6,78.9L1519.6,78.9
			c-3.4-2.4-6.5-5-9.3-7.9h-0.1l2.2-2.2l0,0c2.7,2.7,5.7,5.2,8.9,7.5l0,0L1519.6,78.9z M1502.6,61.7L1502.6,61.7
			c-2.3-3.3-4.3-6.9-6-10.6V51l2.7-1.3l0,0c1.7,3.6,3.6,7,5.8,10.1l0,0L1502.6,61.7z M1492.3,39.9L1492.3,39.9
			c-1.1-3.8-2-7.7-2.7-11.8l0,0l3-0.5v0.1c0.7,4,1.6,7.8,2.6,11.4l0,0L1492.3,39.9z M1488.1,16.2L1488.1,16.2
			c-0.3-3.9-0.4-7.9-0.4-12.1l0,0h3c0,4.1,0.1,8,0.4,11.8V16L1488.1,16.2z"/>
	</g>
	<g>
		<g class="st2">
			<path class="st1" d="M837.9,79.7h51.8v12.6H853v17.8h33.3v12.6H853v27h-15.1V79.7z"/>
		</g>
		<g class="st2">
			<g>
				<path d="M853.9,150.7h-17.1v-72h53.8v14.6h-36.7v15.8h33.3v14.6h-33.3V150.7z M838.8,148.7h13.1v-27h33.3v-10.6h-33.3V91.3h36.7
					V80.7h-49.8V148.7z"/>
			</g>
		</g>
		<g class="st2">
			<path class="st1" d="M917.6,79.7h13.6l30,70h-16.3l-5.7-14h-31.2l-5.7,14h-14.7L917.6,79.7z M934.3,123.7l-10.8-26.6l-10.7,26.6
				H934.3z"/>
		</g>
		<g class="st2">
			<g>
				<path d="M962.7,150.7h-18.5l-5.7-14h-29.9l-5.7,14H886l30.9-72h14.9L962.7,150.7z M945.5,148.7h14.1l-29.1-68h-12.3l-29.1,68
					h12.5l5.7-14h32.5L945.5,148.7z M935.7,124.7h-24.5l12.2-30.3L935.7,124.7z M914.2,122.7h18.5l-9.3-22.9L914.2,122.7z"/>
			</g>
		</g>
		<g class="st2">
			<path class="st1" d="M960.9,114.7c0-20.2,18.1-36.6,40.3-36.6c22.2,0,40.3,16.4,40.3,36.6c0,8.4-3.1,16.1-8.3,22.3l8.3,7.6
				l-8.5,8.2l-8.9-8c-6.5,4.1-14.4,6.5-22.9,6.5C979,151.3,960.9,134.9,960.9,114.7z M1001.1,138.7c4.6,0,9-1.2,12.7-3.3l-14.6-13.2
				l8.5-8.1l14.7,13.3c2.4-3.7,3.8-8,3.8-12.7c0-13.3-11.2-24-25.2-24c-13.8,0-25.2,10.7-25.2,24S987.3,138.7,1001.1,138.7z"/>
			<path class="st1" d="M1048.4,133.3h13.9c0,3.9,3.8,7.6,10.9,7.6c5.3,0,9.2-2,9.2-5.1c0-3.3-4.5-4.6-11.9-6.2
				c-9.4-2-21.3-5.5-21.3-15.8c0-11.3,13.4-15.7,23.2-15.7c13.2,0,23.5,7.8,23.5,17.4h-13.9c0-3.4-3.3-7-10-7c-4.8,0-8.4,2-8.4,4.8
				c0,3.6,5.4,4.9,12,6.4c9.9,2.1,21.3,5.6,21.3,15.8c0,11.5-14.1,15.8-24.1,15.8C1059.1,151.3,1048.4,143.3,1048.4,133.3z"/>
		</g>
		<g class="st2">
			<g>
				<path d="M1033,154.2l-9-8.1c-6.8,4.1-14.6,6.3-22.8,6.3c-22.8,0-41.3-16.9-41.3-37.6c0-20.7,18.5-37.6,41.3-37.6
					s41.3,16.9,41.3,37.6c0,8-2.7,15.7-7.9,22.2l8.4,7.7L1033,154.2z M1024.2,143.6l8.8,7.9l7.1-6.8l-8.2-7.5l0.6-0.7
					c5.3-6.3,8.1-13.8,8.1-21.7c0-19.6-17.6-35.6-39.3-35.6s-39.3,16-39.3,35.6s17.6,35.6,39.3,35.6c8.1,0,15.8-2.2,22.4-6.3
					L1024.2,143.6z M1001.1,139.7c-14.5,0-26.3-11.2-26.3-25s11.8-25,26.2-25c14.4,0,26.2,11.2,26.2,25c0,4.7-1.3,9.2-4,13.2l-0.6,1
					l-14.9-13.5l-7,6.7l14.8,13.4l-1.2,0.7C1010.4,138.5,1005.8,139.7,1001.1,139.7z M1001.1,91.7c-13.3,0-24.2,10.3-24.2,23
					c0,12.7,10.9,23,24.3,23c3.9,0,7.6-0.9,11-2.5l-14.3-13l10-9.5l14.5,13.1c2-3.4,3-7.2,3-11.2
					C1025.2,102,1014.4,91.7,1001.1,91.7z"/>
			</g>
			<g>
				<path d="M1072.9,152.3c-14.3,0-25.5-8.3-25.5-19v-1h15.9v1c0,3.2,3.1,6.6,9.9,6.6c4.8,0,8.2-1.7,8.2-4.1c0-2.4-3.6-3.6-11.1-5.2
					c-6.6-1.4-22.1-4.7-22.1-16.8c0-12.3,14.5-16.7,24.2-16.7c13.7,0,24.5,8.1,24.5,18.4v1h-15.8v-1c0-3-3.1-6-9-6
					c-4.2,0-7.4,1.6-7.4,3.8c0,2.7,4.4,3.9,11.2,5.4c10.9,2.3,22.1,6.1,22.1,16.8C1098.1,147.8,1083,152.3,1072.9,152.3z
					 M1049.5,134.3c0.7,9,10.7,16,23.5,16c9.3,0,23.1-3.9,23.1-14.8c0-9.2-10.4-12.7-20.5-14.8c-6.6-1.5-12.8-2.9-12.8-7.4
					c0-3.4,4-5.8,9.4-5.8c6.6,0,10.3,3.4,10.9,7h11.8c-0.7-8.6-10.5-15.4-22.5-15.4c-8.9,0-22.2,3.9-22.2,14.7
					c0,9.2,10.4,12.7,20.5,14.8c7.7,1.7,12.7,3.1,12.7,7.2c0,3.6-4.1,6.1-10.2,6.1c-7.2,0-11.2-3.7-11.8-7.6H1049.5z"/>
			</g>
		</g>
	</g>
</g>
</svg>
