<svg xmlns="http://www.w3.org/2000/svg" xml:space="preserve" id="Layer_2_00000017498921519825193550000012456279117974907816_" x="0" y="0" version="1.1" viewBox="0 0 1934.9 233.5"><style>.st1{fill:#fff}.st3,.st4{fill:#08015f;stroke:#08015f;stroke-width:2}.st4{fill:#fff;stroke:#000}</style><g id="Layer_1-2"><path d="M1933.4 231 1.5 232V1.5h1931.9z" style="fill:#3340c6;stroke:#231f20;stroke-width:3;stroke-miterlimit:10"/><path d="M194.1 139.8c-1.7 0-3.4-.1-5.1-.2h-.1l.2-3c3.9.2 7.9.2 11.7-.1l.2 3q-3.45.3-6.9.3m-17.1-1.6c-3.9-.8-7.9-1.7-11.8-3l.9-2.9c3.8 1.2 7.6 2.2 11.4 2.9h.1zm35.9-.4-.6-2.9c3.8-.8 7.6-1.9 11.2-3.3l1 2.8c-3.7 1.4-7.6 2.5-11.6 3.4m-58.9-6.9c-3.6-1.6-7.2-3.5-10.8-5.6l1.5-2.6c3.4 2 6.9 3.8 10.4 5.4zm81.6-1.4-1.4-2.7c3.4-1.8 6.8-3.8 10-6.1l1.7 2.5c-3.2 2.3-6.7 4.4-10.3 6.3m-102.4-10.7c-3.2-2.4-6.4-4.9-9.4-7.6l2-2.2c3 2.6 6 5.1 9.1 7.4zm122.2-3-1.9-2.4.1-.1c3-2.4 6.3-4.8 9.6-7h.1l1.7 2.5c-3.3 2.3-6.5 4.6-9.6 7m-140.2-13c-2.7-2.9-5.4-6-7.9-9.1l2.4-1.9c2.5 3.1 5.1 6.1 7.7 8.9zm159.8-.2-1.5-2.6v-.2l.1.1c3.4-1.9 6.9-3.9 10.5-5.7l1.4 2.7q-5.55 2.85-10.5 5.7m21.1-10.7-1.2-2.7h.1c3.5-1.6 7.2-3.1 11-4.7h.1l1.1 2.8c-3.9 1.5-7.6 3.1-11.1 4.6M100.2 84q-3.3-4.95-6.3-10.2v-.2l2.6-1.4c1.9 3.4 4 6.8 6.2 10zm217.9-.9-1-2.8h.1c3.6-1.3 7.4-2.6 11.3-3.9l.9 2.9h-.1c-3.8 1.2-7.6 2.5-11.2 3.8m22.5-7.4-.9-2.9c3.7-1.1 7.5-2.2 11.5-3.3l.8 2.9h-.1c-3.7 1-7.5 2.1-11.3 3.3m23-6.5-.8-2.9c3.7-1 7.5-1.9 11.6-3h.1l.7 2.9h-.1c-4.1 1.1-7.9 2.1-11.5 3m23.1-5.8-.7-2.9h.1c4-1 8.1-2 11.6-2.8h.1l.7 2.9c-4.8 1.1-8.4 2-11.8 2.8m-298.3-.3q-2.55-5.4-4.8-11.1l2.7-1.1h.4l-.2.1c1.4 3.6 3 7.3 4.6 10.8zm321.5-5.2-.7-2.9c4.4-1.1 8.2-2 11.6-2.8l.7 2.9c-3.3.8-6.9 1.6-11.6 2.8m23.1-5.8-.8-2.9c4.2-1.1 7.9-2.1 11.5-3.1l.8 2.9h-.1c-3.3 1-7.1 2-11.4 3.1m23-6.6-.9-2.9h.1c4-1.3 7.8-2.6 11.2-3.9h.1l1.1 2.8c-3.6 1.3-7.4 2.7-11.6 4M79.7 40.7c-1.2-3.8-2.3-7.7-3.2-11.6l2.9-.7v.1c.9 3.8 2 7.6 3.2 11.4v.1zm398.7-4-1.3-2.7c3.8-1.9 7.2-4 9.9-6l1.8 2.4c-2.9 2.1-6.3 4.2-10.4 6.3m18.9-15.2-2.5-1.6c2.1-3.2 3.2-6.6 3.3-10.3l3 .1c-.1 4.2-1.4 8.1-3.8 11.8M74.1 17.4c-.7-3.9-1.3-7.9-1.8-11.9v-.1l2.9-.4c.5 3.9 1 7.9 1.7 11.7zM1840 222.8l-3-.5c.6-3.8 1-7.7 1.1-11.6l3 .1c-.1 4-.5 8-1.1 12m-2.3-23.8q-.6-5.85-1.8-11.7v-.1l2.9-.6c.8 4 1.5 8 1.8 11.9v.1zm-4.8-23c-1.2-3.7-2.6-7.4-4.1-11.1l2.8-1.2v.1c1.6 3.7 3 7.5 4.2 11.3zm-9.2-21.6c-1.9-3.4-3.9-6.8-6.1-10.1v-.2l2.5-1.6c2.2 3.3 4.3 6.8 6.2 10.3zm-13.1-19.5c-2.5-3.1-5.1-6-7.8-8.8v-.1l2.1-2.1c2.8 2.9 5.5 5.9 8 9zm-16.5-16.9c-3-2.6-6.2-5-9.4-7.2l1.7-2.5c3.3 2.3 6.5 4.7 9.6 7.3zm-19.3-13.3c-3.5-1.9-7-3.7-10.6-5.2l1.3-2.9v.2c3.7 1.6 7.3 3.3 10.8 5.3h.1zm-165.2-4.8c-3.2 0-6.5 0-9.7-.1l.2-3c3.8.1 7.8.2 11.8.1h.1v3zm14.1-.3-.1-3c3.8-.1 7.8-.3 11.9-.6l.2 3q-6 .45-12 .6m-35.7-.4c-4.1-.3-8.1-.7-12-1.1l.4-3h.1c3.8.5 7.8.8 11.8 1.1zm59.6-1-.2-3c3.8-.3 7.8-.7 11.8-1.1l.3 3c-4.1.4-8.1.8-11.9 1.1m-83.4-2c-4.1-.8-8.1-1.6-11.8-2.6l.9-2.9c3.6 1 7.5 1.8 11.5 2.6zm107.1-.5-.4-3c3.9-.5 7.9-1 11.8-1.5l.4 3c-4 .5-7.9 1-11.8 1.5m82-.3c-3.8-1.2-7.6-2.1-11.4-2.9l.6-2.9c3.9.8 7.9 1.8 11.7 3zm-58.3-2.9-.5-3c1.4-.2 2.8-.4 4.4-.7 2.5-.4 5-.7 7.5-1h.1l.3 3c-2.4.2-4.9.6-7.3.9-1.5.3-3 .5-4.5.8m35.3-1.7c-3.8-.4-7.6-.5-11.3-.5l-.5-.1v-2.9h.5c3.9 0 7.8.2 11.6.6zM1541 90c-3.9-1.5-7.7-3.1-11.1-4.9l1.4-2.7c3.3 1.7 6.9 3.3 10.7 4.7zm-21.4-11.1c-3.4-2.4-6.5-5-9.3-7.9h-.1l2.2-2.2c2.7 2.7 5.7 5.2 8.9 7.5zm-17-17.2c-2.3-3.3-4.3-6.9-6-10.6V51l2.7-1.3c1.7 3.6 3.6 7 5.8 10.1zm-10.3-21.8c-1.1-3.8-2-7.7-2.7-11.8l3-.5v.1c.7 4 1.6 7.8 2.6 11.4zm-4.2-23.7c-.3-3.9-.4-7.9-.4-12.1h3c0 4.1.1 8 .4 11.8v.1z" class="st1"/><g style="opacity:.75"><path d="M848.3 84.4h52V97h-36.8v17.8h33.4v12.6h-33.4v27h-15.2zM928.3 84.4H942l30.1 70h-16.4l-5.7-14h-31.3l-5.7 14h-14.7zm16.8 44-10.8-26.6-10.7 26.6zM971.7 119.4c0-20.2 18.2-36.6 40.4-36.6 22.3 0 40.4 16.4 40.4 36.6 0 8.4-3.1 16.1-8.3 22.3l8.3 7.6-8.6 8.2-8.9-8c-6.5 4.1-14.4 6.5-23 6.5-22.1 0-40.3-16.4-40.3-36.6zm40.5 24c4.7 0 9-1.2 12.8-3.3l-14.6-13.2 8.6-8.1 14.7 13.3c2.4-3.7 3.8-8 3.8-12.7 0-13.3-11.3-24-25.2-24s-25.2 10.7-25.2 24 11.2 24 25.1 24zM1059.6 138h14c0 3.9 3.8 7.6 10.9 7.6 5.3 0 9.2-2 9.2-5.1 0-3.3-4.6-4.6-11.9-6.2-9.4-2-21.3-5.5-21.3-15.8 0-11.3 13.4-15.7 23.3-15.7 13.2 0 23.6 7.8 23.6 17.4h-14c0-3.4-3.4-7-10.1-7-4.8 0-8.5 2-8.5 4.8 0 3.6 5.4 4.9 12 6.4 10 2.1 21.3 5.6 21.3 15.8 0 11.5-14.2 15.8-24.2 15.8-13.5 0-24.3-8-24.3-18z" class="st3"/></g><path d="M839.3 78.4h52V91h-36.8v17.8h33.4v12.6h-33.4v27h-15.2zM919.3 78.4H933l30.1 70h-16.4l-5.7-14h-31.3l-5.7 14h-14.7zm16.8 44-10.8-26.6-10.7 26.6zM962.7 113.4c0-20.2 18.2-36.6 40.4-36.6 22.3 0 40.4 16.4 40.4 36.6 0 8.4-3.1 16.1-8.3 22.3l8.3 7.6-8.6 8.2-8.9-8c-6.5 4.1-14.4 6.5-23 6.5-22.1 0-40.3-16.4-40.3-36.6zm40.5 24c4.7 0 9-1.2 12.8-3.3l-14.6-13.2 8.6-8.1 14.7 13.3c2.4-3.7 3.8-8 3.8-12.7 0-13.3-11.3-24-25.2-24s-25.2 10.7-25.2 24 11.2 24 25.1 24zM1050.6 132h14c0 3.9 3.8 7.6 10.9 7.6 5.3 0 9.2-2 9.2-5.1 0-3.3-4.6-4.6-11.9-6.2-9.4-2-21.3-5.5-21.3-15.8 0-11.3 13.4-15.7 23.3-15.7 13.2 0 23.6 7.8 23.6 17.4h-14c0-3.4-3.4-7-10.1-7-4.8 0-8.5 2-8.5 4.8 0 3.6 5.4 4.9 12 6.4 10 2.1 21.3 5.6 21.3 15.8 0 11.5-14.2 15.8-24.2 15.8-13.5 0-24.3-8-24.3-18z" class="st4"/></g></svg>