<svg xmlns="http://www.w3.org/2000/svg" xmlns:xlink="http://www.w3.org/1999/xlink" xml:space="preserve" id="Layer_2_00000102546731317967664320000010163941403105090704_" x="0" y="0" version="1.1" viewBox="0 0 1785.2 965.5"><style>.st1{fill:#ff7b25;stroke:#231f20;stroke-width:2}.st1,.st5,.st6{stroke-miterlimit:10}.st5{opacity:.34;fill:none;stroke:#262262;stroke-width:3;enable-background:new}.st6{fill:#fff;stroke:#231f20;stroke-width:2}.st7{enable-background:new}.st8{fill:#3340c6}.st9{fill:#fff}.st10{fill:#414042}.st11,.st13,.st14,.st15{fill:none;stroke:#414042;stroke-miterlimit:10}.st13,.st14,.st15{fill:#f1fe86;stroke:#231f20;stroke-width:2}.st14,.st15{fill:#3340c6}.st15{fill:#95fcec}.st16{fill:#231f20}</style><g id="Layer_1-2"><ellipse cx="944.3" cy="730.7" rx="177.5" ry="144.9" style="fill:none;stroke:#231f20;stroke-width:2.0002;stroke-miterlimit:10.0008" transform="rotate(-16.349 944.298 730.7)"/><path d="M1224.5 850.5c-21.8-14.7-48.5-21.8-74.6-19-10.1-16.8-27.4-30-45-36.7-29.4-11.3-62.9-6.1-88 12.5-9.3 6.9 1.7 21.1 11 14.2 32.2-23.9 78.3-17.6 102.8 14.1-8.5 3-16.4 7.8-21.2 15.6-6.8 11-6.9 26.8 3.7 35.5 9.7 8 23.7 6.1 33.2-.9 10.6-7.8 14.1-21.7 11.5-34.2-.2-.9-.4-1.7-.6-2.6 19.8-.9 39.7 4.6 56.2 15.7 9.6 6.5 20.6-7.8 11-14.2zm-96.2 23.6c-6.5-.1-6.7-8-4.1-12.7 3-5.4 9.1-8.2 15.2-9.8 1.1 3.7 1.6 7.4 1.1 11.2-.9 6.1-5.9 11.3-12.2 11.3z" class="st1"/><ellipse cx="221.8" cy="101" rx="95.7" ry="222.6" style="fill:none;stroke:#231f20;stroke-width:2.0002;stroke-miterlimit:10.001" transform="rotate(-81.75 221.78 100.95)"/><path d="M127.6 83.1v51.3h29.7s6.8-15.7 20.3-17.1 33.8-7.1 36.5 17.1-1.4 37.1-16.2 39.9-29.5-11.4-29.5-11.4l-43.7-2 1.9 84.1 37.2-7.4s5.8-24.9 21.3-26.1 32.5 13.1 33.3 23.3 0 29.4-19.4 31-38.3-14.3-34.1-16.7-35.2 4.9-35.2 4.9l4.3 75.5 29 5.7s12.4-29.4 29.8-26.5 27.5 12.7 29 26.5-17.8 30.2-27.5 31.4-25.5-15.9-25.5-15.9l-36.8 1.6-.8 74.7h36s13.5-26.5 29.8-22.5c16.2 4.1 23 13.9 24.9 22.5s-1.6 37.2-21.4 35.9-32.1-18-32.1-18l-36.4-1.2-1.2 69 38.3 9.4s16.6-24.1 32.9-20 22.1 15.1 22.1 27-10.4 28.6-22.8 28.2-23.3-10.1-23.3-10.1l-43.7-4.9v82.9h37.9s13.2-27.4 27.1-26.1 27.1 13.1 24.8 29.8-9.7 32.7-22.4 30.6-27.1-15.1-27.1-15.1l-39.4-.4-1.1 81.4h37.8s10-32.2 28.3-29.3 29.4 15.2 28.3 29.3-11.1 32.8-28.9 31.7-31.1-17-31.1-17l-34.4.6.8 70.2s520.5 2 574.1 0c62.2-2.3 244.2-7.5 270.4-8.9 32.1-1.8 589.9 14.3 589.9 14.3s-12.3-389-4.2-421.2c8-32.2 2.1-324.5 2.1-324.5s-1097 30.8-1236 14.8c-37.5-4.4-203.6-2.3-203.6-2.3z" style="fill:#91cdff;stroke:#231f20;stroke-width:3;stroke-miterlimit:10"/><path d="M1446.5 73.7s-8.7 390.6-8.9 462.6-8.3 275.8-8.3 275.8" style="opacity:.22;fill:none;stroke:#be1e2d;stroke-width:3;stroke-miterlimit:10"/><path d="m242.1 186.3 1327-15.1M241.3 291.6l1327.8-14.8M235 396.9l1331.5-14.7M237.6 492.3l1321.3-4.9M236.1 607.7s1241-18.4 1277.4-16.2M241.3 704.7h1334" class="st5"/><path d="m716.2 6.9 356.9 26.8c33.2 2.5 58.1 31.4 55.6 64.6s-31.4 58.1-64.6 55.6l-356.9-26.8c-33.2-2.5-58.1-31.4-55.6-64.6C654 29.3 683 4.4 716.2 6.9z" class="st6"/><g class="st7"><path d="m702.5 74.5 4.5.3c-.4 4.9 4.2 9.3 10.6 9.8 4.5.3 11.1-1.2 11.5-6.8.4-5.1-5-7.1-10.8-9.1-6.7-2.3-14-5.6-13.4-13.2.7-8.7 9.6-10.9 15.4-10.5 8.3.6 14.4 6.7 13.8 13.6l-4.5-.3c.3-4.5-3.9-8.5-9.7-9-3.6-.3-10.2.7-10.6 6.2-.4 5 4.9 7 10.7 9 6.8 2.3 14.1 5.6 13.5 13.2-.7 9-9.9 11.6-16.4 11.1-8.7-.5-15.1-7-14.6-14.3M738.7 74.6c.7-8.8 8-15.4 16.1-14.8 4.8.4 8.9 3.3 11.1 7.5l.4-5.6 3.8.3-2.2 29.9-3.8-.3.4-5.6c-2.9 3.8-7.3 6.1-12.1 5.7-8.1-.7-14.4-8.4-13.7-17.1M753 87.5c6 .5 11.3-4.5 11.8-11s-4-12.2-10-12.7-11.3 4.5-11.8 11 4 12.3 10 12.7M780.9 84.6l1.3-17.7-6.5-.5.3-4.1 6.5.5.6-7.9 4.3.3-.6 7.9 8.6.6-.3 4.1-8.6-.6-1.3 17.7c-.2 2.3 1.6 4.3 4 4.5l4.3.3-.3 3.9-4.3-.3c-4.8-.3-8.4-4.2-8-8.7M801.6 89.5l4.7.4-4.8 13.6-3.7-.3z" class="st8"/></g><g class="st7"><path d="m843.1 55.3 4 .3 13.2 43.1-4.9-.4-3.2-10.8-19.4-1.5-4.8 10.2-4.4-.3zm7.8 27.9-6.5-21.7-9.6 20.5z" class="st8"/></g><g class="st7"><path d="m870.2 94.5-1.3 16.9-4.3-.3 3.1-41.9 3.8.3-.4 5.6c2.9-3.8 7.3-6.1 12.1-5.7 8.1.6 14.4 8.2 13.7 17s-8 15.4-16.1 14.8c-4.4-.3-8.3-2.9-10.6-6.7m10.7 2.7c6 .5 11.3-4.6 11.8-11 .5-6.5-4-12.2-10-12.7s-11.3 4.5-11.8 11 4 12.2 10 12.7M904.9 72l3.8.3-.3 4.1c2.4-2.9 6-4.6 10.1-4.3.7.1 1.3.2 2 .3l-.3 4.1c-1-.3-1.7-.4-2.6-.4-4.8-.4-8.9 2.6-9.2 6.5l-1.5 19.6-4.3-.3zM926.2 73.6l4.3.3-2.2 29.9-4.3-.3zm3.1-12.8c1.6.1 2.7 1.5 2.6 3.2s-1.5 2.9-3 2.8c-1.6-.1-2.7-1.5-2.6-3.2.1-1.6 1.4-2.9 3-2.8M940.1 60.7l4.3.3-3.3 43.8-4.3-.3zM984.4 77.4c.3-4.5-2.6-8.3-7.4-8.7s-8.3 2.9-8.7 8.3l-4.3-.3c.6-7.9 5.9-12.8 13.3-12.2 7.5.6 12 6.3 11.5 13.1-.4 5.6-4.1 9.5-8.6 13.6l-12.5 11.3 19.1 1.4-.3 4.3-25.9-1.9.3-3.4 16.5-15.1c3.5-3.1 6.7-6.1 7-10.4M993.6 87.7c1-13.2 7.7-21.4 16.8-20.8s14.5 9.9 13.5 23c-1 13.2-7.7 21.4-16.8 20.8s-14.4-9.8-13.5-23m13.9 18.7c6.4.5 11.2-6.2 12-16.8s-3-17.9-9.4-18.4-11.2 6.2-12 16.8 3 18 9.4 18.4" class="st8"/></g><g class="st7"><path d="m1033.9 103.6 1.3-17.7-6.5-.5.3-4.1 6.5.5.6-7.9 4.3.3-.6 7.9 8.6.6-.3 4.1-8.6-.6-1.3 17.7c-.2 2.3 1.6 4.3 4 4.5l4.3.3-.3 3.9-4.3-.3c-4.8-.3-8.3-4.1-8-8.7" class="st8"/></g><g class="st7"><path d="m1055.1 69.3 4.3.3-1.3 17.4c2.4-2.5 5.8-4 9.6-3.7 6.5.5 12 5.8 11.5 11.9l-1.5 19.9-4.3-.3 1.5-19.6c.3-3.9-3.3-7.5-8.1-7.8-4.8-.4-8.9 2.6-9.2 6.5l-1.5 19.6-4.3-.3z" class="st8"/></g><path d="M275.3 282.6h-42v-21.8h110.2v21.8h-42V382h-26.2z" class="st9"/><path d="M302.6 383h-28.2v-99.3h-42v-23.8h112.2v23.8h-42zm-26.3-2h24.2v-99.3h42v-19.8H234.3v19.8h41v1h1z"/><path d="M382.4 260.9H406L458.1 382h-28.3l-9.9-24.2h-54.2l-9.9 24.2h-25.5zm29 76.1-18.8-46-18.6 46z" class="st9"/><path d="M459.6 383h-30.5l-9.9-24.2h-52.8l-9.9 24.2h-27.7l53-123.1h24.9zm-29.1-2h26.1l-51.3-119.1H383L331.8 381h23.3l9.9-24.2h55.5zm-17.6-43h-40.3l20-49.7zm-37.3-2H410l-17.3-42.4z"/><path d="M469.9 260.9h36.8l32.4 67.5 32.2-67.5h38.1V382h-26.2v-91.2l-33 67h-23.6l-33-67V382H470z" class="st9"/><path d="M610.4 383h-28.2v-87.9l-31.4 63.7h-24.9l-31.4-63.7V383h-25.6V259.9h38.4l31.8 66.2 31.6-66.2h39.7zm-26.2-2h24.2V261.9H572l-32.9 68.8-33.1-68.8h-35.1V381h21.6v-90.2l1.9-.4 32.7 66.4h22.4l32.7-66.4 1.9.4z"/><path d="M631.4 336.5v-75.6h26.2v75.6c0 14.7 14.2 26.5 31.9 26.5s31.7-11.8 31.7-26.5v-75.6h26.2v75.6c0 26.6-26.1 48.3-57.9 48.3s-58.1-21.7-58.1-48.3" class="st9"/><path d="M689.5 385.7c-32.6 0-59.1-22.1-59.1-49.3v-76.6h28.2v76.6c0 14 13.8 25.5 30.9 25.5 16.9 0 30.7-11.4 30.7-25.5v-76.6h28.2v76.6c0 27.2-26.4 49.3-58.9 49.3m-57.1-123.8v74.6c0 26.1 25.6 47.3 57.1 47.3 31.4 0 56.9-21.2 56.9-47.3v-74.6h-24.2v74.6c0 15.1-14.7 27.5-32.7 27.5-18.1 0-32.9-12.3-32.9-27.5v-74.6z"/><path d="M241.9 468.5h45.6c42.4 0 69.9 27.2 69.9 60.5s-27.6 60.5-69.9 60.5H242zm89.3 60.5c0-21.5-15.8-38.8-43.7-38.8h-19.3v77.5h19.3c28 .1 43.7-17.2 43.7-38.7" class="st9"/><path d="M287.5 590.5H241v-123h46.6c41.1 0 70.9 25.9 70.9 61.5s-29.9 61.5-71 61.5m-44.5-2h44.6c39.9 0 68.9-25 68.9-59.5s-29-59.5-68.9-59.5H243zm44.5-19.7h-20.3v-79.5h20.3c26.7 0 44.7 16 44.7 39.8 0 23.7-18 39.7-44.7 39.7m-18.3-2h18.3c25.5 0 42.7-15.2 42.7-37.8s-17.2-37.8-42.7-37.8h-18.3z"/><path d="M409 468.5h23.6l52.1 121.1h-28.3l-9.9-24.2h-54.2l-9.9 24.2h-25.5zm29.1 76.1-18.8-46-18.6 46z" class="st9"/><path d="M486.3 590.5h-30.5l-9.9-24.2H393l-9.9 24.2h-27.7l53-123.1h24.9zm-29.2-2h26.1l-51.2-119h-22.3l-51.3 119.1h23.3l9.9-24.2h55.5zm-17.6-42.9h-40.3l20-49.7zm-37.3-2h34.3l-17.3-42.4z"/><path d="M513.4 490.2h-42v-21.8h110.2v21.8h-42v99.3h-26.2z" class="st9"/><path d="M540.7 590.5h-28.2v-99.3h-42v-23.8h112.2v23.8h-42zm-26.3-2h24.2v-99.3h42v-19.8H472.4v19.8h41v1h1z"/><path d="M620.5 468.5h23.6l52.1 121.1h-28.3l-9.9-24.2h-54.2l-9.9 24.2h-25.5zm29 76.1-18.8-46-18.6 46z" class="st9"/><path d="M697.7 590.5h-30.5l-9.9-24.2h-52.8l-9.9 24.2h-27.7l53-123.1h24.9zm-29.1-2h26.1l-51.3-119.1h-22.3l-51.3 119.1h23.3l9.9-24.2h55.5zM651 545.6h-40.3l20-49.7zm-37.3-2H648l-17.3-42.4z"/><path d="M724.9 490.2h-42v-21.8h110.2v21.8h-42v99.3h-26.2z" class="st9"/><path d="M752.2 590.5H724v-99.3h-42v-23.8h112.2v23.8h-42zm-26.3-2h24.2v-99.3h42v-19.8H683.9v19.8h41v1h1z"/><path d="M895.7 539.9H832v49.7h-26.2V468.5H832v49.6h63.7v-49.6H922v121.1h-26.2z" class="st9"/><path d="M923 590.5h-28.2v-49.6H833v49.6h-28.2v-123H833v49.6h61.7v-49.6H923zm-26.3-2H921v-119h-24.2v49.6H831v-49.6h-24.2v119.1H831V539h65.7z"/><path d="M939.4 529c0-35 31.3-63.3 69.9-63.3s69.9 28.4 69.9 63.3-31.3 63.3-69.9 63.3-69.9-28.3-69.9-63.3m69.9 41.5c24.2 0 43.7-18.5 43.7-41.5s-19.5-41.5-43.7-41.5-43.6 18.5-43.6 41.5 19.5 41.5 43.6 41.5" class="st9"/><path d="M1009.3 593.3c-39.1 0-70.9-28.9-70.9-64.3 0-35.5 31.8-64.3 70.9-64.3s70.9 28.9 70.9 64.3c.1 35.5-31.8 64.3-70.9 64.3m0-126.6c-38 0-68.9 28-68.9 62.3s30.9 62.3 68.9 62.3 68.9-28 68.9-62.3-30.9-62.3-68.9-62.3m0 104.8c-24.6 0-44.7-19.1-44.7-42.5s20-42.5 44.7-42.5 44.7 19.1 44.7 42.5-20 42.5-44.7 42.5m0-83c-23.5 0-42.7 18.2-42.7 40.5s19.1 40.5 42.7 40.5 42.7-18.2 42.7-40.5-19.1-40.5-42.7-40.5"/><path d="M1120.3 506.3v83.2h-23.6V468.4h23.6l69 83.2v-83.2h23.6v121.1h-23.6z" class="st9"/><path d="M1213.9 590.5h-25.1l-67.5-81.4v81.4h-25.6v-123h25.1l67.5 81.4v-81.4h25.6zm-24.1-2h22.2v-119h-21.6v85l-70.5-85h-22.2v119.1h21.6v-85z"/><g class="st7"><path d="M1255.5 633c.9 4.4 3.1 5.6 7 4.8 7.5-1.5 14.2-9.9 28.8-32.7 2.2-3.3 3.3-5.5 4.2-5.6.7-.1 2 .1 2.2 1.3.2 1-.8 3-3.4 7.1-11.8 18.3-20.6 31.8-31.4 34-8.4 1.7-11.7-2.5-12.7-7.7-4.8-24.1 37.5-102.6 46.9-104.5 2.6-.5 5.9 2 6.9 7 2.5 12.6-26.3 61.9-48.5 89.9-.2 1.8-.3 4.8 0 6.4m43.4-96.2c-.2-.9-.4-1.2-.8-1.1-4.1.8-34.8 53.3-41.4 83 21.9-31.7 43.8-73.9 42.2-81.9" class="st10"/><path d="M1296 635.1c-4.8 1-7.4-2.6-8.2-6.5-2.5-12.5 8.8-35.8 11.9-36.4 1.9-.4 3.2.8 3.5 2.5.2 1.2.3 2.3-3.1 8.3-3.7 6.4-8.6 18.9-7.6 23.9.5 2.6 2 3.1 3.4 2.9 6.3-1.3 19.5-20.6 25.8-30.7 2.1-3.4 3.5-5.5 4.2-5.6s2 .1 2.2 1.3c.2 1-.6 2.4-3.4 7.1-6.4 10-20.7 31.6-28.7 33.2m12.9-76.4c-.6-2.9.7-6.3 4.3-7.1 2.2-.4 4.7.6 5.4 3.9.6 3.1-.6 6.5-4.1 7.2-3.2.7-5-1.4-5.6-4" class="st10"/><path d="M1327.9 572c-4.1.8-10.2 2.4-14.8 3.3-2 .4-2.9-.1-3.1-1.2-.4-1.9 1-2.9 2.7-3.2 3.6-.7 12.6-2.5 23.3-4.8 4.2-9 8.7-17.9 12.5-25.6 3.2-6.3 4.6-8 5.6-8.2.9-.2 1.7.4 2.1 1.9.6.4.9.9 1 1.4.2 1.2.1 2.3-3.5 8.3-2.9 5-6.9 12.4-11 20.6 8.7-1.7 17.9-3.8 25.7-5.3 1.7-.3 2.9-.6 3.2 1 .4 2-.6 3-3.4 3.5-3.8.8-14.6 3.1-28.1 5.8-10 20.8-20.1 44.8-18.8 51.5.6 2.9 2.3 4.2 4.6 3.7 2.9-.6 9.2-2.6 20.4-13.1 3-2.9 5-4.9 5.4-5 .5-.1 1.1 0 1.3 1.2.5 2.4-3.1 6.7-6.8 9.7-8.3 7.2-15.9 10.8-19.7 11.6-4.1.8-8.6-.2-9.9-6.9-1.7-8.7 6.8-29.9 16.7-51.3z" class="st10"/><path d="M1353.2 612.3c.8 4.1 3.7 6.2 9 5.1 13.8-2.8 26-18.2 27.4-18.4.7-.1 1.1.3 1.3 1.2 1 4.8-15.4 19-29.2 21.8-7.8 1.6-12.2-3.2-13.2-8.4-3-15.2 13.7-44.1 23.3-46 3.9-.8 6.9 1.5 7.5 4.9 1 5.1-2.2 19.1-26.3 38.8zm21.6-38.5c-.3-1.4-1.1-1.7-2.4-1.5-4.3.9-17.7 20.4-19.4 34.4 19.1-17.9 22.7-28.5 21.8-32.9" class="st10"/></g><g class="st7"><path d="M1255.5 633c.9 4.4 3.1 5.6 7 4.8 7.5-1.5 14.2-9.9 28.8-32.7 2.2-3.3 3.3-5.5 4.2-5.6.7-.1 2 .1 2.2 1.3.2 1-.8 3-3.4 7.1-11.8 18.3-20.6 31.8-31.4 34-8.4 1.7-11.7-2.5-12.7-7.7-4.8-24.1 37.5-102.6 46.9-104.5 2.6-.5 5.9 2 6.9 7 2.5 12.6-26.3 61.9-48.5 89.9-.2 1.8-.3 4.8 0 6.4zm43.4-96.2c-.2-.9-.4-1.2-.8-1.1-4.1.8-34.8 53.3-41.4 83 21.9-31.7 43.8-73.9 42.2-81.9z" class="st11"/><path d="M1296 635.1c-4.8 1-7.4-2.6-8.2-6.5-2.5-12.5 8.8-35.8 11.9-36.4 1.9-.4 3.2.8 3.5 2.5.2 1.2.3 2.3-3.1 8.3-3.7 6.4-8.6 18.9-7.6 23.9.5 2.6 2 3.1 3.4 2.9 6.3-1.3 19.5-20.6 25.8-30.7 2.1-3.4 3.5-5.5 4.2-5.6s2 .1 2.2 1.3c.2 1-.6 2.4-3.4 7.1-6.4 10-20.7 31.6-28.7 33.2zm12.9-76.4c-.6-2.9.7-6.3 4.3-7.1 2.2-.4 4.7.6 5.4 3.9.6 3.1-.6 6.5-4.1 7.2-3.2.7-5-1.4-5.6-4z" class="st11"/><path d="M1327.9 572c-4.1.8-10.2 2.4-14.8 3.3-2 .4-2.9-.1-3.1-1.2-.4-1.9 1-2.9 2.7-3.2 3.6-.7 12.6-2.5 23.3-4.8 4.2-9 8.7-17.9 12.5-25.6 3.2-6.3 4.6-8 5.6-8.2.9-.2 1.7.4 2.1 1.9.6.4.9.9 1 1.4.2 1.2.1 2.3-3.5 8.3-2.9 5-6.9 12.4-11 20.6 8.7-1.7 17.9-3.8 25.7-5.3 1.7-.3 2.9-.6 3.2 1 .4 2-.6 3-3.4 3.5-3.8.8-14.6 3.1-28.1 5.8-10 20.8-20.1 44.8-18.8 51.5.6 2.9 2.3 4.2 4.6 3.7 2.9-.6 9.2-2.6 20.4-13.1 3-2.9 5-4.9 5.4-5 .5-.1 1.1 0 1.3 1.2.5 2.4-3.1 6.7-6.8 9.7-8.3 7.2-15.9 10.8-19.7 11.6-4.1.8-8.6-.2-9.9-6.9-1.7-8.7 6.8-29.9 16.7-51.3z" class="st11"/><path d="M1353.2 612.3c.8 4.1 3.7 6.2 9 5.1 13.8-2.8 26-18.2 27.4-18.4.7-.1 1.1.3 1.3 1.2 1 4.8-15.4 19-29.2 21.8-7.8 1.6-12.2-3.2-13.2-8.4-3-15.2 13.7-44.1 23.3-46 3.9-.8 6.9 1.5 7.5 4.9 1 5.1-2.2 19.1-26.3 38.8zm21.6-38.5c-.3-1.4-1.1-1.7-2.4-1.5-4.3.9-17.7 20.4-19.4 34.4 19.1-17.9 22.7-28.5 21.8-32.9z" class="st11"/></g><path d="M1256.8 651.5c17.8-4 35.6-8.1 53.4-12.1s35.6-8.1 53.4-12.1c10.1-2.3 20.1-4.6 30.2-6.9l-1.9-4.6c-16.2 7.8-32.4 15.5-48.7 23.3-4.7 2.2-9.3 4.5-14 6.7-2.6 1.2-.8 5.4 1.9 4.6 18.8-5.6 37.7-11.3 56.5-16.9 3.1-.9 1.8-5.8-1.3-4.8-18.8 5.6-37.7 11.3-56.5 16.9l1.9 4.6c16.2-7.8 32.4-15.5 48.7-23.3 4.7-2.2 9.3-4.5 14-6.7 2.7-1.3.7-5.2-1.9-4.6-17.8 4-35.6 8.1-53.4 12.1s-35.6 8.1-53.4 12.1c-10.1 2.3-20.1 4.6-30.2 6.9-3.2.7-1.9 5.6 1.3 4.8" class="st10"/><linearGradient id="SVGID_1_" x1="1391.78" x2="1453.08" y1="225.3" y2="225.3" gradientTransform="matrix(1 0 0 -1 0 856)" gradientUnits="userSpaceOnUse"><stop offset="0" style="stop-color:#414042"/><stop offset=".06" style="stop-color:#414042"/><stop offset=".09" style="stop-color:#fde815"/><stop offset=".66" style="stop-color:#fde923"/><stop offset=".69" style="stop-color:#fe00ad"/></linearGradient><path d="M1397.4 625h49.9c3.1 0 5.7 2.5 5.7 5.7 0 3.1-2.5 5.7-5.7 5.7h-49.9c-3.1 0-5.7-2.5-5.7-5.7.1-3.1 2.6-5.7 5.7-5.7" style="fill:url(#SVGID_1_)"/><image xlink:href="F763C01D95567A78.png" id="Sx2ID5.tif" width="448" height="585" style="overflow:visible" transform="translate(1386.191 443.982)scale(.887)"/><path d="m1386.8 631.9 8.9 4.2c1.1.5 2.3-.3 2.3-1.4l.2-8c0-1.2-1.2-2-2.2-1.5l-9.1 3.8c-1.4.5-1.4 2.3-.1 2.9" class="st10"/></g><g id="Layer_2-2"><path d="M1427.7 285.2c0-68.4-10.4-88.5-45.7-88.5 35.3 0 45.7-20.1 45.7-88.5 0 68.4 10.4 88.5 45.7 88.5-35.3 0-45.7 20-45.7 88.5z" class="st13"/><path d="M1427.7 285.2c0-68.4-10.4-88.5-45.7-88.5 35.3 0 45.7-20.1 45.7-88.5 0 68.4 10.4 88.5 45.7 88.5-35.3 0-45.7 20-45.7 88.5z" class="st13"/><path d="M144.7 809.4c0-38.2-22.4-66.8-52.2-66.8 29.8 0 52.2-28.6 52.2-66.8 0 38.2 22.4 66.8 52.2 66.8-29.9 0-52.2 28.7-52.2 66.8z" class="st14"/><path d="M144.7 809.4c0-38.2-22.4-66.8-52.2-66.8 29.8 0 52.2-28.6 52.2-66.8 0 38.2 22.4 66.8 52.2 66.8-29.9 0-52.2 28.7-52.2 66.8z" class="st14"/><path d="M1293.2 338.3c0-23.8-15.9-41.6-37.1-41.6 21.2 0 37.1-17.8 37.1-41.6 0 23.8 15.9 41.6 37.1 41.6-21.2 0-37.1 17.8-37.1 41.6z" class="st15"/><path d="M1293.2 338.3c0-23.8-15.9-41.6-37.1-41.6 21.2 0 37.1-17.8 37.1-41.6 0 23.8 15.9 41.6 37.1 41.6-21.2 0-37.1 17.8-37.1 41.6z" class="st15"/><path d="M1656.4 193.6c-36.8-4.5-74.8 7.5-102.7 31.9-20.9 18.3-36.8 44.8-42.3 72.6-9.1.2-18.2 1.6-26.7 4.1-39.5 11.7-67 47.2-70.4 88-.5 5.7 5.2 10.5 10.5 10.5 6.1 0 10-4.8 10.5-10.5 2.2-26 18.2-49.9 41.2-62.1 10.1-5.4 21.5-8.3 32.9-8.9.3 16.7 7.6 33.9 24.6 39.3 15.9 5 34.4-3.4 36.2-21.1 1.8-17.9-16-31.5-31.4-35.9-2-.6-4-1.1-6.1-1.5 5.1-22.5 17.8-43.2 34.8-58.6 24.1-21.6 57.2-30.7 89-26.8 5.6.7 10.5-5.3 10.5-10.5-.1-6.2-4.9-9.8-10.6-10.5zm-108.6 137.7c1.1 1.6 1.8 3.2 1.6 4.6 0-.2-.6 1.3-.5 1.1-.3.5-.6.8-.7.8-1.3.7.4.1-1.3.7-.4.1-2.9.6-1.6.4-2.9.3-3.5.2-6.3-.8-.5-.2-2.7-1.5-3.6-2.5-1.7-2-2.9-4.3-3.7-6.9-.8-2.5-1.2-5.1-1.3-7.8 6.9 1.7 13.3 4.7 17.4 10.4z" class="st6"/><path d="M308.4 154.3c-23.5-11.8-50.8-15.5-76.4-9.4-12.2-15.4-30.9-26.3-49.3-30.8-30.6-7.5-63.1 1.9-85.8 23.6-8.4 8 4.4 20.8 12.7 12.7 29-27.8 75.5-27.3 103.8 1-8.1 4.1-15.3 9.8-19.1 18.2-5.3 11.8-3.4 27.4 8.2 34.8 10.6 6.7 24.2 3.1 32.9-5.1 9.6-9.1 11.2-23.3 7.1-35.4-.3-.8-.6-1.7-.9-2.5 19.5-3.4 40-.5 57.7 8.5 10.4 5.1 19.5-10.4 9.1-15.6zm-92.3 35.6c-6.5.8-7.6-7.1-5.6-12.1 2.2-5.7 8-9.2 13.9-11.6 1.6 3.5 2.6 7.2 2.5 11-.3 6.1-4.7 11.9-10.8 12.7z" class="st1"/><path d="M212.1 873.3c-14.5 0-28.6-2.3-42-6.8-6.6-2.2-10-7.6-8.8-13.6 1.1-5 6.1-9.3 11-9.3.9 0 1.8.2 2.7.4 12.2 4.2 24.9 6.2 37.7 6.2 19.4 0 38-4.9 54-14.2 19.8-11.5 35.8-28.8 45.2-48.8-1.7-.8-3.3-1.5-4.8-2.3-7.8-4.1-14.9-10.5-19.5-17.5-5.5-8.4-7-17.2-4.5-25.3 3.5-11 13.3-17.9 25.6-17.9 5.4 0 10.8 1.4 15.6 4.1 16.3 9.1 19.3 28.3 16.7 43.5 3.9.6 7.8.8 11.6.8 7.2 0 14.3-1 21-2.9 24.9-7.2 44.9-27 52.3-51.7 1.6-5.5 6-9.1 11.2-9.1.8 0 1.6.1 2.4.2 3.1.6 6 2.8 7.7 5.7 1.5 2.6 2 5.4 1.2 8-5.9 19.6-17.2 36.8-32.8 49.7-15.8 13.2-34.8 21-55 22.6-2.7.2-5.5.3-8.3.3-6.1 0-12.2-.5-18.2-1.6-11 25.5-31.5 48.1-56.4 62.1-19.7 11.5-42.4 17.4-65.6 17.4m93.2-124.5q-.45 1.5.6 3.9c2.2 5.1 6.6 9.3 13.1 12.6.2-2.2.3-4.3.1-6.3-.2-2.6-.9-4.9-2.1-7.1-.5-1-2.2-2.5-2.6-2.8-2.3-1.4-2.7-1.7-5-1.9h-2.3c-.2.1-.5.2-.7.3-.1 0-.2.1-.4.3-.2.3-.4.7-.7 1" class="st9"/><path d="M437.4 710c.7 0 1.5.1 2.2.2 5.2 1.1 9.8 7 8.1 12.4-11.7 39.1-45.9 68.3-87 71.7-2.7.2-5.4.3-8.2.3-6.3 0-12.6-.6-18.8-1.7-11.1 26.1-32.1 48.8-56.3 62.3-19.9 11.2-42.6 17-65.4 17-14.1 0-28.2-2.2-41.7-6.8-5.4-1.8-9.4-6.3-8.1-12.4.9-4.3 5.4-8.5 10-8.5.8 0 1.6.1 2.4.4 12.3 4.2 25.2 6.3 38 6.3 19 0 37.9-4.7 54.5-14.3 19.8-11.5 36.5-29.2 46.1-50.2q-2.85-1.2-5.7-2.7c-14.2-7.5-28.8-24.4-23.4-41.6 3.6-11.5 13.9-17.2 24.6-17.2 5.1 0 10.4 1.3 15.1 3.9 15.6 8.7 19.2 27.1 16 43.5 4.2.7 8.5 1 12.8 1 7.2 0 14.4-1 21.3-3 25-7.2 45.5-27.4 53-52.3 1.7-4.7 5.5-8.3 10.5-8.3m-128.7 36.1h-1.4c-1.8.2.1 0-1.4.4 0 0-.4.2-.8.6 0 0-.6 1-.7 1-.5 1.4-.2 3.1.6 4.9 2.8 6.4 8.5 10.7 14.9 13.7.4-2.6.5-5.3.3-7.9-.2-2.7-.9-5.2-2.2-7.5-.6-1.2-2.5-2.9-3-3.2-2.5-1.6-3-1.8-6-2.1.7.1.3.1-.3.1M437.4 708c-5.6 0-10.4 3.8-12.1 9.8-7.3 24.4-27.1 43.9-51.6 51-6.6 1.9-13.6 2.9-20.7 2.9-3.5 0-7-.2-10.5-.7 1.3-8.4.8-16.5-1.4-23.5-2.8-8.8-8.3-15.7-16-20-4.9-2.8-10.5-4.2-16.1-4.2-12.8 0-22.9 7.1-26.5 18.6-2.6 8.4-1.1 17.5 4.6 26.1 4.6 7.2 11.9 13.7 19.8 17.8 1.2.7 2.5 1.3 3.9 1.9-9.4 19.5-25.1 36.3-44.4 47.5-15.8 9.2-34.4 14-53.5 14-12.7 0-25.3-2.1-37.4-6.2-1-.3-2-.5-3-.5-5.4 0-10.9 4.6-12 10.1-1.4 6.5 2.3 12.3 9.4 14.7 13.5 4.6 27.7 6.9 42.3 6.9 23.3 0 46.3-6 66.4-17.3 24.8-14 45.3-36.4 56.5-61.8 5.8 1 11.7 1.5 17.6 1.5q4.2 0 8.4-.3c20.4-1.7 39.6-9.6 55.6-22.9 15.7-13.1 27.2-30.5 33.1-50.2.9-2.8.4-6-1.3-8.8-1.9-3.2-5-5.5-8.4-6.2-1-.1-1.9-.2-2.7-.2m-128.7 40.1h.6c2.1.2 2.5.4 4.5 1.8.4.3 1.9 1.7 2.3 2.4 1.1 2.1 1.8 4.3 2 6.7.1 1.5.1 3 0 4.6-5.5-3.1-9.4-6.9-11.4-11.4-.5-1.2-.8-2.2-.6-3 .2-.3.4-.6.6-.8.2-.1.4-.1.6-.2h1.1z" class="st16"/><path d="M384.8 141.2c0-43.4-9.4-56.2-41.3-56.2 31.9 0 41.3-12.8 41.3-56.2 0 43.4 9.4 56.2 41.3 56.2-31.9 0-41.3 12.8-41.3 56.2z" class="st15"/><path d="M384.8 141.2c0-43.4-9.4-56.2-41.3-56.2 31.9 0 41.3-12.8 41.3-56.2 0 43.4 9.4 56.2 41.3 56.2-31.9 0-41.3 12.8-41.3 56.2z" class="st15"/></g><g id="Layer_4"><path d="M619 673.7V691l-1.6 52.6h216.1l-8-69.9s-110.5 3.9-131 0-75.5 0-75.5 0z" style="fill:#f1fe86;stroke:#000;stroke-width:2;stroke-miterlimit:10"/><path d="m1163.3 673.7 1.9 69.9H912.4l9.4-69.9s129.3 3.9 153.3 0c23.9-3.9 88.2 0 88.2 0z" style="fill:#95fcec;stroke:#000;stroke-width:2;stroke-miterlimit:10"/><g class="st7"><path d="M666.5 695.9h5.3l11.7 27.3h-6.4l-2.2-5.5h-12.2l-2.2 5.5h-5.7zM673 713l-4.2-10.4-4.2 10.4z" class="st16"/></g><g class="st7"><path d="M686.2 695.9H700c5.6 0 10.2 4.3 10.2 9.5 0 5.3-4.6 9.5-10.2 9.5h-8v8.3h-5.9v-27.3zm18.2 9.5c0-2.5-1.9-4.6-4.3-4.6h-8v9.2h8c2.3 0 4.3-2.1 4.3-4.6M713.1 695.9H727c5.6 0 10.2 4.3 10.2 9.5 0 5.3-4.6 9.5-10.2 9.5h-8v8.3h-5.9zm18.2 9.5c0-2.5-1.9-4.6-4.3-4.6h-8v9.2h8c2.3 0 4.3-2.1 4.3-4.6" class="st16"/></g><g class="st7"><path d="M740.8 695.9h5.9v22.4H761v4.9h-20.2z" class="st16"/></g><g class="st7"><path d="m768 712.6-10.7-16.8h6.4l7.4 12.1 7.4-12.1h6.1l-10.7 16.8v10.5H768z" class="st16"/></g><g class="st7"><path d="M947.9 695.9h10.2c9.5 0 15.7 6.1 15.7 13.7s-6.2 13.7-15.7 13.7h-10.2zm20 13.6c0-4.8-3.5-8.7-9.8-8.7h-4.3v17.5h4.3c6.3 0 9.8-3.9 9.8-8.8M977.7 695.9h5.9v27.3h-5.9zM987.5 714.8h5.9c0 2.3 2.6 4.3 6.6 4.3 2.8 0 6.1-1.1 6.1-3.4s-3.2-3.1-6.8-4c-5-1.2-11-3.3-11-8.5 0-6 6.9-8 11.5-8 6.5 0 11.6 3.8 11.6 8.5h-5.9c0-1.9-2.1-3.8-5.9-3.8-2.3 0-5.4.7-5.4 2.9s3.1 3 6.8 3.9c5 1.2 11.1 3.4 11.1 8.5 0 6.1-6.9 8.4-12.1 8.4-7.1.2-12.5-3.9-12.5-8.8M1014.2 709.5c0-7.9 7.1-14.3 15.7-14.3 7 0 12.9 4.3 14.7 10.2h-5.9c-1.6-3.1-4.9-5.3-8.8-5.3-5.4 0-9.8 4.2-9.8 9.4s4.4 9.4 9.8 9.4c3.9 0 7.2-2.2 8.8-5.3h5.9c-1.9 5.9-7.8 10.3-14.8 10.3-8.5-.1-15.6-6.5-15.6-14.4M1046.8 709.5c0-7.9 7-14.3 15.7-14.3s15.7 6.4 15.7 14.3-7 14.3-15.7 14.3c-8.6 0-15.7-6.4-15.7-14.3m15.8 9.4c5.4 0 9.8-4.2 9.8-9.4s-4.4-9.4-9.8-9.4-9.8 4.2-9.8 9.4 4.3 9.4 9.8 9.4M1082.2 695.9h14.2c5.4 0 9.9 4.1 9.9 9.1 0 3.7-2.4 6.9-5.9 8.3l6.5 9.8h-6.5l-6.1-9h-6.3v9h-5.9v-27.2zm14.2 13.3c2.2 0 4-1.9 4-4.2s-1.8-4.2-4-4.2h-8.3v8.4zM1110.6 695.9h10.2c9.5 0 15.7 6.1 15.7 13.7s-6.2 13.7-15.7 13.7h-10.2zm20.1 13.6c0-4.8-3.5-8.7-9.8-8.7h-4.3v17.5h4.3c6.2 0 9.8-3.9 9.8-8.8" class="st16"/></g></g></svg>