<svg xmlns="http://www.w3.org/2000/svg" xml:space="preserve" id="Layer_2_00000031181701872275809160000005102698880107036318_" x="0" y="0" version="1.1" viewBox="0 0 1934.9 233.5"><style>.st1{fill:none;stroke:#fff;stroke-width:3;stroke-miterlimit:10}.st2{fill:#fff}.st4,.st5{fill:#08015f;stroke:#08015f;stroke-width:2}.st5{fill:#fff;stroke:#000}</style><g id="Layer_1-2"><path d="M1933.4 231 1.5 232V1.5h1931.9z" style="fill:#3340c6;stroke:#231f20;stroke-width:3;stroke-miterlimit:10"/><path d="M7.5 181.1c2 0 4 0 6-.1" class="st1"/><path d="m25.5 182-.2-3c4-.3 7.9-.6 11.8-1.1h.1l.3 3c-4 .5-8 .8-12 1.1m23.7-2.8-.5-3c3.9-.7 7.8-1.5 11.6-2.4l.7 2.9h-.1c-3.7 1-7.7 1.8-11.7 2.5m23.3-5.5-.9-2.9.1-.1c3.7-1.1 7.5-2.4 11.1-3.8h.1l1 2.8c-3.7 1.6-7.5 2.9-11.4 4m22.5-8.3-1.2-2.7h.1c3.5-1.6 7.1-3.3 10.6-5.1l1.4 2.7c-3.7 1.7-7.3 3.5-10.9 5.1m21.3-10.9-1.6-2.7c3.3-1.9 6.7-4 10.1-6.2l1.6 2.5h-.1c-3.4 2.2-6.9 4.3-10 6.4m20-13.1-1.7-2.5q4.5-3.15 9.6-6.9l1.8 2.4c-3.4 2.5-6.6 4.8-9.7 7m19.3-14.1-1.8-2.4c3-2.3 6.1-4.6 9.1-6.9l.4-.3 1.8 2.4-1.6 1.2c-2.6 1.9-5.3 4-7.9 6m18.9-14.4-1.8-2.4c3.6-2.7 6.6-5 9.6-7.1l1.8 2.4c-3 2.2-6.1 4.5-9.6 7.1m19.2-14-1.7-2.5c3.5-2.4 6.7-4.6 9.8-6.8l1.7 2.5c-3.1 2.2-6.4 4.4-9.8 6.8m19.8-13.1-1.7-2.6V83l.1.1c3.3-2.1 6.8-4.2 10.2-6.2l1.5 2.6c-3.3 2-6.7 4-10.1 6.1zM234 74l-1.3-2.7h.1c3.4-1.7 7.1-3.3 10.9-4.9l1.2 2.8h-.1q-5.7 2.25-10.8 4.8m21.8-9.2-1-2.8h.1c3.6-1.3 7.4-2.6 11.3-3.9h.1l.9 2.9c-4 1.2-7.8 2.5-11.4 3.8m22.6-7.5-.9-2.9c3.7-1.1 7.6-2.2 11.5-3.3l.8 2.9q-5.85 1.65-11.4 3.3m22.9-6.4-.8-2.9c3.8-1 7.7-2 11.6-2.9h.1l.7 2.9h-.1c-3.9.9-7.8 1.9-11.5 2.9m23.1-5.7-.7-2.9h.1c3.7-.9 7.7-1.7 11.6-2.6l.6 2.9c-3.9.9-7.8 1.7-11.6 2.6m23.3-5.1-.6-2.9v-.4l.1.4 11.7-2.4.6 2.9c-4.1.8-8 1.6-11.8 2.4m23.3-4.6-.6-3c3.8-.7 7.7-1.5 11.7-2.2l.5 3c-3.6.7-7.5 1.4-11.6 2.2m23.5-4.4-.5-3h.1c3.8-.7 7.6-1.4 11.7-2.1h.1l.5 2.9h-.1c-3.8.8-7.8 1.5-11.8 2.2M418 27l-.5-3h.1c3.6-.6 7.5-1.3 11.8-2l.5 2.9h-.1c-4 .7-8 1.4-11.8 2.1m23.5-4.1-.5-3c4-.7 8-1.4 11.8-2h.1l.5 3c-4 .7-8.1 1.4-11.9 2m23.5-4-.5-3c4.4-.8 8.2-1.5 11.7-2.1h.1l.5 3c-3.6.6-7.4 1.3-11.8 2.1m23.5-4.5-.6-2.9v-.4l.1.4c4.4-.9 8.3-1.8 11.5-2.6l.7 2.9h-.1c-3.2.9-7 1.7-11.6 2.6" class="st2"/><path d="M511 7.1c3-1.2 4.6-2.3 4.6-3.5" class="st1"/><path d="M1621.7 140.7h-4v-3c4 .1 7.9 0 11.8-.1l.1 3h-.1c-2.5.1-5.2.1-7.8.1m-15.9-.5c-4.1-.3-8.1-.6-12-1.1l.4-3c3.8.5 7.8.8 11.8 1.1h.1zm35.8-.2-.2-3c3.9-.2 7.8-.6 11.8-1l.3 3c-3.9.5-7.9.8-11.9 1m23.8-2.3-.4-3c3.8-.5 7.8-1.1 11.8-1.7l.5 3c-4 .7-8 1.2-11.9 1.7m-83.3-.4c-4.1-.8-8-1.7-11.8-2.7l.8-2.9c3.7 1 7.6 1.8 11.5 2.6zm107-3.4-.7-2.9c3.6-.8 7.5-1.8 11.5-2.9h.1l.8 2.9c-4.1 1-8 2-11.7 2.9m-130.2-2.8c-3.9-1.4-7.6-3-11.1-4.7l1.3-2.7c3.4 1.7 7.1 3.2 10.8 4.6h.1zm153.3-3.7-1-2.8h.1c3.6-1.2 7.4-2.5 11.2-3.9l1 2.8c-3.8 1.4-7.6 2.7-11.3 3.9m-175-6.8c-3.5-2.2-6.8-4.6-9.8-7.1l1.9-2.3c3 2.4 6.1 4.7 9.5 6.8zm197.5-1.3-1.1-2.8h.1c3.5-1.4 7.1-2.8 11-4.5l1.2 2.8c-3.9 1.6-7.7 3.1-11.2 4.5m22-9.2-1.2-2.7c3.5-1.5 7.1-3.1 10.9-4.8l1.2 2.7c-3.6 1.6-7.3 3.2-10.9 4.8m-238-4.9c-2.8-3-5.4-6.1-7.7-9.4l2.4-1.8c2.3 3.2 4.8 6.2 7.4 9zm259.8-5-1.3-2.7q5.25-2.4 10.8-5.1l1.3 2.7c-3.8 1.9-7.3 3.5-10.8 5.1M1800 90l-1.3-2.7c3.2-1.6 6.6-3.2 10.7-5.2l1.3 2.7c-3.6 1.7-7.2 3.5-10.7 5.2m-295.5-4.3c-1.9-3.5-3.7-7.1-5.2-10.9v-.1l2.8-1.1c1.5 3.7 3.2 7.2 5.1 10.6zm316.9-6.3-1.3-2.7h.1c3.6-1.8 7.1-3.5 10.7-5.3l1.3 2.7c-3.6 1.8-7.1 3.5-10.8 5.3m21.4-10.6-1.3-2.7c3.5-1.7 7.1-3.5 10.7-5.3l1.3 2.7c-3.1 1.6-6.6 3.3-10.7 5.3m-347.5-5.3c-1.1-3.8-2.2-7.7-3-11.7v-.1l2.9-.6v.1q1.35 5.85 3 11.4zm368.9-5.1-1.3-2.7q5.55-2.7 10.8-5.1h.1l1.3 2.7c-3.5 1.5-7.1 3.2-10.9 5.1m21.6-10.1-1.2-2.7c4-1.8 7.5-3.4 11-4.8l1.2 2.8c-3.4 1.3-7 2.8-11 4.7M1490.1 40c-.6-3.9-1-7.9-1.4-12l3-.3v.1c.3 4 .8 8 1.4 11.7zm417.6-1-1.1-2.8c4.2-1.6 7.9-2.9 11.4-3.9l.9 2.9h-.1c-3.2 1-7 2.3-11.1 3.8m-419.8-22.9c-.2-3.9-.2-7.9-.2-12V4l3 .1c0 4 .1 8 .2 11.9z" class="st2"/><g style="opacity:.75"><path d="M852.6 97h-24.3V84.4H892V97h-24.3v57.4h-15.2V97zM899.3 84.4h53.3V97h-38.1v16.1h35.1v12.6h-35.1v16.1h38.6v12.6h-53.8zM988.4 84.4h13.7l30.1 70h-16.4l-5.7-14h-31.3l-5.7 14h-14.7zm16.8 44-10.8-26.6-10.7 26.6zM1039 84.4h21.2l18.7 39 18.6-39h22v70h-15.2v-52.7l-19.1 38.7h-13.7l-19.1-38.7v52.7H1039z" class="st4"/></g><path d="M843.6 91h-24.3V78.4H883V91h-24.3v57.4h-15.2V91zM890.3 78.4h53.3V91h-38.1v16.1h35.1v12.6h-35.1v16.1h38.6v12.6h-53.8zM979.4 78.4h13.7l30.1 70h-16.4l-5.7-14h-31.3l-5.7 14h-14.7zm16.8 44-10.8-26.6-10.7 26.6zM1030 78.4h21.2l18.7 39 18.6-39h22v70h-15.2V95.7l-19.1 38.7h-13.7l-19.1-38.7v52.7H1030z" class="st5"/></g></svg>