<?xml version="1.0" encoding="utf-8"?>
<!-- Generator: Adobe Illustrator 28.3.0, SVG Export Plug-In . SVG Version: 6.00 Build 0)  -->
<svg version="1.1" id="Layer_2_00000101821599009667692550000007492448028946262420_"
	 xmlns="http://www.w3.org/2000/svg" xmlns:xlink="http://www.w3.org/1999/xlink" x="0px" y="0px" viewBox="0 0 1934.9 233.5"
	 style="enable-background:new 0 0 1934.9 233.5;" xml:space="preserve">
<style type="text/css">
	.st0{fill:#3340C6;stroke:#231F20;stroke-width:3;stroke-miterlimit:10;}
	.st1{enable-background:new    ;}
	.st2{fill:#FFFFFF;}
	.st3{fill:none;stroke:#000000;stroke-width:2;stroke-miterlimit:10;}
	.st4{fill:none;stroke:#FFFFFF;stroke-width:3;stroke-miterlimit:10;}
	.st5{fill:none;stroke:#FFFFFF;stroke-width:3;stroke-miterlimit:10;stroke-dasharray:0,0,11.91,11.91;}
	.st6{fill:none;stroke:#FFFFFF;stroke-width:3;stroke-miterlimit:10;stroke-dasharray:12,12;}
</style>
<g id="Layer_1-2">
	<polygon class="st0" points="1933.4,231 1.5,232 1.5,1.5 1933.4,1.5 	"/>
	<g class="st1">
		<path class="st2" d="M840.4,90.9h-24.8V77.9h65.1v12.9h-24.8v58.9h-15.5V90.9z"/>
	</g>
	<g class="st1">
		<path class="st3" d="M840.4,90.9h-24.8V77.9h65.1v12.9h-24.8v58.9h-15.5V90.9z"/>
	</g>
	<g class="st1">
		<path class="st2" d="M888.1,77.9h54.5v12.9h-39v16.5h35.9v12.9h-35.9v16.5h39.4v12.9h-54.9V77.9z"/>
	</g>
	<g class="st1">
		<path class="st3" d="M888.1,77.9h54.5v12.9h-39v16.5h35.9v12.9h-35.9v16.5h39.4v12.9h-54.9V77.9z"/>
	</g>
	<g class="st1">
		<path class="st2" d="M979.2,77.9h14l30.8,71.8h-16.7l-5.9-14.4h-32l-5.9,14.4h-15.1L979.2,77.9z M996.3,123.1l-11.1-27.3l-11,27.3
			H996.3z"/>
	</g>
	<g class="st1">
		<path class="st3" d="M979.2,77.9h14l30.8,71.8h-16.7l-5.9-14.4h-32l-5.9,14.4h-15.1L979.2,77.9z M996.3,123.1l-11.1-27.3l-11,27.3
			H996.3z"/>
	</g>
	<g class="st1">
		<path class="st2" d="M1030.9,77.9h21.7l19.2,40l19.1-40h22.5v71.8h-15.5V95.7l-19.5,39.7h-14l-19.5-39.7v54.1h-14V77.9z"/>
	</g>
	<g class="st1">
		<path class="st3" d="M1030.9,77.9h21.7l19.2,40l19.1-40h22.5v71.8h-15.5V95.7l-19.5,39.7h-14l-19.5-39.7v54.1h-14V77.9z"/>
	</g>
	<path class="st4" d="M7.5,181.1c2,0,4,0,6-0.1"/>
	<path class="st5" d="M25.4,180.5c92.1-6.1,123.7-59.2,198-102.5c66.5-38.9,238.3-56.4,282-69"/>
	<path class="st4" d="M511,7.1c3-1.2,4.6-2.3,4.6-3.5"/>
	<path class="st6" d="M1489.2,1.5c0,75.4,24.7,159.3,189.8,132.7c72.4-11.7,193.6-91.1,245-104"/>
</g>
</svg>
