<?xml version="1.0" encoding="utf-8"?>
<!-- Generator: Adobe Illustrator 28.3.0, SVG Export Plug-In . SVG Version: 6.00 Build 0)  -->
<svg version="1.1" id="Layer_2_00000031181701872275809160000005102698880107036318_"
	 xmlns="http://www.w3.org/2000/svg" xmlns:xlink="http://www.w3.org/1999/xlink" x="0px" y="0px" viewBox="0 0 1934.9 233.5"
	 style="enable-background:new 0 0 1934.9 233.5;" xml:space="preserve">
<style type="text/css">
	.st0{fill:#3340C6;stroke:#231F20;stroke-width:3;stroke-miterlimit:10;}
	.st1{fill:none;stroke:#FFFFFF;stroke-width:3;stroke-miterlimit:10;}
	.st2{fill:#FFFFFF;}
	.st3{opacity:0.75;}
	.st4{fill:#08015F;stroke:#08015F;stroke-width:2;}
	.st5{fill:#FFFFFF;stroke:#000000;stroke-width:2;}
</style>
<g id="Layer_1-2">
	<polygon class="st0" points="1933.4,231 1.5,232 1.5,1.5 1933.4,1.5 	"/>
	<path class="st1" d="M7.5,181.1c2,0,4,0,6-0.1"/>
	<g>
		<path class="st2" d="M25.5,182L25.5,182L25.5,182l-0.2-3l0,0c4-0.3,7.9-0.6,11.8-1.1h0.1l0.3,3l0,0
			C33.5,181.4,29.5,181.7,25.5,182z M49.2,179.2l-0.5-3l0,0c3.9-0.7,7.8-1.5,11.6-2.4l0,0l0.7,2.9h-0.1
			C57.2,177.7,53.2,178.5,49.2,179.2L49.2,179.2z M72.5,173.7l-0.9-2.9l0.1-0.1l0,0c3.7-1.1,7.5-2.4,11.1-3.8h0.1l1,2.8l0,0
			C80.2,171.3,76.4,172.6,72.5,173.7L72.5,173.7z M95,165.4l-1.2-2.7h0.1c3.5-1.6,7.1-3.3,10.6-5.1l0,0l1.4,2.7l0,0
			C102.2,162,98.6,163.8,95,165.4L95,165.4z M116.3,154.5l-1.6-2.7l0,0c3.3-1.9,6.7-4,10.1-6.2l0,0l1.6,2.5h-0.1
			C122.9,150.3,119.4,152.4,116.3,154.5L116.3,154.5L116.3,154.5z M136.3,141.4l-1.7-2.5l0,0c3-2.1,6.2-4.4,9.6-6.9l0,0l1.8,2.4l0,0
			C142.6,136.9,139.4,139.2,136.3,141.4L136.3,141.4z M155.6,127.3l-1.8-2.4l0,0c3-2.3,6.1-4.6,9.1-6.9l0.4-0.3l1.8,2.4l-1.6,1.2
			C160.9,123.2,158.2,125.3,155.6,127.3L155.6,127.3z M174.5,112.9l-1.8-2.4l0,0c3.6-2.7,6.6-5,9.6-7.1l0,0l1.8,2.4l0,0
			C181.1,108,178,110.3,174.5,112.9L174.5,112.9z M193.7,98.9l-1.7-2.5l0,0c3.5-2.4,6.7-4.6,9.8-6.8l0,0l1.7,2.5l0,0
			C200.4,94.3,197.1,96.5,193.7,98.9L193.7,98.9z M213.5,85.8l-1.7-2.6l0,0V83l0.1,0.1c3.3-2.1,6.8-4.2,10.2-6.2l0,0l1.5,2.6l0,0
			c-3.3,2-6.7,4-10.1,6.1V85.8z M234,74l-1.3-2.7h0.1c3.4-1.7,7.1-3.3,10.9-4.9l0,0l1.2,2.8h-0.1C241,70.7,237.4,72.3,234,74L234,74
			z M255.8,64.8l-1-2.8h0.1c3.6-1.3,7.4-2.6,11.3-3.9h0.1l0.9,2.9l0,0C263.2,62.2,259.4,63.5,255.8,64.8L255.8,64.8z M278.4,57.3
			l-0.9-2.9l0,0c3.7-1.1,7.6-2.2,11.5-3.3l0,0l0.8,2.9l0,0C285.9,55.1,282.1,56.2,278.4,57.3L278.4,57.3z M301.3,50.9l-0.8-2.9l0,0
			c3.8-1,7.7-2,11.6-2.9h0.1l0.7,2.9h-0.1C308.9,48.9,305,49.9,301.3,50.9L301.3,50.9z M324.4,45.2l-0.7-2.9h0.1
			c3.7-0.9,7.7-1.7,11.6-2.6l0,0l0.6,2.9l0,0C332.1,43.5,328.2,44.3,324.4,45.2L324.4,45.2z M347.7,40.1L347.7,40.1l-0.6-2.9v-0.4
			l0.1,0.4c3.9-0.8,7.8-1.6,11.7-2.4l0,0l0.6,2.9l0,0C355.4,38.5,351.5,39.3,347.7,40.1L347.7,40.1z M371,35.5l-0.6-3l0,0
			c3.8-0.7,7.7-1.5,11.7-2.2l0,0l0.5,3l0,0C379,34,375.1,34.7,371,35.5L371,35.5z M394.5,31.1l-0.5-3h0.1c3.8-0.7,7.6-1.4,11.7-2.1
			h0.1l0.5,2.9h-0.1C402.5,29.7,398.5,30.4,394.5,31.1L394.5,31.1z M418,27l-0.5-3h0.1c3.6-0.6,7.5-1.3,11.8-2l0,0l0.5,2.9h-0.1
			C425.8,25.6,421.8,26.3,418,27L418,27z M441.5,22.9l-0.5-3l0,0c4-0.7,8-1.4,11.8-2h0.1l0.5,3l0,0
			C449.4,21.6,445.3,22.3,441.5,22.9L441.5,22.9z M465,18.9l-0.5-3l0,0c4.4-0.8,8.2-1.5,11.7-2.1h0.1l0.5,3l0,0
			C473.2,17.4,469.4,18.1,465,18.9L465,18.9z M488.5,14.4l-0.6-2.9v-0.4l0.1,0.4c4.4-0.9,8.3-1.8,11.5-2.6l0,0l0.7,2.9h-0.1
			C496.9,12.7,493.1,13.5,488.5,14.4L488.5,14.4z"/>
	</g>
	<path class="st1" d="M511,7.1c3-1.2,4.6-2.3,4.6-3.5"/>
	<g>
		<path class="st2" d="M1621.7,140.7c-1.3,0-2.6,0-4,0l0,0v-3l0,0l0,0c4,0.1,7.9,0,11.8-0.1l0,0l0.1,3h-0.1
			C1627,140.7,1624.3,140.7,1621.7,140.7z M1605.8,140.2L1605.8,140.2c-4.1-0.3-8.1-0.6-12-1.1l0,0l0.4-3l0,0
			c3.8,0.5,7.8,0.8,11.8,1.1h0.1L1605.8,140.2z M1641.6,140l-0.2-3l0,0c3.9-0.2,7.8-0.6,11.8-1l0,0l0.3,3l0,0
			C1649.6,139.5,1645.6,139.8,1641.6,140L1641.6,140z M1665.4,137.7l-0.4-3l0,0c3.8-0.5,7.8-1.1,11.8-1.7l0,0l0.5,3l0,0
			C1673.3,136.7,1669.3,137.2,1665.4,137.7L1665.4,137.7z M1582.1,137.3L1582.1,137.3c-4.1-0.8-8-1.7-11.8-2.7l0,0l0,0l0.8-2.9l0,0
			c3.7,1,7.6,1.8,11.5,2.6l0,0L1582.1,137.3z M1689.1,133.9L1689.1,133.9l-0.7-2.9l0,0c3.6-0.8,7.5-1.8,11.5-2.9h0.1l0.8,2.9l0,0
			C1696.7,132,1692.8,133,1689.1,133.9L1689.1,133.9z M1558.9,131.1L1558.9,131.1c-3.9-1.4-7.6-3-11.1-4.7l0,0l1.3-2.7l0,0
			c3.4,1.7,7.1,3.2,10.8,4.6h0.1L1558.9,131.1z M1712.2,127.4L1712.2,127.4l-1-2.8h0.1c3.6-1.2,7.4-2.5,11.2-3.9l0,0l1,2.8l0,0
			C1719.7,124.9,1715.9,126.2,1712.2,127.4L1712.2,127.4z M1537.2,120.6L1537.2,120.6c-3.5-2.2-6.8-4.6-9.8-7.1l0,0l1.9-2.3l0,0
			c3,2.4,6.1,4.7,9.5,6.8l0,0L1537.2,120.6z M1734.7,119.3l-1.1-2.8h0.1c3.5-1.4,7.1-2.8,11-4.5l0,0l1.2,2.8l0,0
			C1742,116.4,1738.2,117.9,1734.7,119.3L1734.7,119.3z M1756.7,110.1l-1.2-2.7l0,0c3.5-1.5,7.1-3.1,10.9-4.8l0,0l1.2,2.7l0,0
			C1764,106.9,1760.3,108.5,1756.7,110.1L1756.7,110.1z M1518.7,105.2L1518.7,105.2c-2.8-3-5.4-6.1-7.7-9.4l0,0l2.4-1.8l0,0
			c2.3,3.2,4.8,6.2,7.4,9l0,0L1518.7,105.2z M1778.5,100.2l-1.3-2.7l0,0c3.5-1.6,7.1-3.3,10.8-5.1l0,0l1.3,2.7l0,0
			C1785.5,97,1782,98.6,1778.5,100.2L1778.5,100.2z M1800,90l-1.3-2.7l0,0c3.2-1.6,6.6-3.2,10.7-5.2l0,0l1.3,2.7l0,0
			C1807.1,86.5,1803.5,88.3,1800,90L1800,90z M1504.5,85.7L1504.5,85.7c-1.9-3.5-3.7-7.1-5.2-10.9v-0.1l2.8-1.1l0,0
			c1.5,3.7,3.2,7.2,5.1,10.6l0,0L1504.5,85.7z M1821.4,79.4l-1.3-2.7h0.1c3.6-1.8,7.1-3.5,10.7-5.3l0,0l1.3,2.7l0,0
			C1828.6,75.9,1825.1,77.6,1821.4,79.4L1821.4,79.4z M1842.8,68.8l-1.3-2.7l0,0c3.5-1.7,7.1-3.5,10.7-5.3l0,0l1.3,2.7l0,0
			C1850.4,65.1,1846.9,66.8,1842.8,68.8L1842.8,68.8z M1495.3,63.5L1495.3,63.5c-1.1-3.8-2.2-7.7-3-11.7v-0.1l2.9-0.6v0.1
			c0.9,3.9,1.9,7.7,3,11.4l0,0L1495.3,63.5z M1864.2,58.4l-1.3-2.7l0,0c3.7-1.8,7.3-3.5,10.8-5.1h0.1l1.3,2.7l0,0
			C1871.6,54.8,1868,56.5,1864.2,58.4L1864.2,58.4z M1885.8,48.3l-1.2-2.7l0,0c4-1.8,7.5-3.4,11-4.8l0,0l1.2,2.8l0,0
			C1893.4,44.9,1889.8,46.4,1885.8,48.3L1885.8,48.3z M1490.1,40L1490.1,40c-0.6-3.9-1-7.9-1.4-12l0,0l3-0.3v0.1
			c0.3,4,0.8,8,1.4,11.7l0,0L1490.1,40z M1907.7,39L1907.7,39l-1.1-2.8l0,0c4.2-1.6,7.9-2.9,11.4-3.9l0,0l0.9,2.9h-0.1
			C1915.6,36.2,1911.8,37.5,1907.7,39L1907.7,39z M1487.9,16.1L1487.9,16.1c-0.2-3.9-0.2-7.9-0.2-12V4l3,0.1c0,4,0.1,8,0.2,11.9l0,0
			L1487.9,16.1z"/>
	</g>
	<g>
		<g class="st3">
			<path class="st4" d="M852.6,97h-24.3V84.4h63.7V97h-24.3v57.4h-15.2V97z"/>
			<path class="st4" d="M899.3,84.4h53.3V97h-38.1v16.1h35.1v12.6h-35.1v16.1h38.6v12.6h-53.8V84.4z"/>
			<path class="st4" d="M988.4,84.4h13.7l30.1,70h-16.4l-5.7-14h-31.3l-5.7,14h-14.7L988.4,84.4z M1005.2,128.4l-10.8-26.6
				l-10.7,26.6H1005.2z"/>
			<path class="st4" d="M1039,84.4h21.2l18.7,39l18.6-39h22v70h-15.2v-52.7l-19.1,38.7h-13.7l-19.1-38.7v52.7H1039V84.4z"/>
		</g>
		<g>
			<g>
				<path class="st5" d="M843.6,91h-24.3V78.4h63.7V91h-24.3v57.4h-15.2V91z"/>
				<path class="st5" d="M890.3,78.4h53.3V91h-38.1v16.1h35.1v12.6h-35.1v16.1h38.6v12.6h-53.8V78.4z"/>
				<path class="st5" d="M979.4,78.4h13.7l30.1,70h-16.4l-5.7-14h-31.3l-5.7,14h-14.7L979.4,78.4z M996.2,122.4l-10.8-26.6
					l-10.7,26.6H996.2z"/>
				<path class="st5" d="M1030,78.4h21.2l18.7,39l18.6-39h22v70h-15.2V95.7l-19.1,38.7h-13.7l-19.1-38.7v52.7H1030V78.4z"/>
			</g>
		</g>
	</g>
</g>
</svg>
