<svg xmlns="http://www.w3.org/2000/svg" xml:space="preserve" id="Layer_2_00000041992970878825866370000008140201416636378516_" x="0" y="0" version="1.1" viewBox="0 0 357.5 125"><style>.st2{enable-background:new}.st3{fill:#1e1e1e}.st4{fill:none;stroke:#1e1e1e;stroke-width:1.5;stroke-miterlimit:10}.st5{fill:#fff}.st6{fill:none;stroke:#000;stroke-width:1.5;stroke-miterlimit:10}</style><g id="Layer_4"><path d="M3.8 6.5v27.3L1 117l99.3-3.7 86.1 3.7h158l5-110.5S287.1-3.7 243.8 3.7c-34.3 5.9-240 2.8-240 2.8z" style="fill:#ff7b25;stroke:#000;stroke-width:2;stroke-miterlimit:10"/><g style="opacity:.47"><g class="st2"><path d="M69.2 41.7h10l10 32.6 10.5-32.6h9l10.8 32.9 10.2-32.9h9.4L123.9 88h-9L104 55 93.5 88h-9zM178.2 69h-24.4v19h-10V41.7h10v19h24.4v-19h10V88h-10zM197.4 41.7h35.3V50h-25.2v10.6h23.2V69h-23.2v10.6H233V88h-35.5V41.7zM249.3 56.2V88h-9V41.7h9l26.4 31.8V41.7h9V88h-9z" class="st3"/></g><g class="st2"><path d="M69.2 41.7h10l10 32.6 10.5-32.6h9l10.8 32.9 10.2-32.9h9.4L123.9 88h-9L104 55 93.5 88h-9zM178.2 69h-24.4v19h-10V41.7h10v19h24.4v-19h10V88h-10zM197.4 41.7h35.3V50h-25.2v10.6h23.2V69h-23.2v10.6H233V88h-35.5V41.7zM249.3 56.2V88h-9V41.7h9l26.4 31.8V41.7h9V88h-9z" class="st4"/></g></g><g class="st2"><path d="M64.2 37.7h10l10 32.6 10.5-32.6h9l10.8 32.9 10.2-32.9h9.4L118.9 84h-9L99 51 88.5 84h-9zM173.2 65h-24.4v19h-10V37.7h10v19h24.4v-19h10V84h-10zM192.4 37.7h35.3V46h-25.2v10.6h23.2V65h-23.2v10.6H228V84h-35.5V37.7zM244.3 52.2V84h-9V37.7h9l26.4 31.8V37.7h9V84h-9z" class="st5"/></g><g class="st2"><path d="M64.2 37.7h10l10 32.6 10.5-32.6h9l10.8 32.9 10.2-32.9h9.4L118.9 84h-9L99 51 88.5 84h-9zM173.2 65h-24.4v19h-10V37.7h10v19h24.4v-19h10V84h-10zM192.4 37.7h35.3V46h-25.2v10.6h23.2V65h-23.2v10.6H228V84h-35.5V37.7zM244.3 52.2V84h-9V37.7h9l26.4 31.8V37.7h9V84h-9z" class="st6"/></g></g></svg>