<?xml version="1.0" encoding="utf-8"?>
<!-- Generator: Adobe Illustrator 28.3.0, SVG Export Plug-In . SVG Version: 6.00 Build 0)  -->
<svg version="1.1" id="Layer_2_00000041992970878825866370000008140201416636378516_"
	 xmlns="http://www.w3.org/2000/svg" xmlns:xlink="http://www.w3.org/1999/xlink" x="0px" y="0px" viewBox="0 0 357.5 125"
	 style="enable-background:new 0 0 357.5 125;" xml:space="preserve">
<style type="text/css">
	.st0{fill:#FF7B25;stroke:#000000;stroke-width:2;stroke-miterlimit:10;}
	.st1{opacity:0.47;}
	.st2{enable-background:new    ;}
	.st3{fill:#1E1E1E;}
	.st4{fill:none;stroke:#1E1E1E;stroke-width:1.5;stroke-miterlimit:10;}
	.st5{fill:#FFFFFF;}
	.st6{fill:none;stroke:#000000;stroke-width:1.5;stroke-miterlimit:10;}
</style>
<g id="Layer_4">
	<path class="st0" d="M3.8,6.5v27.3L1,117l99.3-3.7l86.1,3.7h104.2h53.8l5-110.5c0,0-62.3-10.2-105.6-2.8C209.5,9.6,3.8,6.5,3.8,6.5
		z"/>
	<g>
		<g class="st1">
			<g class="st2">
				<path class="st3" d="M69.2,41.7h10l10,32.6l10.5-32.6h9l10.8,32.9l10.2-32.9h9.4L123.9,88h-9L104,55L93.5,88h-9L69.2,41.7z"/>
				<path class="st3" d="M178.2,69h-24.4v19h-10V41.7h10v19h24.4v-19h10V88h-10V69z"/>
				<path class="st3" d="M197.4,41.7h35.3V50h-25.2v10.6h23.2V69h-23.2v10.6H233V88h-35.5V41.7z"/>
				<path class="st3" d="M249.3,56.2V88h-9V41.7h9l26.4,31.8V41.7h9V88h-9L249.3,56.2z"/>
			</g>
			<g class="st2">
				<path class="st4" d="M69.2,41.7h10l10,32.6l10.5-32.6h9l10.8,32.9l10.2-32.9h9.4L123.9,88h-9L104,55L93.5,88h-9L69.2,41.7z"/>
				<path class="st4" d="M178.2,69h-24.4v19h-10V41.7h10v19h24.4v-19h10V88h-10V69z"/>
				<path class="st4" d="M197.4,41.7h35.3V50h-25.2v10.6h23.2V69h-23.2v10.6H233V88h-35.5V41.7z"/>
				<path class="st4" d="M249.3,56.2V88h-9V41.7h9l26.4,31.8V41.7h9V88h-9L249.3,56.2z"/>
			</g>
		</g>
		<g>
			<g class="st2">
				<path class="st5" d="M64.2,37.7h10l10,32.6l10.5-32.6h9l10.8,32.9l10.2-32.9h9.4L118.9,84h-9L99,51L88.5,84h-9L64.2,37.7z"/>
				<path class="st5" d="M173.2,65h-24.4v19h-10V37.7h10v19h24.4v-19h10V84h-10V65z"/>
				<path class="st5" d="M192.4,37.7h35.3V46h-25.2v10.6h23.2V65h-23.2v10.6H228V84h-35.5V37.7z"/>
				<path class="st5" d="M244.3,52.2V84h-9V37.7h9l26.4,31.8V37.7h9V84h-9L244.3,52.2z"/>
			</g>
			<g class="st2">
				<path class="st6" d="M64.2,37.7h10l10,32.6l10.5-32.6h9l10.8,32.9l10.2-32.9h9.4L118.9,84h-9L99,51L88.5,84h-9L64.2,37.7z"/>
				<path class="st6" d="M173.2,65h-24.4v19h-10V37.7h10v19h24.4v-19h10V84h-10V65z"/>
				<path class="st6" d="M192.4,37.7h35.3V46h-25.2v10.6h23.2V65h-23.2v10.6H228V84h-35.5V37.7z"/>
				<path class="st6" d="M244.3,52.2V84h-9V37.7h9l26.4,31.8V37.7h9V84h-9L244.3,52.2z"/>
			</g>
		</g>
	</g>
</g>
</svg>
