<?xml version="1.0" encoding="utf-8"?>
<!-- Generator: Adobe Illustrator 28.3.0, SVG Export Plug-In . SVG Version: 6.00 Build 0)  -->
<svg version="1.1" id="Layer_2_00000023989458066205332240000013342278027532241054_"
	 xmlns="http://www.w3.org/2000/svg" xmlns:xlink="http://www.w3.org/1999/xlink" x="0px" y="0px" viewBox="0 0 368.1 125"
	 style="enable-background:new 0 0 368.1 125;" xml:space="preserve">
<style type="text/css">
	.st0{fill:#ABE962;stroke:#000000;stroke-width:2;stroke-miterlimit:10;}
	.st1{opacity:0.47;}
	.st2{enable-background:new    ;}
	.st3{fill:#333333;}
	.st4{fill:none;stroke:#333333;stroke-width:1.5;stroke-miterlimit:10;}
	.st5{fill:#FFFFFF;}
	.st6{fill:none;stroke:#000000;stroke-width:1.5;stroke-miterlimit:10;}
</style>
<g id="Layer_4">
	<path class="st0" d="M3.8,6.5v27.3L1,117l102.3-3.7L192,117h107.4h55.4L360,6.5c0,0-64.2-10.2-108.8-2.8C215.8,9.6,3.8,6.5,3.8,6.5
		z"/>
	<g>
		<g class="st1">
			<g class="st2">
				<path class="st3" d="M52.8,42.7h10l10,32.6l10.5-32.6h9l10.8,32.9l10.2-32.9h9.4L107.5,89h-9L87.5,56L77.1,89h-9L52.8,42.7z"/>
				<path class="st3" d="M161.7,70h-24.4v19h-10V42.7h10v19h24.4v-19h10V89h-10V70z"/>
				<path class="st3" d="M181,42.7h35.3V51H191v10.6h23.2V70H191v10.6h25.5V89H181V42.7z"/>
				<path class="st3" d="M223.8,42.7H248c9.2,0,16.8,6.9,16.8,15.5c0,6.3-4.1,11.8-10,14.2L265.9,89h-11.1l-10.3-15.3h-10.7V89h-10
					V42.7z M248,65.3c3.7,0,6.7-3.2,6.7-7.1c0-3.9-3-7.1-6.7-7.1h-14.2v14.3H248z"/>
				<path class="st3" d="M272.2,42.7h35.3V51h-25.2v10.6h23.2V70h-23.2v10.6h25.5V89h-35.5V42.7z"/>
			</g>
			<g class="st2">
				<path class="st4" d="M52.8,42.7h10l10,32.6l10.5-32.6h9l10.8,32.9l10.2-32.9h9.4L107.5,89h-9L87.5,56L77.1,89h-9L52.8,42.7z"/>
				<path class="st4" d="M161.7,70h-24.4v19h-10V42.7h10v19h24.4v-19h10V89h-10V70z"/>
				<path class="st4" d="M181,42.7h35.3V51H191v10.6h23.2V70H191v10.6h25.5V89H181V42.7z"/>
				<path class="st4" d="M223.8,42.7H248c9.2,0,16.8,6.9,16.8,15.5c0,6.3-4.1,11.8-10,14.2L265.9,89h-11.1l-10.3-15.3h-10.7V89h-10
					V42.7z M248,65.3c3.7,0,6.7-3.2,6.7-7.1c0-3.9-3-7.1-6.7-7.1h-14.2v14.3H248z"/>
				<path class="st4" d="M272.2,42.7h35.3V51h-25.2v10.6h23.2V70h-23.2v10.6h25.5V89h-35.5V42.7z"/>
			</g>
		</g>
		<g>
			<g class="st2">
				<path class="st5" d="M47.8,38.7h10l10,32.6l10.5-32.6h9l10.8,32.9l10.2-32.9h9.4L102.5,85h-9L82.5,52L72.1,85h-9L47.8,38.7z"/>
				<path class="st5" d="M156.7,66h-24.4v19h-10V38.7h10v19h24.4v-19h10V85h-10V66z"/>
				<path class="st5" d="M176,38.7h35.3V47H186v10.6h23.2V66H186v10.6h25.5V85H176V38.7z"/>
				<path class="st5" d="M218.8,38.7H243c9.2,0,16.8,6.9,16.8,15.5c0,6.3-4.1,11.8-10,14.2L260.9,85h-11.1l-10.3-15.3h-10.7V85h-10
					V38.7z M243,61.3c3.7,0,6.7-3.2,6.7-7.1c0-3.9-3-7.1-6.7-7.1h-14.2v14.3H243z"/>
				<path class="st5" d="M267.2,38.7h35.3V47h-25.2v10.6h23.2V66h-23.2v10.6h25.5V85h-35.5V38.7z"/>
			</g>
			<g class="st2">
				<path class="st6" d="M47.8,38.7h10l10,32.6l10.5-32.6h9l10.8,32.9l10.2-32.9h9.4L102.5,85h-9L82.5,52L72.1,85h-9L47.8,38.7z"/>
				<path class="st6" d="M156.7,66h-24.4v19h-10V38.7h10v19h24.4v-19h10V85h-10V66z"/>
				<path class="st6" d="M176,38.7h35.3V47H186v10.6h23.2V66H186v10.6h25.5V85H176V38.7z"/>
				<path class="st6" d="M218.8,38.7H243c9.2,0,16.8,6.9,16.8,15.5c0,6.3-4.1,11.8-10,14.2L260.9,85h-11.1l-10.3-15.3h-10.7V85h-10
					V38.7z M243,61.3c3.7,0,6.7-3.2,6.7-7.1c0-3.9-3-7.1-6.7-7.1h-14.2v14.3H243z"/>
				<path class="st6" d="M267.2,38.7h35.3V47h-25.2v10.6h23.2V66h-23.2v10.6h25.5V85h-35.5V38.7z"/>
			</g>
		</g>
	</g>
</g>
</svg>
