<svg xmlns="http://www.w3.org/2000/svg" xml:space="preserve" id="Layer_2_00000023989458066205332240000013342278027532241054_" x="0" y="0" version="1.1" viewBox="0 0 368.1 125"><style>.st2{enable-background:new}.st3{fill:#333}.st4{fill:none;stroke:#333;stroke-width:1.5;stroke-miterlimit:10}.st5{fill:#fff}.st6{fill:none;stroke:#000;stroke-width:1.5;stroke-miterlimit:10}</style><g id="Layer_4"><path d="M3.8 6.5v27.3L1 117l102.3-3.7L192 117h162.8L360 6.5S295.8-3.7 251.2 3.7C215.8 9.6 3.8 6.5 3.8 6.5z" style="fill:#abe962;stroke:#000;stroke-width:2;stroke-miterlimit:10"/><g style="opacity:.47"><g class="st2"><path d="M52.8 42.7h10l10 32.6 10.5-32.6h9l10.8 32.9 10.2-32.9h9.4L107.5 89h-9l-11-33-10.4 33h-9zM161.7 70h-24.4v19h-10V42.7h10v19h24.4v-19h10V89h-10zM181 42.7h35.3V51H191v10.6h23.2V70H191v10.6h25.5V89H181zM223.8 42.7H248c9.2 0 16.8 6.9 16.8 15.5 0 6.3-4.1 11.8-10 14.2L265.9 89h-11.1l-10.3-15.3h-10.7V89h-10zM248 65.3c3.7 0 6.7-3.2 6.7-7.1s-3-7.1-6.7-7.1h-14.2v14.3H248zM272.2 42.7h35.3V51h-25.2v10.6h23.2V70h-23.2v10.6h25.5V89h-35.5V42.7z" class="st3"/></g><g class="st2"><path d="M52.8 42.7h10l10 32.6 10.5-32.6h9l10.8 32.9 10.2-32.9h9.4L107.5 89h-9l-11-33-10.4 33h-9zM161.7 70h-24.4v19h-10V42.7h10v19h24.4v-19h10V89h-10zM181 42.7h35.3V51H191v10.6h23.2V70H191v10.6h25.5V89H181zM223.8 42.7H248c9.2 0 16.8 6.9 16.8 15.5 0 6.3-4.1 11.8-10 14.2L265.9 89h-11.1l-10.3-15.3h-10.7V89h-10zM248 65.3c3.7 0 6.7-3.2 6.7-7.1s-3-7.1-6.7-7.1h-14.2v14.3H248zM272.2 42.7h35.3V51h-25.2v10.6h23.2V70h-23.2v10.6h25.5V89h-35.5V42.7z" class="st4"/></g></g><g class="st2"><path d="M47.8 38.7h10l10 32.6 10.5-32.6h9l10.8 32.9 10.2-32.9h9.4L102.5 85h-9l-11-33-10.4 33h-9zM156.7 66h-24.4v19h-10V38.7h10v19h24.4v-19h10V85h-10zM176 38.7h35.3V47H186v10.6h23.2V66H186v10.6h25.5V85H176zM218.8 38.7H243c9.2 0 16.8 6.9 16.8 15.5 0 6.3-4.1 11.8-10 14.2L260.9 85h-11.1l-10.3-15.3h-10.7V85h-10zM243 61.3c3.7 0 6.7-3.2 6.7-7.1s-3-7.1-6.7-7.1h-14.2v14.3H243zM267.2 38.7h35.3V47h-25.2v10.6h23.2V66h-23.2v10.6h25.5V85h-35.5V38.7z" class="st5"/></g><g class="st2"><path d="M47.8 38.7h10l10 32.6 10.5-32.6h9l10.8 32.9 10.2-32.9h9.4L102.5 85h-9l-11-33-10.4 33h-9zM156.7 66h-24.4v19h-10V38.7h10v19h24.4v-19h10V85h-10zM176 38.7h35.3V47H186v10.6h23.2V66H186v10.6h25.5V85H176zM218.8 38.7H243c9.2 0 16.8 6.9 16.8 15.5 0 6.3-4.1 11.8-10 14.2L260.9 85h-11.1l-10.3-15.3h-10.7V85h-10zM243 61.3c3.7 0 6.7-3.2 6.7-7.1s-3-7.1-6.7-7.1h-14.2v14.3H243zM267.2 38.7h35.3V47h-25.2v10.6h23.2V66h-23.2v10.6h25.5V85h-35.5V38.7z" class="st6"/></g></g></svg>