<svg xmlns="http://www.w3.org/2000/svg" width="1299" height="503" fill="none" viewBox="0 0 1299 503"><g clip-path="url(#clip0)"><path fill="#231F20" d="M225.807 160.736C225.807 174.288 235.382 186.75 251.281 186.75C267.177 186.75 276.75 174.288 276.75 160.736C276.75 147.19 267.177 134.727 251.281 134.727C235.382 134.727 225.807 147.19 225.807 160.736ZM204.13 160.736C204.13 133.462 225.086 115.214 251.281 115.214C277.471 115.214 298.428 133.462 298.428 160.736C298.428 188.017 277.471 206.263 251.281 206.263C225.086 206.263 204.13 188.017 204.13 160.736ZM692.761 152.071H737.197C737.014 139.419 728.708 131.474 715.162 131.474C702.335 131.474 694.386 139.604 692.761 152.071V152.071ZM671.083 160.736C671.083 133.462 692.039 115.214 718.228 115.214C742.437 115.214 758.879 132.205 758.879 162.365V168.321H692.761C694.207 181.157 703.961 188.913 716.064 188.913C726.903 188.913 733.954 183.865 739.365 177.182L754.899 188.913C744.782 201.376 731.954 206.263 718.228 206.263C692.039 206.263 671.083 188.017 671.083 160.736V160.736ZM817.987 135.81C797.577 135.81 794.681 152.976 794.681 157.672V204.092H773.009V117.381H794.681V131.114H795.049C799.746 121.178 809.318 115.213 820.7 115.213C823.41 115.213 825.939 115.761 828.461 116.478V137.438C824.851 136.531 821.416 135.81 817.987 135.81V135.81ZM189.632 204.095H167.746V73.1728H189.632V204.095ZM550.143 152.423V204.092H528.466V154.959C528.466 144.122 525.217 134.726 512.392 134.726C498.846 134.726 493.783 145.927 493.783 157.119V204.092H472.11V152.423C472.11 141.771 467.768 134.726 457.293 134.726C443.026 134.726 437.427 145.207 437.427 156.769V204.092H415.75V117.38H436.343V130.929H436.701C440.499 122.807 448.806 115.213 463.255 115.213C476.625 115.213 485.839 120.453 490.353 131.295C496.676 120.272 505.881 115.213 518.892 115.213C542.018 115.213 550.143 131.654 550.143 152.423V152.423ZM639.607 160.737C639.607 147.191 630.036 134.729 614.14 134.729C598.242 134.729 588.669 147.191 588.669 160.737C588.669 174.289 598.242 186.751 614.14 186.751C630.036 186.751 639.607 174.289 639.607 160.737ZM661.284 160.737C661.284 186.393 645.207 206.263 618.477 206.263C606.372 206.263 594.994 201.559 588.669 191.088H588.307V204.095H567.715V73.1714H589.39V128.403H589.935C594.445 122.81 603.118 115.216 619.38 115.216C644.122 115.216 661.284 135.095 661.284 160.737ZM904.375 160.195C904.375 145.206 894.442 134.725 878.723 134.725C863.554 134.725 853.071 145.206 853.071 160.559C853.071 174.285 863.91 185.67 878.543 185.67C894.621 185.67 904.375 174.654 904.375 160.195V160.195ZM924.97 196.331C924.97 227.578 909.797 247.444 876.014 247.444C859.937 247.444 845.306 244.019 833.021 233.178L846.028 215.471C854.702 223.422 863.728 227.937 875.839 227.937C896.784 227.937 903.289 216.018 903.289 198.863V192.534H902.932C896.606 201.027 885.405 205.177 874.567 205.177C848.558 205.177 831.397 185.301 831.397 160.735C831.397 135.094 847.469 115.213 874.21 115.213C886.313 115.213 897.692 119.914 904.017 130.394H904.375V117.381H924.97V196.331ZM130.339 165.794C130.339 152.42 121.671 147.735 103.248 147.735H81.3876V184.583H102.339C114.084 184.583 130.339 182.594 130.339 165.794V165.794ZM81.3876 128.223H102.161C117.338 128.223 124.922 121.722 124.922 112.145C124.922 101.123 117.338 95.7082 100.171 95.7082H81.3876V128.223ZM153.1 167.6C153.1 195.426 128.894 204.089 104.689 204.089H58.6226V76.198H108.481C127.807 76.198 147.677 85.0498 147.677 108.351C147.677 122.806 138.645 132.378 125.462 136.349V136.715C141.54 138.516 153.1 151.169 153.1 167.6ZM380.842 160.736C380.842 147.19 371.266 134.727 355.375 134.727C339.478 134.727 329.899 147.19 329.899 160.736C329.899 174.288 339.478 186.75 355.375 186.75C371.266 186.75 380.842 174.288 380.842 160.736ZM402.52 160.736C402.52 188.017 381.559 206.263 355.375 206.263C329.178 206.263 308.224 188.017 308.224 160.736C308.224 133.462 329.178 115.214 355.375 115.214C381.559 115.214 402.52 133.462 402.52 160.736ZM265.711 388.166H286.307V257.267H264.624V312.459H264.084C259.572 306.859 250.893 299.268 234.634 299.268C209.882 299.268 192.72 319.147 192.72 344.801C192.72 370.456 208.793 390.333 235.536 390.333C247.647 390.333 259.024 385.636 265.349 375.153H265.711V388.166ZM239.872 370.817C223.974 370.817 214.401 358.354 214.401 344.801C214.401 331.249 223.974 318.784 239.872 318.784C255.777 318.784 265.349 331.249 265.349 344.801C265.349 358.354 255.777 370.817 239.872 370.817V370.817ZM463.501 312.472C456.463 302.895 444.172 299.276 432.61 299.276C415.086 299.276 397.738 307.955 397.738 327.284C397.738 360.351 444.536 346.258 444.536 364.143C444.536 371.008 436.409 374.083 430.079 374.083C420.865 374.083 415.086 369.565 409.483 363.417L395.034 376.968C403.887 386.908 415.449 390.343 428.818 390.343C446.523 390.343 466.213 383.116 466.213 362.519C466.213 328.726 419.422 341.377 419.422 325.841C419.422 319.337 426.287 316.627 432.065 316.627C439.475 316.627 444.899 319.701 449.054 325.478L463.501 312.472ZM549.167 388.176H570.846V341.735C570.846 337.038 573.74 319.875 594.158 319.875C597.595 319.875 601.023 320.6 604.634 321.5V300.539C602.111 299.82 599.582 299.276 596.87 299.276C585.486 299.276 575.908 305.236 571.21 315.177H570.846V301.444H549.167V388.176ZM880.327 388.176H902.005V341.735C902.005 337.038 904.898 319.875 925.318 319.875C928.754 319.875 932.183 320.6 935.793 321.5V300.539C933.269 299.82 930.74 299.276 928.028 299.276C916.645 299.276 907.067 305.236 902.369 315.177H902.005V301.444H880.327V388.176ZM1147.09 429.36H1168.77V377.148H1169.31C1173.83 382.744 1182.5 390.334 1198.77 390.334C1223.52 390.334 1240.68 370.463 1240.68 344.806C1240.68 319.149 1224.6 299.276 1197.86 299.276C1185.75 299.276 1174.37 303.975 1168.05 314.451H1167.69V301.444H1147.09V429.36ZM1193.53 318.785C1209.42 318.785 1219 331.256 1219 344.806C1219 358.355 1209.42 370.825 1193.53 370.825C1177.63 370.825 1168.05 358.355 1168.05 344.806C1168.05 331.256 1177.63 318.785 1193.53 318.785ZM648.79 388.886L644.633 399.189C643.67 401.47 642.766 403.432 641.922 405.054C641.079 406.683 640.023 408.003 638.759 409.028C637.494 410.054 635.961 410.81 634.157 411.286C632.345 411.77 630.118 412.008 627.472 412.008C625.541 412.008 623.641 411.803 621.781 411.38C619.913 410.959 618.133 410.443 616.448 409.847L613.737 429.352C619.159 430.798 624.698 431.522 630.357 431.522C635.174 431.522 639.307 431.013 642.733 429.988C646.166 428.963 649.147 427.397 651.683 425.291C654.211 423.184 656.404 420.593 658.271 417.525C660.14 414.448 661.858 410.864 663.423 406.77L704.436 301.438H681.856L660.171 361.608H659.807L635.604 301.438H611.751L648.79 388.886ZM58.6226 388.164H81.3944V260.251H58.6226V388.164ZM1013 344.807C1013 331.26 1003.43 318.795 987.528 318.795C971.623 318.795 962.049 331.26 962.049 344.807C962.049 358.363 971.623 370.827 987.528 370.827C1003.43 370.827 1013 358.363 1013 344.807ZM1034.68 344.807C1034.68 372.095 1013.72 390.343 987.528 390.343C961.327 390.343 940.368 372.095 940.368 344.807C940.368 317.529 961.327 299.276 987.528 299.276C1013.72 299.276 1034.68 317.529 1034.68 344.807V344.807ZM178.766 333.414V388.164H157.084V341.722C157.084 328.533 153.108 318.779 141 318.779C128.714 318.779 121.306 326.906 121.306 341.365V388.164H99.6241V301.432H120.222V315.347H120.579C122.028 311.908 128.714 299.262 147.142 299.262C168.287 299.262 178.766 312.992 178.766 333.414V333.414ZM510.367 319.868V357.634C510.367 365.584 512.173 371.904 522.472 371.904C528.614 371.904 532.595 370.46 534.218 369.195V387.441C533.133 387.986 527.353 390.333 516.511 390.333C490.134 390.333 488.686 374.979 488.686 358.172V319.868H472.254V301.436H488.686V276.324H510.367V301.436H534.218V319.868H510.367ZM813.127 313.376H862.083V378.766C858.106 380.756 839.504 391.415 809.331 391.415C767.063 391.415 741.588 362.328 741.588 324.213C741.588 286.097 767.602 257.011 809.331 257.011C843.116 257.011 856.845 270.745 859.555 273.092L842.753 290.069C840.946 288.267 829.747 277.609 809.331 277.609C782.415 277.609 765.436 298.202 765.436 324.213C765.436 350.408 783.136 370.823 809.331 370.823C828.841 370.823 838.6 364.499 839.322 364.136V333.969H813.127V313.376ZM335.474 390.341C353.903 390.341 360.589 377.694 362.037 374.256H362.394V388.169H382.993V301.438H361.31V348.238C361.31 362.696 353.903 370.823 341.616 370.823C329.509 370.823 325.533 361.07 325.533 347.879V301.438H303.851V356.188C303.851 376.609 314.33 390.341 335.474 390.341V390.341ZM1049.72 356.188V301.438H1071.4V347.879C1071.4 361.07 1075.38 370.823 1087.49 370.823C1099.77 370.823 1107.18 362.696 1107.18 348.238V301.438H1128.86V388.169H1108.26V374.256H1107.91C1106.46 377.694 1099.77 390.341 1081.34 390.341C1060.2 390.341 1049.72 376.609 1049.72 356.188"/></g><defs><clipPath id="clip0"><rect width="1299" height="503" fill="#fff"/></clipPath></defs></svg>