<svg xmlns="http://www.w3.org/2000/svg" xmlns:svg="http://www.w3.org/2000/svg" id="svg4111" width="238.962" height="238.93" version="1.0"><metadata id="metadata4116"/><g id="layer1" transform="translate(-169.09021,-178.61151)"><path style="fill:#22559e;overflow:visible" id="rect4057" d="m 169.09021,178.61151 238.96243,0 0,238.9299 -238.96243,0 0,-238.9299 z"/><path style="fill:#fff;overflow:visible" id="rect4059" d="m 228.86137,338.62448 119.55228,0 0,19.39815 -119.55228,0 0,-19.39815 z"/><path style="fill:#fff;overflow:visible" id="polyline4061" d="m 194.418,101.792 30.413,0 14.882,98.896 15.213,-98.896 30.081,0 0,135.124 -20.044,0 0,-101.762 -16.894,101.762 -17.321,0 -16.302,-101.762 0,101.564 -20.028,0 0,-134.926" transform="matrix(0.6641609,0,0,0.6641609,159.01356,170.97301)"/><path id="path4063" d="m 260.45418,267.07509 13.65117,0 0,-6.33808 c 0,-6.20791 0,-24.01805 -22.83585,-24.01805 -22.33174,0 -22.33174,20.33993 -22.33174,24.01805 0,1.95928 0,43.07614 0,46.64468 0,13.61796 4.9812,22.54029 17.88718,22.6273 7.63121,0.0113 12.95113,-4.76203 14.07822,-6.57918 l 0,4.76203 13.20219,0.13084 0,-48.62654 -21.4783,0 0,10.79395 7.82713,0 c 0,0 0,12.57788 0,14.20972 0,7.20349 -2.25482,12.10699 -8.96551,12.10699 -6.72197,0 -8.85658,-5.22163 -8.85658,-12.10699 0,-4.26923 0,-41.30283 0,-43.9628 0,-3.5692 0,-11.7138 8.85658,-11.7138 8.96551,0 8.96551,8.2761 8.96551,11.7138 0,2.98806 0,6.33808 0,6.33808" style="fill:#fff;overflow:visible"/></g></svg>