<?xml version="1.0" encoding="UTF-8" standalone="no"?>
<!DOCTYPE svg PUBLIC "-//W3C//DTD SVG 1.1//EN" "http://www.w3.org/Graphics/SVG/1.1/DTD/svg11.dtd">
<svg version="1.1" xmlns="http://www.w3.org/2000/svg" xmlns:xlink="http://www.w3.org/1999/xlink" preserveAspectRatio="xMidYMid meet" viewBox="0 0 178.85 69" width="179" height="69"><defs><path d="M11.2 51.78L3.36 51.78L3.36 56.63L10.49 56.63L10.49 58.5L3.36 58.5L3.36 63.78L11.2 63.78L11.2 65.71L1.15 65.71L1.15 49.85L11.2 49.85L11.2 51.78ZM14.5 65.71L14.5 54.04L16.53 54.04C16.53 55.35 16.53 56.07 16.53 56.22C17.37 54.75 18.71 53.78 20.44 53.78C23.16 53.78 24.76 55.56 24.76 58.22C24.76 58.72 24.76 61.22 24.76 65.71L22.6 65.71C22.6 61.25 22.6 58.77 22.6 58.27C22.6 56.73 21.79 55.81 19.98 55.81C18.44 55.81 17.12 56.85 16.66 58.25C16.66 58.75 16.66 61.23 16.66 65.71L14.5 65.71ZM29.5 62.39C29.5 61.96 29.5 59.81 29.5 55.94L27.04 55.94L27.04 54.04L29.5 54.04L29.5 51.02L31.66 51.02L31.66 54.04L34.98 54.04L34.98 55.94L31.66 55.94C31.66 59.69 31.66 61.77 31.66 62.18C31.66 63.58 32.44 63.96 33.79 63.96C34.14 63.96 34.5 63.91 34.81 63.81C34.82 63.81 34.88 63.81 34.98 63.81C34.98 64.95 34.98 65.58 34.98 65.71C34.65 65.84 34.19 65.96 33.59 65.96C30.67 65.96 29.5 64.69 29.5 62.39ZM36.73 60C36.73 56.34 39.02 53.78 42.37 53.78C45.82 53.78 47.57 56.09 47.57 59.52C47.57 59.59 47.57 59.98 47.57 60.66C42.41 60.66 39.54 60.66 38.97 60.66C39.27 62.94 40.89 64.01 43.1 64.01C44.47 64.01 45.51 63.78 46.53 63.05C46.54 63.05 46.62 63.05 46.76 63.05C46.76 64.16 46.76 64.78 46.76 64.9C45.72 65.69 44.37 65.96 43.08 65.96C39.19 65.96 36.73 63.68 36.73 60ZM45.46 58.96C45.39 56.83 44.27 55.69 42.39 55.69C40.51 55.69 39.27 57.06 38.99 58.96C40.29 58.96 44.82 58.96 45.46 58.96ZM55.77 55.99C54.39 55.99 53.3 56.96 52.85 58.53C52.85 59.01 52.85 61.4 52.85 65.71L50.69 65.71L50.69 54.04L52.72 54.04C52.72 55.54 52.72 56.38 52.72 56.55C53.41 54.65 54.65 53.86 56.05 53.86C56.55 53.86 57.01 53.94 57.19 54.04C57.19 54.18 57.19 54.92 57.19 56.24L57.01 56.24C56.5 56.07 56.09 55.99 55.77 55.99ZM61.5 70L59.34 70L59.34 54.04L61.37 54.04C61.37 55.24 61.37 55.91 61.37 56.04C62.06 54.85 63.4 53.78 65.21 53.78C68.73 53.78 70.59 56.57 70.59 59.75C70.59 63 68.73 65.84 65.21 65.84C63.53 65.84 62.21 64.92 61.5 63.81C61.5 64.63 61.5 66.7 61.5 70ZM64.7 55.81C63.3 55.81 62.19 56.55 61.5 57.82C61.5 58.22 61.5 61.43 61.5 61.83C62.19 63.07 63.3 63.83 64.7 63.83C67.06 63.83 68.38 62.21 68.38 59.75C68.38 57.39 67.06 55.81 64.7 55.81ZM78.91 55.99C77.54 55.99 76.45 56.96 75.99 58.53C75.99 59.01 75.99 61.4 75.99 65.71L73.84 65.71L73.84 54.04L75.87 54.04C75.87 55.54 75.87 56.38 75.87 56.55C76.55 54.65 77.79 53.86 79.19 53.86C79.7 53.86 80.15 53.94 80.33 54.04C80.33 54.18 80.33 54.92 80.33 56.24L80.15 56.24C79.65 56.07 79.23 55.99 78.91 55.99ZM82.28 51.34C82.28 50.51 83.02 49.85 83.83 49.85C84.67 49.85 85.38 50.51 85.38 51.34C85.38 52.18 84.67 52.87 83.83 52.87C83.02 52.87 82.28 52.18 82.28 51.34ZM82.74 65.71L82.74 54.04L84.9 54.04L84.9 65.71L82.74 65.71ZM88.6 62.94C89.57 63.73 90.99 64.14 92.33 64.14C93.6 64.14 94.72 63.66 94.72 62.62C94.72 61.58 93.78 61.35 91.93 60.74C90.28 60.18 88.43 59.59 88.43 57.39C88.43 55.08 90.3 53.78 92.72 53.78C94.09 53.78 95.31 54.06 96.32 54.75C96.32 54.88 96.32 55.54 96.32 56.73C96.18 56.73 96.11 56.73 96.09 56.73C95.18 56.04 94.09 55.61 92.74 55.61C91.37 55.61 90.61 56.22 90.61 57.08C90.61 58.05 91.42 58.3 93.32 58.88C95.02 59.44 96.9 60.1 96.9 62.31C96.9 64.72 94.92 65.97 92.36 65.97C90.81 65.97 89.26 65.59 88.4 64.9C88.4 64.77 88.4 64.12 88.4 62.94C88.52 62.94 88.59 62.94 88.6 62.94ZM99.34 60C99.34 56.34 101.62 53.78 104.97 53.78C108.43 53.78 110.18 56.09 110.18 59.52C110.18 59.59 110.18 59.98 110.18 60.66C105.01 60.66 102.15 60.66 101.57 60.66C101.88 62.94 103.5 64.01 105.71 64.01C107.08 64.01 108.12 63.78 109.14 63.05C109.15 63.05 109.23 63.05 109.36 63.05C109.36 64.16 109.36 64.78 109.36 64.9C108.32 65.69 106.98 65.96 105.68 65.96C101.8 65.96 99.34 63.68 99.34 60ZM108.07 58.96C107.99 56.83 106.88 55.69 105 55.69C103.12 55.69 101.88 57.06 101.6 58.96C102.89 58.96 107.42 58.96 108.07 58.96ZM14.48 43.08L11.03 43.08L11.03 36.51L4.6 36.51L4.6 43.08L1.15 43.08L1.15 27.22L4.6 27.22L4.6 33.49L11.03 33.49L11.03 27.22L14.48 27.22L14.48 43.08ZM17.14 37.19C17.14 33.38 19.58 30.87 23.1 30.87C26.91 30.87 28.82 33.26 28.82 36.84C28.82 36.93 28.82 37.37 28.82 38.18C23.94 38.18 21.23 38.18 20.69 38.18C20.95 40.14 22.5 40.64 24.02 40.64C25.39 40.64 26.45 40.47 27.57 39.86C27.6 39.86 27.72 39.86 27.95 39.86C27.95 41.35 27.95 42.18 27.95 42.34C26.94 43.08 25.31 43.36 23.84 43.36C19.48 43.36 17.14 41 17.14 37.19ZM25.42 36C25.31 34.22 24.55 33.43 23.16 33.43C21.96 33.43 20.9 33.99 20.67 36C21.62 36 24.94 36 25.42 36ZM30.39 31.56L30.39 31.15L33.58 31.15L34.93 38.41L35.26 40.75L35.72 38.41L37.34 31.15L40.97 31.15L42.57 38.41L43.05 40.75L43.43 38.41L44.78 31.15L47.83 31.15L47.83 31.56L45.31 43.08L40.9 43.08L39.47 36.71L39.07 34.32L38.66 36.71L37.27 43.08L32.87 43.08L30.39 31.56ZM50.11 39.48C50.11 38.66 50.11 34.57 50.11 27.22L53.56 27.22C53.56 34.44 53.56 38.45 53.56 39.25C53.56 40.09 53.91 40.36 54.73 40.36C54.98 40.36 55.39 40.29 55.64 40.21C55.64 40.21 55.66 40.21 55.69 40.21C55.69 41.93 55.69 42.89 55.69 43.08C55.31 43.21 54.57 43.36 53.91 43.36C51.38 43.36 50.11 42.19 50.11 39.48ZM56.7 37.19C56.7 33.38 59.14 30.87 62.67 30.87C66.48 30.87 68.38 33.26 68.38 36.84C68.38 36.93 68.38 37.37 68.38 38.18C63.51 38.18 60.8 38.18 60.26 38.18C60.51 40.14 62.06 40.64 63.58 40.64C64.95 40.64 66.02 40.47 67.14 39.86C67.16 39.86 67.29 39.86 67.52 39.86C67.52 41.35 67.52 42.18 67.52 42.34C66.5 43.08 64.88 43.36 63.41 43.36C59.04 43.36 56.7 41 56.7 37.19ZM64.98 36C64.88 34.22 64.12 33.43 62.72 33.43C61.53 33.43 60.46 33.99 60.23 36C61.18 36 64.5 36 64.98 36ZM80.08 33.99L75.03 33.99C75.03 36.75 75.03 38.28 75.03 38.59C75.03 39.81 75.43 40.36 76.58 40.36C76.91 40.36 77.34 40.26 77.56 40.16C77.59 40.16 77.7 40.16 77.9 40.16C77.9 41.87 77.9 42.81 77.9 43C77.44 43.16 76.75 43.36 75.74 43.36C72.82 43.36 71.58 41.96 71.58 38.74C71.58 38.42 71.58 36.84 71.58 33.99L69.52 33.99L69.52 31.15L71.58 31.15L71.58 28.26L75.03 28.26L75.03 31.15L80.08 31.15L80.08 28.26L83.53 28.26L83.53 31.15L86.4 31.15L86.4 33.99L83.53 33.99C83.53 36.75 83.53 38.28 83.53 38.59C83.53 39.81 83.94 40.36 85.08 40.36C85.41 40.36 85.84 40.26 86.07 40.16C86.09 40.16 86.2 40.16 86.4 40.16C86.4 41.87 86.4 42.81 86.4 43C85.94 43.15 85.26 43.36 84.24 43.36C81.32 43.36 80.08 41.96 80.08 38.74C80.08 38.11 80.08 36.52 80.08 33.99ZM96.55 43.08L93.12 43.08L93.12 27.22C96.82 27.22 98.88 27.22 99.29 27.22C102.79 27.22 105.1 29.15 105.1 32.72C105.1 36.25 102.79 38.18 99.29 38.18C99.11 38.18 98.19 38.18 96.55 38.18L96.55 43.08ZM96.55 30.14L96.55 35.26C98.02 35.26 98.85 35.26 99.01 35.26C100.76 35.26 101.6 34.22 101.6 32.72C101.6 31.18 100.76 30.14 99.01 30.14C98.68 30.14 97.86 30.14 96.55 30.14ZM110.28 43.21C108.07 43.21 106.24 41.94 106.24 39.58C106.24 37.22 107.84 35.85 110.86 35.85C111.85 35.85 112.84 35.95 113.78 36.13C113.78 36.06 113.78 35.51 113.78 35.44C113.78 34.17 112.89 33.61 111.11 33.61C109.79 33.61 108.7 33.89 107.79 34.35C107.76 34.35 107.64 34.35 107.41 34.35C107.41 32.79 107.41 31.93 107.41 31.76C108.32 31.28 109.95 30.87 111.52 30.87C115.25 30.87 117.18 32.57 117.18 35.52C117.18 36.02 117.18 38.54 117.18 43.08L113.88 43.08L113.88 41.3C112.54 42.57 111.34 43.21 110.28 43.21ZM113.78 37.83C113.19 37.65 112.43 37.6 111.82 37.6C110.43 37.6 109.72 38.13 109.72 39.22C109.72 40.31 110.43 40.74 111.47 40.74C112.51 40.74 113.45 40.24 113.78 39.35C113.78 39.05 113.78 37.98 113.78 37.83ZM125.96 30.87C127.41 30.87 128.52 31.2 129.28 31.71C129.28 31.91 129.28 32.91 129.28 34.7C129.07 34.7 128.95 34.7 128.93 34.7C128.19 34.15 127.38 33.89 126.34 33.89C124.64 33.89 123.27 35.08 123.27 37.14C123.27 39.17 124.64 40.34 126.34 40.34C127.38 40.34 128.19 40.08 128.93 39.53C128.95 39.53 129.07 39.53 129.28 39.53C129.28 41.32 129.28 42.32 129.28 42.52C128.52 43.03 127.41 43.36 125.96 43.36C122.43 43.36 119.72 40.97 119.72 37.14C119.72 33.28 122.43 30.87 125.96 30.87ZM135.4 43.08L131.95 43.08L131.95 27.22L135.4 27.22L135.4 36.25L136.21 35.03L139.38 31.15L143.04 31.15L143.04 31.56L138.62 36.56L143.04 42.67L143.04 43.08L139.16 43.08L136.21 38.71L135.4 37.29L135.4 43.08ZM147.88 43.21C145.68 43.21 143.85 41.94 143.85 39.58C143.85 37.22 145.45 35.85 148.47 35.85C149.46 35.85 150.45 35.95 151.39 36.13C151.39 36.06 151.39 35.51 151.39 35.44C151.39 34.17 150.5 33.61 148.72 33.61C147.4 33.61 146.31 33.89 145.4 34.35C145.37 34.35 145.25 34.35 145.02 34.35C145.02 32.79 145.02 31.93 145.02 31.76C145.93 31.28 147.55 30.87 149.13 30.87C152.86 30.87 154.79 32.57 154.79 35.52C154.79 36.02 154.79 38.54 154.79 43.08L151.49 43.08L151.49 41.3C150.15 42.57 148.95 43.21 147.88 43.21ZM151.39 37.83C150.8 37.65 150.04 37.6 149.43 37.6C148.04 37.6 147.33 38.13 147.33 39.22C147.33 40.31 148.04 40.74 149.08 40.74C150.12 40.74 151.06 40.24 151.39 39.35C151.39 39.05 151.39 37.98 151.39 37.83ZM164.58 31.02C165.04 31.02 165.42 31.15 165.57 31.23C165.57 31.45 165.57 32.54 165.57 34.5C165.36 34.5 165.24 34.5 165.22 34.5C164.87 34.32 164.51 34.22 164.03 34.22C162.66 34.22 161.67 34.86 161.39 36.2C161.39 36.66 161.39 38.95 161.39 43.08L157.94 43.08L157.94 31.15L161.23 31.15L161.23 33.56C162.55 31.87 163.67 31.02 164.58 31.02ZM171.97 43.36C168.72 43.36 166.72 40.74 166.72 37.14C166.72 33.51 168.72 30.87 171.97 30.87C173.42 30.87 174.61 31.51 175.4 32.6C175.4 32.24 175.4 30.44 175.4 27.22L178.85 27.22L178.85 43.08L175.55 43.08L175.55 41.4C174.19 42.71 173 43.36 171.97 43.36ZM175.4 35.03C174.76 34.12 173.9 33.69 172.91 33.69C171.34 33.69 170.27 34.91 170.27 37.14C170.27 39.35 171.33 40.54 172.91 40.54C173.9 40.54 174.76 40.11 175.4 39.2C175.4 38.36 175.4 35.45 175.4 35.03Z" id="aCiUJZmH1"></path><path d="M0 16.86L0 16.86L55.22 16.86L55.22 1L0 1L0 16.86ZM3.45 13.41L3.45 4.45L51.77 4.45L51.77 13.41L3.45 13.41Z" id="e15okODI55"></path></defs><g><g><use xlink:href="#aCiUJZmH1" opacity="1" fill="#000000" fill-opacity="1"></use><g><use xlink:href="#aCiUJZmH1" opacity="1" fill-opacity="0" stroke="#000000" stroke-width="1" stroke-opacity="0"></use></g></g><g><use xlink:href="#e15okODI55" opacity="1" fill="#00b388" fill-opacity="1"></use><g><use xlink:href="#e15okODI55" opacity="1" fill-opacity="0" stroke="#000000" stroke-width="1" stroke-opacity="0"></use></g></g></g></svg>