<svg width="135" height="52" viewBox="0 0 135 52" fill="none" xmlns="http://www.w3.org/2000/svg">
<path d="M52.7489 17.5455H57.3001L62.1069 29.2728H62.3114L67.1182 17.5455H71.6694V35H68.0898V23.6393H67.945L63.4279 34.9148H60.9904L56.4734 23.5966H56.3285V35H52.7489V17.5455Z" fill="black"/>
<path d="M78.3746 35.2472C77.5394 35.2472 76.7951 35.1023 76.1417 34.8125C75.4883 34.5171 74.9712 34.0824 74.5906 33.5086C74.2156 32.929 74.0281 32.2074 74.0281 31.3438C74.0281 30.6165 74.1616 30.0057 74.4286 29.5114C74.6957 29.0171 75.0593 28.6194 75.5195 28.3182C75.9798 28.0171 76.5025 27.7898 77.0877 27.6364C77.6786 27.483 78.2979 27.375 78.9457 27.3125C79.707 27.233 80.3207 27.1591 80.7866 27.091C81.2525 27.0171 81.5905 26.9091 81.8008 26.7671C82.011 26.625 82.1161 26.4148 82.1161 26.1364V26.0853C82.1161 25.5455 81.9457 25.1279 81.6048 24.8324C81.2695 24.537 80.7923 24.3893 80.1729 24.3893C79.5195 24.3893 78.9996 24.5341 78.6133 24.8239C78.2269 25.108 77.9712 25.466 77.8462 25.8978L74.4883 25.625C74.6587 24.8296 74.994 24.1421 75.494 23.5625C75.994 22.9773 76.6388 22.5285 77.4286 22.216C78.2241 21.8978 79.1445 21.7387 80.19 21.7387C80.9173 21.7387 81.6133 21.8239 82.2781 21.9944C82.9485 22.1648 83.5423 22.429 84.0593 22.787C84.582 23.1449 84.994 23.6052 85.2951 24.1677C85.5962 24.7245 85.7468 25.3921 85.7468 26.1705V35H82.3036V33.1847H82.2013C81.9911 33.5938 81.7099 33.9546 81.3576 34.2671C81.0053 34.5739 80.582 34.8154 80.0877 34.9915C79.5934 35.162 79.0224 35.2472 78.3746 35.2472ZM79.4144 32.7415C79.9485 32.7415 80.4201 32.6364 80.8292 32.4262C81.2383 32.2103 81.5593 31.9205 81.7923 31.5569C82.0252 31.1932 82.1417 30.7813 82.1417 30.3211V28.9319C82.028 29.0057 81.8718 29.0739 81.6729 29.1364C81.4798 29.1932 81.261 29.2472 81.0167 29.2983C80.7724 29.3438 80.528 29.3864 80.2837 29.4262C80.0394 29.4603 79.8178 29.4915 79.619 29.5199C79.1928 29.5824 78.8207 29.6819 78.5025 29.8182C78.1843 29.9546 77.9371 30.1393 77.761 30.3722C77.5849 30.5995 77.4968 30.8836 77.4968 31.2245C77.4968 31.7188 77.6758 32.0966 78.0337 32.358C78.3974 32.6137 78.8576 32.7415 79.4144 32.7415Z" fill="black"/>
<path d="M88.5636 35V21.9091H92.0835V24.1932H92.2198C92.4584 23.3807 92.859 22.7671 93.4215 22.3523C93.984 21.9319 94.6317 21.7216 95.3647 21.7216C95.5465 21.7216 95.7425 21.733 95.9528 21.7557C96.163 21.7785 96.3477 21.8097 96.5067 21.8495V25.0711C96.3363 25.0199 96.1005 24.9745 95.7994 24.9347C95.4982 24.8949 95.2227 24.875 94.9727 24.875C94.4386 24.875 93.9613 24.9915 93.5408 25.2245C93.1261 25.4518 92.7965 25.7699 92.5522 26.179C92.3136 26.5881 92.1942 27.0597 92.1942 27.5938V35H88.5636Z" fill="black"/>
<path d="M114.805 39.9091C114.345 39.9091 113.913 39.8722 113.51 39.7983C113.112 39.7302 112.782 39.6421 112.521 39.5341L113.339 36.8239C113.765 36.9546 114.149 37.0256 114.49 37.037C114.836 37.0483 115.135 36.9688 115.385 36.7983C115.64 36.6279 115.848 36.3381 116.007 35.929L116.22 35.375L111.524 21.9091H115.342L118.052 31.5228H118.189L120.924 21.9091H124.768L119.68 36.4148C119.436 37.1194 119.103 37.733 118.683 38.2557C118.268 38.7841 117.743 39.1904 117.106 39.4745C116.47 39.7643 115.703 39.9091 114.805 39.9091Z" fill="black"/>
<path d="M98.384 17.5454V35H102.015V30.8436L102.999 29.7201L106.566 35H110.819L105.716 27.5796L110.572 21.9089H106.404L102.211 26.8777H102.015V17.5454H98.384Z" fill="black"/>
<path d="M21.8943 35.4182C20.5929 35.4182 19.2915 34.9215 18.3036 33.9339C17.3453 32.9759 16.8188 31.6985 16.8188 30.3443C16.8188 28.9901 17.3453 27.7128 18.3036 26.7548L28.4842 16.5775C29.3124 15.7495 29.3124 14.4072 28.4842 13.5793C27.6561 12.7514 26.3132 12.7514 25.4851 13.5793L12.7608 26.2994C12.1811 26.879 11.2464 26.879 10.6667 26.2994C10.087 25.7199 10.087 24.7855 10.6667 24.206L23.391 11.4858C25.3727 9.50478 28.5907 9.50478 30.5724 11.4858C32.5541 13.4669 32.5541 16.6839 30.5724 18.665L20.3918 28.8423C19.9895 29.2444 19.7707 29.7766 19.7707 30.3443C19.7707 30.912 19.9895 31.4443 20.3918 31.8464C21.22 32.6743 22.5628 32.6743 23.391 31.8464C23.9707 31.2668 24.9053 31.2668 25.4851 31.8464C26.0648 32.4259 26.0648 33.3603 25.4851 33.9398C24.4972 34.9274 23.1957 35.4241 21.8943 35.4241V35.4182Z" fill="black"/>
<path d="M26.9817 42C26.6031 42 26.2245 41.8581 25.9346 41.5683C25.3549 40.9888 25.3549 40.0545 25.9346 39.4749L38.6589 26.7548C39.0612 26.3526 39.2801 25.8204 39.2801 25.2586C39.2801 24.6968 39.0612 24.1587 38.6589 23.7566C37.8307 22.9287 36.4879 22.9287 35.6597 23.7566L29.7028 29.7116C29.1231 30.2911 28.1884 30.2911 27.6087 29.7116C27.029 29.132 27.029 28.1977 27.6087 27.6182L33.5657 21.6632C35.5474 19.6821 38.7654 19.6821 40.7471 21.6632C41.7054 22.6212 42.2319 23.8985 42.2319 25.2527C42.2319 26.6069 41.7054 27.8843 40.7471 28.8423L28.0228 41.5624C27.7329 41.8522 27.3544 41.9941 26.9758 41.9941L26.9817 42Z" fill="black"/>
<path d="M18.1976 34.04C19.1768 35.0189 20.4553 35.5293 21.7443 35.5661V35.5741H21.8943C23.2338 35.5741 24.5739 35.0628 25.5911 34.0459C26.2294 33.4078 26.2294 32.3784 25.5911 31.7403C24.9528 31.1022 23.9232 31.1022 23.2849 31.7403C22.5153 32.5096 21.2674 32.5096 20.4978 31.7403C20.1239 31.3665 19.9207 30.8725 19.9207 30.3443C19.9207 29.8162 20.1239 29.3222 20.4978 28.9484L30.6785 18.771C32.7188 16.7314 32.7188 13.4194 30.6785 11.3798C28.6382 9.34014 25.3252 9.34014 23.2849 11.3798L10.5606 24.0999C9.92231 24.738 9.92231 25.7674 10.5606 26.4055C11.1989 27.0436 12.2285 27.0436 12.8668 26.4055L25.5911 13.6853C26.3607 12.916 27.6086 12.916 28.3782 13.6853C29.1478 14.4547 29.1478 15.702 28.3782 16.4714L18.1976 26.6487C17.211 27.635 16.6688 28.9505 16.6688 30.3443C16.6688 31.7381 17.211 33.0537 18.1976 34.04ZM26.9817 42.15H27.3435L27.3047 42.1112C27.606 42.05 27.8939 41.9034 28.1289 41.6685L40.8531 28.9484C41.8397 27.9621 42.3819 26.6465 42.3819 25.2527C42.3819 23.8589 41.8397 22.5433 40.8531 21.5571C38.8129 19.5175 35.4999 19.5175 33.4596 21.5571L27.5027 27.5121C26.8644 28.1502 26.8644 29.1795 27.5027 29.8177C28.141 30.4557 29.1706 30.4557 29.8089 29.8177L35.7658 23.8627C36.5354 23.0933 37.7833 23.0933 38.5529 23.8627C38.9266 24.2363 39.1301 24.7361 39.1301 25.2586C39.1301 25.7807 38.927 26.2747 38.5529 26.6487L25.8286 39.3689C25.1903 40.007 25.1903 41.0363 25.8286 41.6744C26.1481 41.9938 26.5655 42.15 26.9817 42.15Z" stroke="black" stroke-width="0.3"/>
</svg>
