<svg width="518" height="166" viewBox="0 0 518 166" fill="none" xmlns="http://www.w3.org/2000/svg">
<rect width="518" height="166" fill="black"/>
<path d="M186.97 63.1199L200.16 91.8299H172.06L193.64 44.9199H173.12L138.14 120.75H158.76L164.81 107.6H207.41L213.46 120.75H234.08L207.39 63.1199H186.97Z" fill="white"/>
<path d="M43 44.9199L77.98 120.75H98.71L63.83 44.9199H43Z" fill="white"/>
<path d="M118.52 44.9199L92.0303 102.55H112.66L139.35 44.9199H118.52Z" fill="#08DA87"/>
<path d="M327.5 70.6999C327.5 54.1199 315.97 44.9199 296.66 44.9199H248.44V120.74H267.14V97.1899H291L307.77 120.74H330.82L311 93.7699C321.05 89.9099 327.5 81.5999 327.5 70.6999ZM267.14 60.9999H296.05C303.84 60.9999 308.59 65.0499 308.59 71.2199C308.59 77.3899 303.84 81.4299 296.05 81.4299H267.14V60.9999Z" fill="white"/>
<path d="M446 74.34L427.89 73C419.3 72.39 417.17 69.66 417.17 66.93C417.17 62.58 422.17 59.75 436.08 59.75C444.37 59.75 455.79 61.67 464.39 66.22L471.39 49.74C462.67 45.43 450 43 438.5 43H435.67C411.61 43 397.67 52.91 397.67 68.38C397.67 81.01 406.67 88.8 425.57 90.21L443.27 91.53C451.66 92.13 455.4 94.36 455.4 99.01C455.2 103.66 450.24 105.88 437.71 105.88C427.29 105.88 415.87 102.95 406.57 96.28L397.06 111.34C406.16 118.93 422.06 122.56 437 122.56H440.74C463.18 122.56 474.81 112.56 475.01 97.19C475 83.84 465.4 75.76 446 74.34Z" fill="white"/>
<path d="M372.29 44.9199H353.38V120.75H372.29V44.9199Z" fill="white"/>
</svg>
