<svg xmlns="http://www.w3.org/2000/svg" width="1470" height="1576" fill="none"><path fill="#6EFEEB" d="m192 1115 250 280v-280zM800 1395l159.843-280H800zM442 1115h358v280H442zM1256 191h-66v1385l280-250V421z"/><path fill="#2C41DB" d="m1256 191 214 230h-214z"/><path fill="#2C41DB" fill-rule="evenodd" d="M383 0h89v1115H337v-17.95h-10V1115H192V140zm-56 140v19.954h10V140zm10 49.832h-10v39.908h10zm0 69.785h-10v39.909h10zm0 69.786h-10v39.908h10zm0 69.786h-10v39.908h10zm0 69.785h-10v39.909h10zm0 69.786h-10v39.908h10zm0 69.786h-10v39.908h10zm0 69.786h-10v39.908h10zm0 69.785h-10v39.909h10zm0 69.786h-10v39.908h10zm0 69.786h-10v39.908h10zm0 69.786h-10v39.908h10zm0 69.785h-10v39.91h10z" clip-rule="evenodd"/><path fill="#6EFEEB" d="M192 140 383 0v140z"/><path fill="#2C41DB" d="m952.5 677.5-265 265h265zM680 957.5V1115h280V957.5zM967.5 950H1190V670H967.5z"/><path fill="#2C41DB" fill-rule="evenodd" d="M1182.04 1296H911.787l-85.147 149.15h-84.089l84.133 126.75 14.77-11.47 6.133 7.9-9.883 7.67H1190v-273.52l-12.35 9.59-6.14-7.9zm-25.88 32.76-6.13-7.9-29.94 23.24 6.13 7.9zm-51.43 39.92-6.13-7.89-29.94 23.24 6.13 7.9zm-51.43 39.93-6.13-7.9-29.94 23.25 6.13 7.9zm-51.43 39.93-6.13-7.9-29.94 23.25 6.133 7.9zm-51.426 39.93-6.133-7.9-29.939 23.25 6.132 7.89zm-51.429 39.93-6.132-7.9-29.94 23.24 6.133 7.9z" clip-rule="evenodd"/><path fill="#6EFEEB" d="M0 285h800v280H0z"/></svg>