<svg xmlns="http://www.w3.org/2000/svg" width="68" height="79" fill="none" viewBox="0 0 68 79"><path fill="#009B9B" d="M9.21488 66.3463L18.8508 60.749L18.8453 62.5318L9.20941 68.1318L9.21488 66.3463Z"/><path fill="#00C2C2" d="M7.66173 65.4521L9.21486 66.3463L9.20939 68.1318L7.659 67.235L7.66173 65.4521Z"/><path fill="#009A9A" d="M7.66168 65.4521L17.2976 59.8521L18.8507 60.7489L9.21481 66.3462L7.66168 65.4521Z"/><path fill="#009B9B" d="M7.67809 60.1034L17.314 54.5034L17.2976 59.8519L7.66168 65.4519L7.67809 60.1034Z"/><path fill="#00C2C2" d="M6.125 59.2065L7.67812 60.1034L7.66172 65.4519L6.11133 64.555L6.125 59.2065Z"/><path fill="#009A9A" d="M6.125 59.2065L15.7609 53.6064L17.3141 54.5033L7.67812 60.1033L6.125 59.2065Z"/><path fill="#00C2C2" d="M9.20392 69.9147L9.20939 68.1318L24.727 77.0896L24.7242 78.8725L9.20392 69.9147Z"/><path fill="#009B9B" d="M24.727 77.0893L34.3629 71.4893L34.3602 73.2748L24.7242 78.8721L24.727 77.0893Z"/><path fill="#009A9A" d="M9.20941 68.1317L18.8453 62.5317L34.3629 71.4896L24.727 77.0895L9.20941 68.1317Z"/><path fill="#66CBA9" d="M24.7325 75.3065L34.3684 69.7065L34.3629 71.4894L24.727 77.0894L24.7325 75.3065Z"/><path fill="#009A9A" d="M24.7324 75.3065L34.3684 69.7065L35.9215 70.6034L26.2855 76.2034L24.7324 75.3065Z"/><path fill="#66CBA9" d="M26.2992 70.8554L35.9351 65.2554L35.9215 70.6038L26.2855 76.2038L26.2992 70.8554Z"/><path fill="#009A9A" d="M26.2993 70.8554L35.9352 65.2554L37.4883 66.1522L27.8524 71.7523L26.2993 70.8554Z"/><path fill="#65C9A8" d="M17.0078 58.3456L26.6438 52.7456L31.3004 55.4335L21.6645 61.0335L17.0078 58.3456Z"/><path fill="#009B9B" d="M21.6699 59.2504L31.3058 53.6504L31.3004 55.4332L21.6644 61.0332L21.6699 59.2504Z"/><path fill="#009B9B" d="M6.2125 28.8935L15.8484 23.2935L15.7609 53.6067L6.125 59.2067L6.2125 28.8935Z"/><path fill="#009A9A" d="M1.55859 26.2055L11.1945 20.6055L15.8484 23.2934L6.2125 28.8934L1.55859 26.2055Z"/><path fill="#009B9B" d="M1.58867 15.5058L11.2246 9.90576L11.1945 20.6054L1.55859 26.2054L1.58867 15.5058Z"/><path fill="#65C9A8" d="M15.4629 55.6654L25.0988 50.0654L26.6492 50.9623L17.0133 56.5623L15.4629 55.6654Z"/><path fill="#66CBA9" d="M15.523 34.269L25.159 28.6689L25.0988 50.0654L15.4629 55.6654L15.523 34.269Z"/><path fill="#009B9B" d="M17.0707 36.9486L26.7066 31.3486L26.6492 50.9623L17.0132 56.5623L17.0707 36.9486Z"/><path fill="#65C9A8" d="M1.58868 15.5058L11.2246 9.90576L15.8785 12.5937L6.24259 18.1937L1.58868 15.5058Z"/><path fill="#009A9A" d="M0.0410156 12.8261L9.67695 7.22607L14.3309 9.91397L4.69492 15.514L0.0410156 12.8261Z"/><path fill="#009B9B" d="M6.26717 9.27676L15.9031 3.67676L15.8785 12.5936L6.24255 18.1936L6.26717 9.27676Z"/><path fill="#009A9A" d="M15.523 34.269L25.1589 28.6689L36.0226 34.9416L26.3867 40.5416L15.523 34.269Z"/><path fill="#7FFDD3" d="M15.5805 14.6554L15.5559 23.5694L26.4168 29.8394L26.3867 40.5417L15.523 34.269L15.4629 55.6655L17.0133 56.5624L17.0078 58.3452L21.6645 61.0331L21.6699 59.2503L27.877 62.8351L27.8523 71.7519L26.2992 70.855L26.2855 76.2034L24.7324 75.3065L24.727 77.0894L9.20937 68.1315L9.21484 66.346L7.66172 65.4519L7.67812 60.1034L6.125 59.2065L6.2125 28.8933L1.55859 26.2054L1.58867 15.5058L6.24258 18.1937L6.26719 9.27686L15.5805 14.6554Z"/><path fill="#009B9B" d="M26.2856 76.2035L35.9215 70.6035L35.916 72.3863L26.2801 77.9863L26.2856 76.2035Z"/><path fill="#00C2C2" d="M24.727 77.0894L24.7325 75.3066L26.2856 76.2035L26.2801 77.9863L24.727 77.0894Z"/><path fill="#66CBA9" d="M17.0133 56.5624L26.6492 50.9624L26.6437 52.7452L17.0078 58.3452L17.0133 56.5624Z"/><path fill="#00C2C2" d="M26.2855 76.2034L26.2992 70.855L27.8523 71.7519L27.8359 77.0976L26.2855 76.2034Z"/><path fill="#009B9B" d="M27.8523 71.7519L37.4883 66.1519L37.4719 71.5003L27.8359 77.0976L27.8523 71.7519Z"/><path fill="#009A9A" d="M17.0132 56.5624L26.6492 50.9624L31.3058 53.6503L21.6699 59.2503L17.0132 56.5624Z"/><path fill="#00C2C2" d="M21.6645 61.0332L17.0078 58.3453L17.0133 56.5625L21.6699 59.2504L21.6645 61.0332Z"/><path fill="#65C9A8" d="M21.6699 59.2504L31.3059 53.6504L37.5129 57.2352L27.877 62.8352L21.6699 59.2504Z"/><path fill="#66CBA9" d="M27.877 62.8349L37.5129 57.2349L37.4883 66.1517L27.8524 71.7517L27.877 62.8349Z"/><path fill="#009B9B" d="M29.4356 61.9462L39.0715 56.3462L39.0415 67.0458L29.4055 72.6458L29.4356 61.9462Z"/><path fill="#009A9A" d="M21.6754 57.4677L31.3113 51.8677L39.0714 56.3466L29.4355 61.9466L21.6754 57.4677Z"/><path fill="#00C2C2" d="M21.6754 57.4678L29.4355 61.9467L29.4055 72.6463L27.8523 71.7521L27.877 62.8354L21.6699 59.2506L21.6754 57.4678Z"/><path fill="#66CBA9" d="M15.5805 14.6557L25.2164 9.05566L25.1891 17.9697L15.5558 23.5697L15.5805 14.6557Z"/><path fill="#65C9A8" d="M6.26721 9.27676L15.9031 3.67676L25.2164 9.05527L15.5805 14.6553L6.26721 9.27676Z"/><path fill="#66CBA9" d="M26.4168 29.8395L36.0527 24.2422L36.0226 34.9418L26.3867 40.5418L26.4168 29.8395Z"/><path fill="#65C9A8" d="M15.5558 23.5697L25.1891 17.9697L36.0527 24.2424L26.4168 29.8396L15.5558 23.5697Z"/><path fill="#009A9A" d="M4.71954 6.59726L14.3555 1L26.7695 8.16679L17.1363 13.7668L4.71954 6.59726Z"/><path fill="#009B9B" d="M17.1364 13.767L26.7696 8.16699L26.7449 17.0811L17.109 22.6811L17.1364 13.767Z"/><path fill="#009B9B" d="M27.9727 28.9535L37.6086 23.3535L37.5703 37.6215L27.9344 43.2215L27.9727 28.9535Z"/><path fill="#00C2C2" d="M1.5586 26.2054L6.2125 28.8933L6.125 59.2065L4.57461 58.3097L4.65391 29.7792L0 27.094L0.0410181 12.8261L4.69493 15.514L4.71953 6.59717L17.1363 13.7667L17.109 22.6808L27.9727 28.9534L27.9344 43.2214L17.0707 36.9487L17.0133 56.5624L15.4629 55.6655L15.523 34.269L26.3867 40.5417L26.4168 29.8394L15.5559 23.5694L15.5805 14.6554L6.26719 9.27685L6.24258 18.1936L1.58868 15.5058L1.5586 26.2054Z"/><path fill="#009A9A" d="M17.109 22.6811L26.745 17.0811L37.6086 23.3537L27.9727 28.9537L17.109 22.6811Z"/><path fill="#4B66C0" d="M57.5313 74.5955L47.8953 68.9955L55.6555 64.5166L65.2914 70.1166L57.5313 74.5955Z"/><path fill="#4B66C0" d="M55.9836 77.2755L46.3477 71.6755L46.3395 68.1099L55.9754 73.7099L55.9836 77.2755Z"/><path fill="#61A1C1" d="M57.5313 74.5958L47.8953 68.9958L47.8844 65.4302L57.5203 71.0302L57.5313 74.5958Z"/><path fill="#4B66C0" d="M48.2153 78.1885L38.5793 72.5885L38.5739 70.8057L48.2098 76.4057L48.2153 78.1885Z"/><path fill="#4B66C0" d="M48.2098 76.406L38.5739 70.806L47.8844 65.4302L57.5203 71.0302L48.2098 76.406Z"/><path fill="#61A1C1" d="M48.2098 76.4058L38.5738 70.8058L38.5711 69.0229L48.2043 74.623L48.2098 76.4058Z"/><path fill="#4B66C0" d="M65.2914 70.1168L55.6555 64.5168L55.4941 7.45312L65.1301 13.0531L65.2914 70.1168Z"/><path fill="#61A1C0" d="M55.9481 61.2327L46.3149 55.6327L47.8653 54.7358L57.5012 60.3358L55.9481 61.2327Z"/><path fill="#61A1C1" d="M55.9536 63.0156L46.3176 57.4156L46.3149 55.6328L55.9481 61.2328L55.9536 63.0156Z"/><path fill="#61A1C0" d="M55.929 61.2329L46.293 55.6329L47.8462 54.7251L57.4821 60.3251L55.929 61.2329Z"/><path fill="#61A1C1" d="M55.9344 63.0047L46.2985 57.4047L46.293 55.6328L55.929 61.2328L55.9344 63.0047Z"/><path fill="#4B66C0" d="M45.1063 78.1968L35.4703 72.5968L35.4648 70.814L45.1008 76.414L45.1063 78.1968Z"/><path fill="#4B66C0" d="M45.1008 76.414L35.4648 70.814L38.5711 69.0229L48.2043 74.623L45.1008 76.414Z"/><path fill="#6286FC" d="M45.1008 76.4141L48.2043 74.623L48.2098 76.4059L45.1063 78.1969L45.1008 76.4141Z"/><path fill="#61A1C1" d="M45.1008 76.4141L35.4649 70.8141L35.4622 69.0312L45.0954 74.6313L45.1008 76.4141Z"/><path fill="#61A1C0" d="M49.7274 66.6112L40.0914 61.0112L46.3176 57.4155L55.9535 63.0155L49.7274 66.6112Z"/><path fill="#61A1C0" d="M49.7465 66.5759L40.1106 60.9759L46.2985 57.4048L55.9344 63.0048L49.7465 66.5759Z"/><path fill="#61A1C1" d="M57.5012 60.3361L47.8653 54.7361L47.8461 47.583L57.4821 53.183L57.5012 60.3361Z"/><path fill="#61A1C1" d="M57.482 60.3251L47.8461 54.7251L47.827 47.6157L57.4629 53.2157L57.482 60.3251Z"/><path fill="#4B66C0" d="M43.5449 75.5254L33.909 69.9281L35.4621 69.0312L45.0953 74.6313L43.5449 75.5254Z"/><path fill="#4B66C0" d="M43.5504 77.311L33.9145 71.711L33.909 69.9282L43.5449 75.5255L43.5504 77.311Z"/><path fill="#6286FC" d="M43.545 75.5255L45.0954 74.6313L45.1008 76.4142L43.5504 77.311L43.545 75.5255Z"/><path fill="#6286FC" d="M49.7465 66.5759L49.741 64.8067L55.9289 61.2329L55.9344 63.0048L49.7465 66.5759Z"/><path fill="#4B66C0" d="M49.741 64.8066L40.1051 59.2066L46.293 55.6328L55.9289 61.2328L49.741 64.8066Z"/><path fill="#4B66C0" d="M49.7465 66.5757L40.1106 60.9757L40.1051 59.2065L49.741 64.8065L49.7465 66.5757Z"/><path fill="#61A1C1" d="M49.7383 66.5925L40.1023 60.9925L40.0969 59.2124L49.7328 64.8097L49.7383 66.5925Z"/><path fill="#4B66C0" d="M55.918 54.1071L46.282 48.5071L47.827 47.6157L57.4629 53.2157L55.918 54.1071Z"/><path fill="#6286FC" d="M55.9399 61.2161L55.918 54.1067L57.463 53.2153L57.4821 60.3247L55.9399 61.2161Z"/><path fill="#4B66C0" d="M55.9399 61.2162L46.3039 55.6162L46.282 48.5068L55.918 54.1068L55.9399 61.2162Z"/><path fill="#61A1C0" d="M55.918 54.0933L46.282 48.4933L47.8352 47.5991L57.4711 53.1991L55.918 54.0933Z"/><path fill="#61A1C1" d="M43.545 75.5254L33.909 69.9281L33.9036 68.1426L43.5395 73.7426L43.545 75.5254Z"/><path fill="#61A1C0" d="M48.1688 65.7225L38.5328 60.1225L40.086 59.2256L49.7219 64.8256L48.1688 65.7225Z"/><path fill="#61A1C0" d="M48.1907 65.6896L38.5547 60.0897L40.0969 59.1982L49.7329 64.7982L48.1907 65.6896Z"/><path fill="#61A1C1" d="M55.9289 54.0771L46.293 48.4772L46.2875 46.6943L55.9235 52.2943L55.9289 54.0771Z"/><path fill="#61A1C1" d="M55.918 54.1071L46.282 48.5071L46.2684 46.7271L55.9043 52.3271L55.918 54.1071Z"/><path fill="#4B66C0" d="M41.9918 76.4224L32.3559 70.8224L32.3504 69.0396L41.9863 74.6396L41.9918 76.4224Z"/><path fill="#6286FC" d="M41.9864 74.6396L43.5395 73.7427L43.545 75.5255L41.9919 76.4224L41.9864 74.6396Z"/><path fill="#4B66C0" d="M41.9863 74.6395L32.3504 69.0395L33.9035 68.1426L43.5395 73.7426L41.9863 74.6395Z"/><path fill="#61A1C1" d="M41.9864 74.6395L32.3504 69.0395L32.3422 65.4712L41.9782 71.0712L41.9864 74.6395Z"/><path fill="#4B66C0" d="M40.4387 75.5333L30.8027 69.9333L30.7918 66.3677L40.4278 71.9677L40.4387 75.5333Z"/><path fill="#6286FC" d="M40.4277 71.9682L41.9781 71.0713L41.9863 74.6397L40.4387 75.5338L40.4277 71.9682Z"/><path fill="#4B66C0" d="M40.4277 71.9681L30.7918 66.3681L32.3422 65.4712L41.9781 71.0712L40.4277 71.9681Z"/><path fill="#4B66C0" d="M48.1907 65.6898L38.5547 60.0898L38.5356 52.9805L48.1715 58.5805L48.1907 65.6898Z"/><path fill="#6286FC" d="M48.1907 65.6897L48.1715 58.5804L49.7137 57.689L49.7328 64.7983L48.1907 65.6897Z"/><path fill="#4B66C0" d="M48.1715 58.5803L38.5356 52.9803L40.0778 52.0889L49.7137 57.6889L48.1715 58.5803Z"/><path fill="#4B66C0" d="M49.7164 55.9009L40.0805 50.3009L46.2684 46.7271L55.9043 52.3271L49.7164 55.9009Z"/><path fill="#7FD3FD" d="M55.907 52.3105V54.0934L57.4602 53.1965L57.4793 60.3305L55.9289 61.2273V63.0074L49.7246 66.5922V64.8094L48.1715 65.7063L48.1523 58.5723L49.7027 57.6781V55.8926L55.907 52.3105ZM57.4574 53.2156L55.907 54.107L55.8934 52.327L49.7055 55.9008V57.6727L48.1551 58.5805L48.1742 65.6898L49.7164 64.7984L49.7301 66.5758L55.918 63.0047V61.2328L57.4711 60.325L57.4519 53.2156"/><path fill="#6286FC" d="M49.7219 57.6724L49.7164 55.9005L55.9043 52.3267L55.9098 54.0985L49.7219 57.6724Z"/><path fill="#4B66C0" d="M49.7219 57.6727L40.086 52.0727L40.0805 50.3008L49.7164 55.9008L49.7219 57.6727Z"/><path fill="#61A1C0" d="M48.1605 58.5723L38.5246 52.9723L40.0777 52.0781L49.7137 57.6781L48.1605 58.5723Z"/><path fill="#61A1C1" d="M48.1797 65.7061L38.5437 60.1062L38.5246 52.9722L48.1605 58.5722L48.1797 65.7061Z"/><path fill="#61A1C0" d="M49.7083 55.8925L40.0723 50.2952L46.2766 46.7104L55.9126 52.3104L49.7083 55.8925Z"/><path fill="#61A1C1" d="M49.7137 57.6782L40.0778 52.0782L40.0723 50.2954L49.7083 55.8927L49.7137 57.6782Z"/><path fill="#61A1C1" d="M40.4277 71.9681L30.7918 66.3681L30.7617 55.6685L40.3976 61.2685L40.4277 71.9681Z"/><path fill="#61A1C0" d="M40.3976 61.2686L30.7617 55.6686L32.3121 54.7744L41.948 60.3744L40.3976 61.2686Z"/><path fill="#61A1C1" d="M48.136 49.6582L38.5 44.0582L38.4946 42.2754L48.1305 47.8754L48.136 49.6582Z"/><path fill="#61A1C0" d="M48.1305 47.8752L38.4946 42.2752L47.8051 36.8994L57.441 42.4994L48.1305 47.8752Z"/><path fill="#4B66C0" d="M38.8446 62.1653L29.2086 56.5653L30.7617 55.6685L40.3977 61.2685L38.8446 62.1653Z"/><path fill="#4B66C0" d="M38.8746 72.8646L29.2387 67.2646L29.2086 56.5649L38.8446 62.1649L38.8746 72.8646Z"/><path fill="#6286FC" d="M38.8445 62.1654L40.3977 61.2686L40.4277 71.9682L38.8746 72.865L38.8445 62.1654Z"/><path fill="#61A1C1" d="M41.9481 60.3741L32.3121 54.7741L32.3012 51.2085L41.9371 56.8058L41.9481 60.3741Z"/><path fill="#61A1C0" d="M41.9372 56.8057L32.3012 51.2084L33.8543 50.3115L43.4875 55.9115L41.9372 56.8057Z"/><path fill="#61A1C1" d="M43.4875 55.9116L33.8544 50.3116L33.8489 48.5288L43.4848 54.1288L43.4875 55.9116Z"/><path fill="#61A1C0" d="M43.4848 54.1287L33.8489 48.5287L35.3993 47.6318L45.0352 53.2318L43.4848 54.1287Z"/><path fill="#61A1C0" d="M45.0297 51.4491L35.3965 45.8519L38.5 44.0581L48.1359 49.6581L45.0297 51.4491Z"/><path fill="#61A1C1" d="M45.0352 53.2321L35.3992 47.6321L35.3965 45.8521L45.0297 51.4493L45.0352 53.2321Z"/><path fill="#4B66C0" d="M48.1305 47.8755L38.4945 42.2755L38.4891 40.4927L48.125 46.0927L48.1305 47.8755Z"/><path fill="#4B66C0" d="M48.125 46.0926L38.4891 40.4926L46.2465 36.0137L55.8824 41.6109L48.125 46.0926Z"/><path fill="#4B66C0" d="M40.3867 57.7026L30.7508 52.1026L32.3012 51.2085L41.9371 56.8058L40.3867 57.7026Z"/><path fill="#6286FC" d="M41.9371 56.8057L41.9481 60.374L40.3977 61.2682L40.3867 57.7025L41.9371 56.8057Z"/><path fill="#4B66C0" d="M40.3977 61.2687L30.7617 55.6687L30.7508 52.103L40.3867 57.703L40.3977 61.2687Z"/><path fill="#4B66C0" d="M41.9371 56.8057L32.3012 51.2084L32.2957 49.4229L41.9317 55.0229L41.9371 56.8057Z"/><path fill="#6286FC" d="M43.4848 54.1289L43.4875 55.9117L41.9371 56.8059L41.9316 55.0231L43.4848 54.1289Z"/><path fill="#4B66C0" d="M41.9317 55.0229L32.2957 49.4229L33.8488 48.5288L43.4848 54.1288L41.9317 55.0229Z"/><path fill="#4B66C0" d="M43.4793 52.3462L33.8434 46.7462L35.3965 45.8521L45.0297 51.4493L43.4793 52.3462Z"/><path fill="#6286FC" d="M45.0297 51.4492L45.0352 53.232L43.4848 54.1289L43.4793 52.3461L45.0297 51.4492Z"/><path fill="#4B66C0" d="M43.4848 54.1289L33.8488 48.5289L33.8434 46.7461L43.4793 52.3461L43.4848 54.1289Z"/><path fill="#4B66C0" d="M45.027 49.6664L35.3911 44.0664L38.4946 42.2754L48.1305 47.8754L45.027 49.6664Z"/><path fill="#4B66C0" d="M45.0297 51.4492L35.3965 45.852L35.3911 44.0664L45.027 49.6664L45.0297 51.4492Z"/><path fill="#6286FC" d="M48.1305 47.8755L48.136 49.6583L45.0297 51.4493L45.027 49.6665L48.1305 47.8755Z"/><path fill="#61A1C0" d="M57.37 17.5348L47.734 11.9348L55.4942 7.45312L65.1301 13.0531L57.37 17.5348Z"/><path fill="#61A1C1" d="M57.441 42.4994L47.8051 36.8994L47.734 11.9346L57.37 17.5346L57.441 42.4994Z"/><path fill="#7FD3FD" d="M57.37 17.5349L65.1301 13.0532L65.2915 70.1169L57.5313 74.5958V71.0411L48.2344 76.4169V74.6314L45.1282 76.4251V74.6423L43.5778 75.5364V73.7536L42.0247 74.6505V71.0821L40.4743 71.979L40.3977 61.2657L41.9481 60.3716V56.8032L43.5012 55.9091V54.1263L45.0516 53.2294V51.4466L48.1579 49.6556V47.8728L57.4684 42.497L57.37 17.5349ZM57.5012 60.336L57.4821 53.1829L55.929 54.0771V52.2942L49.7028 55.8899V57.6728L48.1497 58.5696L48.1688 65.7228L49.7219 64.8259V66.6114L55.9481 63.0157V61.2302L57.5012 60.336Z"/><path fill="#4B66C0" d="M55.8824 41.6107L46.2465 36.0135L46.1754 11.0459L55.8113 16.6459L55.8824 41.6107Z"/><path fill="#6286FC" d="M55.8114 16.6462L66.6778 10.3735L66.8473 71.0028L55.9837 77.2755L55.9755 73.7099L48.2153 78.1888L48.2098 76.406L57.5204 71.0302L57.5313 74.5958L65.2915 70.1169L65.1301 13.0532L57.37 17.5349L57.4411 42.4997L48.1305 47.8755L48.1251 46.0927L55.8825 41.611L55.8114 16.6462Z"/><path fill="#4B66C0" d="M55.8114 16.6461L46.1754 11.0461L57.0418 4.77344L66.6778 10.3734L55.8114 16.6461Z"/></svg>