<svg xmlns="http://www.w3.org/2000/svg" width="1470" height="1576" fill="none"><path fill="#2C41DB" d="m192 1115 250 280v-280zM800 1395l159.843-280H800zM442 1115h358v280H442zM1190 191h58.5v237.5H1470V1326l-280 250z"/><path fill="#2C41DB" d="M1463.02 413.5 1263.5 199.061V413.5zM1189.86 950h.14V670H967.5v280h207.36V670.111h15zM687.5 942.5l265-265v265zM680 1115V957.5h280v142.48H680.015v15H960v.02z"/><path fill="#2C41DB" fill-rule="evenodd" d="M911.743 1296H1182l-.05.03h-6.97v5.42l-3.51 2.72 3.51 4.52V1576H837.66l9.882-7.67-6.132-7.9-14.771 11.47-84.133-126.75h84.089zm238.237 24.86 6.13 7.9-29.94 23.24-6.13-7.9zm-51.43 39.93 6.14 7.89-29.94 23.25-6.14-7.9zm-51.43 39.92 6.14 7.9-29.94 23.25-6.14-7.9zm-51.424 39.93 6.134 7.9-29.941 23.25-6.133-7.9zm-51.429 39.93 6.133 7.9-29.94 23.24-6.133-7.89zm-51.429 39.93 6.133 7.9-29.94 23.24-6.132-7.9zM472 0h-81.5v147.48l-53.5.14v12.334h-10v-12.307L192.02 148l-.02-7.5v129.505h135v-10.388h10v10.388h135zM337 189.832h-10v39.908h10zM472 285.005H337v14.521h-10v-14.521H192V1115h135v-.05H192.025v-15H327v-2.9h10v2.9h135V579.035H192.004v-15H327V538.76h10v25.275h135zm-135 44.398h-10v39.908h10zm0 69.786h-10v39.908h10zm0 69.785h-10v39.909h10zm0 139.572h-10v39.908h10zm0 69.786h-10v39.908h10zm0 69.785h-10v39.909h10zm0 69.786h-10v39.908h10zm0 69.786h-10v39.908h10zm0 69.786h-10v39.908h10zm0 69.785h-10v39.91h10z" clip-rule="evenodd"/><path fill="#2C41DB" d="M472 1114.95H337v.05h135zM375.5 5.497 201.584 132.975l173.916-.455zM0 285h800v280H0z"/></svg>