<svg id="Layer_1" data-name="Layer 1" xmlns="http://www.w3.org/2000/svg" viewBox="0 0 69.956 70.339"><defs><style>.cls-1{fill:#f8ada3;}.cls-2{fill:none;stroke:#2896cd;stroke-miterlimit:10;stroke-width:3px;}</style></defs><path class="cls-1" d="M84.4,60.763v60a1.809,1.809,0,0,0,2.584,1.635l62.751-29.724a1.81,1.81,0,0,0,.012-3.265L87,59.134A1.809,1.809,0,0,0,84.4,60.763Z" transform="translate(-84.403 -52.235)"/><path class="cls-2" d="M90.88,55.427v56.029a1.69,1.69,0,0,0,2.413,1.527l58.6-27.758a1.69,1.69,0,0,0,.011-3.049L93.3,53.905A1.689,1.689,0,0,0,90.88,55.427Z" transform="translate(-84.403 -52.235)"/></svg>