<svg width="576" height="100" viewBox="0 0 576 100" fill="none" xmlns="http://www.w3.org/2000/svg">
<g clip-path="url(#clip0_254_530)">
<rect x="28" width="4" height="20" rx="2" fill="black"/>
<rect x="92" width="4" height="20" rx="2" fill="black"/>
<rect x="156" width="4" height="20" rx="2" fill="black"/>
<rect x="220" width="4" height="20" rx="2" fill="black"/>
<rect x="284" width="4" height="20" rx="2" fill="black"/>
<rect x="348" width="4" height="20" rx="2" fill="black"/>
<rect x="412" width="4" height="20" rx="2" fill="black"/>
<rect x="476" width="4" height="20" rx="2" fill="black"/>
<rect x="540" width="4" height="20" rx="2" fill="black"/>
<rect x="12" width="4" height="16" rx="2" fill="black"/>
<rect x="44" width="4" height="16" rx="2" fill="black"/>
<rect x="76" width="4" height="16" rx="2" fill="black"/>
<rect x="108" width="4" height="16" rx="2" fill="black"/>
<rect x="140" width="4" height="16" rx="2" fill="black"/>
<rect x="172" width="4" height="16" rx="2" fill="black"/>
<rect x="204" width="4" height="16" rx="2" fill="black"/>
<rect x="236" width="4" height="16" rx="2" fill="black"/>
<rect x="268" width="4" height="16" rx="2" fill="black"/>
<rect x="300" width="4" height="16" rx="2" fill="black"/>
<rect x="332" width="4" height="16" rx="2" fill="black"/>
<rect x="364" width="4" height="16" rx="2" fill="black"/>
<rect x="396" width="4" height="16" rx="2" fill="black"/>
<rect x="428" width="4" height="16" rx="2" fill="black"/>
<rect x="460" width="4" height="16" rx="2" fill="black"/>
<rect x="492" width="4" height="16" rx="2" fill="black"/>
<rect x="524" width="4" height="16" rx="2" fill="black"/>
<rect x="556" width="4" height="16" rx="2" fill="black"/>
<rect x="60" width="4" height="24" rx="2" fill="black"/>
<rect x="124" width="4" height="24" rx="2" fill="black"/>
<rect x="188" width="4" height="24" rx="2" fill="black"/>
<rect x="252" width="4" height="24" rx="2" fill="black"/>
<rect x="316" width="4" height="24" rx="2" fill="black"/>
<rect x="380" width="4" height="24" rx="2" fill="black"/>
<rect x="444" width="4" height="24" rx="2" fill="black"/>
<rect x="508" width="4" height="24" rx="2" fill="black"/>
<rect x="572" width="4" height="24" rx="2" fill="black"/>
</g>
<defs>
<clipPath id="clip0_254_530">
<rect width="576" height="100" rx="4" fill="white"/>
</clipPath>
</defs>
</svg>
