<svg xmlns="http://www.w3.org/2000/svg" width="576" height="100" fill="none"><g fill="#000" clip-path="url(#a)"><rect width="4" height="16" x="28" rx="2"/><rect width="4" height="16" x="92" rx="2"/><rect width="4" height="16" x="156" rx="2"/><rect width="4" height="16" x="220" rx="2"/><rect width="4" height="16" x="284" rx="2"/><rect width="4" height="16" x="348" rx="2"/><rect width="4" height="16" x="412" rx="2"/><rect width="4" height="16" x="476" rx="2"/><rect width="4" height="16" x="540" rx="2"/><rect width="4" height="12" x="12" rx="2"/><rect width="4" height="12" x="44" rx="2"/><rect width="4" height="12" x="76" rx="2"/><rect width="4" height="12" x="108" rx="2"/><rect width="4" height="12" x="140" rx="2"/><rect width="4" height="12" x="172" rx="2"/><rect width="4" height="12" x="204" rx="2"/><rect width="4" height="12" x="236" rx="2"/><rect width="4" height="12" x="268" rx="2"/><rect width="4" height="12" x="300" rx="2"/><rect width="4" height="12" x="332" rx="2"/><rect width="4" height="12" x="364" rx="2"/><rect width="4" height="12" x="396" rx="2"/><rect width="4" height="12" x="428" rx="2"/><rect width="4" height="12" x="460" rx="2"/><rect width="4" height="12" x="492" rx="2"/><rect width="4" height="12" x="524" rx="2"/><rect width="4" height="12" x="556" rx="2"/><rect width="4" height="18" x="60" rx="2"/><rect width="4" height="18" x="124" rx="2"/><rect width="4" height="18" x="188" rx="2"/><rect width="4" height="18" x="252" rx="2"/><rect width="4" height="18" x="316" rx="2"/><rect width="4" height="18" x="380" rx="2"/><rect width="4" height="18" x="444" rx="2"/><rect width="4" height="18" x="508" rx="2"/><rect width="4" height="18" x="572" rx="2"/></g><defs><clipPath id="a"><rect width="576" height="100" fill="#fff" rx="4"/></clipPath></defs></svg>