<svg xmlns="http://www.w3.org/2000/svg" id="Layer_2" viewBox="0 0 364.86 341.93"><defs><style>.cls-10,.cls-5,.cls-8{stroke-width:0}.cls-5{fill:#f1f2f2}.cls-8{fill:#335cb5}.cls-10{fill:#231f20}</style></defs><g id="Layer_1-2"><ellipse cx="119.98" cy="76.66" rx="101.8" ry="75.61" style="fill:none;stroke:#231f20;stroke-miterlimit:10;stroke-width:2px" transform="rotate(-2.35 119.881 76.598)"/><path d="M337.31 92.3c0-25.93-11.81-45.38-27.55-45.38 15.74 0 27.55-19.45 27.55-45.38 0 25.93 11.81 45.38 27.55 45.38-15.74 0-27.55 19.45-27.55 45.38Z" style="stroke:#231f20;stroke-miterlimit:10;stroke-width:2px;fill:#95fcec"/><path d="m84.3 45.71 21.56 245.8 231.45-40.66-20.84-231.09z" style="stroke-width:0;fill:#9bceff"/><path d="m106.58 315.51 230.73-41.33v-23.33l-231.45 40.66z" style="stroke-width:0;fill:#006eb7"/><path d="m62.46 280.9 21.84 4.72 22.28 29.89-14.73-34.61-19.78-2.62z" style="stroke-width:0;fill:#72c3ff"/><path d="m84.3 45.71 21.56 245.8.72 24-14.73-34.61-19.78-2.62z" style="stroke-width:0;fill:#333fb5"/><path d="M84.3 45.71h-3.72L62.46 280.9l9.61-2.62z" style="fill:#3371b5;stroke-width:0"/><path d="m94.41 38.89 3.62 10.56 4.88-1.08-5.11-15.09-6.97 1.08-1.51 10.79 4.01-.45zM118.28 36.36l3.62 10.56 4.88-1.08-5.12-15.09-6.97 1.08-1.5 10.8 4-.45zM140.89 33.84l3.62 10.56 4.88-1.08-5.12-15.09-6.97 1.08-1.5 10.79 4-.45zM163.67 31.36l3.62 10.56 4.88-1.08-5.11-15.09-6.97 1.08-1.51 10.8 4.01-.45zM187.54 28.84l3.62 10.56 4.88-1.08-5.12-15.09-6.97 1.08-1.5 10.79 4-.45zM210.15 26.31l3.62 10.56 4.88-1.08-5.12-15.09-6.97 1.08-1.5 10.8 4-.45zM231.98 23.57l3.62 10.56 4.88-1.07-5.12-15.09-6.97 1.07-1.5 10.8 4-.45zM255.84 21.05l3.62 10.56 4.88-1.08-5.11-15.09-6.97 1.08-1.51 10.79 4.01-.44zM278.45 18.53l3.62 10.56 4.88-1.08-5.11-15.09-6.97 1.08-1.51 10.79 4.01-.45zM301.24 16.05l3.62 10.56 4.88-1.08-5.12-15.09-6.97 1.08-1.5 10.79 4-.44z" class="cls-8"/><path d="m108.38 94.04 18.4 178.17 194.94-31.59L303.35 69.9z" style="stroke-width:0;fill:#3364c4"/><path d="m102.91 61.6 2.95 24.23 197.08-25.07-3.11-23.87z" style="stroke-width:0;fill:#3390ee"/><path d="m279.66 159.29 4.43-1.67 25.7 22.85-2.96 2.35z" class="cls-5"/><path d="M297.17 155.64h4.21l-12.58 31.38-4.71-.67z" class="cls-5"/><path d="M304.62 10.44 308.2 21l8.27-1.24 20.65 228.93.19 25.49-230.73 41.33-22.28-29.89-21.84-4.72L80.58 45.71l8.74-.56 1.5-10.79 6.97-1.08 3.57 10.53 11.82-1.18 1.5-10.79 6.97-1.08 3.78 11.17 10.35-1.82 1.5-10.79 6.97-1.08 3.59 10.61 10.72-1.21 1.5-10.79 6.97-1.08 3.5 10.32 11.89-.97 1.5-10.79 6.97-1.08 3.7 10.9 10.44-1.56 1.5-10.79 6.97-1.08 3.45 10.18 9.91-1.04 1.5-10.79 6.97-1.08 3.77 11.12 11.62-1.77 1.5-10.79 6.97-1.08 3.78 11.17 10.35-1.82 1.5-10.79 6.97-1.08 3.49 10.31 10.82-.92 1.5-10.79 6.97-1.08m1.41-2.26-1.66.26-6.97 1.08-1.47.23-.21 1.47-1.28 9.21-7.66.65-2.99-8.83-.54-1.59-1.66.26-6.97 1.08-1.47.23-.21 1.47-1.3 9.35-7.23 1.27-3.23-9.54-.54-1.59-1.66.26-6.97 1.08-1.47.23-.2 1.47-1.3 9.32-8.49 1.29-3.23-9.53-.54-1.59-1.66.26-6.97 1.08-1.47.23-.2 1.47-1.29 9.25-6.76.71-2.94-8.66-.54-1.59-1.66.26-6.97 1.08-1.47.23-.2 1.47-1.3 9.31-7.31 1.09-3.16-9.32-.54-1.59-1.66.26-6.97 1.08-1.47.23-.2 1.47-1.28 9.21-8.74.71-3-8.84-.54-1.59-1.66.26-6.97 1.08-1.47.23-.2 1.47-1.29 9.26-7.57.86-3.08-9.08-.54-1.59-1.66.26-6.97 1.08-1.47.23-.21 1.47-1.3 9.35-7.23 1.27-3.23-9.54-.54-1.59-1.66.26-6.97 1.08-1.47.23-.21 1.47-1.28 9.24-8.68.86-3.06-9.02-.54-1.59-1.66.26-6.97 1.08-1.47.23-.21 1.47-1.28 9.18-7.11.46-1.73.11-.13 1.73-18.12 235.19-.13 1.74 1.71.37 21.1 4.56L105 316.78l.74.99 1.22-.22 230.73-41.33 1.66-.3v-1.69l-.21-25.49v-.16L318.49 19.65l-.19-2.11-2.1.31-6.61.99-3.04-8.98-.54-1.59Z" class="cls-10"/><path d="m301.24 16.05-1.09 5.82 2.79-.6zM278.45 18.53l-1.08 5.81 2.79-.59zM255.84 21.06l-1.08 5.81 2.9-.53zM231.96 23.58l-1.08 5.81 2.94-.39zM210.15 26.33l-1.09 5.81 2.95-.39zM187.51 28.79l-1.08 5.82 2.94-.4zM163.68 31.31l-1.08 5.82 2.94-.39zM140.9 33.82l-1.09 5.82 2.95-.39zM118.27 36.31l-1.09 5.82 2.95-.39zM94.43 38.99l-1.09 5.82 2.95-.39z" class="cls-10"/><path d="M177.56 318.54c-16.65-15.69-38.6-25.62-61.48-26.89-6.34-15.87-19.29-29.66-33.51-37.97-23.67-13.85-53.21-14.17-77.5-1.71-9 4.62-1.53 18.42 7.46 13.81 31.13-15.97 69.85-4.02 86.43 26.71-7.74 1.37-15.2 4.39-20.44 10.42-7.4 8.51-9.71 22.04-1.82 31.09 7.17 8.23 19.48 8.59 28.72 3.9 10.25-5.2 15.16-16.66 14.73-27.79-.03-.77-.08-1.55-.15-2.32 17.14 2.05 33.49 9.58 46.1 21.47 7.33 6.91 18.82-3.78 11.46-10.72Zm-86.05 6.7c-5.62-.98-4.59-7.82-1.69-11.51 3.31-4.22 9-5.73 14.47-6.26.45 3.3.34 6.63-.67 9.8-1.63 5.1-6.74 8.9-12.1 7.97Z" style="stroke:#231f20;stroke-miterlimit:10;stroke-width:2px;fill:#f1fe86"/></g></svg>