<?xml version="1.0" encoding="UTF-8"?><svg id="Layer_2" xmlns="http://www.w3.org/2000/svg" viewBox="0 0 364.86 341.93"><defs><style>.cls-1{fill:#3371b5;}.cls-1,.cls-2,.cls-3,.cls-4,.cls-5,.cls-6,.cls-7,.cls-8,.cls-9,.cls-10{stroke-width:0px;}.cls-2{fill:#3364c4;}.cls-3{fill:#333fb5;}.cls-4{fill:#72c3ff;}.cls-11{fill:none;}.cls-11,.cls-12,.cls-13{stroke:#231f20;stroke-miterlimit:10;stroke-width:2px;}.cls-5{fill:#f1f2f2;}.cls-12{fill:#95fcec;}.cls-6{fill:#9bceff;}.cls-7{fill:#3390ee;}.cls-8{fill:#335cb5;}.cls-9{fill:#006eb7;}.cls-10{fill:#231f20;}.cls-13{fill:#f1fe86;}</style></defs><g id="Layer_1-2"><ellipse class="cls-11" cx="119.98" cy="76.66" rx="101.8" ry="75.61" transform="translate(-3.04 4.98) rotate(-2.35)"/><path class="cls-12" d="M337.31,92.3c0-25.93-11.81-45.38-27.55-45.38,15.74,0,27.55-19.45,27.55-45.38,0,25.93,11.81,45.38,27.55,45.38-15.74,0-27.55,19.45-27.55,45.38Z"/><polygon class="cls-6" points="84.3 45.71 105.86 291.51 337.31 250.85 316.47 19.76 84.3 45.71"/><polygon class="cls-9" points="106.58 315.51 337.31 274.18 337.31 250.85 105.86 291.51 106.58 315.51"/><polygon class="cls-4" points="62.46 280.9 84.3 285.62 106.58 315.51 91.85 280.9 72.07 278.28 62.46 280.9"/><polygon class="cls-3" points="84.3 45.71 105.86 291.51 106.58 315.51 91.85 280.9 72.07 278.28 84.3 45.71"/><polygon class="cls-1" points="84.3 45.71 80.58 45.71 62.46 280.9 72.07 278.28 84.3 45.71"/><polygon class="cls-8" points="94.41 38.89 98.03 49.45 102.91 48.37 97.8 33.28 90.83 34.36 89.32 45.15 93.33 44.7 94.41 38.89"/><polygon class="cls-8" points="118.28 36.36 121.9 46.92 126.78 45.84 121.66 30.75 114.69 31.83 113.19 42.63 117.19 42.18 118.28 36.36"/><polygon class="cls-8" points="140.89 33.84 144.51 44.4 149.39 43.32 144.27 28.23 137.3 29.31 135.8 40.1 139.8 39.65 140.89 33.84"/><polygon class="cls-8" points="163.67 31.36 167.29 41.92 172.17 40.84 167.06 25.75 160.09 26.83 158.58 37.63 162.59 37.18 163.67 31.36"/><polygon class="cls-8" points="187.54 28.84 191.16 39.4 196.04 38.32 190.92 23.23 183.95 24.31 182.45 35.1 186.45 34.65 187.54 28.84"/><polygon class="cls-8" points="210.15 26.31 213.77 36.87 218.65 35.79 213.53 20.7 206.56 21.78 205.06 32.58 209.06 32.13 210.15 26.31"/><polygon class="cls-8" points="231.98 23.57 235.6 34.13 240.48 33.06 235.36 17.97 228.39 19.04 226.89 29.84 230.89 29.39 231.98 23.57"/><polygon class="cls-8" points="255.84 21.05 259.46 31.61 264.34 30.53 259.23 15.44 252.26 16.52 250.75 27.31 254.76 26.87 255.84 21.05"/><polygon class="cls-8" points="278.45 18.53 282.07 29.09 286.95 28.01 281.84 12.92 274.87 14 273.36 24.79 277.37 24.34 278.45 18.53"/><polygon class="cls-8" points="301.24 16.05 304.86 26.61 309.74 25.53 304.62 10.44 297.65 11.52 296.15 22.31 300.15 21.87 301.24 16.05"/><polygon class="cls-2" points="108.38 94.04 126.78 272.21 321.72 240.62 303.35 69.9 108.38 94.04"/><polygon class="cls-7" points="102.91 61.6 105.86 85.83 302.94 60.76 299.83 36.89 102.91 61.6"/><polygon class="cls-5" points="279.66 159.29 284.09 157.62 309.79 180.47 306.83 182.82 279.66 159.29"/><polygon class="cls-5" points="297.17 155.64 301.38 155.64 288.8 187.02 284.09 186.35 297.17 155.64"/><path class="cls-10" d="M304.62,10.44l3.58,10.56,8.27-1.24,20.65,228.93.19,25.49-230.73,41.33-22.28-29.89-21.84-4.72,18.12-235.19,8.74-.56,1.5-10.79,6.97-1.08,3.57,10.53,11.82-1.18,1.5-10.79,6.97-1.08,3.78,11.17,10.35-1.82,1.5-10.79,6.97-1.08,3.59,10.61,10.72-1.21,1.5-10.79,6.97-1.08,3.5,10.32,11.89-.97,1.5-10.79,6.97-1.08,3.7,10.9,10.44-1.56,1.5-10.79,6.97-1.08,3.45,10.18,9.91-1.04,1.5-10.79,6.97-1.08,3.77,11.12,11.62-1.77,1.5-10.79,6.97-1.08,3.78,11.17,10.35-1.82,1.5-10.79,6.97-1.08,3.49,10.31,10.82-.92,1.5-10.79,6.97-1.08M305.98,8.21l-1.66.26-6.97,1.08-1.47.23-.21,1.47-1.28,9.21-7.66.65-2.99-8.83-.54-1.59-1.66.26-6.97,1.08-1.47.23-.21,1.47-1.3,9.35-7.23,1.27-3.23-9.54-.54-1.59-1.66.26-6.97,1.08-1.47.23-.2,1.47-1.3,9.32-8.49,1.29-3.23-9.53-.54-1.59-1.66.26-6.97,1.08-1.47.23-.2,1.47-1.29,9.25-6.76.71-2.94-8.66-.54-1.59-1.66.26-6.97,1.08-1.47.23-.2,1.47-1.3,9.31-7.31,1.09-3.16-9.32-.54-1.59-1.66.26-6.97,1.08-1.47.23-.2,1.47-1.28,9.21-8.74.71-3-8.84-.54-1.59-1.66.26-6.97,1.08-1.47.23-.2,1.47-1.29,9.26-7.57.86-3.08-9.08-.54-1.59-1.66.26-6.97,1.08-1.47.23-.21,1.47-1.3,9.35-7.23,1.27-3.23-9.54-.54-1.59-1.66.26-6.97,1.08-1.47.23-.21,1.47-1.28,9.24-8.68.86-3.06-9.02-.54-1.59-1.66.26-6.97,1.08-1.47.23-.21,1.47-1.28,9.18-7.11.46-1.73.11-.13,1.73-18.12,235.19-.13,1.74,1.71.37,21.1,4.56,21.83,29.29.74.99,1.22-.22,230.73-41.33,1.66-.3v-1.69s-.21-25.49-.21-25.49v-.08s0-.08,0-.08l-20.65-228.93-.19-2.11-2.1.31-6.61.99-3.04-8.98-.54-1.59h0Z"/><polygon class="cls-10" points="301.24 16.05 300.15 21.87 302.94 21.27 301.24 16.05 301.24 16.05"/><polygon class="cls-10" points="278.45 18.53 277.37 24.34 280.16 23.75 278.45 18.53 278.45 18.53"/><polygon class="cls-10" points="255.84 21.06 254.76 26.87 257.66 26.34 255.84 21.06 255.84 21.06"/><polygon class="cls-10" points="231.96 23.58 230.88 29.39 233.82 29 231.96 23.58 231.96 23.58"/><polygon class="cls-10" points="210.15 26.33 209.06 32.14 212.01 31.75 210.15 26.33 210.15 26.33"/><polygon class="cls-10" points="187.51 28.79 186.43 34.61 189.37 34.21 187.51 28.79 187.51 28.79"/><polygon class="cls-10" points="163.68 31.31 162.6 37.13 165.54 36.74 163.68 31.31 163.68 31.31"/><polygon class="cls-10" points="140.9 33.82 139.81 39.64 142.76 39.25 140.9 33.82 140.9 33.82"/><polygon class="cls-10" points="118.27 36.31 117.18 42.13 120.13 41.74 118.27 36.31 118.27 36.31"/><polygon class="cls-10" points="94.43 38.99 93.34 44.81 96.29 44.42 94.43 38.99 94.43 38.99"/><path class="cls-13" d="M177.56,318.54c-16.65-15.69-38.6-25.62-61.48-26.89-6.34-15.87-19.29-29.66-33.51-37.97-23.67-13.85-53.21-14.17-77.5-1.71-9,4.62-1.53,18.42,7.46,13.81,31.13-15.97,69.85-4.02,86.43,26.71-7.74,1.37-15.2,4.39-20.44,10.42-7.4,8.51-9.71,22.04-1.82,31.09,7.17,8.23,19.48,8.59,28.72,3.9,10.25-5.2,15.16-16.66,14.73-27.79-.03-.77-.08-1.55-.15-2.32,17.14,2.05,33.49,9.58,46.1,21.47,7.33,6.91,18.82-3.78,11.46-10.72ZM91.51,325.24c-5.62-.98-4.59-7.82-1.69-11.51,3.31-4.22,9-5.73,14.47-6.26.45,3.3.34,6.63-.67,9.8-1.63,5.1-6.74,8.9-12.1,7.97Z"/></g></svg>