<svg xmlns="http://www.w3.org/2000/svg" width="76" height="121" fill="none" viewBox="0 0 76 121"><path fill="#FFCB5C" d="M75.909 0L18.0882 0L-12.5 30.5882V64.909V121L45.4118 64.909L76 34.4118L75.909 0Z"/><rect width="57" height="34" x="19" fill="#FFF985"/><path fill="#FC8974" d="M34.4176 15.3118C34.4712 15.5259 34.4979 15.7935 34.4979 16.1147C34.4979 16.4225 34.4712 16.6901 34.4176 16.9176C34.4712 17.1318 34.4979 17.3994 34.4979 17.7206C34.4979 18.0284 34.4712 18.296 34.4176 18.5235H33.6147C33.6682 18.7376 33.695 19.0053 33.695 19.3265C33.695 19.6343 33.6682 19.9019 33.6147 20.1294H32.8118C32.8653 20.3435 32.892 20.6112 32.892 20.9324C32.892 21.2401 32.8653 21.5078 32.8118 21.7353H27.9941C27.9406 21.5078 27.9138 21.2401 27.9138 20.9324C27.9138 20.6112 27.9406 20.3435 27.9941 20.1294C27.9406 19.9019 27.9138 19.6343 27.9138 19.3265C27.9138 19.0053 27.9406 18.7376 27.9941 18.5235C27.9406 18.296 27.9138 18.0284 27.9138 17.7206C27.9138 17.3994 27.9406 17.1318 27.9941 16.9176C27.9406 16.6901 27.9138 16.4225 27.9138 16.1147C27.9138 15.7935 27.9406 15.5259 27.9941 15.3118C27.9406 15.0843 27.9138 14.8166 27.9138 14.5088C27.9138 14.1876 27.9406 13.92 27.9941 13.7059C27.9406 13.4784 27.9138 13.2107 27.9138 12.9029C27.9138 12.5818 27.9406 12.3141 27.9941 12.1C27.9406 11.8725 27.9138 11.6049 27.9138 11.2971C27.9138 10.9759 27.9406 10.7082 27.9941 10.4941H32.8118C32.8653 10.7082 32.892 10.9759 32.892 11.2971C32.892 11.6049 32.8653 11.8725 32.8118 12.1H33.6147C33.6682 12.3141 33.695 12.5818 33.695 12.9029C33.695 13.2107 33.6682 13.4784 33.6147 13.7059H34.4176C34.4712 13.92 34.4979 14.1876 34.4979 14.5088C34.4979 14.8166 34.4712 15.0843 34.4176 15.3118ZM32.8118 18.5235C32.7582 18.296 32.7315 18.0284 32.7315 17.7206C32.7315 17.3994 32.7582 17.1318 32.8118 16.9176C32.7582 16.6901 32.7315 16.4225 32.7315 16.1147C32.7315 15.7935 32.7582 15.5259 32.8118 15.3118C32.7582 15.0843 32.7315 14.8166 32.7315 14.5088C32.7315 14.1876 32.7582 13.92 32.8118 13.7059H32.0088C31.9553 13.4784 31.9285 13.2107 31.9285 12.9029C31.9285 12.5818 31.9553 12.3141 32.0088 12.1H29.6C29.6535 12.3141 29.6803 12.5818 29.6803 12.9029C29.6803 13.2107 29.6535 13.4784 29.6 13.7059C29.6535 13.92 29.6803 14.1876 29.6803 14.5088C29.6803 14.8166 29.6535 15.0843 29.6 15.3118C29.6535 15.5259 29.6803 15.7935 29.6803 16.1147C29.6803 16.4225 29.6535 16.6901 29.6 16.9176C29.6535 17.1318 29.6803 17.3994 29.6803 17.7206C29.6803 18.0284 29.6535 18.296 29.6 18.5235C29.6535 18.7376 29.6803 19.0053 29.6803 19.3265C29.6803 19.6343 29.6535 19.9019 29.6 20.1294H32.0088C31.9553 19.9019 31.9285 19.6343 31.9285 19.3265C31.9285 19.0053 31.9553 18.7376 32.0088 18.5235H32.8118ZM42.5352 19.3265C42.5352 19.6343 42.5084 19.9019 42.4549 20.1294C42.5084 20.3435 42.5352 20.6112 42.5352 20.9324C42.5352 21.2401 42.5084 21.5078 42.4549 21.7353H40.849C40.7955 21.5078 40.7687 21.2401 40.7687 20.9324C40.7687 20.6112 40.7955 20.3435 40.849 20.1294C40.7955 19.9019 40.7687 19.6343 40.7687 19.3265C40.7687 19.0053 40.7955 18.7376 40.849 18.5235H37.6372C37.6908 18.7376 37.7175 19.0053 37.7175 19.3265C37.7175 19.6343 37.6908 19.9019 37.6372 20.1294C37.6908 20.3435 37.7175 20.6112 37.7175 20.9324C37.7175 21.2401 37.6908 21.5078 37.6372 21.7353H36.0314C35.9778 21.5078 35.9511 21.2401 35.9511 20.9324C35.9511 20.6112 35.9778 20.3435 36.0314 20.1294C35.9778 19.9019 35.9511 19.6343 35.9511 19.3265C35.9511 19.0053 35.9778 18.7376 36.0314 18.5235H36.6336C36.58 18.296 36.5533 18.0284 36.5533 17.7206C36.5533 17.3994 36.58 17.1318 36.6336 16.9176C36.58 16.6901 36.5533 16.4225 36.5533 16.1147C36.5533 15.7935 36.58 15.5259 36.6336 15.3118H37.035C36.9815 15.0843 36.9547 14.8166 36.9547 14.5088C36.9547 14.1876 36.9815 13.92 37.035 13.7059H37.6372C37.5837 13.4784 37.5569 13.2107 37.5569 12.9029C37.5569 12.5818 37.5837 12.3141 37.6372 12.1H38.0387C37.9852 11.8725 37.9584 11.6049 37.9584 11.2971C37.9584 10.9759 37.9852 10.7082 38.0387 10.4941H40.4475C40.5011 10.7082 40.5278 10.9759 40.5278 11.2971C40.5278 11.6049 40.5011 11.8725 40.4475 12.1H40.849C40.9025 12.3141 40.9293 12.5818 40.9293 12.9029C40.9293 13.2107 40.9025 13.4784 40.849 13.7059H41.4512C41.5047 13.92 41.5315 14.1876 41.5315 14.5088C41.5315 14.8166 41.5047 15.0843 41.4512 15.3118H41.8527C41.9062 15.5259 41.933 15.7935 41.933 16.1147C41.933 16.4225 41.9062 16.6901 41.8527 16.9176C41.9062 17.1318 41.933 17.3994 41.933 17.7206C41.933 18.0284 41.9062 18.296 41.8527 18.5235H42.4549C42.5084 18.7376 42.5352 19.0053 42.5352 19.3265ZM40.2468 16.9176C40.1933 16.6901 40.1665 16.4225 40.1665 16.1147C40.1665 15.7935 40.1933 15.5259 40.2468 15.3118H39.8453C39.7918 15.0843 39.765 14.8166 39.765 14.5088C39.765 14.1876 39.7918 13.92 39.8453 13.7059H38.6409C38.6944 13.92 38.7212 14.1876 38.7212 14.5088C38.7212 14.8166 38.6944 15.0843 38.6409 15.3118H38.2394C38.293 15.5259 38.3197 15.7935 38.3197 16.1147C38.3197 16.4225 38.293 16.6901 38.2394 16.9176H40.2468ZM50.5724 11.2971C50.5724 11.6049 50.5457 11.8725 50.4921 12.1C50.5457 12.3141 50.5724 12.5818 50.5724 12.9029C50.5724 13.2107 50.5457 13.4784 50.4921 13.7059H49.6892C49.7427 13.92 49.7695 14.1876 49.7695 14.5088C49.7695 14.8166 49.7427 15.0843 49.6892 15.3118H48.8863C48.9398 15.5259 48.9666 15.7935 48.9666 16.1147C48.9666 16.4225 48.9398 16.6901 48.8863 16.9176H48.0833C48.1368 17.1318 48.1636 17.3994 48.1636 17.7206C48.1636 18.0284 48.1368 18.296 48.0833 18.5235C48.1368 18.7376 48.1636 19.0053 48.1636 19.3265C48.1636 19.6343 48.1368 19.9019 48.0833 20.1294C48.1368 20.3435 48.1636 20.6112 48.1636 20.9324C48.1636 21.2401 48.1368 21.5078 48.0833 21.7353H46.4774C46.4239 21.5078 46.3971 21.2401 46.3971 20.9324C46.3971 20.6112 46.4239 20.3435 46.4774 20.1294C46.4239 19.9019 46.3971 19.6343 46.3971 19.3265C46.3971 19.0053 46.4239 18.7376 46.4774 18.5235C46.4239 18.296 46.3971 18.0284 46.3971 17.7206C46.3971 17.3994 46.4239 17.1318 46.4774 16.9176H45.6745C45.621 16.6901 45.5942 16.4225 45.5942 16.1147C45.5942 15.7935 45.621 15.5259 45.6745 15.3118H44.8716C44.818 15.0843 44.7913 14.8166 44.7913 14.5088C44.7913 14.1876 44.818 13.92 44.8716 13.7059H44.0686C44.0151 13.4784 43.9883 13.2107 43.9883 12.9029C43.9883 12.5818 44.0151 12.3141 44.0686 12.1C44.0151 11.8725 43.9883 11.6049 43.9883 11.2971C43.9883 10.9759 44.0151 10.7082 44.0686 10.4941H45.6745C45.728 10.7082 45.7548 10.9759 45.7548 11.2971C45.7548 11.6049 45.728 11.8725 45.6745 12.1C45.728 12.3141 45.7548 12.5818 45.7548 12.9029C45.7548 13.2107 45.728 13.4784 45.6745 13.7059H46.4774C46.531 13.92 46.5577 14.1876 46.5577 14.5088C46.5577 14.8166 46.531 15.0843 46.4774 15.3118H48.0833C48.0298 15.0843 48.003 14.8166 48.003 14.5088C48.003 14.1876 48.0298 13.92 48.0833 13.7059H48.8863C48.8327 13.4784 48.806 13.2107 48.806 12.9029C48.806 12.5818 48.8327 12.3141 48.8863 12.1C48.8327 11.8725 48.806 11.6049 48.806 11.2971C48.806 10.9759 48.8327 10.7082 48.8863 10.4941H50.4921C50.5457 10.7082 50.5724 10.9759 50.5724 11.2971ZM66.2455 14.5088C66.2455 14.8166 66.2187 15.0843 66.1652 15.3118H65.1615C65.215 15.5259 65.2418 15.7935 65.2418 16.1147C65.2418 16.4225 65.215 16.6901 65.1615 16.9176H64.1578C64.2114 17.1318 64.2381 17.3994 64.2381 17.7206C64.2381 18.0284 64.2114 18.296 64.1578 18.5235H63.1541C63.2077 18.7376 63.2344 19.0053 63.2344 19.3265C63.2344 19.6343 63.2077 19.9019 63.1541 20.1294H66.1652C66.2187 20.3435 66.2455 20.6112 66.2455 20.9324C66.2455 21.2401 66.2187 21.5078 66.1652 21.7353H60.5446C60.4911 21.5078 60.4643 21.2401 60.4643 20.9324C60.4643 20.6112 60.4911 20.3435 60.5446 20.1294H61.5483C61.4947 19.9019 61.468 19.6343 61.468 19.3265C61.468 19.0053 61.4947 18.7376 61.5483 18.5235H62.5519C62.4984 18.296 62.4716 18.0284 62.4716 17.7206C62.4716 17.3994 62.4984 17.1318 62.5519 16.9176H63.5556C63.5021 16.6901 63.4753 16.4225 63.4753 16.1147C63.4753 15.7935 63.5021 15.5259 63.5556 15.3118H64.5593C64.5058 15.0843 64.479 14.8166 64.479 14.5088C64.479 14.1876 64.5058 13.92 64.5593 13.7059C64.5058 13.4784 64.479 13.2107 64.479 12.9029C64.479 12.5818 64.5058 12.3141 64.5593 12.1H61.749C61.8025 12.3141 61.8293 12.5818 61.8293 12.9029C61.8293 13.2107 61.8025 13.4784 61.749 13.7059H60.5446C60.4911 13.4784 60.4643 13.2107 60.4643 12.9029C60.4643 12.5818 60.4911 12.3141 60.5446 12.1H61.3475C61.294 11.8725 61.2672 11.6049 61.2672 11.2971C61.2672 10.9759 61.294 10.7082 61.3475 10.4941H65.3622C65.4158 10.7082 65.4425 10.9759 65.4425 11.2971C65.4425 11.6049 65.4158 11.8725 65.3622 12.1H66.1652C66.2187 12.3141 66.2455 12.5818 66.2455 12.9029C66.2455 13.2107 66.2187 13.4784 66.1652 13.7059C66.2187 13.92 66.2455 14.1876 66.2455 14.5088Z"/></svg>