<?xml version="1.0" encoding="utf-8"?>
<!-- Generator: Adobe Illustrator 28.3.0, SVG Export Plug-In . SVG Version: 6.00 Build 0)  -->
<svg version="1.1" id="Layer_2_00000111175755530515470030000005638073364336574389_"
	 xmlns="http://www.w3.org/2000/svg" xmlns:xlink="http://www.w3.org/1999/xlink" x="0px" y="0px" viewBox="0 0 261 78.6"
	 style="enable-background:new 0 0 261 78.6;" xml:space="preserve">
<style type="text/css">
	.st0{fill:#95FCEC;stroke:#000000;stroke-width:2;stroke-miterlimit:10;}
	.st1{enable-background:new    ;}
	.st2{fill:#231F20;}
</style>
<g id="Layer_4">
	<path class="st0" d="M252.1,2.7l1.9,69.9h-78h-51.5H51.7H1.1l9.4-69.9c0,0,129.3,3.9,153.3,0C187.8-1.2,252,2.7,252.1,2.7
		L252.1,2.7z"/>
	<g class="st1">
		<path class="st2" d="M36.6,24.9h10.2c9.5,0,15.7,6.1,15.7,13.7c0,7.5-6.2,13.7-15.7,13.7H36.6V24.9z M56.7,38.6
			c0-4.8-3.5-8.7-9.8-8.7h-4.3v17.5h4.3C53.2,47.3,56.7,43.4,56.7,38.6z"/>
		<path class="st2" d="M66.5,24.9h5.9v27.3h-5.9V24.9z"/>
		<path class="st2" d="M76.2,43.8h5.9c0,2.3,2.6,4.3,6.6,4.3c2.8,0,6.1-1.1,6.1-3.4c0-2.3-3.2-3.1-6.8-4c-5-1.2-11-3.3-11-8.5
			c0-6,6.9-8,11.5-8c6.5,0,11.6,3.8,11.6,8.5h-5.9c0-1.9-2.1-3.8-5.9-3.8c-2.3,0-5.4,0.7-5.4,2.9c0,2.2,3.1,3,6.8,3.9
			c5,1.2,11.1,3.4,11.1,8.5c0,6.1-6.9,8.4-12.1,8.4C81.7,52.9,76.2,48.8,76.2,43.8z"/>
		<path class="st2" d="M103,38.6c0-7.9,7.1-14.3,15.7-14.3c7,0,12.9,4.3,14.7,10.2h-5.9c-1.6-3.1-4.9-5.3-8.8-5.3
			c-5.4,0-9.8,4.2-9.8,9.4c0,5.2,4.4,9.4,9.8,9.4c3.9,0,7.2-2.2,8.8-5.3h5.9c-1.9,5.9-7.8,10.3-14.8,10.3
			C110.1,52.9,103,46.5,103,38.6z"/>
		<path class="st2" d="M135.6,38.6c0-7.9,7-14.3,15.7-14.3c8.7,0,15.7,6.4,15.7,14.3s-7,14.3-15.7,14.3
			C142.7,52.9,135.6,46.5,135.6,38.6z M151.3,47.9c5.4,0,9.8-4.2,9.8-9.4c0-5.2-4.4-9.4-9.8-9.4s-9.8,4.2-9.8,9.4
			C141.5,43.8,145.9,47.9,151.3,47.9z"/>
		<path class="st2" d="M171,24.9h14.2c5.4,0,9.9,4.1,9.9,9.1c0,3.7-2.4,6.9-5.9,8.3l6.5,9.8h-6.5l-6.1-9h-6.3v9H171V24.9z
			 M185.2,38.3c2.2,0,4-1.9,4-4.2c0-2.3-1.8-4.2-4-4.2h-8.3v8.4H185.2z"/>
		<path class="st2" d="M199.4,24.9h10.2c9.5,0,15.7,6.1,15.7,13.7c0,7.5-6.2,13.7-15.7,13.7h-10.2V24.9z M219.4,38.6
			c0-4.8-3.5-8.7-9.8-8.7h-4.3v17.5h4.3C215.9,47.3,219.4,43.4,219.4,38.6z"/>
	</g>
</g>
</svg>
