<svg xmlns="http://www.w3.org/2000/svg" xml:space="preserve" id="Layer_2_00000111175755530515470030000005638073364336574389_" x="0" y="0" version="1.1" viewBox="0 0 261 78.6"><style>.st2{fill:#231f20}</style><g id="Layer_4"><path d="m252.1 2.7 1.9 69.9H1.1l9.4-69.9s129.3 3.9 153.3 0 88.2 0 88.3 0z" style="fill:#95fcec;stroke:#000;stroke-width:2;stroke-miterlimit:10"/><path d="M36.6 24.9h10.2c9.5 0 15.7 6.1 15.7 13.7 0 7.5-6.2 13.7-15.7 13.7H36.6zm20.1 13.7c0-4.8-3.5-8.7-9.8-8.7h-4.3v17.5h4.3c6.3-.1 9.8-4 9.8-8.8M66.5 24.9h5.9v27.3h-5.9zM76.2 43.8h5.9c0 2.3 2.6 4.3 6.6 4.3 2.8 0 6.1-1.1 6.1-3.4s-3.2-3.1-6.8-4c-5-1.2-11-3.3-11-8.5 0-6 6.9-8 11.5-8 6.5 0 11.6 3.8 11.6 8.5h-5.9c0-1.9-2.1-3.8-5.9-3.8-2.3 0-5.4.7-5.4 2.9s3.1 3 6.8 3.9c5 1.2 11.1 3.4 11.1 8.5 0 6.1-6.9 8.4-12.1 8.4-7 .3-12.5-3.8-12.5-8.8M103 38.6c0-7.9 7.1-14.3 15.7-14.3 7 0 12.9 4.3 14.7 10.2h-5.9c-1.6-3.1-4.9-5.3-8.8-5.3-5.4 0-9.8 4.2-9.8 9.4s4.4 9.4 9.8 9.4c3.9 0 7.2-2.2 8.8-5.3h5.9c-1.9 5.9-7.8 10.3-14.8 10.3-8.5-.1-15.6-6.5-15.6-14.4M135.6 38.6c0-7.9 7-14.3 15.7-14.3S167 30.7 167 38.6s-7 14.3-15.7 14.3c-8.6 0-15.7-6.4-15.7-14.3m15.7 9.3c5.4 0 9.8-4.2 9.8-9.4s-4.4-9.4-9.8-9.4-9.8 4.2-9.8 9.4c0 5.3 4.4 9.4 9.8 9.4M171 24.9h14.2c5.4 0 9.9 4.1 9.9 9.1 0 3.7-2.4 6.9-5.9 8.3l6.5 9.8h-6.5l-6.1-9h-6.3v9H171zm14.2 13.4c2.2 0 4-1.9 4-4.2s-1.8-4.2-4-4.2h-8.3v8.4zM199.4 24.9h10.2c9.5 0 15.7 6.1 15.7 13.7 0 7.5-6.2 13.7-15.7 13.7h-10.2zm20 13.7c0-4.8-3.5-8.7-9.8-8.7h-4.3v17.5h4.3c6.3-.1 9.8-4 9.8-8.8" class="st2"/></g></svg>