<svg width="209" height="256" viewBox="0 0 209 256" fill="none" xmlns="http://www.w3.org/2000/svg">
<path d="M17.6 256L84.0148 118H113.3V256H17.6Z" fill="#EBFF73"/>
<path d="M209 256L142.585 118H113.3V256H209Z" fill="#EBFF73"/>
<path d="M50.6 188.083L0 164V188.083L33 226L50.6 188.083Z" fill="#BCEC84"/>
<path d="M0 122V164L28.6 177.5V122H0Z" fill="#EBFF73"/>
<path d="M29.7 75.2559L112.75 0V117.969H66.9064L29.7 75.2559Z" fill="#BCEC84"/>
<path d="M195.8 75.2559L112.75 0V117.969H158.594L195.8 75.2559Z" fill="#EBFF73"/>
<path d="M40.0812 8.25781V66.0625L84.2015 26.3218L40.0812 8.25781Z" fill="#EBFF73"/>
<path d="M184.121 8.25781V66.0625L140.001 26.3218L184.121 8.25781Z" fill="#BCEC84"/>
</svg>
