<svg width="256" height="256" viewBox="0 0 256 256" fill="none" xmlns="http://www.w3.org/2000/svg">
<mask id="mask0_7_68" style="mask-type:alpha" maskUnits="userSpaceOnUse" x="0" y="0" width="256" height="256">
<path d="M209.094 0.0941814C208.071 0.0316985 207.039 0 206 0H50C49.4906 0 48.983 0.0076176 48.4773 0.0227451L0.0227451 48.4773C0.0076176 48.983 0 49.4906 0 50V206C0 206.684 0.0137182 207.364 0.0408942 208.041L47.9591 255.959C48.636 255.986 49.3164 256 50 256H206C206.86 256 207.715 255.978 208.565 255.935L255.935 208.565C255.978 207.715 256 206.86 256 206V50C256 48.9609 255.968 47.9292 255.906 46.9058L209.094 0.0941814Z" fill="#D9D9D9"/>
</mask>
<g mask="url(#mask0_7_68)">
<path d="M209.094 0.0941814C208.071 0.0316985 207.039 0 206 0H50C49.4906 0 48.983 0.0076176 48.4773 0.0227451L0.0227451 48.4773C0.0076176 48.983 0 49.4906 0 50V206C0 206.684 0.0137182 207.364 0.0408942 208.041L47.9591 255.959C48.636 255.986 49.3164 256 50 256H206C206.86 256 207.715 255.978 208.565 255.935L255.935 208.565C255.978 207.715 256 206.86 256 206V50C256 48.9609 255.968 47.9292 255.906 46.9058L209.094 0.0941814Z" fill="#D9D9D9"/>
<path d="M0 0L128 128V0H0Z" fill="#FF681D"/>
<path d="M128 128L0 0L0 128L128 128Z" fill="#DD9DD3" fill-opacity="0.898039"/>
<path d="M256 256L128 128V256L256 256Z" fill="#FF681D"/>
<path d="M128 128L256 256L256 128L128 128Z" fill="#DD9DD3" fill-opacity="0.898039"/>
<path d="M256 0L128 128L256 128V0Z" fill="#FF681D"/>
<path d="M128 128L256 0L128 0L128 128Z" fill="#DD9DD3" fill-opacity="0.898039"/>
<path d="M0 256L128 128H0L0 256Z" fill="#FF681D"/>
<path d="M128 128L0 256L128 256L128 128Z" fill="#DD9DD3" fill-opacity="0.898039"/>
<rect x="80" y="80" width="96" height="96" fill="white"/>
<circle cx="203" cy="55" r="18" fill="white"/>
</g>
</svg>
