<svg xmlns="http://www.w3.org/2000/svg" width="256" height="256" fill="none"><mask id="a" width="256" height="256" x="0" y="0" maskUnits="userSpaceOnUse" style="mask-type:alpha"><path fill="#fff" fill-rule="evenodd" d="M50 0q-.765 0-1.523.023L.023 48.477A51 51 0 0 0 0 50v156q0 1.026.04 2.041l47.92 47.918q1.014.04 2.04.041h156q1.29 0 2.565-.065l47.37-47.37Q256 207.29 256 206V50q0-1.559-.094-3.094L209.094.094A51 51 0 0 0 206 0zm30 80h96v96H80z" clip-rule="evenodd"/></mask><g mask="url(#a)"><path fill="#D9D9D9" d="M209.094.094A51 51 0 0 0 206 0H50q-.765 0-1.523.023L.023 48.477A51 51 0 0 0 0 50v156q0 1.026.04 2.041l47.92 47.918q1.014.04 2.04.041h156q1.29 0 2.565-.065l47.37-47.37Q256 207.29 256 206V50q0-1.559-.094-3.094z"/><path fill="#FF681D" d="m0 0 128 128V0z"/><path fill="#DD9DD3" fill-opacity=".898" d="M128 128 0 0v128z"/><path fill="#FF681D" d="M256 256 128 128v128z"/><path fill="#DD9DD3" fill-opacity=".898" d="m128 128 128 128V128z"/><path fill="#FF681D" d="M256 0 128 128h128z"/><path fill="#DD9DD3" fill-opacity=".898" d="M128 128 256 0H128z"/><path fill="#FF681D" d="m0 256 128-128H0z"/><path fill="#DD9DD3" fill-opacity=".898" d="M128 128 0 256h128z"/><circle cx="203" cy="55" r="18" fill="#fff"/></g></svg>