<svg xmlns="http://www.w3.org/2000/svg" xmlns:xlink="http://www.w3.org/1999/xlink" viewBox="-40 -10 599.22 487.31"><defs><linearGradient id="a" x1="661.91" y1="536.92" x2="1008.65" y2="770.33" gradientTransform="translate(1440.86 1322.69) rotate(176.98)" gradientUnits="userSpaceOnUse"><stop offset="0" stop-color="#4286f3"/><stop offset="0.03" stop-color="#437ae8"/><stop offset="0.11" stop-color="#455bc9"/><stop offset="0.18" stop-color="#4647b6"/><stop offset="0.23" stop-color="#4740af"/></linearGradient><linearGradient id="b" x1="802.51" y1="661.51" x2="952.74" y2="674.68" gradientTransform="translate(1421.55 1366) rotate(180)" gradientUnits="userSpaceOnUse"><stop offset="0" stop-color="#fff550"/><stop offset="0.4" stop-color="#fcd746"/><stop offset="0.76" stop-color="#fbc43f"/><stop offset="1" stop-color="#fabd3d"/></linearGradient><linearGradient id="c" x1="726.36" y1="485.66" x2="658.9" y2="579.8" gradientTransform="translate(1440.86 1322.69) rotate(176.98)" gradientUnits="userSpaceOnUse"><stop offset="0.04" stop-color="#4740af"/><stop offset="0.2" stop-color="#464db8"/><stop offset="0.5" stop-color="#436fce"/><stop offset="0.91" stop-color="#3fa6f3"/><stop offset="0.93" stop-color="#3fa9f5"/></linearGradient><linearGradient id="d" x1="540.37" y1="515.72" x2="623.08" y2="515.72" gradientTransform="translate(1440.86 1322.69) rotate(176.98)" gradientUnits="userSpaceOnUse"><stop offset="0" stop-color="#fff550"/><stop offset="0.42" stop-color="#fde049"/><stop offset="1" stop-color="#fabd3d"/></linearGradient><linearGradient id="e" x1="842.43" y1="806.58" x2="817.07" y2="679.26" gradientTransform="translate(1440.86 1322.69) rotate(176.98)" gradientUnits="userSpaceOnUse"><stop offset="0" stop-color="#626cae"/><stop offset="0.03" stop-color="#5e65ae"/><stop offset="0.13" stop-color="#5454af"/><stop offset="0.25" stop-color="#4c49af"/><stop offset="0.42" stop-color="#4842af"/><stop offset="0.9" stop-color="#4740af"/></linearGradient></defs><title>3</title><path d="M503.42,852.55l-62-37L731.07,629.16l31,18.72q-2.58,57.52-5.17,115L772,776.26l92.54,79.36-58.17,24c20.69,13,24.59,17.19,24,18.52-1.5,3.4-39.15-11.37-114.07-40.91-9.12-3.6-16.68-6.6-21.91-8.68l-27-12-62,7Z" transform="translate(-429.04 -535.84)" stroke="#1b1464" stroke-miterlimit="10" stroke-width="0.25" fill="url(#a)"/><path d="M622.87,649.53,610.57,626,507.32,692.41q-2,6.09-4.06,12.17L492,697l-63,42,35.45,29.64,85.1-21.23L572.51,757q21.74-27.35,43.48-54.7Q619.42,675.9,622.87,649.53Z" transform="translate(-429.04 -535.84)" fill="url(#b)"/><path d="M514.63,647.37,552,665.75l-18.09,42.79-33-16.35A38.83,38.83,0,0,1,498,677.64a37.27,37.27,0,0,1,3.44-16A33.39,33.39,0,0,1,514.63,647.37Z" transform="translate(-429.04 -535.84)" fill="#33338c"/><path d="M938.26,933.15c-7.45-9-13.73-16.35-18.28-21.65-21.53-25.12-30.32-34-33-36.71-6.66-6.65-12.49-12.08-16.91-16.07-29.35-26.49-62.34-49-68.12-52.94-22.27-15.07-39.6-26.22-97.55-62.7-56.06-35.29-69.64-43.62-81.94-51.08-25.77-15.63-47.47-28.37-63-37.38l-20.64,14.66a60.21,60.21,0,0,0-11,15.28c-9.68,19.22-6.56,38.54-5.1,45.5l91.79,55.09c49.86,29.9,67.64,40.52,92.86,55,0,0,38.29,22,106.36,57.15,25.73,13.28,43.71,22.15,69.51,28.56A249.29,249.29,0,0,0,938.26,933.15Z" transform="translate(-429.04 -535.84)" fill="url(#c)"/><path d="M811.25,850c3.85,2.64,10.93,7.5,20,13.64,10.67,7.23,18.25,12.27,28.6,14.32,5.57,1.1,9.89.93,12.76-1.8a10.84,10.84,0,0,0,2.91-5.81c1.23-6.51-3.3-11.63-3.86-12.23l-7.89-7.5-8.31-15.39-9.08-9.7-20-13.65c-4-2.41-8.36-4.86-13.23-7.22a151.24,151.24,0,0,0-14.24-6,6.2,6.2,0,0,0-4.27.23c-4.94,2.38-4.62,12.54-4.51,16.07A43,43,0,0,0,796.6,836,41,41,0,0,0,811.25,850Z" transform="translate(-429.04 -535.84)" fill="url(#d)"/><path d="M506.61,535.84l22.68,105.1q-.54,10.2-1.06,20.41l113.86,67.49,13.11,5q-5.07-4.77-10.15-9.64-22.93-22-44.09-44-30.66-63.4-61.31-126.8Z" transform="translate(-429.04 -535.84)" fill="url(#e)"/></svg>
