<svg xmlns="http://www.w3.org/2000/svg" width="255" height="282" fill="none" viewBox="0 0 255 282"><g filter="url(#filter0_d)"><path fill="#FC8974" fill-rule="evenodd" d="M132.708 220.721L141.876 220.721L141.876 229.933H151.093V239.337H160.55V229.885L151.093 229.885L151.093 220.721L141.877 220.721V174.902C141.877 174.791 141.909 174.663 141.946 174.519L141.946 174.518L141.946 174.518L141.946 174.518C141.972 174.415 142.001 174.303 142.021 174.183H151.142L151.142 164.875H160.551L160.551 155.567L179.177 155.567L179.177 146.26H188.49V127.644L207.116 127.644V118.433H216.333L216.333 109.125H225.694V99.8652L216.285 99.8652V109.077H197.659V118.385L188.442 118.385V109.077C188.394 95.883 188.394 82.7371 188.394 69.5432V62.5385H207.068V53.4227H179.129V127.788L169.672 127.788L169.672 137H160.455L160.455 146.404H151.238L151.238 155.615H141.781L141.781 165.067H132.708L132.708 220.721ZM76.637 248.548L76.637 258H179.224L179.224 248.548H169.767L169.767 239.337H160.55V248.548H104.528H95.3111H86.046H76.637ZM225.694 90.4135L225.694 99.8172H234.863L234.863 90.4135L225.694 90.4135Z" clip-rule="evenodd"/><path fill="#FFF985" fill-rule="evenodd" d="M95.3114 25.2117L95.3114 16.096C86.1903 16.096 77.0693 16.096 67.9003 16.048C67.8154 16.048 67.7305 16.0813 67.6358 16.1185C67.5698 16.1444 67.4991 16.1722 67.4202 16.1919L67.4202 25.2597L76.6373 25.2597V127.692L86.0943 127.692V25.2117H95.3114ZM123.106 183.443L113.985 183.443V220.673L113.985 229.933L104.528 229.933V239.385L113.985 239.385L113.985 229.933L123.106 229.933V183.443ZM48.7942 44.019V53.3747L30.0721 53.3747V44.163C30.1474 44.1329 30.2132 44.1027 30.2726 44.0756L30.2727 44.0756C30.4025 44.0162 30.5013 43.9711 30.6001 43.9711C36.6488 43.9711 42.7455 43.9711 48.7942 44.019ZM30.0719 62.5864V53.3267L20.9028 53.3267V62.5864L30.0719 62.5864ZM95.3109 248.548V239.337L104.528 239.337L104.528 248.548L95.3109 248.548ZM95.3109 136.952H104.48L104.48 146.308L95.3589 146.308C95.3109 143.093 95.3109 140.023 95.3109 136.952ZM95.3111 127.74H86.0941L86.0941 136.952L95.3111 136.952V127.74Z" clip-rule="evenodd"/><path fill="#FFCB5C" fill-rule="evenodd" d="M160.55 239.337L160.55 248.548L95.3109 239.337V229.933L104.528 229.933L104.528 220.673H113.985L113.985 229.885L123.106 229.885V183.395H113.985V174.231H104.624V164.923L95.3111 164.923V155.567L76.685 155.567V146.26H67.42V127.692H48.7939L48.7939 118.433H39.4328V109.029H30.1198V99.8172L20.9507 99.8172C20.939 99.7116 20.9273 99.6146 20.9162 99.5234C20.8821 99.2417 20.8547 99.0154 20.8547 98.7617V63.1142C20.8547 62.9223 20.8547 62.7304 20.9027 62.5385H30.0718V53.2787L48.7939 53.2787L48.7939 43.9231C51.6262 43.9231 54.4705 43.9111 57.3148 43.8991C60.1591 43.8871 63.0035 43.8751 65.8358 43.8751H67.468L67.468 25.2117H76.685V127.644H86.094L86.094 25.1638L95.3111 25.1638V16.048C95.5335 16.048 95.7559 16.0353 95.9717 16.0229C96.1752 16.0113 96.3729 16 96.5592 16L186.857 16L188.346 16L188.346 43.8271L225.598 43.8271V53.1828H234.815C234.825 53.2719 234.835 53.3568 234.844 53.4382L234.844 53.4411L234.844 53.4416C234.881 53.753 234.911 54.0106 234.911 54.2383V89.6939C234.911 89.8205 234.897 89.9472 234.885 90.0667C234.873 90.1737 234.863 90.275 234.863 90.3656L225.694 90.3656V99.7692L216.285 99.7692L216.285 109.029L197.611 109.029V99.7213H207.068L207.068 90.3656L216.189 90.3656L216.189 62.4425L207.02 62.4425V53.3267L179.08 53.3267L179.08 127.692L169.623 127.692L169.623 136.904L160.406 136.904L160.406 146.308H151.189V155.519H141.732L141.732 164.971H132.659V220.625H141.828L141.828 229.837H151.045L151.045 239.289C154.358 239.337 157.43 239.337 160.55 239.337ZM104.576 229.933V239.337L113.985 239.337L113.985 229.933L104.576 229.933ZM86.1421 127.644V136.856H95.3111V127.644H86.1421ZM95.3591 136.856V146.212L104.48 146.212V136.856H95.3591ZM58.0109 108.981L67.3239 108.981L67.3239 62.6824L39.4328 62.6824V90.4615H48.7939V99.8652L58.0109 99.8652V108.981ZM197.659 109.077H188.442L188.442 118.385H197.659V109.077Z" clip-rule="evenodd"/></g><defs><filter id="filter0_d" width="254.056" height="282" x=".855" y="0" color-interpolation-filters="sRGB" filterUnits="userSpaceOnUse"><feFlood flood-opacity="0" result="BackgroundImageFix"/><feColorMatrix in="SourceAlpha" result="hardAlpha" type="matrix" values="0 0 0 0 0 0 0 0 0 0 0 0 0 0 0 0 0 0 127 0"/><feOffset dy="4"/><feGaussianBlur stdDeviation="10"/><feColorMatrix type="matrix" values="0 0 0 0 0 0 0 0 0 0 0 0 0 0 0 0 0 0 0.25 0"/><feBlend in2="BackgroundImageFix" mode="normal" result="effect1_dropShadow"/><feBlend in="SourceGraphic" in2="effect1_dropShadow" mode="normal" result="shape"/></filter></defs></svg>