<svg xmlns="http://www.w3.org/2000/svg" xmlns:xlink="http://www.w3.org/1999/xlink" viewBox="-30 -43 421.49 579.39"><defs><linearGradient id="a" x1="535.42" y1="740.69" x2="804.76" y2="740.69" gradientTransform="matrix(1, 0, 0, -1, 0, 1366)" gradientUnits="userSpaceOnUse"><stop offset="0" stop-color="#fabd3d"/><stop offset="1" stop-color="#fff550"/></linearGradient><linearGradient id="b" x1="515.43" y1="737.03" x2="851.67" y2="737.03" gradientTransform="matrix(1, 0, 0, -1, 0, 1366)" gradientUnits="userSpaceOnUse"><stop offset="0" stop-color="#4286f3"/><stop offset="1" stop-color="#4fc2f8"/></linearGradient></defs><title>10</title><g style="isolation:isolate"><path d="M590.8,653.38c10.72,24.62,24.14,43.13,46.39,73.82L602,747.68c-22.25-30.69-35.67-49.2-46.39-73.82-.36-.83-.72-1.67-1.07-2.5l25.66-14.91,5.15-3,2.61-1.52,1.23-.72c.18-.1.38-.34.59-.34C590.08,651.72,590.44,652.55,590.8,653.38Z" transform="translate(-515.43 -354.03)" fill="#4fc2f8"/><polygon points="86.52 393.65 121.76 373.17 125.9 378.89 90.67 399.37 86.52 393.65" fill="#4fc2f8"/><path d="M589.73,650.88l-35.24,20.48A254.74,254.74,0,0,1,536,603.25l35.24-20.48A254.74,254.74,0,0,0,589.73,650.88Z" transform="translate(-515.43 -354.03)" fill="#4fc2f8"/><path d="M709.26,820c-11.66,6.57-23.85,13.66-35.24,20.48-31.23-38.66-46.9-58.06-67.93-87.09l35.24-20.48C662.36,762,678,781.36,709.26,820Z" transform="translate(-515.43 -354.03)" fill="#4fc2f8"/><polygon points="97.51 381.9 132.75 361.42 136.9 367.15 101.66 387.63 97.51 381.9" fill="#fff550"/><polygon points="20.6 247.57 55.84 227.09 55.84 228.74 20.6 249.22 20.6 247.57" fill="#4fc2f8"/><path d="M709.26,820a10.42,10.42,0,0,0,2.87,2.59l-35.24,20.48A10.26,10.26,0,0,1,674,840.5Z" transform="translate(-515.43 -354.03)" fill="#4fc2f8"/><path d="M716.12,823l-35.24,20.48a4,4,0,0,1-4-.38l35.24-20.48A4,4,0,0,0,716.12,823Z" transform="translate(-515.43 -354.03)" fill="#4fc2f8"/><path d="M716.12,823l-35.24,20.48c1-.57,1.61-1.79,1.6-3.62l35.24-20.48C717.73,821.2,717.1,822.41,716.12,823Z" transform="translate(-515.43 -354.03)" fill="#fff550"/><path d="M555.18,612.37l35.24-20.48a8.83,8.83,0,0,0,.08,1.13,216.83,216.83,0,0,0,16.23,57.26c8.72,20,19.65,35.11,41.44,65.17l-35.24,20.48c-21.79-30-32.72-45.14-41.44-65.17a216.83,216.83,0,0,1-16.23-57.26A8.71,8.71,0,0,1,555.18,612.37Z" transform="translate(-515.43 -354.03)" fill="#fff550"/><polygon points="167 476.55 202.24 456.07 202.29 465.33 167.05 485.81 167 476.55" fill="#fff550"/><path d="M617.09,741.66l35.24-20.48c17.38,24,52.76,69.3,62.68,82a12,12,0,0,1,2.66,7l-35.24,20.48a12,12,0,0,0-2.66-7C669.85,811,634.47,765.66,617.09,741.66Z" transform="translate(-515.43 -354.03)" fill="#fff550"/><polygon points="61.37 272.02 96.61 251.55 145.01 331.02 109.78 351.5 61.37 272.02" fill="#4fc2f8"/><path d="M660.44,685.05a43.55,43.55,0,0,0,2.77,4L628,709.57a43.55,43.55,0,0,1-2.77-4Z" transform="translate(-515.43 -354.03)" fill="#4fc2f8"/><path d="M671.26,696.89,636,717.37a36.43,36.43,0,0,1-8-7.8l35.24-20.48A36.65,36.65,0,0,0,671.26,696.89Z" transform="translate(-515.43 -354.03)" fill="#4fc2f8"/><path d="M671.26,696.89l.08.06L636.1,717.43l-.08-.06Z" transform="translate(-515.43 -354.03)" fill="#4fc2f8"/><path d="M673,698l-35.24,20.48c-.54-.32-1.08-.66-1.61-1L671.35,697C671.88,697.31,672.42,697.65,673,698Z" transform="translate(-515.43 -354.03)" fill="#4fc2f8"/><path d="M673,698l.13.08-35.24,20.48-.13-.08Z" transform="translate(-515.43 -354.03)" fill="#4fc2f8"/><path d="M576.33,611.52,611.57,591c-3.29,2.2-3.09,8.7.46,14.53l-35.24,20.48C573.24,620.23,573,613.72,576.33,611.52Z" transform="translate(-515.43 -354.03)" fill="#4fc2f8"/><polygon points="66.82 253.54 102.06 233.06 96.14 237.01 60.9 257.49 66.82 253.54" fill="#4fc2f8"/><path d="M617.71,587l-.22.14-35.24,20.48.22-.14Z" transform="translate(-515.43 -354.03)" fill="#4fc2f8"/><path d="M675.27,699.17c4.24,1.87,8.14,1.92,11.1.2l-35.24,20.48c-3,1.72-6.86,1.67-11.1-.2a23.67,23.67,0,0,1-2.18-1.12l35.24-20.48C673.81,698.46,674.54,698.84,675.27,699.17Z" transform="translate(-515.43 -354.03)" fill="#4fc2f8"/><path d="M582.47,607.44,617.71,587c1.71-1,4-.69,6.25.62a17.6,17.6,0,0,1,5.93,6.09l-35.24,20.48a17.51,17.51,0,0,0-5.93-6.09C586.45,606.74,584.18,606.44,582.47,607.44Z" transform="translate(-515.43 -354.03)" fill="#fff550"/><polygon points="79.22 260.12 114.46 239.64 149.19 296.67 113.95 317.15 79.22 260.12" fill="#fff550"/><path d="M676.8,657.4l-35.24,20.48c-1.71,1-4,.7-6.27-.62a17.52,17.52,0,0,1-5.91-6.08l35.24-20.48a17.52,17.52,0,0,0,5.91,6.08C672.82,658.1,675.1,658.39,676.8,657.4Z" transform="translate(-515.43 -354.03)" fill="#fff550"/><polygon points="19.99 56.72 55.23 36.25 55.84 227.09 20.6 247.57 19.99 56.72" fill="#4fc2f8"/><polygon points="39.21 86.97 74.45 66.49 74.99 237.86 39.75 258.34 39.21 86.97" fill="#fff550"/><path d="M570.66,390.28c-12.39,7.18-22.93,13.31-35.24,20.48a3.91,3.91,0,0,1,1.63-3.62l35.24-20.48C571.27,387.24,570.66,388.51,570.66,390.28Z" transform="translate(-515.43 -354.03)" fill="#4fc2f8"/><path d="M556.26,437.39l35.24-20.48a3.92,3.92,0,0,0-1.62,3.61L554.64,441A3.92,3.92,0,0,1,556.26,437.39Z" transform="translate(-515.43 -354.03)" fill="#fff550"/><path d="M537.05,407.14l35.24-20.48a3.56,3.56,0,0,1,3.25,0L540.3,407.17A3.53,3.53,0,0,0,537.05,407.14Z" transform="translate(-515.43 -354.03)" fill="#fff550"/><polygon points="24.87 53.14 60.11 32.66 63.64 34.18 28.4 54.66 24.87 53.14" fill="#fff550"/><path d="M677.68,656.72a4.22,4.22,0,0,1-.87.67l-35.24,20.48a4.22,4.22,0,0,0,.87-.67,229.74,229.74,0,0,1,46.47-35.86l35.24-20.48A229.74,229.74,0,0,0,677.68,656.72Z" transform="translate(-515.43 -354.03)" fill="#4fc2f8"/><path d="M707.51,673.34l35.24-20.48a221.82,221.82,0,0,0-54.13,44.67,9.23,9.23,0,0,1-2.23,1.83l-35.24,20.48a9.23,9.23,0,0,0,2.23-1.83A221.82,221.82,0,0,1,707.51,673.34Z" transform="translate(-515.43 -354.03)" fill="#fff550"/><path d="M827.67,625.75c2.58-.26,5.2-.49,7.84-.67l-35.24,20.48c-2.64.18-5.26.41-7.84.67-30.94,3.15-59.33,12.23-84.95,27.12l35.24-20.48C768.34,638,796.73,628.9,827.67,625.75Z" transform="translate(-515.43 -354.03)" fill="#4fc2f8"/><path d="M837.45,624.5,802.21,645a4.36,4.36,0,0,1-1.94.57l35.24-20.48A4.24,4.24,0,0,0,837.45,624.5Z" transform="translate(-515.43 -354.03)" fill="#4fc2f8"/><path d="M556.26,437.39l35.24-20.48a3.47,3.47,0,0,1,3.11,0,396.53,396.53,0,0,0,61.58,18.85c23.88,5.14,37.9,3,51.46,1,2.81-.43,5.54-.84,8.32-1.19a4.81,4.81,0,0,1,2.92.74,10.08,10.08,0,0,1,2.6,2.25c15.38,18.35,45,50.85,64.86,68.52a9.34,9.34,0,0,0,1.45,1.06,4,4,0,0,0,4,.39L756.53,529a4,4,0,0,1-4-.39,8.89,8.89,0,0,1-1.45-1.06c-19.91-17.66-49.48-50.17-64.86-68.52a10.08,10.08,0,0,0-2.6-2.25,4.83,4.83,0,0,0-2.92-.74c-2.78.35-5.51.76-8.32,1.19-13.56,2-27.58,4.16-51.46-1a396.2,396.2,0,0,1-61.58-18.85A3.47,3.47,0,0,0,556.26,437.39Z" transform="translate(-515.43 -354.03)" fill="#4fc2f8"/><path d="M543.83,408.69l35.24-20.48a388,388,0,0,0,71.44,23.2c21.49,4.62,33.85,2.75,46.94.77,5.27-.8,10.72-1.62,16.78-2L679,430.66c-6.06.38-11.51,1.2-16.78,2-13.09,2-25.46,3.84-46.94-.77A387.76,387.76,0,0,1,543.83,408.69Z" transform="translate(-515.43 -354.03)" fill="#fff550"/><polygon points="163.56 76.64 198.8 56.16 200.95 56.02 165.71 76.5 163.56 76.64" fill="#fff550"/><path d="M681.14,430.53l35.24-20.48a4.92,4.92,0,0,1,2.71.76l-35.24,20.48A4.94,4.94,0,0,0,681.14,430.53Z" transform="translate(-515.43 -354.03)" fill="#fff550"/><path d="M683.85,431.29l35.24-20.48a10.54,10.54,0,0,1,3.1,2.88L687,434.17A10.54,10.54,0,0,0,683.85,431.29Z" transform="translate(-515.43 -354.03)" fill="#fff550"/><polygon points="171.52 80.14 206.76 59.66 208.8 62.41 173.56 82.89 171.52 80.14" fill="#fff550"/><path d="M837.45,624.51,802.21,645c2.65-1.54,3.37-5.92,1.52-11L839,613.52C840.82,618.58,840.1,623,837.45,624.51Z" transform="translate(-515.43 -354.03)" fill="#fff550"/><path d="M688.91,641.34l35.24-20.48c27.19-15.8,57.35-25.44,90.23-28.79,2.8-.28,5.62-.53,8.48-.72a7.67,7.67,0,0,1,4.3,1.18L791.92,613a7.67,7.67,0,0,0-4.3-1.18c-2.85.19-5.68.44-8.48.72C746.26,615.91,716.1,625.54,688.91,641.34Z" transform="translate(-515.43 -354.03)" fill="#fff550"/><polygon points="284.21 268.77 319.45 248.29 323.55 259.49 288.31 279.97 284.21 268.77" fill="#fff550"/><path d="M791.92,613l35.24-20.48a19.15,19.15,0,0,1,7.72,9.79l-35.24,20.48A19.06,19.06,0,0,0,791.92,613Z" transform="translate(-515.43 -354.03)" fill="#fff550"/><path d="M791.79,508.47,756.55,529a3.31,3.31,0,0,0,1.5-2.37l35.24-20.48A3.37,3.37,0,0,1,791.79,508.47Z" transform="translate(-515.43 -354.03)" fill="#fff550"/><polygon points="244.23 164.43 279.47 143.95 277.86 152.07 242.62 172.55 244.23 164.43" fill="#fff550"/><path d="M689,436.92l35.24-20.48c7.54,10.19,44.46,52.06,66.71,71.81,2.82,2.51,4.55,6.77,4,9.73l-35.24,20.48c.58-3-1.14-7.22-4-9.73C733.45,489,696.53,447.11,689,436.92Z" transform="translate(-515.43 -354.03)" fill="#fff550"/><path d="M791.92,613a19.15,19.15,0,0,1,7.72,9.79l4.09,11.2c2.24,6.14.7,11.27-3.46,11.56-2.64.18-5.26.41-7.84.67C737.67,651.82,690.89,676,653.37,718c-3.07,3.44-7.93,4-13.34,1.64a23.67,23.67,0,0,1-2.18-1.12,37.49,37.49,0,0,1-12.64-13L576.8,626.06c-3.55-5.83-3.76-12.33-.46-14.53l5.92-3.95c1.73-1.15,4.1-.88,6.46.48a17.6,17.6,0,0,1,5.93,6.09l34.74,57a17.52,17.52,0,0,0,5.91,6.08c2.7,1.56,5.4,1.68,7.14,0,37.8-37.52,83.71-59.25,136.71-64.65,2.8-.28,5.62-.53,8.48-.72A7.58,7.58,0,0,1,791.92,613ZM681.14,430.53l-2.15.14c-6.06.38-11.51,1.2-16.78,2-13.09,2-25.46,3.84-46.94-.77a389.53,389.53,0,0,1-71.44-23.2l-3.53-1.52c-2.8-1.2-4.89.34-4.88,3.58L536,601.6l.13,3.06a255.37,255.37,0,0,0,19.41,69.21C566.28,698.49,579.7,717,602,747.69l4.15,5.72c21,29,36.7,48.44,67.92,87.09a10.26,10.26,0,0,0,2.87,2.59c2.92,1.69,5.61.54,5.6-3.24l0-9.27a12,12,0,0,0-2.66-7c-9.92-12.66-45.3-58-62.68-82L613,735.94c-21.79-30.05-32.72-45.14-41.44-65.17a216.83,216.83,0,0,1-16.23-57.26,9,9,0,0,1-.08-1.13L554.64,441c0-3.19,2-4.72,4.74-3.64A396.86,396.86,0,0,0,621,456.21c23.88,5.14,37.9,3,51.46,1,2.81-.43,5.53-.84,8.32-1.19a4.81,4.81,0,0,1,2.92.74,10.08,10.08,0,0,1,2.6,2.25c15.38,18.35,45,50.85,64.86,68.52a9.34,9.34,0,0,0,1.45,1.06c2.59,1.49,4.93.77,5.48-2l1.62-8.12c.58-3-1.14-7.22-4-9.73C733.46,489,696.54,447.12,689,436.93l-2-2.75a10.66,10.66,0,0,0-3.1-2.88A4.92,4.92,0,0,0,681.14,430.53Z" transform="translate(-515.43 -354.03)" fill="url(#a)"/><path d="M523.1,376.27l35.24-20.48c3.71-2.16,8.56-2.4,14.06-.33a374.59,374.59,0,0,0,65.19,18.24,277.77,277.77,0,0,0,67.57,4.2c4-.26,8.44,1,12.87,3.57a48.43,48.43,0,0,1,13.32,11.88A788,788,0,0,0,799,468.18a667.72,667.72,0,0,0,65.55,56.06L829.3,544.72a667.72,667.72,0,0,1-65.55-56.06,786.78,786.78,0,0,1-67.64-74.83A48.59,48.59,0,0,0,682.79,402c-4.43-2.56-8.86-3.83-12.87-3.57a277.75,277.75,0,0,1-67.57-4.2,373.46,373.46,0,0,1-65.19-18.24C531.66,373.87,526.81,374.12,523.1,376.27Z" transform="translate(-515.43 -354.03)" fill="#4740af"/><path d="M845.52,840l-35.24,20.48c11.88-6.9,21.85-16.68,29.3-31.67a116.22,116.22,0,0,0,10.15-32.85,30,30,0,0,0,.36-4.54l1.59-203.65c.12-15-9.42-33.34-22.37-43l35.24-20.48c13,9.66,22.49,28,22.37,43q-.78,101.82-1.59,203.65a28.8,28.8,0,0,1-.36,4.54,116.12,116.12,0,0,1-10.15,32.85C867.36,823.27,857.39,833.05,845.52,840Z" transform="translate(-515.43 -354.03)" fill="#4740af"/><path d="M829.3,544.71c13,9.66,22.49,28,22.37,43q-.78,101.82-1.59,203.65a28.8,28.8,0,0,1-.36,4.54,116.12,116.12,0,0,1-10.15,32.85c-17,34.27-47.24,41.31-83.28,49a272.41,272.41,0,0,1-62.16,5.63,24.45,24.45,0,0,1-11.52-3.6,46.15,46.15,0,0,1-11-9.07,974,974,0,0,1-70.42-87.61c-31.94-44.78-59.59-83.83-74.68-134.39a265.22,265.22,0,0,1-9.45-45.32,34.44,34.44,0,0,1-.24-4l-1.44-205.86c-.1-14.84,9.07-22.32,21.73-17.56a374.59,374.59,0,0,0,65.19,18.24,277.77,277.77,0,0,0,67.57,4.2c4-.26,8.44,1,12.87,3.57a48.43,48.43,0,0,1,13.32,11.88,788,788,0,0,0,67.64,74.83A670,670,0,0,0,829.3,544.71ZM676.89,843.09c2.92,1.69,5.61.54,5.6-3.24l0-9.27a12,12,0,0,0-2.66-7c-9.92-12.67-45.3-58-62.68-82L613,735.94c-21.79-30.05-32.72-45.14-41.44-65.16a216.83,216.83,0,0,1-16.23-57.26,9,9,0,0,1-.08-1.13L554.64,441c0-3.19,2-4.72,4.74-3.64A396.53,396.53,0,0,0,621,456.21c23.88,5.14,37.9,3,51.46,1,2.81-.43,5.54-.84,8.32-1.19a4.81,4.81,0,0,1,2.92.74,10.08,10.08,0,0,1,2.6,2.25c15.38,18.35,45,50.85,64.86,68.52a9.34,9.34,0,0,0,1.45,1.06c2.59,1.49,4.93.77,5.48-2l1.62-8.12c.58-3-1.14-7.22-4-9.73C733.46,489,696.54,447.12,689,436.93l-2-2.75a10.53,10.53,0,0,0-3.1-2.88,4.84,4.84,0,0,0-2.71-.75l-2.15.14c-6.06.38-11.51,1.2-16.78,2-13.09,2-25.46,3.84-46.94-.77a389.53,389.53,0,0,1-71.44-23.2l-3.53-1.52c-2.8-1.2-4.89.34-4.88,3.58l.6,190.84v1.65a255.38,255.38,0,0,0,19.53,70.61C566.29,698.5,579.71,717,602,747.7l4.15,5.72c21,29,36.7,48.44,67.93,87.09a10.2,10.2,0,0,0,2.85,2.58M800.27,645.56c4.16-.28,5.7-5.42,3.46-11.56l-4.09-11.2a19.19,19.19,0,0,0-7.72-9.79,7.67,7.67,0,0,0-4.3-1.18c-2.85.19-5.68.44-8.48.72-53,5.4-98.91,27.12-136.71,64.65-1.75,1.74-4.44,1.62-7.14.06a17.52,17.52,0,0,1-5.91-6.08l-34.74-57a17.51,17.51,0,0,0-5.93-6.09c-2.37-1.37-4.73-1.64-6.46-.48l-5.92,3.95c-3.29,2.2-3.09,8.7.46,14.53l48.41,79.48a37.66,37.66,0,0,0,12.64,13,23.67,23.67,0,0,0,2.18,1.12c5.42,2.39,10.28,1.8,13.35-1.64,37.52-42,84.3-66.21,139.06-71.78,2.58-.27,5.2-.5,7.84-.68" transform="translate(-515.43 -354.03)" fill="url(#b)"/></g></svg>
