<svg width="270" height="286" viewBox="0 0 270 286" fill="none" xmlns="http://www.w3.org/2000/svg">
<path fill-rule="evenodd" clip-rule="evenodd" d="M239.716 46.6956H239.716V47.8574V253.411V254.358C239.71 254.399 239.704 254.44 239.698 254.48L239.673 254.65C239.644 254.841 239.615 255.032 239.587 255.261H231.415C231.415 252.578 231.415 249.853 231.372 247.086H222.986C223.158 243.729 223.072 239.426 222.771 238.609H214.729V247H217.352C218.299 247.021 219.234 247.032 220.169 247.043C221.105 247.053 222.04 247.064 222.986 247.086H222.943C222.965 248.458 222.976 249.829 222.986 251.218C222.997 252.573 223.008 253.945 223.029 255.347H231.41C231.245 257.91 231.332 262.759 231.587 263.652H239.716V272H240.146C240.381 271.941 242.906 271.963 245.195 271.982C246.255 271.991 247.265 272 247.973 272V46.6956C247.93 46.6956 247.898 46.6848 247.866 46.6741C247.833 46.6633 247.801 46.6526 247.758 46.6526C245.092 46.6956 242.382 46.6956 239.716 46.6956ZM213.267 238.609H214.729V234.478C214.729 234.086 214.736 233.694 214.743 233.301V233.3V233.3C214.76 232.313 214.778 231.319 214.686 230.304H213.009H49.2356H47.9023V238.609H49.4506H213.267Z" fill="#B88DFF"/>
<g filter="url(#filter0_d)">
<path d="M31.0003 46.7386C33.8388 46.7386 36.6773 46.7386 39.4728 46.7386C39.4728 48.3307 39.4728 49.8798 39.4728 51.4719C39.4728 52.2034 39.5588 52.8919 39.6018 53.6234C39.6878 54.7852 39.4728 55.0003 38.3116 55.0003C35.9462 55.0003 33.5807 55.0434 31.2153 55.0434C31.1293 55.0003 31.0433 55.0003 30.9573 54.9573C31.0003 52.2464 31.0003 49.4925 31.0003 46.7386Z" fill="white"/>
<path d="M47.9023 38.4339C47.9023 35.766 47.9023 33.0551 47.9023 30.3873C47.9023 30.3442 47.9023 30.2582 47.9023 30.1291C47.9023 30.0861 47.9454 30.043 47.9884 30.043C48.0314 30.043 48.0314 30.043 48.0744 30.043C50.7408 30.043 53.5363 30.043 56.2028 30.043V38.4769C55.6437 38.4769 54.9556 38.4769 54.3965 38.4769C52.2461 38.4769 50.1387 38.4769 47.9884 38.4769C47.9884 38.4339 47.9454 38.4339 47.9023 38.4339Z" fill="white"/>
<path d="M39.4729 46.7386C39.4729 44.0277 39.4729 41.3169 39.4729 38.5629C42.3544 38.2187 45.1069 38.2617 47.9024 38.4339C47.9024 41.1447 47.9024 43.8556 47.9024 46.6956C45.0209 46.7386 42.2684 46.7386 39.4729 46.7386Z" fill="white"/>
<path fill-rule="evenodd" clip-rule="evenodd" d="M31.0002 222.085V221.655C31.0236 221.515 31.0502 221.377 31.0765 221.241C31.1469 220.878 31.2153 220.525 31.2153 220.149V56.5925C31.2153 56.3343 31.226 56.0761 31.2368 55.8179C31.2475 55.5597 31.2583 55.3016 31.2583 55.0434C32.441 55.0434 33.6237 55.0326 34.8064 55.0219L34.807 55.0219C35.9895 55.0111 37.172 55.0004 38.3545 55.0004C39.5158 55.0004 39.7308 54.7852 39.6448 53.6234C39.6301 53.3734 39.6103 53.1283 39.5907 52.8849L39.5907 52.8849C39.553 52.4162 39.5157 51.9534 39.5157 51.4719C39.4871 50.4121 39.4966 49.3714 39.5061 48.3243C39.5109 47.7984 39.5157 47.2709 39.5157 46.7386C40.8762 46.7386 42.2472 46.7281 43.6338 46.7175H43.6339C45.0527 46.7066 46.488 46.6956 47.9452 46.6956V38.4339H49.1925H54.8695H56.2457V30H155.98H230.341C230.607 30 230.848 30.0258 231.143 30.0575C231.229 30.0667 231.319 30.0764 231.416 30.0861C231.455 31.3381 231.449 32.5813 231.444 33.8196V33.8204C231.438 35.3055 231.431 36.7836 231.502 38.2617C232.641 38.3319 233.76 38.3234 234.871 38.315C236.486 38.3027 238.086 38.2905 239.716 38.5199V46.7386V47.9865V253.54V254.487C239.716 254.745 239.673 255.003 239.587 255.39H231.416C231.416 254.048 231.405 252.696 231.395 251.333L231.394 251.324V251.322C231.384 249.935 231.373 248.537 231.373 247.129H222.943C223.115 243.772 223.029 239.512 222.728 238.652H214.686V234.521C214.686 234.129 214.693 233.74 214.7 233.35L214.7 233.349V233.349C214.717 232.372 214.735 231.393 214.643 230.347H212.965H49.1925H47.8592C46.8279 230.331 45.7905 230.333 44.7493 230.335H44.7481H44.7474C43.0105 230.338 41.2631 230.342 39.5157 230.261C39.4726 228.858 39.4836 227.488 39.4943 226.139C39.5051 224.799 39.5156 223.48 39.4727 222.171C39.3976 222.146 39.3371 222.125 39.2869 222.107L39.2861 222.107L39.286 222.107C39.1643 222.064 39.1035 222.042 39.0427 222.042C37.7113 222.042 36.3693 222.053 35.0272 222.064L35.0215 222.064C33.6775 222.075 32.3335 222.085 31.0002 222.085Z" fill="#632ED2"/>
</g>
<g filter="url(#filter1_d)">
<path d="M177.247 68.4994C180 68.4994 182.752 68.4994 185.591 68.4994C185.591 71.2533 185.591 73.9212 185.591 76.7181C188.386 76.8902 191.053 76.7181 193.762 76.8042C194.02 77.7508 193.891 78.6975 193.891 79.6011C193.934 80.5048 193.891 81.4084 193.891 82.269C193.891 83.1726 193.891 84.1193 193.891 85.152C196.73 85.152 199.439 85.152 202.235 85.152C202.45 87.9489 202.235 90.6168 202.364 93.4137C202.751 93.4567 203.138 93.4998 203.482 93.4998C205.46 93.4998 207.396 93.4998 209.374 93.4998C209.761 93.4998 210.105 93.5428 210.578 93.5428C210.578 99.0937 210.578 104.558 210.578 110.109C213.331 110.324 216.04 110.109 218.75 110.238C218.793 110.497 218.879 110.712 218.879 110.927C218.922 111.185 218.879 111.486 218.879 111.744C218.879 132.958 218.879 154.129 218.879 175.343C218.879 175.816 218.879 176.289 218.879 176.892C216.083 176.892 213.417 176.892 210.664 176.892C210.492 179.689 210.664 182.356 210.535 185.11C210.148 185.153 209.761 185.196 209.417 185.196C207.439 185.196 205.503 185.196 203.525 185.196C203.138 185.196 202.794 185.239 202.278 185.239C202.278 188.036 202.278 190.747 202.278 193.372C201.332 193.63 161.765 193.63 160.603 193.415C160.56 190.747 160.603 188.036 160.603 185.239C163.356 185.067 166.022 185.239 168.689 185.11C168.947 184.336 169.033 178.096 168.775 176.935C146.669 176.935 124.52 176.935 102.414 176.935C102.199 177.752 102.156 183.819 102.371 185.067C102.715 185.11 103.059 185.153 103.446 185.153C105.425 185.153 107.36 185.153 109.338 185.153C109.725 185.153 110.069 185.196 110.5 185.196C110.5 187.993 110.5 190.704 110.5 193.372C109.639 193.587 70.0293 193.63 68.9111 193.415C68.9111 190.747 68.9111 188.036 68.9111 185.239C66.1157 185.024 63.4492 185.239 60.6537 185.11C60.6107 184.723 60.5677 184.379 60.5677 183.992C60.5677 182.012 60.5677 180.076 60.5677 178.096C60.5677 177.709 60.5677 177.365 60.5677 176.849C57.7292 176.849 55.0197 176.849 52.2242 176.849C52.1812 176.246 52.1382 175.773 52.1382 175.3C52.1382 156.668 52.1382 138.079 52.1382 119.447C52.1382 119.103 52.1382 118.758 52.1382 118.414C54.8907 118.414 57.6432 118.414 60.5677 118.414C60.5677 117.898 60.5677 117.553 60.5677 117.166C60.5677 114.8 60.6107 112.433 60.6107 110.066C63.3202 110.023 66.0726 110.023 68.8681 109.98C68.8681 104.343 68.8681 98.8355 68.8681 93.3277C71.6206 93.3277 74.3301 93.3277 77.2546 93.3277C77.2546 90.4877 77.2976 87.7768 77.2116 85.0229C79.9641 84.9799 82.7596 84.9799 85.5981 84.9368C85.5981 82.0538 85.5981 79.2999 85.5981 76.546C96.307 76.546 106.973 76.546 117.682 76.546C118.112 76.546 118.585 76.503 119.015 76.503C119.359 76.503 119.703 76.546 120.047 76.546C130.498 76.546 140.949 76.546 151.4 76.546C151.701 76.546 152.002 76.503 152.346 76.503C152.518 76.503 152.69 76.546 152.862 76.546C160.775 76.546 168.689 76.546 176.559 76.546C176.774 76.546 177.032 76.503 177.333 76.4599C177.247 73.9212 177.247 71.2103 177.247 68.4994ZM102.285 118.543C102.285 129.688 102.285 140.747 102.285 151.719C103.317 151.934 117.983 151.934 118.757 151.719C118.972 150.6 118.929 119.318 118.671 118.543C113.252 118.543 107.833 118.543 102.285 118.543ZM152.303 118.543C152.303 129.688 152.303 140.747 152.303 151.891C157.851 151.891 163.356 151.891 168.775 151.891C169.033 150.514 168.947 119.275 168.732 118.543C163.27 118.543 157.808 118.543 152.303 118.543Z" fill="#B88DFF"/>
<path fill-rule="evenodd" clip-rule="evenodd" d="M118.262 76.74C118.488 76.7292 118.714 76.7185 118.929 76.7185C118.929 74.524 118.929 72.2864 118.886 70.0919C118.886 70.0367 118.887 69.9814 118.887 69.9263L118.887 69.9238C118.891 69.4216 118.895 68.93 118.585 68.5428C116.994 68.3277 86.3724 68.4137 85.5122 68.6719V76.7615C82.7314 76.7615 79.9931 76.7617 77.2974 76.8045C77.0824 77.7082 76.9964 83.302 77.1684 85.2384C78.5607 85.2166 79.953 85.2059 81.362 85.195H81.3622C82.7387 85.1844 84.131 85.1736 85.5549 85.1523V76.7615L117.596 76.7615C117.811 76.7615 118.037 76.7508 118.262 76.74ZM177.247 76.6754V68.4998H153.077C152.916 68.4998 152.755 68.5332 152.584 68.5689L152.584 68.5689C152.481 68.5904 152.373 68.6127 152.26 68.6289V76.7185C152.346 76.7185 152.432 76.7292 152.518 76.74C152.604 76.7507 152.69 76.7615 152.776 76.7615H176.473C176.624 76.7615 176.776 76.7402 176.972 76.7126C177.055 76.701 177.145 76.6882 177.247 76.6754ZM68.8253 93.5001V110.153C67.4229 110.174 66.052 110.185 64.6971 110.195C63.3095 110.206 61.9387 110.217 60.5678 110.239V93.5432C61.6645 93.4786 62.6886 93.4867 63.7127 93.4948C64.0541 93.4975 64.3955 93.5001 64.7395 93.5001C65.6268 93.4715 66.5331 93.481 67.4458 93.4905H67.4459H67.446H67.4461C67.9047 93.4953 68.365 93.5001 68.8253 93.5001ZM60.5677 110.196C60.5677 111.379 60.557 112.562 60.5462 113.746C60.5355 114.929 60.5247 116.112 60.5247 117.296V118.544H52.0952V110.239C55.0197 110.196 57.7722 110.196 60.5677 110.196ZM77.1738 91.3715C77.1818 89.2767 77.1897 87.224 77.1254 85.1954H72.9966C72.6532 85.1954 72.3125 85.1927 71.9712 85.19C70.9444 85.1819 69.9116 85.1738 68.7819 85.2384V93.5001H77.1684C77.1684 92.7854 77.1711 92.076 77.1738 91.3715Z" fill="white"/>
</g>
<defs>
<filter id="filter0_d" x="0.957275" y="0" width="268.759" height="285.39" filterUnits="userSpaceOnUse" color-interpolation-filters="sRGB">
<feFlood flood-opacity="0" result="BackgroundImageFix"/>
<feColorMatrix in="SourceAlpha" type="matrix" values="0 0 0 0 0 0 0 0 0 0 0 0 0 0 0 0 0 0 127 0" result="hardAlpha"/>
<feOffset/>
<feGaussianBlur stdDeviation="15"/>
<feColorMatrix type="matrix" values="0 0 0 0 0 0 0 0 0 0 0 0 0 0 0 0 0 0 0.25 0"/>
<feBlend mode="normal" in2="BackgroundImageFix" result="effect1_dropShadow"/>
<feBlend mode="normal" in="SourceGraphic" in2="effect1_dropShadow" result="shape"/>
</filter>
<filter id="filter1_d" x="42.0952" y="62.4209" width="186.803" height="145.151" filterUnits="userSpaceOnUse" color-interpolation-filters="sRGB">
<feFlood flood-opacity="0" result="BackgroundImageFix"/>
<feColorMatrix in="SourceAlpha" type="matrix" values="0 0 0 0 0 0 0 0 0 0 0 0 0 0 0 0 0 0 127 0" result="hardAlpha"/>
<feOffset dy="4"/>
<feGaussianBlur stdDeviation="5"/>
<feColorMatrix type="matrix" values="0 0 0 0 0 0 0 0 0 0 0 0 0 0 0 0 0 0 0.25 0"/>
<feBlend mode="normal" in2="BackgroundImageFix" result="effect1_dropShadow"/>
<feBlend mode="normal" in="SourceGraphic" in2="effect1_dropShadow" result="shape"/>
</filter>
</defs>
</svg>
