<svg xmlns="http://www.w3.org/2000/svg" xmlns:xlink="http://www.w3.org/1999/xlink" viewBox="-15 -20 603.42 448.78"><defs><linearGradient id="a" x1="462.7" y1="446.68" x2="860.95" y2="667.09" gradientTransform="matrix(1, 0, 0, -1, 0, 1366)" gradientUnits="userSpaceOnUse"><stop offset="0.04" stop-color="#4740af"/><stop offset="0.27" stop-color="#4743b1"/><stop offset="0.45" stop-color="#464db8"/><stop offset="0.61" stop-color="#455ec3"/><stop offset="0.77" stop-color="#4375d2"/><stop offset="0.91" stop-color="#4193e6"/><stop offset="1" stop-color="#3fa9f5"/></linearGradient><linearGradient id="b" x1="858.51" y1="805.39" x2="390.59" y2="491.08" gradientTransform="matrix(1, 0, 0, -1, 0, 1366)" gradientUnits="userSpaceOnUse"><stop offset="0" stop-color="#3fa9f5"/><stop offset="0.43" stop-color="#4373d1"/><stop offset="0.78" stop-color="#464eb8"/><stop offset="0.96" stop-color="#4740af"/></linearGradient><linearGradient id="c" x1="648.48" y1="595.26" x2="841.77" y2="595.26" gradientTransform="matrix(1, 0, 0, -1, 0, 1366)" gradientUnits="userSpaceOnUse"><stop offset="0" stop-color="#fabd3d"/><stop offset="0.4" stop-color="#fcd746"/><stop offset="1" stop-color="#fff951"/></linearGradient></defs><title>4</title><path d="M489.92,714V841c8.2,63.74,88.08,113.76,185.42,113.76,102.79,0,186.11-55.78,186.11-124.59V714Z" transform="translate(-389.14 -536)" fill="url(#a)"/><path d="M953,712.5,698.69,843.3c-12.71,6.53-33.31,6.53-46,0L398.9,712.79c-12.71-6.53-12.71-17.13,0-23.66l254.34-130.8c12.71-6.53,33.31-6.53,46,0L953,688.84C965.73,695.37,965.73,706,953,712.5Z" transform="translate(-389.14 -536)" fill="#4740af"/><path d="M952.8,695.07,698.46,825.87c-12.71,6.53-33.31,6.53-46,0L398.67,695.36c-12.71-6.53-12.71-17.13,0-23.66L653,540.9c12.71-6.53,33.31-6.53,46,0L952.8,671.41C965.5,677.94,965.5,688.54,952.8,695.07Z" transform="translate(-389.14 -536)" fill="url(#b)"/><path d="M709.83,680.37v1.25l-.08-.08A7.67,7.67,0,0,0,709.83,680.37Z" transform="translate(-389.14 -536)" fill="#04bea8"/><path d="M841.77,876.07l-16.2,10.41L810.52,879l9.26-20.46V766.28a10,10,0,0,1-2.85-1.12L695.59,695.1a48.73,48.73,0,0,1-16.43,2.72c-16.94,0-30.68-7.81-30.68-17.45a10.69,10.69,0,0,1,.08-1.27l-.08,0v-6.68a9.69,9.69,0,0,1,.25-2.22c1.92-8.59,14.81-15.23,30.43-15.23s28.62,6.7,30.45,15.35a9.85,9.85,0,0,1,.22,2.1v7.92a7.67,7.67,0,0,1-.08,1.17,10.71,10.71,0,0,1-1.06,3.54L831.52,756a2.87,2.87,0,0,1,.48.28l.6.35a2.35,2.35,0,0,1,.86,3.22l-.15.24v98.18Z" transform="translate(-389.14 -536)" fill="url(#c)"/></svg>
