<svg width="332" height="274" viewBox="0 0 332 274" fill="none" xmlns="http://www.w3.org/2000/svg">
<path d="M35.1724 252.95C35.1724 249.708 35.1724 246.415 35.1724 243.173C35.7214 243.173 36.2705 243.123 36.8694 243.123C122.72 243.123 208.621 243.123 294.472 243.123C294.821 243.123 295.171 243.123 295.57 243.123C295.87 243.123 296.169 243.073 296.568 243.023C296.568 242.474 296.568 242.025 296.568 241.526C296.568 187.749 296.568 133.921 296.568 80.1431C296.568 79.6442 296.519 79.1952 296.519 78.6964C296.519 78.1975 296.568 77.7485 296.568 77.2496C296.568 67.422 296.568 57.6442 296.568 47.8165C296.568 45.1725 296.568 42.5784 296.568 39.9344C299.314 39.9344 302.059 39.9843 304.854 39.9843C305.303 39.9843 305.703 40.0342 306.152 40.0841C306.152 111.023 306.152 181.912 306.152 252.851C215.809 252.95 125.466 252.95 35.1724 252.95Z" fill="#00C3C3"/>
<g filter="url(#filter0_d)">
<path d="M296.518 30.6069C296.518 31.1057 296.568 31.5547 296.568 32.0536C296.568 85.8314 296.568 187.848 296.568 241.626C296.568 242.075 296.568 242.574 296.568 243.123C296.169 243.173 295.869 243.173 295.57 243.222C295.221 243.222 294.871 243.222 294.472 243.222C208.621 243.222 122.72 243.222 36.8693 243.222C36.3202 243.222 35.7712 243.222 35.1722 243.272C32.0277 243.272 28.8831 243.272 25.6887 243.272C25.6388 242.823 25.5889 242.524 25.5889 242.225C25.5889 241.875 25.5889 241.526 25.5889 241.127C25.5889 187.15 25.5889 84.9334 25.5889 30.9561C25.5889 30.8563 25.5889 30.7066 25.5889 30.6069C26.1379 30.6069 26.687 30.6069 27.2859 30.6069C116.431 30.6069 205.576 30.6069 294.721 30.6069C295.32 30.557 295.919 30.6069 296.518 30.6069ZM73.8551 107.93C72.5573 107.68 55.4869 107.73 54.6384 107.98C54.6384 114.315 54.6384 120.701 54.6384 127.086C61.0772 127.086 67.4661 127.086 73.8551 127.086C73.8551 120.601 73.8551 114.265 73.8551 107.93ZM122.271 127.036C122.271 120.551 122.271 114.216 122.271 107.78C115.832 107.78 109.493 107.78 103.154 107.78C102.905 109.127 102.955 126.139 103.204 127.036C109.493 127.036 115.832 127.036 122.271 127.036ZM151.42 107.78C151.42 114.265 151.42 120.601 151.42 126.987C157.859 126.987 164.198 126.987 170.587 126.987C170.837 125.54 170.787 108.578 170.537 107.78C164.198 107.78 157.859 107.78 151.42 107.78ZM219.053 107.88C217.605 107.631 200.635 107.68 199.836 107.93C199.836 114.265 199.836 120.651 199.836 126.987C206.275 126.987 212.664 126.987 219.053 126.987C219.053 120.601 219.053 114.216 219.053 107.88ZM248.252 107.83C248.252 114.315 248.252 120.701 248.252 127.036C254.691 127.036 261.08 127.036 267.469 127.036C267.469 120.601 267.469 114.265 267.469 107.83C261.03 107.83 254.641 107.83 248.252 107.83ZM73.905 146.542C67.4162 146.542 61.0772 146.542 54.6883 146.542C54.4388 148.288 54.4887 164.95 54.7882 165.748C57.4336 165.998 73.0065 165.848 73.905 165.599C73.905 159.313 73.905 152.978 73.905 146.542ZM103.004 146.492C103.004 152.978 103.004 159.313 103.004 165.649C104.502 165.898 121.422 165.848 122.221 165.599C122.221 159.213 122.221 152.878 122.221 146.492C115.832 146.492 109.493 146.492 103.004 146.492ZM170.587 165.748C170.837 164.451 170.787 147.39 170.537 146.542C164.148 146.542 157.809 146.542 151.42 146.542C151.42 152.978 151.42 159.313 151.42 165.748C157.859 165.748 164.248 165.748 170.587 165.748ZM199.786 165.748C206.275 165.748 212.614 165.748 218.953 165.748C219.203 164.352 219.153 147.34 218.903 146.542C212.514 146.542 206.175 146.542 199.736 146.542C199.786 152.978 199.786 159.313 199.786 165.748ZM267.469 165.748C267.718 162.955 267.619 147.39 267.369 146.542C260.98 146.542 254.641 146.542 248.252 146.542C248.252 152.978 248.252 159.313 248.252 165.748C254.641 165.748 261.03 165.748 267.469 165.748ZM73.8551 185.254C72.5074 184.955 55.437 185.005 54.6384 185.304C54.6384 191.64 54.6384 197.925 54.6384 204.361C61.0772 204.361 67.4162 204.361 73.8551 204.361C73.8551 197.975 73.8551 191.64 73.8551 185.254ZM122.271 185.104C120.075 185.104 117.929 185.104 115.782 185.104C113.686 185.104 111.54 185.104 109.443 185.104C107.297 185.154 105.201 184.955 103.054 185.204C103.054 191.69 103.054 197.975 103.054 204.361C109.493 204.361 115.832 204.361 122.271 204.361C122.271 197.975 122.271 191.64 122.271 185.104ZM151.42 185.254C151.42 191.59 151.42 197.975 151.42 204.361C157.859 204.361 164.248 204.361 170.637 204.361C170.637 197.925 170.637 191.59 170.637 185.254C169.339 185.005 152.369 185.005 151.42 185.254ZM219.053 185.104C216.857 185.104 214.71 185.104 212.564 185.104C210.468 185.104 208.322 185.104 206.225 185.104C204.079 185.104 201.933 185.055 199.836 185.154C199.836 191.64 199.836 197.975 199.836 204.311C201.184 204.61 218.254 204.51 219.103 204.261C219.053 197.925 219.053 191.59 219.053 185.104ZM248.202 185.304C248.202 191.64 248.202 198.025 248.202 204.411C254.641 204.411 260.98 204.411 267.419 204.411C267.419 197.975 267.419 191.64 267.419 185.304C266.371 185.005 249.201 185.005 248.202 185.304Z" fill="#80FFD5"/>
</g>
<g filter="url(#filter1_d)">
<path d="M296.518 78.7961C295.919 78.7961 295.32 78.7961 294.721 78.7961C205.576 78.7961 116.431 78.7961 27.2858 78.7961C26.7367 78.7961 26.1877 78.7961 25.5887 78.7961C25.5887 78.3471 25.5388 77.8981 25.5388 77.4991C25.5388 62.3335 25.5388 47.2179 25.5388 32.0523C25.5388 31.6034 25.5388 31.1045 25.5388 30.5059C38.4664 30.5059 51.2941 30.5059 64.1717 30.5059C64.1717 36.143 64.1717 41.7303 64.2216 47.3675C64.2216 48.2156 64.2716 49.0138 64.2716 49.8619C64.2716 53.0047 64.2716 56.1476 64.2716 59.2904C65.17 59.5399 91.075 59.6396 93.2712 59.3902C93.2712 58.9412 93.3211 58.4923 93.3211 58.0433C93.3211 49.4129 93.3211 40.7326 93.3211 32.1022C93.3211 31.6034 93.371 31.0546 93.371 30.5557C93.9201 30.5557 94.4691 30.5557 95.0681 30.5557C139.641 30.5557 184.213 30.5557 228.786 30.5557C228.786 36.4923 228.786 42.4288 228.786 48.3653C228.786 48.8641 228.836 49.4129 228.836 49.9118C228.836 53.0546 228.836 56.1975 228.836 59.2904C229.734 59.5399 256.039 59.6396 257.786 59.3902C257.786 58.9412 257.786 58.4923 257.786 58.0433C257.786 49.363 257.786 40.6827 257.786 32.0025C257.786 31.5036 257.835 31.0546 257.885 30.5557C270.713 30.5557 283.541 30.5557 296.518 30.5557C296.518 33.8483 296.568 36.9911 296.568 40.1839C296.568 42.8279 296.568 45.422 296.568 48.066C296.568 57.8936 296.568 67.6714 296.568 77.4991C296.518 77.7984 296.518 78.2972 296.518 78.7961Z" fill="#00C3C3"/>
</g>
<path d="M73.8551 107.93C73.8551 114.266 73.8551 120.601 73.8551 127.036C67.4162 127.036 61.0772 127.036 54.6384 127.036C54.6384 120.651 54.6384 114.315 54.6384 107.93C55.487 107.68 72.5573 107.631 73.8551 107.93Z" fill="#00C3C3"/>
<g filter="url(#filter2_d)">
<path d="M122.271 127.036C115.832 127.036 109.493 127.036 103.204 127.036C102.955 126.188 102.905 109.127 103.154 107.78C109.493 107.78 115.832 107.78 122.271 107.78C122.271 114.216 122.271 120.551 122.271 127.036Z" fill="white"/>
</g>
<path d="M151.421 107.78C157.859 107.78 164.198 107.78 170.487 107.78C170.737 108.628 170.837 125.54 170.537 126.987C164.198 126.987 157.809 126.987 151.371 126.987C151.421 120.651 151.421 114.265 151.421 107.78Z" fill="#00C3C3"/>
<path d="M219.052 107.88C219.052 114.216 219.052 120.551 219.052 126.987C212.663 126.987 206.274 126.987 199.835 126.987C199.835 120.651 199.835 114.265 199.835 107.93C200.634 107.68 217.605 107.631 219.052 107.88Z" fill="#00C3C3"/>
<path d="M248.252 107.83C254.691 107.83 261.03 107.83 267.469 107.83C267.469 114.266 267.469 120.601 267.469 127.036C261.08 127.036 254.691 127.036 248.252 127.036C248.252 120.651 248.252 114.315 248.252 107.83Z" fill="#00C3C3"/>
<path d="M73.9046 146.542C73.9046 152.978 73.9046 159.313 73.9046 165.599C73.0062 165.848 57.4333 165.948 54.7878 165.749C54.5383 164.95 54.4384 148.288 54.688 146.542C61.027 146.542 67.4159 146.542 73.9046 146.542Z" fill="#00C3C3"/>
<path d="M103.004 146.492C109.443 146.492 115.782 146.492 122.221 146.492C122.221 152.878 122.221 159.263 122.221 165.599C121.422 165.848 104.501 165.898 103.004 165.649C103.004 159.313 103.004 152.978 103.004 146.492Z" fill="#00C3C3"/>
<path d="M170.587 165.749C164.248 165.749 157.859 165.749 151.42 165.749C151.42 159.313 151.42 152.978 151.42 146.542C157.809 146.542 164.148 146.542 170.537 146.542C170.786 147.39 170.836 164.451 170.587 165.749Z" fill="#00C3C3"/>
<path d="M199.787 165.749C199.787 159.313 199.787 152.978 199.787 146.542C206.176 146.542 212.564 146.542 218.953 146.542C219.203 147.34 219.253 164.352 219.003 165.749C212.614 165.749 206.275 165.749 199.787 165.749Z" fill="#00C3C3"/>
<path d="M267.469 165.749C261.03 165.749 254.691 165.749 248.252 165.749C248.252 159.313 248.252 152.978 248.252 146.542C254.641 146.542 261.03 146.542 267.369 146.542C267.569 147.39 267.669 162.955 267.469 165.749Z" fill="#00C3C3"/>
<path d="M73.8551 185.254C73.8551 191.64 73.8551 197.975 73.8551 204.361C67.4162 204.361 61.0772 204.361 54.6384 204.361C54.6384 197.975 54.6384 191.64 54.6384 185.304C55.437 185.005 72.5074 184.955 73.8551 185.254Z" fill="#00C3C3"/>
<path d="M122.271 185.105C122.271 191.69 122.271 198.025 122.271 204.411C115.832 204.411 109.493 204.411 103.054 204.411C103.054 198.025 103.054 191.69 103.054 185.254C105.151 185.005 107.297 185.154 109.443 185.154C111.539 185.105 113.686 185.154 115.782 185.154C117.878 185.105 120.025 185.105 122.271 185.105Z" fill="#00C3C3"/>
<path d="M151.42 185.254C152.368 185.005 169.339 184.955 170.637 185.204C170.637 191.54 170.637 197.876 170.637 204.311C164.248 204.311 157.859 204.311 151.42 204.311C151.42 197.975 151.42 191.64 151.42 185.254Z" fill="#00C3C3"/>
<path d="M219.053 185.105C219.053 191.59 219.053 197.925 219.053 204.261C218.205 204.56 201.184 204.61 199.787 204.311C199.787 197.975 199.787 191.69 199.787 185.154C201.933 185.005 204.079 185.105 206.176 185.105C208.272 185.105 210.418 185.105 212.515 185.105C214.711 185.105 216.857 185.105 219.053 185.105Z" fill="#00C3C3"/>
<path d="M248.202 185.304C249.151 185.055 266.371 185.005 267.419 185.304C267.419 191.64 267.419 197.975 267.419 204.411C260.98 204.411 254.641 204.411 248.202 204.411C248.202 197.975 248.202 191.64 248.202 185.304Z" fill="#00C3C3"/>
<g filter="url(#filter3_d)">
<path d="M64.222 49.7619L64.1514 11H83.5384C86.7329 11 89.9273 11 93.1218 11C93.1717 11.449 93.2216 11.9478 93.2216 12.3968C93.2216 17.9841 93.2216 23.5215 93.2216 29.1088C93.2216 29.5578 93.3214 29.9569 93.3214 30.4059C93.3214 30.9048 93.2715 31.4535 93.2715 31.9524C93.2715 40.5828 93.2715 49.263 93.2715 57.8934C93.2715 58.3424 93.2216 58.7914 93.2216 59.2404C91.0254 59.4898 65.1204 59.39 64.222 59.1406C64.222 56.0476 64.222 52.9048 64.222 49.7619Z" fill="#80FFD5"/>
<path d="M228.786 49.7621L228.737 10.9503C228.737 10.9503 254.492 10.9503 257.686 10.9503C257.686 11.4492 257.736 11.8982 257.736 12.397C257.736 17.9344 257.736 23.5217 257.736 29.0592C257.736 29.5081 257.786 29.9072 257.786 30.3562C257.736 30.8551 257.686 31.3041 257.686 31.8029C257.686 40.4832 257.686 49.1635 257.686 57.8437C257.686 58.2927 257.686 58.7916 257.686 59.1907C255.939 59.4401 229.585 59.3902 228.736 59.0909C228.786 56.0478 228.786 52.905 228.786 49.7621Z" fill="#80FFD5"/>
<path d="M228.798 35.0948C228.798 27.0426 228.798 19.0524 228.798 11.0002C232.153 11.0002 235.483 11.0002 238.838 11.0002C238.838 26.4232 238.838 41.7843 238.838 57.2074C238.838 57.6409 238.838 58.0745 238.838 58.57C238.838 58.6939 238.838 58.7559 238.812 58.8797C238.812 58.9417 238.786 58.9417 238.786 59.0036C238.76 59.0656 238.76 59.0656 238.709 59.1894C235.457 59.1894 232.153 59.1894 228.85 59.1894C228.85 58.57 228.824 57.8887 228.824 57.2693C228.798 49.8365 228.798 42.4657 228.798 35.0948Z" fill="white"/>
<path d="M64.1514 35.1256C64.1514 27.0631 64.1514 19.0625 64.1514 11C67.5064 11 70.8357 11 74.1908 11C74.1908 26.691 74.1908 42.4439 74.1908 58.1349C74.1908 58.445 74.165 58.7551 74.1392 59.1892C70.8099 59.1892 67.5064 59.1892 64.203 59.1892C64.203 58.1349 64.1772 57.1426 64.1772 56.0882C64.1772 49.08 64.1772 42.1338 64.1514 35.1256Z" fill="white"/>
</g>
<defs>
<filter id="filter0_d" x="0.588867" y="0.584686" width="330.979" height="272.688" filterUnits="userSpaceOnUse" color-interpolation-filters="sRGB">
<feFlood flood-opacity="0" result="BackgroundImageFix"/>
<feColorMatrix in="SourceAlpha" type="matrix" values="0 0 0 0 0 0 0 0 0 0 0 0 0 0 0 0 0 0 127 0" result="hardAlpha"/>
<feOffset dx="5"/>
<feGaussianBlur stdDeviation="15"/>
<feColorMatrix type="matrix" values="0 0 0 0 0 0 0 0 0 0 0 0 0 0 0 0 0 0 0.25 0"/>
<feBlend mode="normal" in2="BackgroundImageFix" result="effect1_dropShadow"/>
<feBlend mode="normal" in="SourceGraphic" in2="effect1_dropShadow" result="shape"/>
</filter>
<filter id="filter1_d" x="21.5388" y="28.5059" width="279.029" height="56.2902" filterUnits="userSpaceOnUse" color-interpolation-filters="sRGB">
<feFlood flood-opacity="0" result="BackgroundImageFix"/>
<feColorMatrix in="SourceAlpha" type="matrix" values="0 0 0 0 0 0 0 0 0 0 0 0 0 0 0 0 0 0 127 0" result="hardAlpha"/>
<feOffset dy="2"/>
<feGaussianBlur stdDeviation="2"/>
<feColorMatrix type="matrix" values="0 0 0 0 0 0 0 0 0 0 0 0 0 0 0 0 0 0 0.25 0"/>
<feBlend mode="normal" in2="BackgroundImageFix" result="effect1_dropShadow"/>
<feBlend mode="normal" in="SourceGraphic" in2="effect1_dropShadow" result="shape"/>
</filter>
<filter id="filter2_d" x="94.9902" y="101.78" width="35.2809" height="35.2562" filterUnits="userSpaceOnUse" color-interpolation-filters="sRGB">
<feFlood flood-opacity="0" result="BackgroundImageFix"/>
<feColorMatrix in="SourceAlpha" type="matrix" values="0 0 0 0 0 0 0 0 0 0 0 0 0 0 0 0 0 0 127 0" result="hardAlpha"/>
<feOffset dy="2"/>
<feGaussianBlur stdDeviation="4"/>
<feColorMatrix type="matrix" values="0 0 0 0 0 0 0 0 0 0 0 0 0 0 0 0 0 0 0.25 0"/>
<feBlend mode="normal" in2="BackgroundImageFix" result="effect1_dropShadow"/>
<feBlend mode="normal" in="SourceGraphic" in2="effect1_dropShadow" result="shape"/>
</filter>
<filter id="filter3_d" x="62.1514" y="10.9503" width="201.635" height="56.4345" filterUnits="userSpaceOnUse" color-interpolation-filters="sRGB">
<feFlood flood-opacity="0" result="BackgroundImageFix"/>
<feColorMatrix in="SourceAlpha" type="matrix" values="0 0 0 0 0 0 0 0 0 0 0 0 0 0 0 0 0 0 127 0" result="hardAlpha"/>
<feOffset dx="2" dy="4"/>
<feGaussianBlur stdDeviation="2"/>
<feColorMatrix type="matrix" values="0 0 0 0 0 0 0 0 0 0 0 0 0 0 0 0 0 0 0.25 0"/>
<feBlend mode="normal" in2="BackgroundImageFix" result="effect1_dropShadow"/>
<feBlend mode="normal" in="SourceGraphic" in2="effect1_dropShadow" result="shape"/>
</filter>
</defs>
</svg>
