<svg xmlns="http://www.w3.org/2000/svg" xmlns:xlink="http://www.w3.org/1999/xlink" viewBox="0 -5 415.51 683.19"><defs><linearGradient id="a" x1="507.65" x2="758.54" y1="518.5" y2="663.34" gradientTransform="matrix(1, 0, 0, -1, 0, 1366)" gradientUnits="userSpaceOnUse"><stop offset="0" stop-color="#4740af"/><stop offset=".13" stop-color="#495abd"/><stop offset=".4" stop-color="#4b86d7"/><stop offset=".63" stop-color="#4da7e9"/><stop offset=".83" stop-color="#4fbbf4"/><stop offset=".96" stop-color="#4fc2f8"/></linearGradient><linearGradient id="b" x1="801.04" x2="513.12" y1="963.9" y2="963.9" gradientTransform="matrix(1, 0, 0, -1, 0, 1366)" gradientUnits="userSpaceOnUse"><stop offset="0" stop-color="#4740af"/><stop offset=".22" stop-color="#4555bd"/><stop offset=".68" stop-color="#418ae0"/><stop offset=".93" stop-color="#3fa9f5"/></linearGradient><linearGradient id="c" x1="576.99" x2="749.77" y1="960.92" y2="960.92" gradientTransform="matrix(1, 0, 0, -1, 0, 1366)" gradientUnits="userSpaceOnUse"><stop offset="0" stop-color="#56e864"/><stop offset=".17" stop-color="#42e377"/><stop offset=".53" stop-color="#1edb99"/><stop offset=".81" stop-color="#08d6ae"/><stop offset="1" stop-color="#00d4b6"/></linearGradient></defs><title>5</title><g style="isolation:isolate"><path fill="#4740af" stroke="#4740af" stroke-miterlimit="10" d="M547.27,828.16l35.24-20.48c-8.27,4.8-17,13.29-25.89,28.34L521.38,856.5C530.24,841.45,539,833,547.27,828.16Z" transform="translate(-454.92 -226)"/><path fill="#4740af" stroke="#4740af" stroke-miterlimit="10" d="M505.75,663.18,541,642.7A29,29,0,0,1,547.3,640c12.76-3.9,24.74-.84,27.72,0,5.92,1.63,14.44,6.12,31.22,15s16.48,9.39,24.12,12.93c10.93,5.06,18.85,7.43,29.82,10.7,14.73,4.4,22.1,6.61,32,7.94l2.44.31,2.25.24.94.09,1.08.1,1.08.09,1.05.09,1.37.11.92.08,1,.08,1.64.17c1.12.13,1.52.19,1.92.25.76.11,1.24.2,1.73.3.74.16,1.08.24,1.42.33l-35.24,20.48c-.34-.09-.68-.16-1.42-.33-.48-.1-1-.18-1.73-.3-.4-.06-.8-.12-1.92-.25l-1.64-.17-1-.08-.92-.08-1.37-.11-1-.09-1.08-.09-1.08-.1-.94-.09-2.25-.24c-.78-.09-1.59-.19-2.44-.31-9.86-1.34-17.23-3.54-32-7.94-11-3.27-18.88-5.64-29.82-10.7-7.64-3.54-7.49-4.1-24.12-12.93-16.79-8.91-25.3-13.39-31.22-15-3-.82-14.95-3.88-27.72,0A29.25,29.25,0,0,0,505.75,663.18Z" transform="translate(-454.92 -226)"/><path fill="#4740af" stroke="#4740af" stroke-miterlimit="10" d="M731.09,755l-35.24,20.48a20.16,20.16,0,0,0,5.28-4.37,23.87,23.87,0,0,0,6.08-15c.43-10.86-4.5-21.46-5.26-23.06a46.16,46.16,0,0,0-16.65-19.13c-.56-.39-1.11-.75-2.15-1.4-.35-.21-.69-.42-7.48-3.25l35.24-20.48c6.79,2.83,7.13,3,7.48,3.25,1,.65,1.59,1,2.15,1.4a46.16,46.16,0,0,1,16.65,19.13c.76,1.6,5.7,12.2,5.26,23.06a23.83,23.83,0,0,1-6.08,15A20.16,20.16,0,0,1,731.09,755Z" transform="translate(-454.92 -226)"/><path fill="#4740af" stroke="#4740af" stroke-miterlimit="10" d="M626.89,765.88l35.24-20.48c-2.48,1.44,9.07,14.68,20.53,25.3.67.62,1.37,1.27,2.1,1.93,1.49,1.36,2.25,2,3,2.76l2.81,2.46c1.57,1.34,2.44,2.06,3.34,2.79,1.3,1.06,2.32,1.86,3.36,2.65,1.75,1.32,2.72,2,3.71,2.74,1.56,1.1,2.7,1.87,3.87,2.63,1.92,1.22,3,1.86,4,2.48,1.23.72,1.78,1,2.32,1.31s.89.5,1.35.74,1.18.6,1.78.9l1.26.63c.66.32,1.34.61,2,.91l1.15.52q1.59.68,3.24,1.29c13.17,4.9,22.7,4.2,30.55,3.61,5.28-.39,3.34-.81,26.66-5.63,4.32-.89,10.71-1.92,23.46-4,11.44-1.85,13.28-2,16.71-.87l-35.24,20.48c-3.43-1.14-5.27-1-16.71.87-12.76,2.06-19.14,3.09-23.46,4-23.32,4.82-21.39,5.24-26.66,5.63-7.84.59-17.38,1.28-30.55-3.61q-1.63-.61-3.24-1.29c-.39-.16-.76-.34-1.15-.52l-2-.91c-.43-.2-.84-.42-1.26-.63-.6-.3-1.2-.59-1.78-.9s-.9-.49-1.35-.74-1.09-.59-2.32-1.31c-1.06-.62-2.09-1.25-4-2.48-1.17-.76-2.31-1.53-3.87-2.63-1-.7-2-1.41-3.71-2.74-1-.8-2.06-1.59-3.36-2.65-.9-.73-1.77-1.46-3.34-2.79-.9-.77-1.78-1.54-2.81-2.46-.8-.71-1.57-1.41-3.05-2.76l-2.1-1.93C636,780.56,624.42,767.32,626.89,765.88Z" transform="translate(-454.92 -226)"/><path fill="#4740af" stroke="#4740af" stroke-miterlimit="10" d="M784.16,811l35.24-20.48c4.71,2.11,5.12,2.34,5.56,2.59s.9.54,1.36.83c.73.47,1.21.78,1.71,1.13.7.49,1.17.84,1.65,1.2.76.58,1.29,1,1.84,1.46.91.77,1.48,1.27,2.05,1.8s1.17,1.11,1.74,1.69c.94,1,1.52,1.58,2.1,2.23.84,1,1.37,1.58,1.9,2.24.87,1.07,1.45,1.84,2,2.64,1,1.35,1.57,2.21,2.16,3.12L808.26,832c-.59-.91-1.18-1.76-2.16-3.12-.58-.8-1.16-1.56-2-2.64-.53-.66-1.07-1.29-1.9-2.24-.58-.65-1.16-1.26-2.1-2.23-.57-.58-1.15-1.14-1.74-1.69s-1.14-1-2.05-1.8c-.54-.45-1.08-.88-1.84-1.46-.48-.36-1-.71-1.65-1.2-.5-.34-1-.66-1.71-1.13-.46-.29-.91-.57-1.36-.83S788.86,813.15,784.16,811Z" transform="translate(-454.92 -226)"/><path fill="#4740af" stroke="#4740af" stroke-miterlimit="10" d="M827,847.75l-35.24,20.48c11.65-6.77,23.13-15.49,22.93-20.46-.24-5.75-4.21-11.86-7.41-16.8l35.24-20.48c3.21,4.94,7.18,11,7.42,16.8C850.12,832.26,838.64,841,827,847.75Z" transform="translate(-454.92 -226)"/><path fill="url(#a)" d="M809.26,831c3.21,4.94,7.18,11,7.41,16.8.28,6.85-21.65,20.83-35.61,27-10.52,4.64-20.07,7-31.3,9-26.38,4.61-39.57,6.92-54.73,4.45-1.42-.23-2.82-.5-4.22-.78l-1.33-.29c-1-.21-1.9-.42-2.85-.65l-1.49-.38c-.9-.23-1.8-.48-2.69-.73l-1.39-.4c-1-.29-2-.6-2.95-.92l-1.05-.34c-1.31-.44-2.62-.9-3.91-1.37-1.75-.66-2.81-1.07-3.86-1.49l-1.25-.51c-.87-.36-1.74-.72-2.6-1.1l-1.3-.57-2.53-1.15-1.24-.58-2.88-1.39c-2-1-3.14-1.57-4.32-2.18l-1.07-.57-2.52-1.34-1.24-.68-2.29-1.26-1.32-.74-2.34-1.33-1.06-.61-1.19-.69-3.75-2.19-1.29-.76-4.33-2.57c-.93-.55-1.83-1.1-2.72-1.64l-2.7-1.66c-1.56-1-2.31-1.45-3-1.92-1-.63-1.77-1.13-2.54-1.64l-2.24-1.48-2.39-1.61L612.78,849,611,847.75l-2-1.42c-1-.72-1.54-1.12-2.06-1.51l-1.59-1.19-1.62-1.23-2.7-2.07-4.8-3.71-1.13-.86c-1.91-1.43-2.29-1.71-2.68-2L591.3,833c-1.74-1.18-2.12-1.42-2.49-1.66l-1.07-.66c-1.49-.86-2.14-1.21-2.81-1.55-1-.5-1.71-.83-2.42-1.13-1-.42-1.75-.71-2.53-1-1-.35-1.88-.61-2.76-.85-14.56-4-35-1.88-55.87,31.32l-66.43-131a330.05,330.05,0,0,1,28.54-41.59c16-19.78,23.4-23.6,29.57-25.48,12.76-3.9,24.74-.84,27.72,0,5.92,1.63,14.44,6.12,31.22,15s16.48,9.39,24.12,12.93c10.93,5.06,18.85,7.43,29.82,10.7,14.73,4.4,22.1,6.61,32,7.94l2.44.31,2.25.24.94.09,1.08.1,1.08.09,1.05.09,1.37.11.92.08,1,.08,1.64.17c1.12.13,1.52.19,1.92.25.76.11,1.24.2,1.73.3.74.16,1.08.24,1.42.33,6.79,2.83,7.13,3,7.48,3.25,1,.65,1.59,1,2.15,1.4A46.16,46.16,0,0,1,702.94,732c.76,1.6,5.7,12.2,5.26,23.06a23.83,23.83,0,0,1-6.08,15c-2.5,2.88-7.62,7.65-22.41,9.08-11.62,1.14-22.15,2.17-36.58-5.1-.63-.32-1.25-.64-1.86-1l-1.78-1c-1.09-.64-1.67-1-2.23-1.33-1.15-.71-1.8-1.13-2.42-1.54s-1.29-.86-1.83-1.23c-1-.65-1.49-1-2-1.39l-1.7-1.21-1-.69c-4.08.26,8,14.29,20.06,25.42.67.62,1.37,1.27,2.1,1.93,1.49,1.36,2.25,2,3,2.76l2.81,2.46c1.57,1.34,2.44,2.06,3.34,2.79,1.3,1.06,2.32,1.86,3.36,2.65,1.75,1.32,2.72,2,3.71,2.74,1.56,1.1,2.7,1.87,3.87,2.63,1.92,1.22,3,1.86,4,2.48,1.23.72,1.78,1,2.32,1.31s.89.5,1.35.74,1.18.6,1.78.9l1.26.63c.66.32,1.34.61,2,.91l1.15.52q1.59.67,3.24,1.29c13.17,4.9,22.7,4.2,30.55,3.61,5.28-.39,3.34-.81,26.66-5.63,4.32-.89,10.71-1.92,23.46-4,11.44-1.85,13.28-2,16.71-.87,4.71,2.11,5.12,2.34,5.56,2.59s.9.54,1.36.83c.73.47,1.21.78,1.71,1.13.7.49,1.17.84,1.65,1.2.76.58,1.29,1,1.84,1.46.91.77,1.48,1.27,2.05,1.8s1.17,1.11,1.74,1.69c.94,1,1.52,1.58,2.1,2.23.84,1,1.37,1.58,1.9,2.24.87,1.07,1.45,1.84,2,2.64C808.07,829.2,808.67,830.06,809.26,831Z" transform="translate(-454.92 -226)"/></g><path fill="#04bea8" d="M702.48,548.32a120.07,120.07,0,0,0,22.41-3.42,118.68,118.68,0,0,0,19.72-6.84l-17.93-2.56Z" transform="translate(-454.92 -226)"/><path fill="url(#b)" d="M767,446.58a131.89,131.89,0,0,0-26.89-46.17,140.77,140.77,0,0,0-39.44-30.78l.9-70.11a43.68,43.68,0,0,1,17.93,18.81,40.88,40.88,0,0,1,3.59,23.94l17.62,6.44-1.49,10.66,1.79,4.27,24.2-6A85.69,85.69,0,0,0,759,312.35c-6.44-14.66-15.54-23.79-25.1-33.34a67.85,67.85,0,0,0-15.24-12,65.93,65.93,0,0,0-17.93-6.84V236.26L675.58,226l-24.2,6,24.2,13.4v4.55a52.5,52.5,0,0,0-22.41-4.27,55.21,55.21,0,0,0-9.8,1.05,94.06,94.06,0,0,0-14.4,2.37,92.65,92.65,0,0,0-25.1,10.26,81.6,81.6,0,0,0,21.24-3.25c-5.75,5.64-8.6,12.62-11.38,19.49a83.4,83.4,0,0,0-5.38,38.47c1.47,16.12,7.06,27.44,11.65,36.76,4.16,8.44,10.65,21.31,24.2,34.2a112.53,112.53,0,0,0,32.27,21.37l-.9,81.22A65.85,65.85,0,0,1,655,462a62.36,62.36,0,0,1-5.38-26.5l-48.4-13.68-24.2,6,27.29,9.19a180.65,180.65,0,0,0,10.35,30.14c9.84,22,20.92,34.9,23.3,37.62,8.27,9.43,14.86,14.18,17.93,16.24a88.36,88.36,0,0,0,20.61,10.26v31.63l.2.07.7,15.31,24.2-6V538.89c3.33,1.23,26.32,9.32,46.61-2.56,16.18-9.48,20.58-25.79,23.3-35.91C777.43,478.41,771.4,460,767,446.58Zm-94.55-91.91c-3.38-2.26-10-4.38-14.34-10.26-2.66-3.63-12.55-13.22-12.55-25.65,0-4.27-1-20.06,6.27-28.21,5.7-6.39,16.13-3.42,22.41-3.42C673.65,309.93,673.05,331.87,672.46,354.67ZM733.4,476.08c-.67,4.9-1.89,13.79-9,17.95-4.28,2.52-12.13,2.57-13.44,2.56A24.3,24.3,0,0,1,700.24,494l.9-72.67a66.21,66.21,0,0,1,19.72,18.81C723.83,444.56,735.79,458.66,733.4,476.08Z" transform="translate(-454.92 -226)"/><path fill="url(#c)" d="M742.81,452.54a131.89,131.89,0,0,0-26.89-46.17,140.77,140.77,0,0,0-39.44-30.78l.9-70.11a43.68,43.68,0,0,1,17.93,18.81,40.88,40.88,0,0,1,3.59,23.94L741,363.62a85.69,85.69,0,0,0-6.27-45.31c-6.44-14.66-15.54-23.79-25.1-33.34a67.85,67.85,0,0,0-15.24-12,65.93,65.93,0,0,0-17.93-6.84V242.22L651.39,232V255.9A52.5,52.5,0,0,0,629,251.63c-4.44.14-13.67.54-22.41,6-9.8,6.11-13.45,15.11-17,23.94A83.4,83.4,0,0,0,584.16,320c1.47,16.12,7.06,27.44,11.65,36.76,4.16,8.44,10.65,21.31,24.2,34.2a112.53,112.53,0,0,0,32.27,21.37l-.9,81.22a65.85,65.85,0,0,1-20.61-25.65,62.36,62.36,0,0,1-5.38-26.5L577,427.74a181.05,181.05,0,0,0,13.44,45.31c9.84,22,20.92,34.9,23.3,37.62,8.27,9.43,14.86,14.18,17.93,16.24a88.17,88.17,0,0,0,20.61,10.26V568.8l25.1,9.4V544.86c3.33,1.23,26.32,9.32,46.61-2.56,16.18-9.48,20.58-25.79,23.3-35.91C753.23,484.37,747.2,465.93,742.81,452.54Zm-94.55-91.91c-3.38-2.26-10-4.38-14.34-10.26-2.66-3.63-12.55-13.22-12.55-25.65,0-4.27-1-20.06,6.27-28.21,5.7-6.39,16.13-3.42,22.41-3.42C649.45,315.89,648.85,337.83,648.26,360.63ZM709.2,482c-.67,4.9-1.89,13.79-9,17.95-4.28,2.52-12.13,2.57-13.44,2.56A24.3,24.3,0,0,1,676,500l.9-72.67a66.21,66.21,0,0,1,19.72,18.81C699.63,450.52,711.59,464.62,709.2,482Z" transform="translate(-454.92 -226)"/></svg>