<svg xmlns="http://www.w3.org/2000/svg" xmlns:xlink="http://www.w3.org/1999/xlink" viewBox="-50 -30 485.34 560.4"><defs><linearGradient id="a" x1="583.91" x2="810.89" y1="679.77" y2="679.77" gradientTransform="matrix(1, 0, 0, -1, 0, 1366)" gradientUnits="userSpaceOnUse"><stop offset="0" stop-color="#56e864"/><stop offset="1" stop-color="#fff550"/></linearGradient><linearGradient id="b" x1="628.39" x2="982.65" y1="879.57" y2="675.71" gradientTransform="translate(1494.26 1366) rotate(180)" gradientUnits="userSpaceOnUse"><stop offset="0" stop-color="#4286f3"/><stop offset="1" stop-color="#4740af"/></linearGradient><linearGradient id="c" x1="669.39" x2="853.47" y1="694.97" y2="585.01" gradientTransform="matrix(1, 0, 0, -1, 0, 1366)" gradientUnits="userSpaceOnUse"><stop offset="0" stop-color="#56e864"/><stop offset=".13" stop-color="#64e962"/><stop offset=".37" stop-color="#89ec5e"/><stop offset=".7" stop-color="#c4f057"/><stop offset="1" stop-color="#fff550"/></linearGradient></defs><title>11</title><g style="isolation:isolate"><path fill="#56e864" d="M744.71,763.63l-35.24,20.48c-6.2,3.6-10.2,10.45-10.76,18.81-.57,8.57,2.22,18.29,8.28,28.9a100.14,100.14,0,0,0,36.06,36.25c2,1.16,3.5,1.91,4.28,2.28l35.24-20.48c-.78-.37-2.27-1.12-4.28-2.28a100,100,0,0,1-36.06-36.25c-6.06-10.61-8.85-20.33-8.28-28.9C734.51,774.08,738.51,767.24,744.71,763.63Z" transform="translate(-524.46 -352.37)"/><path fill="#56e864" d="M763.1,816.2l-35.24,20.48.18.3,35.24-20.48Z" transform="translate(-524.46 -352.37)"/><path fill="#56e864" d="M765.55,820.09c-.83-1.23-1.59-2.42-2.27-3.59L728,837c.69,1.16,1.45,2.36,2.27,3.59h0c1.93,2.86,3.71,5.63,5.33,8.27l35.24-20.48C769.26,825.73,767.48,823,765.55,820.09Z" transform="translate(-524.46 -352.37)"/><path fill="#56e864" d="M782.57,849.87a213.57,213.57,0,0,0-11.69-21.51l-35.24,20.48a212.42,212.42,0,0,1,11.69,21.51Z" transform="translate(-524.46 -352.37)"/><path fill="#56e864" d="M763.1,816.2a37.16,37.16,0,0,1-4.25-9.89l-35.24,20.48a37.63,37.63,0,0,0,4.25,9.89Z" transform="translate(-524.46 -352.37)"/><path fill="#56e864" d="M758.34,802.89h0a12.2,12.2,0,0,1,.24-3.12l-35.24,20.48a13.17,13.17,0,0,0-.24,3.12,15.7,15.7,0,0,0,.23,2.09L758.57,805A17.55,17.55,0,0,1,758.34,802.89Z" transform="translate(-524.46 -352.37)"/><path fill="#04bea8" d="M748,871.49,783.25,851c.19-.63-5.93-14.52-17.25-31.3-4.42-6.55-6.76-12.09-6.94-16.46l-35.24,20.48c.19,4.37,2.52,9.91,6.94,16.46C742.08,857,748.2,870.86,748,871.49Z" transform="translate(-524.46 -352.37)"/><path fill="#4740af" d="M758.57,805a17.55,17.55,0,0,1-.23-2.09c0-.17,0-.35,0-.52l1-.58,13.78,13.07-35.24,20.48-12-11.37Z" transform="translate(-524.46 -352.37)"/><path fill="#56e864" d="M723.94,825.1c.06.44.14.9.24,1.36l-.57.33c-.11-.46-.2-.9-.28-1.34Z" transform="translate(-524.46 -352.37)"/><path fill="#56e864" d="M758.72,801.68l-35.24,20.48c.07.38.17.88.33,1.57l35.24-20.48C758.89,802.56,758.79,802.07,758.72,801.68Z" transform="translate(-524.46 -352.37)"/><path fill="#56e864" d="M758.72,801.68a7.43,7.43,0,0,1-.13-1.4l-35.24,20.48a7.57,7.57,0,0,0,.13,1.4Z" transform="translate(-524.46 -352.37)"/><path fill="#56e864" d="M723.34,820.25l35.24-20.48c0-1.4-.06-3.8-.1-7.92l-35.24,20.48C723.28,816.45,723.32,818.85,723.34,820.25Z" transform="translate(-524.46 -352.37)"/><path fill="#4740af" d="M724.09,822.27l35.24-20.48c0-.24,0-.69,0-1.54,0-.62,0-1.45,0-2.56,0-1.3,0-3-.06-5.17L724,813c0,2.19,0,3.87.06,5.17,0,1.11,0,2,0,2.56C724.07,821.58,724.08,822,724.09,822.27Z" transform="translate(-524.46 -352.37)"/><path fill="#4740af" d="M738.45,836.58l35.24-20.48s.08-.12.1-.32l-35.24,20.48C738.53,836.46,738.5,836.55,738.45,836.58Z" transform="translate(-524.46 -352.37)"/><polygon fill="#bfbfbf" points="204.07 460.89 239.31 440.41 234.73 440.14 199.49 460.62 204.07 460.89"/><path fill="#bfbfbf" d="M764.56,793.46l-35.24,20.48a10.29,10.29,0,0,0-5.27,6.79l35.24-20.48A10.32,10.32,0,0,1,764.56,793.46Z" transform="translate(-524.46 -352.37)"/><polygon fill="#bfbfbf" points="205.95 461 241.19 440.52 239.31 440.41 204.07 460.89 205.95 461"/><polygon fill="#4740af" points="205.56 460.08 240.8 439.6 234.01 439.21 198.77 459.69 205.56 460.08"/><path fill="#bfbfbf" d="M729.32,813.94a11.82,11.82,0,0,0-3.75,3.31l-1.56.91a11.05,11.05,0,0,1,4.52-4.91l1.79.1Z" transform="translate(-524.46 -352.37)"/><polygon fill="#bfbfbf" points="206.6 461.04 241.84 440.56 241.19 440.52 205.95 461 206.6 461.04"/><polygon fill="#4740af" points="206.96 460.54 242.2 440.06 241.88 439.67 206.64 460.15 206.96 460.54"/><path fill="#bfbfbf" d="M764.56,793.46l-35.24,20.48.39-.22c.22-.12.45-.24.69-.35l35.24-20.48-.69.35Z" transform="translate(-524.46 -352.37)"/><path fill="#bfbfbf" d="M730.41,813.37l-1.88-.11a11.05,11.05,0,0,0-4.52,4.91c0,1.11,0,2,0,2.56a10.46,10.46,0,0,1,5.66-7Z" transform="translate(-524.46 -352.37)"/><polygon fill="#4740af" points="206.64 460.15 241.88 439.67 240.8 439.6 205.56 460.08 206.64 460.15"/><path fill="#56e864" d="M765.26,792h0L730,812.45h0Z" transform="translate(-524.46 -352.37)"/><polygon fill="#bfbfbf" points="213.45 469.55 248.69 449.07 241.84 440.56 206.6 461.04 213.45 469.55"/><polygon fill="#4740af" points="214.16 469.72 249.4 449.24 249.4 449.01 214.16 469.49 214.16 469.72"/><polygon fill="#4740af" points="214.16 469.49 249.4 449.01 242.2 440.06 206.96 460.54 214.16 469.49"/><path fill="#bfbfbf" d="M737.87,835.34l35.24-20.48c0-1,0-4.12,0-13.43l-35.24,20.48C737.91,831.23,737.88,834.32,737.87,835.34Z" transform="translate(-524.46 -352.37)"/><path fill="#4740af" d="M731.42,812.91l7.19,8.94v.24c0,6.8,0,10.36,0,12.21,0,1,0,1.58,0,2s-.13.36-.33.26l-.35-.19v-.13l-14.07-13.34-.1-.1c-.19-.12-.27-.18-.31-.66,0-.28,0-.69,0-1.35,0-.16,0-.33,0-.52,0-1.4-.06-3.8-.1-7.92V812l6.78.39,1.09.06ZM724,813c0,2.19,0,3.87.06,5.17,0,1.11,0,2,0,2.56,0,.85,0,1.3,0,1.54l13.78,13.07c0-1,0-4.11,0-13.43l-6.85-8.51-.65,0-1.88-.11L724,813" transform="translate(-524.46 -352.37)"/><path fill="#4740af" d="M738.55,836.26l35.24-20.48c0-.38,0-1,0-2,0-1.85,0-5.41,0-12.21l-35.24,20.48c0,6.8,0,10.36,0,12.21C738.58,835.29,738.58,835.88,738.55,836.26Z" transform="translate(-524.46 -352.37)"/><polygon fill="#56e864" points="206.72 427.13 241.96 406.65 238.14 407.07 202.9 427.55 206.72 427.13"/><polygon fill="#04bea8" points="206.35 426.21 241.59 405.73 237.78 406.16 202.54 426.64 206.35 426.21"/><path fill="#04bea8" d="M744.2,762.77,709,783.25a19.71,19.71,0,0,1,4.41-1.9,38.35,38.35,0,0,1,4.31-1c2.39-.44,5.26-.86,9.31-1.33l35.24-20.48c-4.05.48-6.92.89-9.31,1.33a38.35,38.35,0,0,0-4.31,1A20.89,20.89,0,0,0,744.2,762.77Z" transform="translate(-524.46 -352.37)"/><path fill="#56e864" d="M771,758.51l-4.58.51L731.18,779.5l4.58-.51Z" transform="translate(-524.46 -352.37)"/><polygon fill="#4740af" points="205.47 408.98 240.71 388.5 232.76 379.56 197.52 400.04 205.47 408.98"/><path fill="#56e864" d="M778.47,757.62c-2.22.29-4.66.58-7.47.89L735.76,779c2.81-.31,5.25-.6,7.47-.89Z" transform="translate(-524.46 -352.37)"/><polygon fill="#4740af" points="213.37 409 248.61 388.52 240.71 388.5 205.47 408.98 213.37 409"/><polygon fill="#4740af" points="214.08 409.91 249.32 389.43 249.32 389.18 214.08 409.66 214.08 409.91"/><path fill="#56e864" d="M784.33,756.77c-1.79.29-3.72.57-5.86.85L743.23,778.1c2.14-.28,4.07-.56,5.86-.85Z" transform="translate(-524.46 -352.37)"/><path fill="#09937f" d="M741.25,670.06,706,690.54c-10.66,6.2-9,22,.13,39.26,3.27,6.13,8.43,13.38,14.61,21L756,730.29c-6.18-7.6-11.34-14.84-14.61-21C732.21,692.09,730.59,676.26,741.25,670.06Z" transform="translate(-524.46 -352.37)"/><path fill="#4740af" d="M722,752.41l35.24-20.48c-.1-9.25-.2-16.15-.29-23.27l-35.24,20.48C721.78,736.26,721.88,743.16,722,752.41Z" transform="translate(-524.46 -352.37)"/><path fill="#56e864" d="M785.65,756.55l-1.32.22-35.24,20.48,1.32-.22Z" transform="translate(-524.46 -352.37)"/><path fill="#09937f" d="M777.4,868.72l35.24-20.48a34.64,34.64,0,0,0,4.67-3.27c7.51-6.23,6.36-27.42-3.29-45.36l-35.24,20.48c9.65,17.94,10.79,39.14,3.29,45.36A34.37,34.37,0,0,1,777.4,868.72Z" transform="translate(-524.46 -352.37)"/><polygon fill="#09937f" points="254.32 467.72 289.56 447.24 268.48 450.01 233.24 470.49 254.32 467.72"/><path fill="#4740af" d="M563.61,441.47,598.85,421c-.62-.49-7.67,1.05-17.64-4.71a46.7,46.7,0,0,1-6.63-4.68c-10.42-8.71-13.84-18.27-14.23-22.28L525.11,409.8c.39,4,3.81,13.58,14.23,22.28a47.53,47.53,0,0,0,6.63,4.68C555.94,442.51,563,441,563.61,441.47Z" transform="translate(-524.46 -352.37)"/><path fill="#56e864" d="M794.9,754.5a89.11,89.11,0,0,1-9.24,2L750.42,777a88.53,88.53,0,0,0,9.24-2Z" transform="translate(-524.46 -352.37)"/><polygon fill="#09937f" points="185.46 336.51 220.7 316.03 186.93 288.52 151.69 309 185.46 336.51"/><path fill="#56e864" d="M795.19,754.42l-.29.08L759.66,775l.29-.08Z" transform="translate(-524.46 -352.37)"/><path fill="#bfbfbf" d="M773.09,711.05l-35.24,20.48c0,2.21,0,4.34,0,6.45,0,7.24,0,14.26,0,23.39l35.24-20.48c0-9.13,0-16.15,0-23.39C773.09,715.39,773.09,713.26,773.09,711.05Z" transform="translate(-524.46 -352.37)"/><path fill="#4740af" d="M721.69,729.14l35.24-20.48c-.1-7.68-.21-15.62-.33-27l-35.24,20.48C721.48,713.53,721.59,721.46,721.69,729.14Z" transform="translate(-524.46 -352.37)"/><path fill="#56e864" d="M801.22,752.24a43.88,43.88,0,0,1-6,2.18L760,774.9a43.88,43.88,0,0,0,6-2.18Z" transform="translate(-524.46 -352.37)"/><path fill="#56e864" d="M803.61,751a26.62,26.62,0,0,1-2.39,1.23L766,772.72a25.34,25.34,0,0,0,2.39-1.23Z" transform="translate(-524.46 -352.37)"/><path fill="#04bea8" d="M767.88,770.62l35.24-20.48a37.81,37.81,0,0,1-8.35,3.38,85.09,85.09,0,0,1-9.5,2.12c-2.15.38-4.49.73-7.17,1.07-2.22.29-4.66.58-7.47.89l-4.58.5-35.24,20.48,4.58-.5c2.8-.31,5.25-.6,7.47-.89,2.67-.34,5-.7,7.17-1.07a87.39,87.39,0,0,0,9.5-2.12A37.81,37.81,0,0,0,767.88,770.62Z" transform="translate(-524.46 -352.37)"/><polygon fill="#bfbfbf" points="205.13 351 240.37 330.53 232.14 329.28 196.9 349.76 205.13 351"/><polygon fill="#4740af" points="205.12 350.13 240.36 329.65 231.42 328.3 196.18 348.78 205.12 350.13"/><polygon fill="#4740af" points="214.11 359.21 249.35 338.73 249 338.53 213.76 359.01 214.11 359.21"/><polygon fill="#bfbfbf" points="213.4 359.09 248.64 338.61 240.37 330.53 205.13 351 213.4 359.09"/><polygon fill="#4740af" points="213.76 359.01 249 338.53 249.12 338.21 213.88 358.69 213.76 359.01"/><path fill="#bfbfbf" d="M773.09,711.05c0-5.82,0-12.16,0-20.07l-35.24,20.48c0,7.92,0,14.26,0,20.07Z" transform="translate(-524.46 -352.37)"/><path fill="#4740af" d="M738.54,762l35.24-20.48c0-9.26,0-16.34,0-23.64,0-7.75,0-15.74,0-26.81l-35.24,20.48c0,11.07,0,19.06,0,26.81C738.55,745.69,738.53,752.78,738.54,762Z" transform="translate(-524.46 -352.37)"/><polygon fill="#4740af" points="213.88 358.69 249.12 338.21 240.36 329.65 205.12 350.13 213.88 358.69"/><path fill="#56e864" d="M768.37,771.49,803.61,751a16.47,16.47,0,0,0,4.32-3.47c5.2-6.09,6.94-13.37,5.16-21.66s-6.89-17-15.27-26.4c-1.36-1.51-3-3.23-5-5.08-2.84-2.73-6.3-5.84-10.54-9.5-2.59-2.23-5.27-4.49-8-6.72s-5.54-4.56-8.34-6.82c-3.43-2.76-6.78-5.44-10-8-9-7.16-18.79-14.77-27.4-21.49-16.9-13.19-34.37-26.84-46.6-37.32-33.68-28.83-58.79-66.19-62.49-93-1.51-10.9,1.16-20.56,7.15-25.82a17.16,17.16,0,0,1,2.64-1.91L594.1,504.36a16.69,16.69,0,0,0-2.64,1.91c-6,5.26-8.66,14.91-7.15,25.82,3.7,26.78,28.81,64.15,62.49,93,12.24,10.48,29.71,24.13,46.6,37.32,8.61,6.72,18.38,14.33,27.4,21.49,3.18,2.52,6.53,5.2,10,8,2.79,2.26,5.6,4.56,8.34,6.82s5.38,4.49,8,6.72c4.25,3.66,7.7,6.77,10.54,9.5,1.93,1.85,3.61,3.57,5,5.08,8.38,9.34,13.53,18.22,15.27,26.4s0,15.58-5.16,21.66A16.49,16.49,0,0,1,768.37,771.49Z" transform="translate(-524.46 -352.37)"/><path fill="#56e864" d="M651.38,485.19c-8.48-4.29-16.16-4.72-22-1.32l-35.24,20.48c5.86-3.4,13.55-3,22,1.32Z" transform="translate(-524.46 -352.37)"/><path fill="#56e864" d="M676.34,498.51c-5.47-3.16-13.45-7.51-25-13.33l-35.24,20.48c11.5,5.81,19.49,10.17,25,13.33Z" transform="translate(-524.46 -352.37)"/><path fill="#56e864" d="M650.66,522.31a4.89,4.89,0,0,1,2.27-3.5l-35.24,20.48a4.89,4.89,0,0,0-2.27,3.5c-.82,4.16.06,9.23,2.62,15.08C624,571.42,638.43,587.8,658.79,604c11.92,9.48,24.33,18.76,36.32,27.74,7.64,5.71,15.55,11.63,23.16,17.47h0c3.72,2.85,7.11,5.49,10.35,8s5.87,4.67,8.52,6.83c2.82,2.3,5.56,4.59,8.15,6.79,3.89,3.29,7.41,6.4,10.78,9.47a275.26,275.26,0,0,1,27.07,28c2,2.35,3.71,4.56,5.39,6.76,15.9,20.85,20.71,38.37,22,49.39,1.76,15.6-2.69,26.36-7.88,30.12h0a44.34,44.34,0,0,1-3.8,2.46L834,776.57a44.34,44.34,0,0,0,3.8-2.46h0c5.19-3.76,9.64-14.53,7.88-30.12-1.23-11-6.05-28.54-22-49.39-1.68-2.21-3.44-4.42-5.39-6.76a276.35,276.35,0,0,0-27.07-28c-3.37-3.08-6.9-6.18-10.78-9.47-2.59-2.21-5.33-4.49-8.15-6.79-2.65-2.16-5.43-4.39-8.52-6.83s-6.63-5.19-10.35-8h0c-7.62-5.85-15.52-11.76-23.16-17.47-12-9-24.4-18.25-36.32-27.74-20.37-16.2-34.84-32.58-40.75-46.13C650.72,531.54,649.84,526.47,650.66,522.31Z" transform="translate(-524.46 -352.37)"/><path fill="#56e864" d="M767.11,791.2c-.65.24-1.27.5-1.85.78L730,812.46c.58-.28,1.2-.54,1.85-.78a28.11,28.11,0,0,1,5.36-1.16c1.86-.27,4.11-.53,7.31-.86l3.22-.33,3.77-.38c2.49-.26,5.81-.62,9.3-1.07s6.28-.9,8.86-1.35h0c12.33-2.17,21.93-5.3,29.16-9.51l35.24-20.48c-7.23,4.21-16.83,7.34-29.16,9.51h0c-2.58.45-5.31.87-8.86,1.35s-6.81.8-9.3,1.07l-3.77.38-3.22.33c-3.2.33-5.46.58-7.31.86A27.52,27.52,0,0,0,767.11,791.2Z" transform="translate(-524.46 -352.37)"/><path fill="#04bea8" d="M799.29,797.93l35.24-20.48a45.3,45.3,0,0,0,3.84-2.49c4.91-3.55,10-13.71,8.06-30.67-1.26-11.21-6.15-29-22.27-50.16-1.69-2.22-3.47-4.45-5.44-6.82a280.3,280.3,0,0,0-27.21-28.12c-3.38-3.09-6.92-6.2-10.82-9.5-2.6-2.21-5.34-4.5-8.17-6.81-2.65-2.16-5.44-4.4-8.54-6.84s-6.64-5.21-10.36-8.06c-7.62-5.85-15.53-11.76-23.17-17.48-12-9-24.39-18.25-36.3-27.72-20.18-16-34.49-32.21-40.29-45.52-2.44-5.59-3.29-10.44-2.51-14.4a4.44,4.44,0,0,1,2.09-3.19L618.2,540.15a4.41,4.41,0,0,0-2.09,3.19c-.78,4,.07,8.81,2.51,14.4,5.81,13.3,20.12,29.47,40.29,45.52,11.91,9.47,24.31,18.74,36.3,27.72,7.65,5.71,15.55,11.63,23.17,17.48,3.73,2.86,7.12,5.49,10.36,8.06s5.88,4.68,8.54,6.84c2.83,2.31,5.57,4.6,8.17,6.81,3.9,3.3,7.44,6.41,10.82,9.5a277.06,277.06,0,0,1,27.21,28.12c2,2.37,3.74,4.6,5.44,6.82,16.12,21.15,21,38.94,22.27,50.16,1.91,17-3.15,27.11-8.06,30.67Q801.35,796.73,799.29,797.93Z" transform="translate(-524.46 -352.37)"/><path fill="#56e864" d="M675.44,525.33c-7.93-4.58-17.92-9.18-22.48-6.54l-35.24,20.48c4.56-2.64,14.55,2,22.48,6.54a113.24,113.24,0,0,1,11.43,7.45l35.24-20.48A113.24,113.24,0,0,0,675.44,525.33Z" transform="translate(-524.46 -352.37)"/><path fill="#56e864" d="M684.68,503.6c-1.73-1.14-4.37-2.8-8.34-5.09L641.1,519c4,2.29,6.61,4,8.34,5.09Z" transform="translate(-524.46 -352.37)"/><path fill="#56e864" d="M687.64,505.62c-.2-.1-1-.72-3-2l-35.24,20.48c2,1.3,2.76,1.92,3,2Z" transform="translate(-524.46 -352.37)"/><path fill="#56e864" d="M687.64,505.62,652.4,526.1h0l35.24-20.48Z" transform="translate(-524.46 -352.37)"/><path fill="#04bea8" d="M628.84,483,593.6,503.49c6-3.48,13.84-3.05,22.5,1.33,11.64,5.88,19.66,10.26,25.14,13.42a96,96,0,0,1,10.9,6.93l35.24-20.48c-.65-.53-3.37-2.58-10.9-6.93-5.48-3.16-13.5-7.54-25.14-13.42C642.68,480,634.83,479.53,628.84,483Z" transform="translate(-524.46 -352.37)"/><path fill="#56e864" d="M700,506.8c-7.27-2.25-12.22-1.19-12.33-1.17l-35.24,20.48c.11,0,5.06-1.08,12.33,1.17Z" transform="translate(-524.46 -352.37)"/><path fill="#56e864" d="M701,582.53l35.24-20.48c-5.81,3.38-19.33-2-27.37-6.35l-.9-.5c-12.36-7.14-21-22.27-21.09-22.42l-35.24,20.48c.09.15,8.73,15.29,21.09,22.42l.9.5C681.66,580.5,695.18,585.91,701,582.53Z" transform="translate(-524.46 -352.37)"/><path fill="#56e864" d="M707.91,510.29a39,39,0,0,0-7.92-3.5l-35.24,20.48a38.52,38.52,0,0,1,7.92,3.5l35.17-20.44Z" transform="translate(-524.46 -352.37)"/><path fill="#04bea8" d="M672.69,530l35.24-20.48c-10.87-6.28-19.39-5-20.54-4.78l-35.24,20.48C653.3,525,661.82,523.68,672.69,530Z" transform="translate(-524.46 -352.37)"/><path fill="#56e864" d="M736.22,562.05a5.19,5.19,0,0,0,2.16-2.37l-35.24,20.48a5.14,5.14,0,0,1-2.16,2.37Z" transform="translate(-524.46 -352.37)"/><path fill="#56e864" d="M738.39,559.68c1.83-4-.26-11.52-6.22-22.34l-35.24,20.48c6,10.82,8.05,18.33,6.22,22.34l17.59-10.22,4.62-2.68,4.54-2.64,6.47-3.76A9,9,0,0,0,738.39,559.68Z" transform="translate(-524.46 -352.37)"/><path fill="#56e864" d="M732.17,537.34c-8.09-14.69-16.75-22.71-24.27-27.05l-35.24,20.48c7.52,4.34,16.18,12.36,24.27,27.05Z" transform="translate(-524.46 -352.37)"/><path fill="#04bea8" d="M701.44,583.45,736.68,563a5.76,5.76,0,0,0,2.36-2.6c2-4.26-.18-12.09-6.35-23.29-8.25-15-17.09-23.18-24.76-27.6L672.69,530c7.67,4.43,16.51,12.62,24.76,27.6,6.17,11.19,8.3,19,6.35,23.29A5.7,5.7,0,0,1,701.44,583.45Z" transform="translate(-524.46 -352.37)"/><path fill="#4740af" d="M662.55,494.8l35.24-20.48a22.19,22.19,0,0,0,2.53-1.69l-35.24,20.48A23.67,23.67,0,0,1,662.55,494.8Z" transform="translate(-524.46 -352.37)"/><path fill="#bfbfbf" d="M584.16,373.08l-35.24,20.48c19-11,46.64-22.93,73.19-19.06L657.35,354C630.8,350.15,603.14,362.05,584.16,373.08Z" transform="translate(-524.46 -352.37)"/><path fill="#bfbfbf" d="M657.52,354l-.18,0L622.1,374.49l.18,0Z" transform="translate(-524.46 -352.37)"/><path fill="#bfbfbf" d="M657.52,354s-.1.06-.15.08l-1.1.64-1.25.72-32.75,19c1.16.17,2.3.37,3.42.59l35.24-20.48C659.82,354.41,658.68,354.22,657.52,354Z" transform="translate(-524.46 -352.37)"/><path fill="#bfbfbf" d="M661,354.63s-.05,0-.06,0l-.45.26-.52.3-34.2,19.88.23.05,35.24-20.48Z" transform="translate(-524.46 -352.37)"/><path fill="#bfbfbf" d="M661.18,354.68c-.08,0-.17.1-.24.14l-.79.46-1,.57-33.23,19.31q1.71.34,3.36.75l35.24-20.48Q662.88,355,661.18,354.68Z" transform="translate(-524.46 -352.37)"/><path fill="#bfbfbf" d="M664.53,355.43a.6.6,0,0,0-.11.06l-.33.19-.39.23-34.41,20,.16,0,35.24-20.48Z" transform="translate(-524.46 -352.37)"/><path fill="#bfbfbf" d="M664.7,355.47a.33.33,0,0,0-.1.06l-.64.37-.11.06-.8.47-33.58,19.51c1.12.28,2.21.58,3.29.91L668,356.37C666.91,356.05,665.82,355.75,664.7,355.47Z" transform="translate(-524.46 -352.37)"/><path fill="#bfbfbf" d="M668,356.38l-35.24,20.48.16.05,35.24-20.48Z" transform="translate(-524.46 -352.37)"/><path fill="#bfbfbf" d="M668.15,356.43l-35.24,20.48c1.08.33,2.13.67,3.17,1l35.24-20.48C670.28,357.1,669.22,356.75,668.15,356.43Z" transform="translate(-524.46 -352.37)"/><path fill="#bfbfbf" d="M671.31,357.47,636.07,378l.1,0,35.24-20.48Z" transform="translate(-524.46 -352.37)"/><path fill="#bfbfbf" d="M671.42,357.5,636.18,378c1.05.38,2.08.77,3.1,1.18l35.24-20.48C673.5,358.27,672.47,357.88,671.42,357.5Z" transform="translate(-524.46 -352.37)"/><path fill="#4740af" d="M721.17,629.93l35.24-20.48c0-63.62-.62-111.87-.65-114.41l-35.24,20.48C720.55,518.06,721.13,566.31,721.17,629.93Z" transform="translate(-524.46 -352.37)"/><path fill="#56e864" d="M672.67,530.77c-11.36-6.56-20.1-4.69-20.25-4.66A131.58,131.58,0,0,0,641.1,519c-5.47-3.16-13.45-7.51-25-13.33-9.83-5-18.6-4.75-24.69.6s-8.66,14.91-7.15,25.82c3.7,26.78,28.81,64.15,62.49,93,12.24,10.48,29.71,24.13,46.6,37.32,8.61,6.72,18.38,14.33,27.4,21.49,3.18,2.52,6.53,5.2,10,8,2.79,2.26,5.6,4.56,8.34,6.82s5.38,4.49,8,6.72c4.25,3.66,7.7,6.77,10.54,9.5,1.93,1.85,3.61,3.57,5,5.08,8.38,9.34,13.53,18.22,15.27,26.4s0,15.58-5.16,21.66c-2.44,2.86-6.61,5.11-12.75,6.88a88.24,88.24,0,0,1-9.53,2.14c-2.16.36-4.5.72-7.18,1.07-2.22.29-4.66.58-7.47.89l-4.58.51-3.82.42c-4,.48-6.9.89-9.28,1.34a38.12,38.12,0,0,0-4.28,1c-8.63,2.58-14.41,10.51-15.09,20.68-.57,8.57,2.22,18.29,8.28,28.9a100.14,100.14,0,0,0,36.06,36.25c2,1.16,3.5,1.91,4.28,2.28a224.77,224.77,0,0,0-17-29.78c-4.59-6.8-7-12.59-7.21-17.21a12.2,12.2,0,0,1,.24-3.12,7,7,0,0,1,1-2.81,9.45,9.45,0,0,1,3.15-3.29l1.21-.83a14.08,14.08,0,0,1,3.12-1.64h0a28.11,28.11,0,0,1,5.36-1.16c1.86-.27,4.11-.53,7.31-.86l3.22-.33,3.77-.38c2.49-.26,5.81-.62,9.3-1.07s6.28-.9,8.86-1.35c14.59-2.57,25.36-6.48,32.91-11.94,5.19-3.76,9.64-14.53,7.88-30.12-1.23-11-6.05-28.54-22-49.39-1.68-2.21-3.44-4.42-5.39-6.76a276.35,276.35,0,0,0-27.07-28c-3.37-3.08-6.9-6.18-10.78-9.47-2.59-2.21-5.33-4.49-8.15-6.79-2.65-2.16-5.43-4.39-8.52-6.83s-6.63-5.19-10.35-8c-7.62-5.85-15.52-11.76-23.16-17.47-12-9-24.4-18.25-36.32-27.74C638.42,587.79,624,571.41,618,557.86c-2.55-5.85-3.44-10.92-2.62-15.08,1.67-8.5,14.84-2.72,24.78,3,5.93,3.42,10.71,6.84,11.22,7.2.3.4,8.94,15.53,21.3,22.67l.9.5c9.34,5,26.07,11.5,29.53,4,1.83-4-.26-11.52-6.22-22.34C688.84,543.13,680.18,535.11,672.67,530.77Z" transform="translate(-524.46 -352.37)"/><path fill="#56e864" d="M726.63,816.05a37.07,37.07,0,0,1,5.68-3.49,27.61,27.61,0,0,1,5.29-1.14c1.85-.27,4.1-.53,7.3-.85l3.22-.33,3.77-.38c2.49-.26,5.82-.63,9.31-1.08s6.3-.89,8.88-1.35c14.65-2.58,25.46-6.51,33-12,4.91-3.55,10-13.71,8.06-30.67-1.26-11.21-6.15-29-22.27-50.16-1.69-2.22-3.47-4.45-5.44-6.82a280.3,280.3,0,0,0-27.21-28.12c-3.38-3.09-6.92-6.2-10.82-9.5-2.6-2.21-5.34-4.5-8.17-6.81-2.65-2.16-5.44-4.4-8.54-6.84s-6.64-5.21-10.36-8.06c-7.62-5.85-15.53-11.76-23.17-17.48-12-9-24.39-18.25-36.3-27.72-20.18-16-34.49-32.21-40.29-45.52-2.44-5.59-3.29-10.44-2.51-14.4,1.56-8,14.52-2.21,24.27,3.42,5.54,3.2,10,6.35,10.83,6.91,1,1.66,9.56,15.91,21.56,22.84l.88.49c2.62,1.41,25.73,13.48,30.15,3.84,2-4.26-.18-12.09-6.35-23.29-8.25-15-17.09-23.18-24.76-27.6-10.87-6.28-19.39-5-20.54-4.78-.65-.53-3.37-2.58-10.9-6.93-5.48-3.16-13.5-7.54-25.14-13.42-10-5.07-19-4.85-25.2.61s-8.84,15.23-7.3,26.38c3.75,27.13,29.07,64.88,63,93.94,12.25,10.5,29.74,24.15,46.64,37.36,8.61,6.72,18.38,14.33,27.4,21.48,3.17,2.51,6.52,5.2,10,8,2.79,2.26,5.6,4.55,8.33,6.81s5.38,4.48,8,6.71c4.23,3.64,7.66,6.73,10.49,9.44,1.91,1.83,3.56,3.52,4.9,5,8.19,9.12,13.2,17.75,14.9,25.66s0,15.1-5.07,21c-2.41,2.8-6.52,5-12.59,6.77a85.09,85.09,0,0,1-9.5,2.12c-2.15.38-4.49.73-7.17,1.07-2.22.29-4.66.58-7.47.89l-4.58.5L727,779c-4,.48-6.92.89-9.31,1.33a38.35,38.35,0,0,0-4.31,1c-8.79,2.62-14.68,10.71-15.38,21.1-.57,8.68,2.36,18.93,8.49,29.65a101.57,101.57,0,0,0,36.6,36.8c3,1.73,4.86,2.56,4.92,2.59.19-.63-5.93-14.52-17.25-31.3-4.42-6.55-6-10-6.58-14.48-.36-2.58-.85-3.88,0-6.13A7.35,7.35,0,0,1,726.63,816.05Z" transform="translate(-524.46 -352.37)"/><path fill="url(#a)" d="M723.35,820.45a10,10,0,0,0-.24,2.92c.2,4.62,2.62,10.41,7.21,17.21a224.67,224.67,0,0,1,17,29.78c-.78-.37-2.27-1.12-4.28-2.28A100,100,0,0,1,707,831.83c-6.06-10.61-8.85-20.33-8.28-28.9.68-10.17,6.46-18.1,15.09-20.68a38.12,38.12,0,0,1,4.28-1c2.37-.45,5.24-.85,9.28-1.34l3.82-.42,4.58-.51c2.81-.31,5.25-.6,7.47-.89,2.68-.35,5-.7,7.18-1.07a85.4,85.4,0,0,0,9.53-2.14c6.13-1.77,10.3-4,12.75-6.88,5.2-6.09,6.94-13.37,5.16-21.66S771,729.3,762.59,720c-1.36-1.51-3-3.23-5-5.08-2.84-2.73-6.3-5.84-10.54-9.5-2.59-2.23-5.27-4.49-8-6.72s-5.54-4.56-8.34-6.82c-3.43-2.76-6.78-5.44-10-8-9-7.16-18.79-14.77-27.4-21.49-16.9-13.19-34.37-26.84-46.6-37.32-33.68-28.83-58.79-66.19-62.49-93-1.51-10.9,1.16-20.56,7.15-25.82s14.86-5.57,24.69-.6c11.5,5.81,19.49,10.17,25,13.33,8.63,5,11,7,11,7,.43.07,9.17-1.8,20.54,4.76,7.52,4.34,16.18,12.36,24.27,27.05,6,10.82,8,18.33,6.22,22.34-3.46,7.53-20.19,1-29.53-4l-.9-.5c-12.36-7.14-21-22.27-21.09-22.42a115.18,115.18,0,0,0-11.43-7.45c-9.94-5.74-23.11-11.52-24.78-3-.82,4.16.06,9.23,2.62,15.08,5.92,13.55,20.39,29.93,40.75,46.13,11.92,9.48,24.33,18.76,36.32,27.74,7.64,5.71,15.55,11.63,23.16,17.47,3.72,2.85,7.11,5.49,10.35,8s5.87,4.67,8.52,6.83c2.82,2.3,5.56,4.59,8.15,6.79,3.89,3.29,7.41,6.4,10.78,9.47a275.26,275.26,0,0,1,27.07,28c2,2.35,3.71,4.56,5.39,6.76,15.9,20.85,20.71,38.37,22,49.39,1.76,15.6-2.69,26.36-7.88,30.12-7.55,5.47-18.32,9.37-32.91,11.94-2.58.45-5.31.87-8.86,1.35s-6.81.8-9.3,1.07l-3.77.38-3.22.33c-3.2.33-5.46.58-7.31.86a27.52,27.52,0,0,0-5.36,1.16q-1,.36-1.86.78L727,814.6a9.43,9.43,0,0,0-2.45,2.63,6,6,0,0,0-1.07,2.38,1.68,1.68,0,0,0-.1.84" transform="translate(-524.46 -352.37)"/><path fill="#4740af" d="M720.52,515.52,755.76,495c-.75-.55-14.9,6.95-29.82.32a41.24,41.24,0,0,1-3.69-1.88c-12.9-7.45-21.64-21.46-21.73-21.62l-35.24,20.48c.09.15,8.83,14.17,21.73,21.62a38.76,38.76,0,0,0,3.69,1.88C705.62,522.47,719.77,515,720.52,515.52Z" transform="translate(-524.46 -352.37)"/><polygon fill="#bfbfbf" points="191.52 161.3 226.76 140.82 223.96 96.96 188.72 117.44 191.52 161.3"/><polygon fill="#bfbfbf" points="191.59 161.33 226.83 140.85 225.34 118.59 190.1 139.07 191.59 161.33"/><path fill="#4740af" d="M794.23,565.32l35.24-20.48c-.61-.29-9.54,4-22.78-3.61-1-.58-2-1.22-3.06-1.93-14.94-10.26-29.84-34.25-30-34.49l-35.24,20.48c.15.24,15,24.23,30,34.49,1,.72,2.06,1.36,3.06,1.93C784.69,569.36,793.61,565,794.23,565.32Z" transform="translate(-524.46 -352.37)"/><polygon fill="#4740af" points="213.37 292.89 248.61 272.41 248.6 151.48 213.36 171.96 213.37 292.89"/><path fill="#4740af" d="M622.92,479.55l35.24-20.48c-.66-.33-10.94,5-29.34-5.59a83.5,83.5,0,0,1-9.31-6.31C605.74,436.5,600,425.38,598.85,421l-35.24,20.48c1.13,4.39,6.89,15.51,20.66,26.17a83.5,83.5,0,0,0,9.31,6.31C612,484.57,622.26,479.21,622.92,479.55Z" transform="translate(-524.46 -352.37)"/><path fill="#4740af" d="M663.48,493.31l35.24-20.48c-3.59,2.08-12.11,6.49-22.45,2.74a31.13,31.13,0,0,1-5-2.32,32.35,32.35,0,0,1-13.14-14.19l-35.24,20.48c1.37,3.36,5.67,9.88,13.14,14.19a31.13,31.13,0,0,0,5,2.32C651.37,499.8,659.89,495.4,663.48,493.31Z" transform="translate(-524.46 -352.37)"/><path fill="#bfbfbf" d="M697.27,473.46a20.15,20.15,0,0,0,2.73-1.85l-35.24,20.48a20.15,20.15,0,0,1-2.73,1.85Z" transform="translate(-524.46 -352.37)"/><path fill="#4740af" d="M699.84,472.17,664.6,492.65c.37-.21.6-.33.68-.31l35.24-20.48C700.44,471.84,700.21,472,699.84,472.17Z" transform="translate(-524.46 -352.37)"/><path fill="#bfbfbf" d="M680.53,361.48,645.29,382c1,.49,1.87,1,2.78,1.52L683.24,363l-35.17,20.44.09,0,35.17-20.44-35.17,20.44c1.93,1.12,3.78,2.31,5.54,3.54l35.17-20.44L653.7,387.07a89.11,89.11,0,0,1,25.07,27.75L714,394.35c-5.27-9-15-22.31-30.7-31.34C682.4,362.48,681.47,362,680.53,361.48Z" transform="translate(-524.46 -352.37)"/><path fill="#bfbfbf" d="M714.16,394.62l-.16-.27-35.24,20.48.16.27Z" transform="translate(-524.46 -352.37)"/><path fill="#bfbfbf" d="M674.51,358.69l-35.24,20.48.1,0,35.24-20.48Z" transform="translate(-524.46 -352.37)"/><path fill="#bfbfbf" d="M674.61,358.73l-35.24,20.48c1,.42,2,.85,3,1.3L677.58,360C676.61,359.58,675.62,359.14,674.61,358.73Z" transform="translate(-524.46 -352.37)"/><path fill="#bfbfbf" d="M677.58,360l-35.24,20.48,0,0,35.24-20.48Z" transform="translate(-524.46 -352.37)"/><path fill="#bfbfbf" d="M677.63,360.05l-35.24,20.48q1.46.68,2.85,1.41l35.24-20.48Q679.08,360.73,677.63,360.05Z" transform="translate(-524.46 -352.37)"/><path fill="#bfbfbf" d="M680.48,361.46l-35.24,20.48,0,0,35.24-20.48Z" transform="translate(-524.46 -352.37)"/><path fill="#4740af" d="M583.63,372.23l-35.24,20.48c19-11.06,46.8-23,73.47-19.11a74.69,74.69,0,0,1,26.41,9.26c.91.53,1.83,1.08,2.76,1.67,11.27,7.15,20.75,17.21,28.23,30l35.24-20.48c-7.48-12.79-17-22.85-28.23-30-.92-.59-1.84-1.14-2.76-1.67a74.76,74.76,0,0,0-26.41-9.26C630.43,349.23,602.66,361.17,583.63,372.23Z" transform="translate(-524.46 -352.37)"/><polygon fill="#bfbfbf" points="223.89 96.93 188.65 117.41 190.1 139.07 225.34 118.59 223.89 96.93"/><polygon fill="#bfbfbf" points="209.49 170.29 244.73 149.81 243.22 106.54 207.98 127.02 209.49 170.29"/><polygon fill="#bfbfbf" points="209.57 170.33 244.81 149.85 243.95 127.47 208.71 147.94 209.57 170.33"/><path fill="#bfbfbf" d="M714.16,394.62,678.92,415.1c13.3,22.73,20,34.17,26.43,44.23A45.64,45.64,0,0,0,719.53,473l35.24-20.48a45.51,45.51,0,0,1-14.18-13.69C734.16,428.78,727.46,417.35,714.16,394.62Z" transform="translate(-524.46 -352.37)"/><path fill="#4740af" d="M718.9,471.82l35.24-20.48a45,45,0,0,1-13.09-12.84c-6.43-10.08-13.16-21.57-26.55-44.44l-35.24,20.48c13.39,22.88,20.12,34.37,26.55,44.44A45.06,45.06,0,0,0,718.9,471.82Z" transform="translate(-524.46 -352.37)"/><path fill="#bfbfbf" d="M754.87,452.59l-.1-.06L719.53,473l.1.06Z" transform="translate(-524.46 -352.37)"/><polygon fill="#4740af" points="194.8 120.49 230.04 100.01 230.14 87.77 194.9 108.25 194.8 120.49"/><path fill="#09937f" d="M802.77,574.84l-35.24,20.48c7.48-4.35,15.82-2,22.92,2.08a70.15,70.15,0,0,1,16.75,14.11L842.44,591a69.91,69.91,0,0,0-16.75-14.11C818.59,572.83,810.25,570.49,802.77,574.84Z" transform="translate(-524.46 -352.37)"/><polygon fill="#bfbfbf" points="243.15 106.5 207.91 126.98 208.71 147.94 243.95 127.47 243.15 106.5"/><polygon fill="#4740af" points="214.11 131.28 249.35 110.8 249.1 98.98 213.86 119.46 214.11 131.28"/><polygon fill="#4740af" points="214.46 130.66 249.7 110.18 249.8 100 214.56 120.48 214.46 130.66"/><path fill="#00d4b6" d="M808.7,643.26l35.24-20.48a11.75,11.75,0,0,0,2.3-1.68L811,641.58A11.75,11.75,0,0,1,808.7,643.26Z" transform="translate(-524.46 -352.37)"/><path fill="#09937f" d="M845.44,628.62l35.24-20.48c-.78-.45-1.58-.88-2.38-1.29-30.17-15.14-35.58-15.79-35.86-15.83L807.2,611.5c.28,0,5.69.68,35.86,15.83C843.86,627.74,844.65,628.17,845.44,628.62Z" transform="translate(-524.46 -352.37)"/><path fill="#4740af" d="M719.36,460.62l35.24-20.48c-14.66-13.64-24.42-34.38-24.52-51.82-.06-10.65,3.47-18.62,9.94-22.46l-35.24,20.48c-6.47,3.84-10,11.82-9.94,22.46C695,426.24,704.7,447,719.36,460.62Z" transform="translate(-524.46 -352.37)"/><path fill="#4740af" d="M753.72,470.39,789,449.91c-4,2.3-8.9,3-14.5,1.67l-35.24,20.48C744.82,473.35,749.76,472.69,753.72,470.39Z" transform="translate(-524.46 -352.37)"/><path fill="#bfbfbf" d="M787,466.21a6.66,6.66,0,0,0-.89.52l-2.92,1.7-3.81,2.21-27.62,16.05a6.9,6.9,0,0,0,1.26-.42h0c2.8-1.25,5.64-2.71,9.08-4.62l35.24-20.48c-3.43,1.91-6.28,3.37-9.08,4.62A6.66,6.66,0,0,1,787,466.21Z" transform="translate(-524.46 -352.37)"/><path fill="#4740af" d="M835.78,601.08,871,580.6c-2.27,1.32-6.46,2-13.13-1.81a41.81,41.81,0,0,1-4.49-3c-13.35-10.26-23.83-30.71-23.94-30.92l-35.24,20.48c.11.21,10.59,20.66,23.94,30.92a40.84,40.84,0,0,0,4.49,3C829.32,603.12,833.51,602.4,835.78,601.08Z" transform="translate(-524.46 -352.37)"/><path fill="#4740af" d="M835.45,602.12l35.24-20.48a4.81,4.81,0,0,0,1.13-.9l-35.24,20.48A4.61,4.61,0,0,1,835.45,602.12Z" transform="translate(-524.46 -352.37)"/><path fill="#bfbfbf" d="M870.19,580.79a4,4,0,0,0,1.25-1.09L836.2,600.18a4,4,0,0,1-1.25,1.09Z" transform="translate(-524.46 -352.37)"/><path fill="#bfbfbf" d="M802.58,458.15c-1.93,1.12-3.68,2.12-5.29,3l-35.24,20.48c1.62-.9,3.36-1.9,5.29-3Z" transform="translate(-524.46 -352.37)"/><path fill="#09937f" d="M841.15,685.34l35.24-20.48c-6.35,3.69-17.13,4.58-32.74,1.41s-31.79-7.52-47.6-11.42l-35.24,20.48c15.81,3.9,32,8.27,47.6,11.42S834.81,689,841.15,685.34Z" transform="translate(-524.46 -352.37)"/><path fill="#09937f" d="M863.22,716.5,898.46,696c9.73-5.66,15.95-14.94,16.51-27.79.82-18.73-13.38-48-34.3-60.1l-35.24,20.48c20.92,12.08,35.12,41.37,34.3,60.1C879.17,701.56,873,710.85,863.22,716.5Z" transform="translate(-524.46 -352.37)"/><path fill="#bfbfbf" d="M742.9,364.5c-.15.07-.34.2-.49.28l-.25.15-.53.31-.27.16-.54.32-2.08,1.21L707.65,385c6-2.16,13.46-1,21.59,3.56l35.24-20.48C756.35,363.51,748.9,362.34,742.9,364.5Z" transform="translate(-524.46 -352.37)"/><path fill="#4740af" d="M802.53,458.18c3.34-1.94,7.23-4.25,12-7.07l-35.24,20.48c-4.74,2.81-8.63,5.13-12,7.07Z" transform="translate(-524.46 -352.37)"/><path fill="#4740af" d="M892.72,632.51,928,612c-3.2,1.86-8.74,2.76-17.75-.45a62.84,62.84,0,0,1-10.37-4.82A85.5,85.5,0,0,1,872,579.92L836.75,600.4a85.5,85.5,0,0,0,27.85,26.84A63.22,63.22,0,0,0,875,632.06C884,635.27,889.52,634.37,892.72,632.51Z" transform="translate(-524.46 -352.37)"/><path fill="#4740af" d="M892.71,633.58,928,613.1a8,8,0,0,0,3.26-3.39L896,630.19A8.1,8.1,0,0,1,892.71,633.58Z" transform="translate(-524.46 -352.37)"/><path fill="#bfbfbf" d="M927.59,612.14a6.68,6.68,0,0,0,3.1-3.46l-35.24,20.48a6.73,6.73,0,0,1-3.1,3.46Z" transform="translate(-524.46 -352.37)"/><path fill="#4740af" d="M930.08,646.93l35.24-20.48c-2.19,1.27-5.48,1.74-10.29.33a33.93,33.93,0,0,1-7.25-3.17c-9.64-5.57-16.45-14.72-16.54-14.84L896,629.25c.09.12,6.9,9.27,16.54,14.84a33.43,33.43,0,0,0,7.25,3.17C924.59,648.67,927.89,648.2,930.08,646.93Z" transform="translate(-524.46 -352.37)"/><path fill="#4740af" d="M738.53,526.55l.5-.29c3,4.61,16.15,24.44,29.37,33.52,1,.72,2.06,1.36,3.06,1.93.67.39,1.33.74,2,1.07L773.27,592l-5.73,3.33a17,17,0,0,1,5.72-2.08l-.19,31.55-35.24,20.48Z" transform="translate(-524.46 -352.37)"/><path fill="#bfbfbf" d="M787,466.21c-5.39,1.29-12.81-2.85-13.15-3l-35.24,20.48c.34.19,7.76,4.33,13.15,3Z" transform="translate(-524.46 -352.37)"/><path fill="#bfbfbf" d="M742.9,364.5a16,16,0,0,0-2.87,1.36l-35.24,20.48a17.49,17.49,0,0,1,2.87-1.36Z" transform="translate(-524.46 -352.37)"/><path fill="#4740af" d="M766.93,477.71l35.24-20.48a155.15,155.15,0,0,1-14.43,7.68c-4.6,2.06-11.88-1.47-13.58-2.36L738.92,483c1.69.88,9,4.41,13.58,2.36A155.15,155.15,0,0,0,766.93,477.71Z" transform="translate(-524.46 -352.37)"/><path fill="#bfbfbf" d="M799.1,428.39l-35.24,20.48c-.17,10.21-3.87,17.72-10.1,21.32L789,449.71C795.23,446.11,798.93,438.61,799.1,428.39Z" transform="translate(-524.46 -352.37)"/><path fill="#bfbfbf" d="M965.3,626.46a7.79,7.79,0,0,0,3.79-6L933.85,641a7.77,7.77,0,0,1-3.79,6C940.63,640.8,954.72,632.59,965.3,626.46Z" transform="translate(-524.46 -352.37)"/><path fill="#4740af" d="M930.57,647.8l35.24-20.48a8.27,8.27,0,0,0,4-6.51l-35.24,20.48A8.28,8.28,0,0,1,930.57,647.8Z" transform="translate(-524.46 -352.37)"/><path fill="#bfbfbf" d="M846.1,455.08c-16.31-9.42-26.35-7.09-31.6-4l-35.24,20.48c5.25-3.12,15.29-5.45,31.6,4,7.07,4.08,15.33,10.38,24.89,19.78,45.85,45.07,95.59,140.8,98.09,145.64l35.24-20.48c-2.5-4.84-52.24-100.57-98.09-145.64h0C861.43,465.46,853.18,459.17,846.1,455.08Z" transform="translate(-524.46 -352.37)"/><path fill="#4740af" d="M524.46,409.05c.23,4.36,3.72,14.55,14.72,23.75a47.93,47.93,0,0,0,6.78,4.78c8.91,5.14,15.55,4.59,17.15,4.36.86,2.7,5.25,14.23,21,26.45a83.37,83.37,0,0,0,9.43,6.39c8.28,4.78,14.8,6.31,19.23,6.66,5.47.42,8.75-.8,9.74-1.25a34.13,34.13,0,0,0,13.51,14.38,32.78,32.78,0,0,0,5.1,2.38c12.46,4.51,22.29-2.55,23.92-3.83,1.62,2.48,10.07,14.81,21.95,21.67a40.28,40.28,0,0,0,3.76,1.92c13.42,6,26.18.7,29-.65.09,7.14.67,54.9,1.35,113.88,0-63.62-.62-111.87-.65-114.41-.75-.55-14.9,7-29.82.32A41.24,41.24,0,0,1,687,514c-12.9-7.45-21.64-21.46-21.73-21.62-.62-.16-10.93,8.54-24.25,3.72a31.13,31.13,0,0,1-5-2.32,32.35,32.35,0,0,1-13.14-14.19c-.66-.33-10.94,5-29.34-5.59a83.5,83.5,0,0,1-9.31-6.31c-13.77-10.67-19.53-21.79-20.66-26.17-.62-.49-7.67,1.05-17.64-4.71a46.7,46.7,0,0,1-6.63-4.68c-10.42-8.71-13.84-18.27-14.23-22.28,2.46-2,51.39-42,97-35.3a72.5,72.5,0,0,1,26,9c15.65,9,25.43,22.34,30.63,31.23,13.47,23,20.19,34.51,26.65,44.61a45.56,45.56,0,0,0,13.91,13.53l.11-12.24C704.71,447,695,426.26,694.85,408.82c-.06-10.65,3.47-18.62,9.94-22.46s15.11-3.09,24.33,2.12c19.23,11.1,34.62,37.54,34.76,59.39.1,17.63-10,27.59-24.65,24.21l-1,11.4c.72.4,9.36,5.23,14.76,2.82,6.38-2.85,13-6.81,26.29-14.67,5.26-3.12,15.29-5.45,31.6,4,7.07,4.08,15.33,10.38,24.89,19.78,45.85,45.07,95.59,140.8,98.09,145.64-.34,3.59-3.67,9.33-14.06,6.28a33.93,33.93,0,0,1-7.25-3.17c-9.64-5.57-16.45-14.72-16.54-14.84-1.61,3.05-7.28,7.7-21,2.81a62.84,62.84,0,0,1-10.37-4.82,85.5,85.5,0,0,1-27.85-26.84c-1.92,1.64-6.33,3.36-14.1-1.12a41.81,41.81,0,0,1-4.49-3c-13.35-10.26-23.83-30.71-23.94-30.92-.61-.29-9.54,4-22.78-3.61-1-.58-2-1.22-3.06-1.93-14.94-10.26-29.84-34.25-30-34.49l-.58,120,.7-118.71c2.94,4.59,16.32,24.75,29.8,34q1.57,1.08,3.09,2c12.24,7.06,20.87,4.14,22.5,3.47,1.65,3.12,11.64,21.4,24.13,31a42.5,42.5,0,0,0,4.6,3.11c7.72,4.46,12.28,3,13.93,1.13,1.86,2.9,11.77,17.45,28,26.85A64,64,0,0,0,875.1,633c15.74,5.61,20-1,20.86-2.75,1.57,2,8,9.76,16.57,14.72a35,35,0,0,0,7.41,3.25c11,3.22,14.35-3.08,14.61-6.86C934,640,883,541,836,494.78c-6.27-6.17-15.45-14.3-25.27-20q-2-1.14-4-2.13c-11.26-5.59-20.68-6.22-28-1.88-13.24,7.86-19.89,11.8-26.25,14.65-4.6,2.06-11.88-1.47-13.58-2.36l.09-10.18c15.33,3.55,25.67-6.61,25.56-24.61-.06-10.87-3.79-23.16-10.49-34.61s-15.4-20.48-24.68-25.83C709.68,376.7,694,386,694.13,408.45c.1,17.7,10,38.73,24.53,52.42l.23,11A45,45,0,0,1,705.8,459c-6.43-10.08-13.16-21.57-26.55-44.44-7.48-12.79-17-22.85-28.23-30-.92-.59-1.84-1.14-2.76-1.67a74.76,74.76,0,0,0-26.41-9.26C575.11,366.77,525,408.63,524.46,409.05Z" transform="translate(-524.46 -352.37)"/><polygon fill="#4740af" points="231.95 282.09 213.36 294.22 196.71 278.61 196.69 262.35 231.95 282.09"/><path fill="url(#b)" d="M729.72,813.72c.22-.12.45-.24.69-.35l.65,0,6.85,8.51c0,9.31,0,12.4,0,13.43l-13.78-13.07c0-.24,0-.69,0-1.54A10.43,10.43,0,0,1,729.72,813.72ZM622.11,374.5c-45.61-6.65-94.54,33.27-97,35.3.39,4,3.81,13.58,14.23,22.28a47.28,47.28,0,0,0,6.63,4.68c10,5.76,17,4.22,17.1,4.2,1.66,4.9,7.42,16,21.19,26.68a83.5,83.5,0,0,0,9.31,6.31c18.4,10.62,28.67,5.26,28.79,5.2A36.25,36.25,0,0,0,636,493.73a31.54,31.54,0,0,0,5,2.32c13.32,4.82,23.63-3.88,23.73-4,.61.4,9.35,14.42,22.25,21.87a37.64,37.64,0,0,0,3.69,1.88c14.92,6.63,29.07-.87,29.21-1,.6.63,1.22,51.42,2,115.44l11.55,10.85,4.39,4.08V524.31c.74,1.2,15.64,25.19,30.58,35.45,1,.72,2.06,1.36,3.06,1.93,13.24,7.65,22.16,3.32,22.26,3.27.63.54,11.11,21,24.46,31.26a41.81,41.81,0,0,0,4.49,3c7.77,4.48,12.18,2.76,13.55.91.58.28,4.08,6.05,10.51,12.8a81,81,0,0,0,17.89,14.26A64.08,64.08,0,0,0,875,632.05c13.74,4.89,19.4.24,20.48-2.91.63.21,7.44,9.37,17.08,14.94a33.43,33.43,0,0,0,7.25,3.17c10.39,3,13.72-2.69,14.06-6.28-2.5-4.84-52.24-100.57-98.09-145.64-9.56-9.4-17.81-15.69-24.89-19.78-16.31-9.42-26.35-7.09-31.6-4C766,479.45,759.35,483.4,753,486.25c-5.4,2.41-14-2.41-14.41-2.62l-.25-11.82c15.52,3.61,25.66-6.36,25.55-24-.14-21.84-15.52-48.28-34.4-59.18-9.58-5.42-18.22-6.17-24.69-2.33s-10,11.82-9.94,22.47c.1,17.44,9.86,38.17,24.28,51.59l.51,12.68a45.51,45.51,0,0,1-14.28-13.74c-6.46-10.1-13.18-21.59-26.59-44.5-5.27-9-15-22.31-30.7-31.34A72.45,72.45,0,0,0,622.11,374.5Zm115.75,337-8.28-8.08-8.23-1.25c.13,11.4.23,19.34.33,27,.09,7.12.19,14,.29,23.26l7.95,8.94,7.9,0c0-9.13,0-16.15,0-23.39C737.85,730.3,737.86,722.38,737.86,711.46Z" transform="translate(-524.46 -352.37)"/><path fill="#4740af" d="M738.22,711.38l.35.2c0,11.07,0,19.06,0,26.81,0,7.3,0,14.38,0,23.64v.25l-8.6,0-8.66-9.74v-.26c-.11-9.37-.2-16.34-.3-23.52-.1-7.74-.21-15.75-.34-27.31v-.29l8.94,1.36,8.76,8.55Zm-16.53,17.76c.1,7.12.19,14,.29,23.27l7.95,8.94,7.9,0c0-9.13,0-16.15,0-23.39,0-7.69,0-15.6,0-26.52l-8.28-8.09-8.23-1.24c.13,11.39.24,19.32.34,27" transform="translate(-524.46 -352.37)"/><polygon fill="#4740af" points="213.72 293.23 248.96 272.75 248.96 272.74 213.72 293.22 213.72 293.23"/><path fill="url(#c)" d="M782.06,865.45c-11.1,9.2-21.89,7.16-22.45,7-.32-1-6.42-20.35,2.49-28.61,4.63-4.29-3.37-19.68-4.39-21l21.07-2.77C788.43,838,789.57,859.23,782.06,865.45ZM676.15,661.37c-18.39,14.33-10,48.63.79,65.77a220.61,220.61,0,0,0,21.39,29.44l22.43-5.81c-6.18-7.6-11.34-14.84-14.61-21-10.17-19.1-11.06-36.48,3.78-40.92Zm169.29-32.75c-.78-.45-1.58-.88-2.38-1.29-30.17-15.14-35.58-15.79-35.86-15.83a69.91,69.91,0,0,0-16.75-14.11c-8.5-4.91-18.79-7.28-27.25,1.33-15.27,15.56,5.45,32.29,20,40.7,2.52,1.45,4.85,2.66,6.78,3.57,13.13,6.16,20.61-1,21-1.42a97.59,97.59,0,0,1,20.15,8.58c7.41,4.28,14.45,10.11,16.25,17.37,3.93,15.82-8,25.5-39,19.22-15.56-3.15-31.79-7.52-47.6-11.42l35.12,41.82c12.71,2.73,18.66,3.88,27.56,5.1,30.22,4.16,55.08-7.23,56.24-33.53C880.56,670,866.36,640.7,845.44,628.62Z" transform="translate(-524.46 -352.37)"/><path fill="#4740af" d="M764.49,368.06l-35.24,20.48.23.13c18.87,10.9,34.26,37.34,34.4,59.18,0,.35,0,.69,0,1l35.24-20.48c0-.34,0-.68,0-1-.14-21.84-15.52-48.28-34.4-59.18Z" transform="translate(-524.46 -352.37)"/><path fill="#4740af" d="M754.26,471.15l35.24-20.48c6.52-3.79,10.38-11.88,10.32-22.9-.06-10.87-3.79-23.16-10.49-34.61s-15.4-20.48-24.68-25.83c-9.83-5.56-18.66-6-25-2.34l-35.24,20.48c6.37-3.7,15.19-3.22,25,2.34,9.28,5.36,18.05,14.51,24.68,25.83s10.43,23.74,10.49,34.61S760.79,467.36,754.26,471.15Z" transform="translate(-524.46 -352.37)"/><path fill="#4740af" d="M934.56,641.29l35.24-20.48c-.59-1.33-51.58-100.39-98.57-146.58-6.27-6.17-15.45-14.3-25.27-20q-2-1.14-4-2.13c-11.26-5.59-20.68-6.22-28-1.88l-35.24,20.48c7.32-4.35,16.74-3.71,28,1.88q2,1,4,2.13c9.82,5.67,19,13.8,25.27,20C883,540.9,934,640,934.56,641.29Z" transform="translate(-524.46 -352.37)"/></g></svg>