<svg width="56" height="80" viewBox="0 0 56 80" fill="none" xmlns="http://www.w3.org/2000/svg">
<path d="M0 72V64V56V48V40V32V24V16V8V0H8H16H24V8H32V16H40V24H48V32H56V40V48H48V56H40V64H32V72H24V80H16H8H0V72Z" fill="#6387FE"/>
<path d="M16 32V40V48V56V64H24V56H32V48H40V40V32H32V24H24V16H16V24V32Z" fill="#80D5FF"/>
<path d="M16 8H24V16H16V8Z" fill="white"/>
<path d="M40 32H48V40H40V32Z" fill="white"/>
<path d="M32 24H40V32H32V24Z" fill="white"/>
<path d="M24 16H32V24H24V16Z" fill="white"/>
</svg>
