<svg width="401" height="302" viewBox="0 0 401 302" fill="none" xmlns="http://www.w3.org/2000/svg">
<g filter="url(#filter0_d)">
<path d="M41.7314 30H41.1646C41.2213 31.1902 41.3347 32.437 41.448 33.5138V50.2328V51.8197C40.9379 51.8763 40.5412 51.933 40.1445 51.933H31.87H31.87C31.3599 51.933 30.9065 51.933 30.3965 51.9897V272H328.082V194.5H338.082V52.0464H151.567C151.51 51.7063 151.396 51.5363 151.396 51.3096C151.396 44.2253 151.453 37.0843 151.453 30H150.886C150.32 30.0567 149.753 30.2267 149.186 30.2267H45.3585C44.4518 30.2267 43.6016 30.2834 42.7515 30.2267C42.4115 30.2267 42.0714 30.1133 41.7314 30Z" fill="#FFCB5C"/>
<path d="M370.84 106.964C367.213 106.964 363.586 106.964 359.958 107.021C359.958 99.7096 359.958 92.3419 359.958 85.0309C363.076 85.0309 366.193 84.9742 369.31 84.9742C369.82 84.9742 370.33 84.9742 370.783 84.9742C370.84 92.2853 370.84 99.5963 370.84 106.964Z" fill="#FFCB5C"/>
<path d="M30 52.0464C30.1133 52.0464 30.17 52.1031 30.2834 52.1031C30.2834 84.6909 30.2834 117.279 30.2834 149.867C30.2834 150.207 30.2834 150.603 30.34 150.943C30.34 151.453 30.2834 151.963 30.2834 152.417C30.2834 188.008 30.2834 223.6 30.2834 259.192C30.2834 259.758 30.34 260.268 30.34 260.835C30.34 264.406 30.34 267.976 30.34 271.717C30.9635 271.717 31.4169 271.717 31.9269 271.717C130.314 271.717 228.644 271.717 327.031 271.717C327.031 271.83 327.088 271.887 327.088 272C228.077 272 129.067 272 30 272C30 198.663 30 125.326 30 52.0464Z" fill="#FFF985"/>
<path d="M150.773 30C150.206 30.1133 149.64 30.2267 149.073 30.2267C114.445 30.2267 79.8734 30.2267 45.2453 30.2267C44.3952 30.2267 43.5451 30.2267 42.6383 30.2267C42.2983 30.2267 41.9582 30.0567 41.6182 30C78.0599 30 114.445 30 150.773 30Z" fill="#FFF985"/>
<path d="M360.016 84.9742C360.016 92.2853 360.016 99.6529 360.016 106.964V106.907C358.202 106.907 356.388 106.907 354.575 106.907C352.761 106.907 351.004 106.851 349.077 106.964C349.077 109.571 349.077 111.951 349.077 114.332C349.077 116.769 349.077 119.206 349.077 121.699C349.077 124.08 349.134 126.46 349.021 129.01C345.337 129.01 341.823 129.01 338.196 129.01C338.196 129.69 338.196 130.144 338.196 130.654C338.196 136.888 338.196 143.066 338.196 149.3C338.196 149.81 338.083 150.32 338.026 151C334.342 151 330.772 151 327.031 151C327.031 151.68 327.031 152.133 327.031 152.644C327.031 158.821 327.031 164.942 327.031 171.119C327.031 171.63 326.974 172.14 326.974 172.763C323.291 172.876 319.777 172.706 316.206 172.82C316.15 176.617 316.206 180.187 316.15 183.871C312.352 183.985 308.725 183.815 305.041 183.985C304.985 187.612 305.041 191.126 304.985 194.809C297.674 194.809 290.533 194.809 283.222 194.809C283.222 196.17 283.222 197.416 283.222 198.607C283.222 199.797 283.222 200.987 283.222 202.12C283.165 203.311 283.392 204.557 282.995 205.918C282.372 205.918 281.748 205.918 281.181 205.918C267.75 205.918 254.318 205.918 240.943 205.918C240.376 205.918 239.809 205.974 239.186 205.974C239.072 209.658 239.242 213.172 239.072 216.799C235.898 216.799 232.838 216.799 229.834 216.799C226.774 216.799 223.77 216.799 220.71 216.799C217.649 216.799 214.646 216.799 211.585 216.799C208.525 216.799 205.521 216.799 202.461 216.799C199.4 216.799 196.396 216.799 193.336 216.799C190.332 216.799 187.272 216.799 184.098 216.799C184.098 220.483 184.098 223.997 184.098 227.681C183.418 227.681 182.851 227.681 182.341 227.681C169.023 227.681 155.704 227.681 142.386 227.681C141.592 227.681 140.855 227.624 140.119 228.191C140.062 231.648 140.175 235.162 140.062 238.789C136.832 238.789 133.828 238.789 130.767 238.789C127.707 238.789 124.703 238.789 121.643 238.789C118.582 238.789 115.579 238.789 112.518 238.789C109.458 238.789 106.454 238.789 103.394 238.789C100.333 238.789 97.3294 238.789 94.269 238.789C91.2652 238.789 88.2048 238.732 85.0311 238.845C85.0311 242.473 85.0311 245.986 85.0311 249.67C70.3524 249.67 55.787 249.67 41.2217 249.67C41.2217 242.813 41.2217 235.898 41.2217 229.041C41.2217 228.701 41.2784 228.361 41.335 227.851C44.9055 227.851 48.4193 227.851 52.1032 227.851C52.1032 225.017 52.1032 222.297 52.1032 219.576C52.1032 216.799 52.1032 214.022 52.1032 211.302C52.1032 208.581 52.1032 205.861 52.1032 203.141C52.1032 200.42 52.1032 197.643 52.1032 194.753C55.8437 194.753 59.3008 194.753 62.9847 194.753C62.9847 191.012 62.9847 187.385 62.9847 183.758C62.9847 180.131 62.9847 176.504 62.9847 172.876C62.9847 169.193 62.9847 165.565 62.9847 161.882C62.9847 158.254 62.928 154.684 62.9847 150.943C64.4015 150.943 65.5917 150.943 66.8385 150.943C68.0287 150.943 69.2189 150.943 70.3524 150.943C71.5425 150.887 72.7894 151.057 74.0362 150.773C74.0362 150.263 74.0362 149.81 74.0362 149.356C74.0362 139.325 74.0362 129.237 74.0362 119.206C74.0362 118.752 73.9795 118.299 73.9795 117.845C73.9795 114.785 74.0362 111.668 74.0362 108.608C74.0362 108.097 74.0362 107.644 74.0362 106.964C77.6634 106.964 81.1772 106.964 84.861 106.964C84.9744 104.414 84.9177 102.033 84.9177 99.6529C84.9177 97.2159 84.9177 94.7789 84.9177 92.3419C84.9177 89.9616 84.9177 87.5246 84.9177 85.0876C85.3144 85.0309 85.5978 84.9176 85.8812 84.9176C86.3346 84.9176 86.788 84.9176 87.2414 84.9176C170.043 84.9176 252.901 84.9176 335.702 84.9176C336.382 84.9176 337.062 84.9176 337.743 84.9176C344.487 84.9176 351.231 84.9176 357.919 84.9742C358.825 84.9176 359.449 84.9742 360.016 84.9742Z" fill="#FFF985"/>
<path d="M74.2625 117.845C74.2625 118.299 74.3192 118.752 74.3192 119.206C74.3192 129.237 74.3192 139.325 74.3192 149.356C74.3192 149.81 74.3192 150.263 74.3192 150.773C73.0157 151.057 71.8255 150.887 70.6354 150.943C69.4452 150.943 68.255 150.943 67.1215 150.943C65.9314 150.943 64.6845 150.943 63.2677 150.943C63.211 154.684 63.2677 158.254 63.2677 161.882C63.2677 165.565 63.2677 169.193 63.2677 172.876C63.2677 176.504 63.2677 180.131 63.2677 183.758C63.2677 187.385 63.2677 190.956 63.2677 194.753C59.5838 194.753 56.07 194.753 52.3862 194.753C52.3862 197.643 52.3862 200.363 52.3862 203.141C52.3862 205.861 52.3862 208.581 52.3862 211.302C52.3862 214.079 52.3862 216.856 52.3862 219.576C52.3862 222.297 52.3862 225.017 52.3862 227.851C48.7023 227.851 45.2452 227.851 41.618 227.851C41.5614 228.361 41.5047 228.701 41.5047 229.041C41.5047 235.898 41.5047 242.813 41.5047 249.67C41.5047 251.541 41.5047 253.354 41.5047 255.224C41.5047 257.038 41.5614 258.908 41.448 260.835C37.6508 260.835 34.0237 260.835 30.4532 260.835C30.4532 260.268 30.3965 259.758 30.3965 259.192C30.3965 223.6 30.3965 188.008 30.3965 152.417C30.3965 151.907 30.4532 151.397 30.4532 150.943C34.0803 150.943 37.6508 150.943 41.3347 150.943C41.6747 149.64 41.5047 148.393 41.5047 147.203C41.5614 146.013 41.5047 144.822 41.5047 143.689C41.5047 142.499 41.5047 141.252 41.5047 139.892C45.1885 139.892 48.7023 139.892 52.3295 139.892C52.4995 136.208 52.3295 132.694 52.4429 129.18C53.633 128.84 54.8232 129.067 55.9567 129.01C57.1468 128.954 58.337 129.01 59.4705 129.01C60.6607 129.01 61.7941 129.01 63.1543 129.01C63.381 127.763 63.2677 126.517 63.2677 125.326C63.2677 124.136 63.2677 122.946 63.2677 121.813C63.2677 120.622 63.2677 119.376 63.2677 118.072C64.5712 117.675 65.818 117.902 67.0082 117.845C68.255 117.789 69.4452 117.845 70.692 117.845C71.8255 117.845 73.0724 117.845 74.2625 117.845Z" fill="#FC8974"/>
<path d="M30.3403 260.835C33.9675 260.835 37.538 260.835 41.3352 260.835C41.4485 258.908 41.3919 257.038 41.3919 255.224C41.3919 253.354 41.3919 251.541 41.3919 249.67C55.9572 249.67 70.4659 249.67 85.2012 249.67C85.2012 245.986 85.2012 242.473 85.2012 238.845C88.375 238.675 91.3787 238.789 94.4392 238.789C97.4996 238.789 100.503 238.789 103.564 238.789C106.624 238.789 109.628 238.789 112.688 238.789C115.749 238.789 118.753 238.789 121.813 238.789C124.873 238.789 127.877 238.789 130.938 238.789C133.941 238.789 137.002 238.789 140.232 238.789C140.345 235.162 140.232 231.648 140.289 228.191C141.026 227.624 141.762 227.681 142.556 227.681C155.874 227.681 169.193 227.681 182.511 227.681C183.021 227.681 183.588 227.681 184.268 227.681C184.268 223.997 184.268 220.54 184.268 216.799C187.442 216.742 190.446 216.799 193.506 216.799C196.567 216.799 199.57 216.799 202.631 216.799C205.691 216.799 208.695 216.799 211.755 216.799C214.816 216.799 217.82 216.799 220.88 216.799C223.94 216.799 226.944 216.799 230.005 216.799C233.008 216.799 236.069 216.799 239.242 216.799C239.413 213.172 239.242 209.658 239.356 205.974C239.979 205.918 240.546 205.918 241.113 205.918C254.545 205.918 267.976 205.918 281.352 205.918C281.918 205.918 282.485 205.918 283.165 205.918C283.505 204.557 283.335 203.367 283.392 202.12C283.449 200.93 283.392 199.74 283.392 198.607C283.392 197.416 283.392 196.17 283.392 194.809C290.703 194.809 297.844 194.809 305.155 194.809C305.212 191.126 305.155 187.612 305.212 183.985C308.895 183.758 312.523 183.985 316.32 183.871C316.433 180.187 316.32 176.617 316.376 172.82C319.947 172.706 323.461 172.82 327.145 172.763C327.145 172.196 327.201 171.63 327.201 171.119C327.201 164.942 327.201 158.821 327.201 152.644C327.201 152.133 327.201 151.68 327.201 151C330.942 151 334.512 151 338.196 151C338.253 150.32 338.366 149.81 338.366 149.3C338.366 143.066 338.366 136.888 338.366 130.654C338.366 130.144 338.366 129.69 338.366 129.01C341.993 129.01 345.507 129.01 349.191 129.01C349.304 126.46 349.248 124.08 349.248 121.699C349.248 119.262 349.248 116.825 349.248 114.332C349.248 111.951 349.248 109.514 349.248 106.964C351.118 106.851 352.932 106.907 354.745 106.907C356.559 106.907 358.372 106.907 360.186 106.907C360.186 112.631 360.186 118.412 360.186 124.136C360.186 132.467 360.186 140.799 360.186 149.13C360.186 149.64 360.186 150.093 360.186 150.83C356.559 150.943 352.988 150.83 349.248 150.943C349.191 154.627 349.248 158.198 349.248 161.825C349.248 165.509 349.248 169.136 349.248 172.82C349.248 176.447 349.248 180.074 349.248 183.701C349.248 187.328 349.248 190.956 349.248 194.696C345.564 194.696 342.05 194.696 338.309 194.696C338.253 195.376 338.196 195.943 338.196 196.51C338.196 207.504 338.196 218.499 338.196 229.551C338.196 232.158 338.196 234.708 338.196 237.315C338.196 237.769 338.139 238.222 338.139 238.732C334.512 238.732 330.998 238.732 327.315 238.732C327.315 239.355 327.258 239.922 327.258 240.432C327.258 250.294 327.258 260.155 327.258 270.073C327.258 270.64 327.201 271.15 327.201 271.717C228.814 271.717 130.484 271.717 32.0972 271.717C31.5872 271.717 31.1338 271.717 30.5104 271.717C30.3403 267.976 30.3403 264.406 30.3403 260.835Z" fill="#FFCB5C"/>
</g>
<defs>
<filter id="filter0_d" x="0" y="0" width="400.84" height="302" filterUnits="userSpaceOnUse" color-interpolation-filters="sRGB">
<feFlood flood-opacity="0" result="BackgroundImageFix"/>
<feColorMatrix in="SourceAlpha" type="matrix" values="0 0 0 0 0 0 0 0 0 0 0 0 0 0 0 0 0 0 127 0" result="hardAlpha"/>
<feOffset/>
<feGaussianBlur stdDeviation="15"/>
<feColorMatrix type="matrix" values="0 0 0 0 0 0 0 0 0 0 0 0 0 0 0 0 0 0 0.25 0"/>
<feBlend mode="normal" in2="BackgroundImageFix" result="effect1_dropShadow"/>
<feBlend mode="normal" in="SourceGraphic" in2="effect1_dropShadow" result="shape"/>
</filter>
</defs>
</svg>
