<svg viewBox="-50 -30 647.14 616.06" xmlns="http://www.w3.org/2000/svg" xmlns:xlink="http://www.w3.org/1999/xlink"><linearGradient id="a" gradientTransform="matrix(-1 .18 0 -1 1191.23 1260.98)" gradientUnits="userSpaceOnUse" x1="342.38" x2="275.53" y1="730.52" y2="975.07"><stop offset="0" stop-color="#4740af"/><stop offset=".12" stop-color="#375ead"/><stop offset=".29" stop-color="#2580ab"/><stop offset=".46" stop-color="#169baa"/><stop offset=".64" stop-color="#0cafa9"/><stop offset=".81" stop-color="#06baa8"/><stop offset="1" stop-color="#04bea8"/></linearGradient><clipPath id="b" transform="translate(-461.09 -423)"><path d="m740.5 479.13c12.67-6.05 31.61-12.37 46.29-17.34a7.91 7.91 0 0 0 4.8-4l14.09-30.66c1.61-3.5 5.73-5.15 8.59-3.48 59.38 34.44 127.28 72.83 187.18 107.75 3.32 1.94-1.14-.8-4.84 1.78l-68.73 47.93a5.69 5.69 0 0 1 -6.14.52c-58.14-35-114.46-55.95-172.61-90.8-4.13-2.47-13.64-9.31-8.63-11.7z"/></clipPath><linearGradient id="c" gradientTransform="matrix(-1 .18 0 -1 1191.23 1260.98)" gradientUnits="userSpaceOnUse" x1="233.16" x2="415.78" y1="885.15" y2="441.63"><stop offset="0" stop-color="#56e864"/><stop offset=".34" stop-color="#35d77f"/><stop offset=".79" stop-color="#04bea8"/></linearGradient><clipPath id="d" transform="translate(-461.09 -423)"><path d="m732.22 489.64-46.67 288.14c-.68 4.19.92 8 4.17 10l179.36 108.5c3.47 2.1 8.19 1.71 12.1-1l121-83.75a13.86 13.86 0 0 0 6.1-11.19l-2.4-260.9c-.06-6.45-5.53-10.57-12-9l-41.35 9.94a14.23 14.23 0 0 0 -9.15 7.43l-10.5 21c-3.3 6.6-11.17 9.67-16.65 6.51l-165.96-95.89-.15-.09c-6.76-3.9-16.51 1.71-17.9 10.3z"/></clipPath><linearGradient id="e" gradientTransform="matrix(-1 .18 0 -1 1191.23 1260.98)" gradientUnits="userSpaceOnUse" x1="244.29" x2="259.97" y1="413.97" y2="533.87"><stop offset="0" stop-color="#4740af"/><stop offset=".23" stop-color="#3a58ae"/><stop offset=".72" stop-color="#1997aa"/><stop offset="1" stop-color="#04bea8"/></linearGradient><linearGradient id="f" gradientTransform="matrix(1 .18 0 -1 0 1260.98)" gradientUnits="userSpaceOnUse" x1="575.58" x2="575.58" y1="667.4" y2="881.83"><stop offset="0" stop-color="#4740af"/><stop offset="1" stop-color="#4286f3"/></linearGradient><clipPath id="g" transform="translate(-461.09 -423)"><path d="m684.2 590.32c-10.56-5-26.35-10.31-38.57-14.45a6.58 6.58 0 0 1 -4-3.32q-5.86-12.78-11.74-25.55c-1.34-2.92-4.77-4.29-7.16-2.9-49.49 28.7-106.07 60.69-156 89.79-2.77 1.61.95-.67 4 1.48l57.27 39.94a4.75 4.75 0 0 0 5.12.44c48.45-29.13 95.39-46.62 143.84-75.66 3.5-2.09 11.42-7.78 7.24-9.77z"/></clipPath><linearGradient id="h" gradientTransform="matrix(1 .18 0 -1 0 1260.98)" gradientUnits="userSpaceOnUse" x1="457.35" x2="674.51" y1="522.17" y2="673.21"><stop offset="0" stop-color="#4740af"/><stop offset="1" stop-color="#4fc2f8"/></linearGradient><clipPath id="i" transform="translate(-461.09 -423)"><path d="m691.11 599.08 38.89 240.11a8 8 0 0 1 -3.48 8.33l-149.47 90.48c-2.89 1.75-6.83 1.42-10.08-.83l-100.8-69.79a11.56 11.56 0 0 1 -5.08-9.32q1-108.71 2-217.41c.05-5.38 4.61-8.81 10-7.52l34.46 8.29a11.84 11.84 0 0 1 7.62 6.19l8.74 17.39c2.75 5.5 9.31 8.06 13.88 5.42l138.27-79.87.12-.07c5.65-3.23 13.82 1.44 14.93 8.6z"/></clipPath><linearGradient id="j" gradientTransform="matrix(1 .18 0 -1 0 1260.98)" gradientUnits="userSpaceOnUse" x1="515.68" x2="528.75" y1="445.31" y2="545.22"><stop offset="0" stop-color="#4740af"/><stop offset=".14" stop-color="#484ab5"/><stop offset=".38" stop-color="#4965c4"/><stop offset=".69" stop-color="#4c90dc"/><stop offset="1" stop-color="#4fc2f8"/></linearGradient><path d="m740.5 479.13c12.67-6.05 31.61-12.37 46.29-17.34a7.91 7.91 0 0 0 4.8-4l14.09-30.66c1.61-3.5 5.73-5.15 8.59-3.48 59.38 34.44 127.28 72.83 187.18 107.75 3.32 1.94-1.14-.8-4.84 1.78l-68.73 47.93a5.69 5.69 0 0 1 -6.14.52c-58.14-35-114.46-55.95-172.61-90.8-4.13-2.47-13.64-9.31-8.63-11.7z" fill="url(#a)" transform="translate(-461.09 -423)"/><g clip-path="url(#b)"><path d="m727.17 470.49c21.78-5 41.88-10.23 63.65-15.23-2.55 25.63-3.43 51.47-6 77.09z" fill="#4740af" transform="translate(-461.09 -423)"/></g><path d="m732.22 489.64-46.67 288.14c-.68 4.19.92 8 4.17 10l179.36 108.5c3.47 2.1 8.19 1.71 12.1-1l121-83.75a13.86 13.86 0 0 0 6.1-11.19l-2.4-260.9c-.06-6.45-5.53-10.57-12-9l-41.35 9.94a14.23 14.23 0 0 0 -9.15 7.43l-10.5 21c-3.3 6.6-11.17 9.67-16.65 6.51l-165.96-95.89-.15-.09c-6.76-3.9-16.51 1.71-17.9 10.3z" fill="url(#c)" transform="translate(-461.09 -423)"/><g clip-path="url(#d)"><path d="m939.44 551.07c-5 9.18-8.27 13.15-13.25 22.33a2.88 2.88 0 0 0 -.33 1c-15.7 99.7-30.15 213.6-45.86 313.35-.47 3 1.08-2.17 2.36-5 14.28-32.2 28.69-66 42.92-97.52a3 3 0 0 0 .25-.95l20.13-239.8c.24-2.77-4.83 4.03-6.22 6.59z" fill="#4740af" transform="translate(-461.09 -423)"/></g><path d="m923.69 788.86c-14.59 33.31-29.11 65.72-43.68 98.9-1.7 3.87 2.09 6.89 5.6 4.46 37.75-26.12 77.82-53.93 115.42-79.93 3-2.09 3-6.44-.09-7.37-23.2-7-48.73-11.65-71.68-19a4.83 4.83 0 0 0 -5.57 2.94z" fill="url(#e)" transform="translate(-461.09 -423)"/><ellipse cx="788.87" cy="519.1" fill="#893c7b" rx="5.48" ry="4.52" transform="matrix(.47516356 -.87989749 .87989749 .47516356 -503.79 543.62)"/><g transform="translate(-461.09 -423)"><path d="m788.88 519.05c-1.29 5.56-2.89 13.29-4.23 22.55-1.49 10.34-2.52 17.48-2.19 26.32a91.68 91.68 0 0 0 4.91 25.79c1.83 5.75 2.92 9.19 5.36 13.33 5.41 9.17 12.47 13.38 18.58 16.91 8.61 5 13.48 7.79 20.64 6.29 7.88-1.65 13.45-7.46 14.86-9 4-4.3 6.72-9.43 9.93-20.37a174.59 174.59 0 0 0 6.62-37.12" fill="none" stroke="#893c7b" stroke-miterlimit="10" stroke-width="4.8"/><path d="m869.62 561.88a6.3 6.3 0 0 1 -4.37 6.37 4 4 0 0 1 -5.11-3.89 6.3 6.3 0 0 1 4.37-6.37 4 4 0 0 1 5.11 3.89z" fill="#893c7b"/><path d="m684.2 590.32c-10.56-5-26.35-10.31-38.57-14.45a6.58 6.58 0 0 1 -4-3.32q-5.86-12.78-11.74-25.55c-1.34-2.92-4.77-4.29-7.16-2.9-49.49 28.7-106.07 60.69-156 89.79-2.77 1.61.95-.67 4 1.48l57.27 39.94a4.75 4.75 0 0 0 5.12.44c48.45-29.13 95.39-46.62 143.84-75.66 3.5-2.09 11.42-7.78 7.24-9.77z" fill="url(#f)"/></g><g clip-path="url(#g)"><path d="m695.32 583.12c-18.15-4.17-34.9-8.52-53-12.7 2.13 21.36 2.86 42.89 5 64.25z" fill="#4740af" transform="translate(-461.09 -423)"/></g><path d="m691.11 599.08 38.89 240.11a8 8 0 0 1 -3.48 8.33l-149.47 90.48c-2.89 1.75-6.83 1.42-10.08-.83l-100.8-69.79a11.56 11.56 0 0 1 -5.08-9.32q1-108.71 2-217.41c.05-5.38 4.61-8.81 10-7.52l34.46 8.29a11.84 11.84 0 0 1 7.62 6.19l8.74 17.39c2.75 5.5 9.31 8.06 13.88 5.42l138.27-79.87.12-.07c5.65-3.23 13.82 1.44 14.93 8.6z" fill="url(#h)" transform="translate(-461.09 -423)"/><g clip-path="url(#i)"><path d="m518.43 650.27c4.15 7.65 6.89 11 11 18.61a2.73 2.73 0 0 1 .28.8c13.08 83.11 25.13 178.05 38.21 261.16.39 2.49-.9-1.81-2-4.21-11.9-26.84-23.91-55-35.77-81.27a2.26 2.26 0 0 1 -.21-.79l-16.71-199.83c-.23-2.27 4.04 3.39 5.2 5.53z" fill="#4740af" transform="translate(-461.09 -423)"/></g><path d="m531.55 848.43c12.16 27.76 24.25 54.76 36.4 82.42 1.42 3.22-1.74 5.74-4.67 3.72-31.46-21.77-64.85-44.94-96.18-66.57-2.52-1.74-2.48-5.36.08-6.14 19.33-5.87 40.61-9.7 59.73-15.8a4 4 0 0 1 4.64 2.37z" fill="url(#j)" transform="translate(-461.09 -423)"/><ellipse cx="643.88" cy="623.54" fill="#893c7b" rx="3.77" ry="4.56" transform="matrix(.87989749 -.47516356 .47516356 .87989749 -680.03 -42.22)"/><path d="m643.89 623.59c1.07 4.63 2.41 11.08 3.53 18.79 1.24 8.62 2.1 14.57 1.83 21.94a76.45 76.45 0 0 1 -4.09 21.49c-1.52 4.8-2.43 7.66-4.46 11.11-4.5 7.64-10.39 11.15-15.49 14.09-7.21 4.15-11.21 6.49-17.21 5.24-6.57-1.38-11.21-6.22-12.38-7.47-3.35-3.58-5.6-7.86-8.27-17a145.4 145.4 0 0 1 -5.52-30.93" fill="none" stroke="#893c7b" stroke-miterlimit="10" stroke-width="4" transform="translate(-461.09 -423)"/><path d="m576.6 659.28a5.23 5.23 0 0 0 3.64 5.31 3.35 3.35 0 0 0 4.26-3.24 5.23 5.23 0 0 0 -3.64-5.31 3.35 3.35 0 0 0 -4.26 3.24z" fill="#893c7b" transform="translate(-461.09 -423)"/></svg>