<svg xmlns="http://www.w3.org/2000/svg" xmlns:xlink="http://www.w3.org/1999/xlink" viewBox="5 -55 523.98 613.88"><defs><linearGradient id="a" x1="468.08" x2="885.82" y1="691.25" y2="691.25" gradientTransform="matrix(1, 0, 0, -1, 0, 1366)" gradientUnits="userSpaceOnUse"><stop offset="0" stop-color="#4740af"/><stop offset=".13" stop-color="#4748b3"/><stop offset=".33" stop-color="#495dbf"/><stop offset=".58" stop-color="#4b81d3"/><stop offset=".86" stop-color="#4eb1ee"/><stop offset=".94" stop-color="#4fc2f8"/></linearGradient><linearGradient id="b" x1="604.41" x2="556.28" y1="616.37" y2="792.54" gradientTransform="matrix(0.12, 1.06, 1.06, -0.12, 1.35, -48.16)" gradientUnits="userSpaceOnUse"><stop offset="0" stop-color="#4745b4"/><stop offset=".03" stop-color="#4742b1"/><stop offset=".16" stop-color="#4740af"/><stop offset=".79" stop-color="#4286f3"/></linearGradient><radialGradient id="c" cx="831.3" cy="483.88" r="97.28" fx="734.072" gradientTransform="matrix(1, 0, 0, -1, 0, 1366)" gradientUnits="userSpaceOnUse"><stop offset=".23" stop-color="#3fa9f5"/><stop offset=".42" stop-color="#4285dd"/><stop offset=".65" stop-color="#4560c4"/><stop offset=".84" stop-color="#4648b5"/><stop offset=".96" stop-color="#4740af"/></radialGradient><linearGradient id="d" x1="769" x2="818" y1="534.78" y2="534.78" gradientTransform="matrix(1, 0, 0, -1, 0, 1366)" gradientUnits="userSpaceOnUse"><stop offset="0" stop-color="#56e864"/><stop offset=".17" stop-color="#42e377"/><stop offset=".53" stop-color="#1edb99"/><stop offset=".81" stop-color="#08d6ae"/><stop offset="1" stop-color="#00d4b6"/></linearGradient><linearGradient id="e" x1="789" x2="846" y1="450.5" y2="450.5" xlink:href="#d"/><linearGradient id="f" x1="855" x2="906.05" y1="517.5" y2="517.5" xlink:href="#d"/><linearGradient id="g" x1="872" x2="905" y1="437.5" y2="437.5" xlink:href="#d"/><linearGradient id="h" x1="751.37" x2="766" y1="462.5" y2="462.5" xlink:href="#d"/></defs><title>2</title><g style="isolation:isolate"><path fill="#4740af" d="M474.44,587.68l35.24-20.48c-3.91,2.27-6.35,7.38-6.36,14.5,0,12.79,7.88,28.07,18,34.81L486.05,637c-10.09-6.74-18-22-18-34.81C468.09,595.06,470.52,590,474.44,587.68Z" transform="translate(-467.37 -429.47)"/><path fill="#4740af" d="M596.51,604.27l-35.24,20.48c-3.31,1.92-7.77,1.5-12.53-1.25L584,603C588.74,605.77,593.2,606.19,596.51,604.27Z" transform="translate(-467.37 -429.47)"/><polygon fill="#4740af" points="18.68 207.52 53.92 187.05 140.9 237.25 105.66 257.73 18.68 207.52"/><path fill="#4740af" d="M620.5,667.93l-35.24,20.48c-3.23,1.87-7.61,1.45-12.22-1.21l35.24-20.48C612.88,669.39,617.27,669.81,620.5,667.93Z" transform="translate(-467.37 -429.47)"/><path fill="#4740af" d="M735.55,860.65l-35.24,20.48a10,10,0,0,1-1.51.72c-3.5,1.33-7.62.72-11.81-1.7a26.78,26.78,0,0,1-2.37-1.56c-4.89-3.61-9.36-9.39-12.58-16.26-3.77-8-5.34-16.56-4.33-23.4L703,818.45c-1,6.84.56,15.37,4.33,23.4,3.22,6.87,7.69,12.65,12.58,16.26a26.78,26.78,0,0,0,2.37,1.56c4.19,2.42,8.31,3,11.81,1.7A10,10,0,0,0,735.55,860.65Z" transform="translate(-467.37 -429.47)"/><polygon fill="#4740af" points="257.6 323.46 292.84 302.98 275.56 417.58 240.32 438.06 257.6 323.46"/><polygon fill="#4740af" points="163.62 224.89 198.86 204.41 154.57 238.69 119.33 259.17 163.62 224.89"/><path fill="#4740af" d="M631.15,654.25l35.24-20.48a.91.91,0,0,0-.16.11L631,654.36Z" transform="translate(-467.37 -429.47)"/><path fill="#4740af" d="M676.15,729.91l35.24-20.48c3.09,5.64,4.49,11.64,3.85,16.48L680,746.38C680.64,741.55,679.24,735.54,676.15,729.91Z" transform="translate(-467.37 -429.47)"/><path fill="#4740af" d="M630.64,653.39l35.24-20.48a2.65,2.65,0,0,1,2.62.22l-35.24,20.48A2.67,2.67,0,0,0,630.64,653.39Z" transform="translate(-467.37 -429.47)"/><polygon fill="#4740af" points="168.75 227.19 203.99 206.71 244.02 279.96 208.78 300.44 168.75 227.19"/><path fill="#4740af" d="M625.6,527.86l-35.24,20.48c-2.85,1.66-6.46,1.69-10.32,0a18.68,18.68,0,0,1-1.94-1,29.91,29.91,0,0,1-10.33-10.71c-5.92-10.1-6.81-23.1-2-29.62L601,486.53c-4.77,6.52-3.88,19.52,2,29.62a29.59,29.59,0,0,0,10.33,10.71,20.87,20.87,0,0,0,1.94,1C619.14,529.54,622.75,529.52,625.6,527.86Z" transform="translate(-467.37 -429.47)"/><polygon fill="#4740af" points="249.28 172.22 284.52 151.74 243.77 182.35 208.53 202.83 249.28 172.22"/><path fill="#4740af" d="M710.6,611c-1.63,1.23-2.45,3.47-2.46,6.18L672.9,637.63c0-2.71.83-5,2.46-6.18Z" transform="translate(-467.37 -429.47)"/><polygon fill="#4740af" points="161.12 90.62 196.36 70.14 161.62 96.72 126.38 117.2 161.12 90.62"/><path fill="#4740af" d="M629.2,519.62l35.24-20.48a6.33,6.33,0,0,0-.71.48L628.49,520.1A5.53,5.53,0,0,1,629.2,519.62Z" transform="translate(-467.37 -429.47)"/><path fill="#4740af" d="M610,471.92l35.24-20.48c-7.88,4.58-16,11.73-24,18.73C614.5,476,607.6,482.08,601,486.54L565.73,507c6.63-4.46,13.53-10.51,20.2-16.37C593.92,483.64,602.07,476.49,610,471.92Z" transform="translate(-467.37 -429.47)"/><polygon fill="#4740af" points="171.8 90.32 207.04 69.84 227.37 81.57 192.13 102.05 171.8 90.32"/><path fill="#4740af" d="M659.5,531.52,694.74,511a5.5,5.5,0,0,1,2.24,2.9c.42,1.24.31,2.34-.28,2.86l-35.24,20.48c.6-.52.7-1.62.28-2.86A5.5,5.5,0,0,0,659.5,531.52Z" transform="translate(-467.37 -429.47)"/><path fill="#4740af" d="M716.79,601.59,752,581.11l-.14.09-35.24,20.48Z" transform="translate(-467.37 -429.47)"/><path fill="#4740af" d="M716.29,600.73l35.24-20.48a2.69,2.69,0,0,1,2.66.21L719,600.94A2.69,2.69,0,0,0,716.29,600.73Z" transform="translate(-467.37 -429.47)"/><polygon fill="#4740af" points="208.5 216.95 243.74 196.47 288.13 281.15 252.89 301.63 208.5 216.95"/><polygon fill="#4740af" points="254.5 174.51 289.74 154.03 328.58 222.81 293.34 243.29 254.5 174.51"/><path fill="#4740af" d="M719,600.93l35.24-20.48a8.15,8.15,0,0,1,2.91,3L721.87,604A8.23,8.23,0,0,0,719,600.93Z" transform="translate(-467.37 -429.47)"/><path fill="#4740af" d="M760.71,672.76,796,652.28a15.21,15.21,0,0,0,5.4,5.75l-35.24,20.48A15.28,15.28,0,0,1,760.71,672.76Z" transform="translate(-467.37 -429.47)"/><path fill="#4740af" d="M806.66,658.55,771.42,679c-1.38.8-3.21.64-5.31-.52L801.35,658C803.45,659.19,805.28,659.35,806.66,658.55Z" transform="translate(-467.37 -429.47)"/><polygon fill="#4740af" points="248.76 100.37 284 79.89 329.31 160.46 294.07 180.94 248.76 100.37"/><path fill="#4740af" d="M808.5,596.88l-35.24,20.48c-1.53.89-3.55.71-5.81-.56a18.55,18.55,0,0,1-6.23-6.76l35.24-20.48a18.72,18.72,0,0,0,6.23,6.76C805,597.59,807,597.77,808.5,596.88Z" transform="translate(-467.37 -429.47)"/><polygon fill="#4740af" points="340.63 164.99 375.87 144.51 341.95 168.08 306.71 188.56 340.63 164.99"/><path fill="#4740af" d="M809.53,593.33l35.24-20.48a8.63,8.63,0,0,0-1.53,1.13L808,594.46A9.15,9.15,0,0,1,809.53,593.33Z" transform="translate(-467.37 -429.47)"/><path fill="url(#a)" d="M820.66,593.8a31.19,31.19,0,0,1,11.68,12c5.5,9.81,6.38,22,2,28.26l-62.68,44.79c-1.41,1-3.35.92-5.46-.25a15.39,15.39,0,0,1-5.55-5.83L721.87,604a8.21,8.21,0,0,0-2.8-3,2.69,2.69,0,0,0-3-.15l-40.75,30.6c-3.27,2.45-3.27,9,0,15.19l44.38,84.69c3.82,7.28,5.48,15,4.55,21.06L707,867c-.3,7.54-3.29,12.93-8.18,14.79-3.5,1.33-7.62.72-11.81-1.7a26.78,26.78,0,0,1-2.37-1.56c-4.89-3.61-9.35-9.38-12.58-16.26-3.77-8-5.34-16.56-4.33-23.4L680,746.38c.64-4.83-.76-10.84-3.85-16.48l-40-73.25a7.71,7.71,0,0,0-2.77-3,2.59,2.59,0,0,0-2.89-.13L586.16,687.8c-3.28,2.54-8.07,2.32-13.13-.6l-87-50.21c-10.09-6.74-18-22-18-34.81,0-12.37,7.34-18.63,17-14.61l63.65,36.75c5.69,3.28,11,3.38,14.48.25l98.23-87.28c.6-.52.7-1.62.28-2.86a5.45,5.45,0,0,0-2.24-2.9l-20.33-11.74c-4.32-2.49-8.41-2.69-11.22-.54l-34.78,26.61c-3.06,3.88-7.85,4.78-13.14,2.47a20.87,20.87,0,0,1-1.94-1,29.91,29.91,0,0,1-10.33-10.71c-5.92-10.1-6.81-23.1-2-29.62,6.63-4.46,13.53-10.51,20.2-16.37C599.24,479,613,466.86,625.24,467c7.92.08,18.72,5.09,30.88,12.11,7.14,4.12,14.76,8.94,22.53,13.86,5.35,3.38,10.88,6.88,16.34,10.2a35.31,35.31,0,0,1,11.15,11.57l9.48,15.4,45.29,80.54a18.16,18.16,0,0,0,6.47,6.91c2.67,1.49,5,1.61,6.69.44L808,594.46C811.2,591.54,815.81,591.3,820.66,593.8Z" transform="translate(-467.37 -429.47)"/><path fill="#4740af" d="M832.85,605.51c5.72,10.19,6.64,22.79,2.14,29.31l-62.75,44.86c-1.52,1.08-3.7,1-6-.28A17,17,0,0,1,760.2,673l-38.84-68.79a6.61,6.61,0,0,0-2.29-2.44,2.21,2.21,0,0,0-2.42-.13L675.9,632.3c-3,2.28-3,8.35,0,14.12l44.38,84.68c4,7.54,5.67,15.49,4.72,21.83L707.69,867.54c-.3,7.73-3.38,13.28-8.43,15.2-3.64,1.38-7.91.74-12.27-1.77a28.47,28.47,0,0,1-2.48-1.63c-5.08-3.75-9.72-9.74-13.06-16.86-3.88-8.27-5.5-17.05-4.45-24.08l12.29-92.53c.61-4.61-.72-10.33-3.66-15.71l-40-73.25a6.26,6.26,0,0,0-2.23-2.42,2.11,2.11,0,0,0-2.37-.13L586.7,688.64c-3.42,2.65-8.4,2.42-13.67-.63l-87-50.23c-10.48-7-18.67-22.8-18.66-36,0-12.77,7.61-19.24,17.67-15l63.7,36.77c5.47,3.16,10.54,3.24,13.92.24l98.23-87.28a1.88,1.88,0,0,0,.2-2.05,3.85,3.85,0,0,0-1.6-2.08l-20.33-11.74c-4.11-2.37-8-2.56-10.68-.51l-34.74,26.57c-3.15,4-8.13,4.93-13.63,2.52a20.24,20.24,0,0,1-2-1,31.18,31.18,0,0,1-10.83-11.24c-6.15-10.49-7.08-24-2.13-30.71,6.66-4.49,13.56-10.54,20.24-16.39,13.38-11.73,27.21-23.87,39.58-23.74,8,.08,18.95,5.13,31.22,12.21,7.16,4.13,14.77,9,22.54,13.87,5.34,3.38,10.86,6.87,16.32,10.19a36.67,36.67,0,0,1,11.6,12l9.5,15.44,45.31,80.57a17,17,0,0,0,6,6.39c2.4,1.35,4.54,1.47,6.1.37l33.91-23.55c3.31-3,8.11-3.26,13.17-.66A33,33,0,0,1,832.85,605.51Zm1.54,28.54c4.33-6.32,3.45-18.46-2-28.26a30.84,30.84,0,0,0-10.83-11.52c-5.7-3-10.31-2.72-13.51.19L774.08,618c-1.7,1.17-4,1.05-6.54-.36a18.22,18.22,0,0,1-6.62-7l-45.29-80.54-9.48-15.4A35.22,35.22,0,0,0,695,503.16c-5.46-3.32-11-6.82-16.34-10.2-7.77-4.92-15.38-9.74-22.53-13.86-12.16-7-23-12-30.88-12.11-12.21-.12-26,12-39.33,23.66-6.67,5.86-13.57,11.91-20.2,16.37-4.77,6.52-3.88,19.52,2,29.62a29.59,29.59,0,0,0,10.33,10.71,20.87,20.87,0,0,0,1.94,1c5.28,2.31,10.07,1.42,13.14-2.47L628,519.26c2.81-2.15,6.91-2,11.22.54l20.33,11.74a5.5,5.5,0,0,1,2.24,2.9c.42,1.24.31,2.34-.28,2.86l-98.23,87.28c-3.52,3.13-8.8,3-14.48-.25L485.1,587.58c-9.66-4-17,2.24-17,14.61,0,12.79,7.88,28.07,18,34.81l87,50.21c5.06,2.92,9.85,3.14,13.13.6l44.29-34.28a2.51,2.51,0,0,1,2.81.1,7.7,7.7,0,0,1,2.85,3l40,73.25c3.09,5.64,4.49,11.64,3.85,16.48l-12.29,92.54c-1,6.84.56,15.37,4.33,23.4,3.22,6.87,7.69,12.65,12.58,16.26a26.78,26.78,0,0,0,2.37,1.56c4.19,2.42,8.31,3,11.81,1.7,4.9-1.86,7.88-7.25,8.18-14.79l17.28-114.66c.93-6.1-.73-13.78-4.55-21.07l-44.38-84.68c-3.25-6.2-3.24-12.74,0-15.19l40.75-30.6A2.59,2.59,0,0,1,719,601a8.15,8.15,0,0,1,2.91,3l38.83,68.77a15.21,15.21,0,0,0,5.4,5.75c2.26,1.25,4.2,1.34,5.61.33l62.68-44.81" transform="translate(-467.37 -429.47)"/><polygon fill="#4740af" points="17.67 157.26 52.91 136.78 116.61 173.55 81.37 194.03 17.67 157.26"/><path fill="#4740af" d="M473.92,586.83l35.24-20.48c3-1.74,6.83-1.88,11.12-.1L485,586.73C480.75,584.94,476.92,585.09,473.92,586.83Z" transform="translate(-467.37 -429.47)"/><path fill="#4740af" d="M736.05,861.52,700.81,882c4.12-2.4,6.61-7.56,6.88-14.46l35.24-20.48C742.66,854,740.17,859.12,736.05,861.52Z" transform="translate(-467.37 -429.47)"/><path fill="#4740af" d="M626.1,528.73l-35.24,20.48a10.12,10.12,0,0,0,2.88-2.54L629,526.19A9.86,9.86,0,0,1,626.1,528.73Z" transform="translate(-467.37 -429.47)"/><path fill="#4740af" d="M720.26,731.1l35.24-20.48c4,7.54,5.67,15.49,4.72,21.83L725,752.93C725.92,746.59,724.21,738.64,720.26,731.1Z" transform="translate(-467.37 -429.47)"/><path fill="#4740af" d="M675.9,632.3l35.24-20.48c-3,2.28-3,8.35,0,14.12l-35.24,20.48C672.85,640.65,672.85,634.57,675.9,632.3Z" transform="translate(-467.37 -429.47)"/><path fill="#4740af" d="M609.43,471.06l35.24-20.48c5.33-3.1,10.54-5,15.52-5,8,.08,18.95,5.13,31.22,12.21,7.16,4.13,14.77,8.95,22.54,13.87,5.34,3.38,10.86,6.87,16.32,10.19a36.67,36.67,0,0,1,11.6,12l-35.24,20.48a36.67,36.67,0,0,0-11.6-12c-5.45-3.32-11-6.81-16.32-10.19-7.78-4.92-15.39-9.74-22.54-13.87C643.91,471.21,633,466.16,625,466.08,620,466,614.76,468,609.43,471.06Z" transform="translate(-467.37 -429.47)"/><polygon fill="#4740af" points="238.78 85.26 274.49 64.45 284 79.89 248.28 100.71 238.78 85.26"/><polygon fill="#4740af" points="367.62 205.36 402.86 184.88 340.11 229.74 304.87 250.22 367.62 205.36"/><path fill="#4740af" d="M809.07,592.44,844.31,572c3.17-1.84,7.27-1.68,11.56.53L820.63,593C816.34,590.76,812.24,590.6,809.07,592.44Z" transform="translate(-467.37 -429.47)"/><path fill="#4740af" d="M867.14,584.55,831.9,605a31.17,31.17,0,0,0-10.67-10.89l35.24-20.48A31.09,31.09,0,0,1,867.14,584.55Z" transform="translate(-467.37 -429.47)"/><path fill="#4740af" d="M832.85,605.51,868.09,585c5.72,10.19,6.64,22.79,2.14,29.31L835,634.82C839.49,628.31,838.57,615.7,832.85,605.51Z" transform="translate(-467.37 -429.47)"/><path fill="#4740af" d="M820.63,593l35.24-20.48A32.6,32.6,0,0,1,868.09,585l-35.24,20.48A32.53,32.53,0,0,0,820.63,593Z" transform="translate(-467.37 -429.47)"/></g><path fill="url(#b)" d="M735.5,460.43a61.78,61.78,0,1,1,22.57,84.46A61.81,61.81,0,0,1,735.5,460.43Z" transform="translate(-467.37 -429.47)"/><path fill="url(#c)" d="M790.4,953c-38-21.94-50.49-71.44-27.9-110.56s71.7-53,109.7-31.12,50.49,71.44,27.9,110.56S828.4,974.89,790.4,953Z" transform="translate(-467.37 -429.47)"/><path fill="none" stroke="#56e864" stroke-miterlimit="10" d="M894,874a66.64,66.64,0,0,1,4,13,59,59,0,0,1,1,19,57,57,0,0,1-6.5,20.5l-15,8h0a55,55,0,0,1-16-1c-7.09-1.51-10.48-3.75-17-6a75.62,75.62,0,0,0-22-4,76.82,76.82,0,0,0-8,20,41.33,41.33,0,0,0-1,7,39.32,39.32,0,0,0,1,11" transform="translate(-467.37 -429.47)"/><path fill="none" stroke="#56e864" stroke-miterlimit="10" d="M763.5,911.5a49.2,49.2,0,0,0,11,4,40.2,40.2,0,0,0,16,1c3.09-.5,16.07-2.61,19-11,1.48-4.24-.35-8.49-4-17-3.42-8-5.67-9.78-8-15-2.2-4.92-4.35-12.64-3-24l-11-7a41.79,41.79,0,0,0-14,8,43.69,43.69,0,0,0-9,11,58.9,58.9,0,0,0-8,23" transform="translate(-467.37 -429.47)"/><path fill="none" stroke="#56e864" stroke-miterlimit="10" d="M806.5,810.5a46.12,46.12,0,0,1,11-6,48.92,48.92,0,0,1,17-3,51.35,51.35,0,0,1,23,4,44.5,44.5,0,0,1,4,2,75.12,75.12,0,0,1,15,18c0,1.57-.75,25.46-7,37-1.37,2.52-3,5-3,5a74.27,74.27,0,0,1-10,12c-6.84,6.92-13.31,12.84-18,17" transform="translate(-467.37 -429.47)"/><path fill="none" stroke="#56e864" stroke-miterlimit="10" d="M810.5,825.5c1.83.27,4.61.66,8,1,9.57,1,13.51,1.52,18,2,4.33.46,9.61,2,20,7,19.68,9.5,18.68,11.42,25,12,6.54.6,11.36-1.11,19,2a31.29,31.29,0,0,1,7,4" transform="translate(-467.37 -429.47)"/><path fill="url(#d)" d="M777,824a59.86,59.86,0,0,0-8,26,64.85,64.85,0,0,0,10,2,63.82,63.82,0,0,0,15,0q5.65-6.39,12-13,6.07-6.32,12-12a37.15,37.15,0,0,0-6-11,36.73,36.73,0,0,0-6-6,82.1,82.1,0,0,0-29,14Z" transform="translate(-467.37 -429.47)"/><path fill="url(#e)" d="M805,888q7.75,1.59,16,3c6.86,1.17,13.54,2.16,20,3,1.12,4.62,2.15,9.63,3,15a186.35,186.35,0,0,1,2,19,119.63,119.63,0,0,1-32,15,90.92,90.92,0,0,1-15-13,89.87,89.87,0,0,1-10-13c2-4.46,4.35-9.14,7-14C799,897.54,802,892.54,805,888Z" transform="translate(-467.37 -429.47)"/><path fill="url(#f)" d="M855,836l5,15,6,16c4.35,1.4,9,2.76,14,4s9.57,2.2,14,3a79.69,79.69,0,0,0,4-12,78.75,78.75,0,0,0,2-12,80.9,80.9,0,0,0-25-27,56.92,56.92,0,0,0-20,13Z" transform="translate(-467.37 -429.47)"/><path fill="url(#g)" d="M877,934a79.18,79.18,0,0,0,22-28l6,4a76.3,76.3,0,0,1-7,15,79.14,79.14,0,0,1-26,26q1.51-4.93,3-10C875.69,938.65,876.35,936.32,877,934Z" transform="translate(-467.37 -429.47)"/><path fill="url(#h)" d="M752,879h2a68.39,68.39,0,0,0,2,13,69.35,69.35,0,0,0,8,19,27.54,27.54,0,0,0,2,15l-2,2a83.78,83.78,0,0,1-8-16,68.6,68.6,0,0,1-4-15A64.25,64.25,0,0,1,752,879Z" transform="translate(-467.37 -429.47)"/></svg>