<svg xmlns="http://www.w3.org/2000/svg" xmlns:xlink="http://www.w3.org/1999/xlink" viewBox="-20 -35 413.33 558.84"><defs><linearGradient id="a" x1="856.71" x2="890.13" y1="846.04" y2="846.04" gradientTransform="translate(891.14 911.71) rotate(180)" gradientUnits="userSpaceOnUse"><stop offset="0" stop-color="#fff951"/><stop offset=".6" stop-color="#fcd746"/><stop offset="1" stop-color="#fabd3d"/></linearGradient><linearGradient id="b" x1="856.71" x2="890.13" y1="808.64" y2="808.64" xlink:href="#a"/><linearGradient id="c" x1="856.71" x2="890.13" y1="771.26" y2="771.26" xlink:href="#a"/><linearGradient id="d" x1="856.71" x2="890.13" y1="733.87" y2="733.87" xlink:href="#a"/><linearGradient id="e" x1="856.71" x2="890.13" y1="696.47" y2="696.47" xlink:href="#a"/><linearGradient id="f" x1="857.72" x2="891.14" y1="659.13" y2="659.13" xlink:href="#a"/><linearGradient id="g" x1="803.78" x2="830.61" y1="530.61" y2="530.61" gradientTransform="translate(891.14 911.71) rotate(180)" gradientUnits="userSpaceOnUse"><stop offset="0" stop-color="#fabd3d"/><stop offset=".4" stop-color="#fcd746"/><stop offset="1" stop-color="#fff951"/></linearGradient><linearGradient id="h" x1="769.03" x2="795.86" y1="510.39" y2="510.39" xlink:href="#g"/><linearGradient id="i" x1="734.28" x2="761.11" y1="490.15" y2="490.15" xlink:href="#g"/><linearGradient id="j" x1="699.54" x2="726.36" y1="469.24" y2="469.24" xlink:href="#g"/><linearGradient id="k" x1="664.79" x2="691.62" y1="449.66" y2="449.66" xlink:href="#g"/><linearGradient id="l" x1="630.04" x2="656.87" y1="429.4" y2="429.4" xlink:href="#g"/><linearGradient id="m" x1="558.37" x2="996.05" y1="749.19" y2="496.5" gradientTransform="translate(1393.37 1366) rotate(180)" gradientUnits="userSpaceOnUse"><stop offset="0" stop-color="#3fa9f5"/><stop offset=".18" stop-color="#409cec"/><stop offset=".51" stop-color="#4378d5"/><stop offset=".96" stop-color="#4740af"/></linearGradient><linearGradient id="n" x1="764.14" x2="789.94" y1="881.59" y2="881.59" xlink:href="#g"/><linearGradient id="o" x1="730.72" x2="756.52" y1="861.46" y2="861.46" xlink:href="#g"/><linearGradient id="p" x1="697.3" x2="723.1" y1="841.34" y2="841.34" xlink:href="#g"/><linearGradient id="q" x1="663.88" x2="689.68" y1="820.54" y2="820.54" xlink:href="#g"/><linearGradient id="r" x1="630.46" x2="656.26" y1="801.07" y2="801.07" xlink:href="#g"/><linearGradient id="s" x1="597.04" x2="622.84" y1="780.92" y2="780.92" xlink:href="#g"/><linearGradient id="t" x1="533.36" x2="566.78" y1="684.8" y2="684.8" xlink:href="#g"/><linearGradient id="u" x1="533.36" x2="566.78" y1="647.36" y2="647.36" xlink:href="#g"/><linearGradient id="v" x1="533.36" x2="566.78" y1="609.91" y2="609.91" xlink:href="#g"/><linearGradient id="w" x1="533.36" x2="566.78" y1="572.46" y2="572.46" xlink:href="#g"/><linearGradient id="x" x1="533.36" x2="566.78" y1="535.02" y2="535.02" xlink:href="#g"/><linearGradient id="y" x1="534.37" x2="567.79" y1="497.62" y2="497.62" xlink:href="#g"/><linearGradient id="z" x1="659.77" x2="880.55" y1="708.74" y2="551.14" gradientTransform="translate(1393.37 1366) rotate(180)" gradientUnits="userSpaceOnUse"><stop offset="0" stop-color="#3fa9f5"/><stop offset=".14" stop-color="#4191e5"/><stop offset=".39" stop-color="#436ece"/><stop offset=".62" stop-color="#4555bd"/><stop offset=".83" stop-color="#4745b3"/><stop offset="1" stop-color="#4740af"/></linearGradient><linearGradient id="aa" x1="566.23" x2="572.69" y1="456.84" y2="453.82" gradientTransform="translate(1393.37 1366) rotate(180)" gradientUnits="userSpaceOnUse"><stop offset=".01" stop-color="#86eace"/><stop offset=".24" stop-color="#66c8b2"/><stop offset=".75" stop-color="#238378"/><stop offset=".99" stop-color="#096861"/></linearGradient><linearGradient id="ab" x1="818.07" x2="824.4" y1="888.27" y2="885.31" xlink:href="#aa"/><linearGradient id="ac" x1="815.75" x2="817.59" y1="889.93" y2="889.07" xlink:href="#aa"/></defs><title>7</title><polygon fill="#4740af" points="6.56 39.28 39.97 59.39 39.97 87.44 6.56 67.32 6.56 39.28"/><polygon fill="#4740af" points="6.56 76.67 39.97 96.79 39.97 124.84 6.56 104.71 6.56 76.67"/><polygon fill="#4740af" points="6.56 114.06 39.97 134.18 39.97 162.23 6.56 142.1 6.56 114.06"/><polygon fill="#4740af" points="6.56 151.45 39.97 171.58 39.97 199.63 6.56 179.49 6.56 151.45"/><polygon fill="#4740af" points="6.56 188.84 39.97 208.97 39.97 237.02 6.56 216.88 6.56 188.84"/><polygon fill="#4740af" points="5.55 226.19 38.96 246.33 38.96 274.37 5.55 254.23 5.55 226.19"/><polygon fill="#4740af" points="6.56 39.28 1.01 41.59 6.56 44.93 6.56 39.28"/><polygon fill="#4740af" points="39.97 87.44 34.43 89.75 34.43 84.1 39.97 87.44"/><polygon fill="#4740af" points="6.56 76.67 1.01 78.98 7.62 82.96 6.56 79.22 6.56 76.67"/><polygon fill="#4740af" points="39.97 124.84 34.43 121.5 34.43 127.15 39.97 124.84"/><polygon fill="#4740af" points="39.97 162.23 34.43 164.54 34.43 158.89 39.97 162.23"/><polygon fill="#4740af" points="1.01 116.37 6.35 113.61 6.95 114.29 6.56 119.71 1.01 116.37"/><polygon fill="#4740af" points="6.56 150.89 1.01 153.76 6.56 157.1 6.56 150.89"/><polygon fill="#4740af" points="39.45 199.6 34.43 201.93 34.43 195.83 39.97 198.72 39.97 199.63 39.45 199.6"/><polygon fill="#4740af" points="39.97 237.02 34.43 239.33 34.43 233.68 39.97 237.02"/><polygon fill="#4740af" points="6.56 188.84 1.01 191.15 6.81 194.64 6.56 188.84"/><polygon fill="#4740af" points="5.55 226.19 0 228.49 5.55 231.84 5.55 226.19"/><polygon fill="#4740af" points="38.96 274.37 33.42 276.68 33.42 270.41 38.96 274.37"/><polygon fill="url(#a)" points="1.01 41.59 34.43 61.7 34.43 89.75 1.01 69.63 1.01 41.59"/><polygon fill="url(#b)" points="1.01 78.98 34.43 99.1 34.43 127.15 1.01 107.02 1.01 78.98"/><polygon fill="url(#c)" points="1.01 116.37 34.43 136.49 34.43 164.54 1.01 144.41 1.01 116.37"/><polygon fill="url(#d)" points="1.01 153.76 34.43 173.89 34.43 201.93 1.01 181.8 1.01 153.76"/><polygon fill="url(#e)" points="1.01 191.15 34.43 211.28 34.43 239.33 1.01 219.19 1.01 191.15"/><polygon fill="url(#f)" points="0 228.49 33.42 248.63 33.42 276.68 0 256.53 0 228.49"/><polygon fill="#4740af" points="67.1 388.36 67.1 350.96 93.93 366.57 93.93 403.97 67.1 388.36"/><polygon fill="#4740af" points="101.85 408.59 101.85 371.18 128.67 386.8 128.67 424.21 101.85 408.59"/><polygon fill="#4740af" points="136.59 428.82 136.59 391.41 163.42 407.03 163.42 444.45 136.59 428.82"/><polygon fill="#4740af" points="171.34 449.73 171.34 412.31 198.17 427.94 198.17 465.37 171.34 449.73"/><polygon fill="#4740af" points="206.09 469.31 206.09 431.89 232.92 447.52 232.92 484.95 206.09 469.31"/><polygon fill="#4740af" points="240.84 489.57 240.84 452.14 267.66 467.77 267.66 505.21 240.84 489.57"/><polygon fill="url(#g)" points="60.53 391.99 60.53 354.59 87.36 370.2 87.36 407.61 60.53 391.99"/><polygon fill="url(#h)" points="95.28 412.22 95.28 374.81 122.11 390.43 122.11 427.84 95.28 412.22"/><polygon fill="url(#i)" points="130.03 432.45 130.03 395.04 156.86 410.67 156.86 448.08 130.03 432.45"/><polygon fill="url(#j)" points="164.78 453.36 164.78 415.95 191.6 431.58 191.6 469 164.78 453.36"/><polygon fill="url(#k)" points="199.52 472.95 199.52 435.52 226.35 451.16 226.35 488.58 199.52 472.95"/><polygon fill="url(#l)" points="234.27 493.2 234.27 455.77 261.1 471.41 261.1 508.84 234.27 493.2"/><polygon fill="#4740af" points="267.66 505.21 261.1 508.84 261.1 471.41 234.27 455.77 240.84 452.14 267.66 467.77 267.66 505.21"/><polygon fill="#4740af" points="232.92 484.63 226.35 488.24 226.35 451.04 199.52 435.5 206.09 431.89 232.92 447.43 232.92 484.63"/><polygon fill="#4740af" points="197.49 465.34 191.06 468.97 191.06 431.55 164.78 415.95 171.21 412.31 197.49 427.91 197.49 465.34"/><polygon fill="#4740af" points="163.42 444.45 156.86 448.08 156.86 410.67 130.03 395.04 136.59 391.41 163.42 407.03 163.42 444.45"/><polygon fill="#4740af" points="128 424.18 121.57 427.82 121.57 390.41 95.28 374.81 101.71 371.17 128 386.77 128 424.18"/><polygon fill="#4740af" points="93.93 403.97 87.36 407.61 87.36 370.2 60.53 354.59 67.1 350.96 93.93 366.57 93.93 403.97"/><path fill="#4740af" d="M537.26,500.22,566,493.83a46.06,46.06,0,0,1,19,6.5L788.42,623.39a46.31,46.31,0,0,1,22.5,39.3V895.6a42.44,42.44,0,0,1-3.35,16.73l-19.27,3.73v16.26l32.48-19.72,6.85-4.15a41.25,41.25,0,0,0,16.7-33.69V641.82a46.31,46.31,0,0,0-22.5-39.31L618.42,479.45a44.43,44.43,0,0,0-40.63-3.31c-.67.28-1.34.59-2,.9l-6.74,4Z" transform="translate(-502.23 -454.29)"/><path fill="url(#m)" d="M811.39,661.79v232.9c0,33.92-37,53.48-66.6,35.21L541.37,804.46a46.26,46.26,0,0,1-22.2-39.08V534.89c0-33.72,36.7-53.36,66.3-35.47L788.89,622.49A46.29,46.29,0,0,1,811.39,661.79Z" transform="translate(-502.23 -454.29)"/><polygon fill="#4740af" points="107.52 37.4 107.52 0 133.32 15.53 133.32 52.94 107.52 37.4"/><polygon fill="#4740af" points="140.93 57.53 140.93 20.11 166.74 35.65 166.74 73.07 140.93 57.53"/><polygon fill="#4740af" points="174.35 77.65 174.35 40.24 200.16 55.78 200.16 93.2 174.35 77.65"/><polygon fill="#4740af" points="207.77 98.45 207.77 61.03 233.58 76.58 233.58 114 207.77 98.45"/><polygon fill="#4740af" points="241.19 117.93 241.19 80.5 266.99 96.05 266.99 133.48 241.19 117.93"/><polygon fill="#4740af" points="274.61 138.07 274.61 100.64 300.41 116.19 300.41 153.63 274.61 138.07"/><polygon fill="url(#n)" points="101.2 41.06 101.2 3.65 127 19.18 127 56.59 101.2 41.06"/><polygon fill="url(#o)" points="134.62 61.18 134.62 23.77 160.42 39.3 160.42 76.72 134.62 61.18"/><polygon fill="url(#p)" points="168.04 81.31 168.04 43.89 193.84 59.43 193.84 96.85 168.04 81.31"/><polygon fill="url(#q)" points="201.46 102.11 201.46 64.69 227.26 80.23 227.26 117.66 201.46 102.11"/><polygon fill="url(#r)" points="234.88 121.58 234.88 84.15 260.68 99.7 260.68 137.13 234.88 121.58"/><polygon fill="url(#s)" points="268.3 141.72 268.3 104.29 294.1 119.84 294.1 157.28 268.3 141.72"/><polygon fill="#4740af" points="300.41 153.63 294.1 157.28 294.1 119.84 268.3 104.29 274.61 100.64 300.41 116.19 300.41 153.63"/><polygon fill="#4740af" points="266.99 133.16 260.68 136.79 260.68 99.59 234.88 84.13 241.19 80.5 266.99 95.96 266.99 133.16"/><polygon fill="#4740af" points="232.92 113.98 226.74 117.64 226.74 80.21 201.46 64.69 207.64 61.03 232.92 76.55 232.92 113.98"/><polygon fill="#4740af" points="200.16 93.2 193.84 96.85 193.84 59.43 168.04 43.89 174.35 40.24 200.16 55.78 200.16 93.2"/><polygon fill="#4740af" points="166.09 73.04 159.9 76.7 159.9 39.28 134.62 23.77 140.81 20.11 166.09 35.62 166.09 73.04"/><polygon fill="#4740af" points="133.32 52.94 127 56.59 127 19.18 101.2 3.65 107.52 0 133.32 15.53 133.32 52.94"/><polygon fill="#4740af" points="329.91 200.47 363.33 220.63 363.33 248.72 329.91 228.55 329.91 200.47"/><polygon fill="#4740af" points="329.91 237.91 363.33 258.08 363.33 286.17 329.91 266 329.91 237.91"/><polygon fill="#4740af" points="329.91 275.36 363.33 295.53 363.33 323.62 329.91 303.44 329.91 275.36"/><polygon fill="#4740af" points="329.91 312.8 363.33 332.98 363.33 361.07 329.91 340.88 329.91 312.8"/><polygon fill="#4740af" points="329.91 350.25 363.33 370.43 363.33 398.52 329.91 378.33 329.91 350.25"/><polygon fill="#4740af" points="328.9 387.65 362.32 407.84 362.32 435.93 328.9 415.73 328.9 387.65"/><polygon fill="#4740af" points="329.91 200.47 324.36 202.78 329.91 206.13 329.91 200.47"/><polygon fill="#4740af" points="363.33 248.72 357.78 251.03 357.78 245.37 363.33 248.72"/><polygon fill="#4740af" points="329.91 237.91 324.36 240.22 330.97 244.21 329.91 240.46 329.91 237.91"/><polygon fill="#4740af" points="363.33 286.17 357.78 282.82 357.78 288.48 363.33 286.17"/><polygon fill="#4740af" points="363.33 323.62 357.78 325.93 357.78 320.27 363.33 323.62"/><polygon fill="#4740af" points="324.36 277.67 329.7 274.91 330.3 275.59 329.91 281.02 324.36 277.67"/><polygon fill="#4740af" points="329.91 312.24 324.36 315.11 329.91 318.46 329.91 312.24"/><polygon fill="#4740af" points="362.81 361.05 357.78 363.38 357.78 357.26 363.33 360.16 363.33 361.07 362.81 361.05"/><polygon fill="#4740af" points="363.33 398.52 357.78 400.83 357.78 395.17 363.33 398.52"/><polygon fill="#4740af" points="329.91 350.25 324.36 352.55 330.16 356.05 329.91 350.25"/><polygon fill="#4740af" points="328.9 387.65 323.35 389.95 328.9 393.3 328.9 387.65"/><polygon fill="#4740af" points="362.32 435.93 356.77 438.23 356.77 431.95 362.32 435.93"/><polygon fill="url(#t)" points="324.36 202.78 357.78 222.94 357.78 251.03 324.36 230.86 324.36 202.78"/><polygon fill="url(#u)" points="324.36 240.22 357.78 260.39 357.78 288.48 324.36 268.31 324.36 240.22"/><polygon fill="url(#v)" points="324.36 277.67 357.78 297.84 357.78 325.93 324.36 305.75 324.36 277.67"/><polygon fill="url(#w)" points="324.36 315.11 357.78 335.29 357.78 363.38 324.36 343.19 324.36 315.11"/><polygon fill="url(#x)" points="324.36 352.55 357.78 372.74 357.78 400.83 324.36 380.64 324.36 352.55"/><polygon fill="url(#y)" points="323.35 389.95 356.77 410.14 356.77 438.23 323.35 418.03 323.35 389.95"/><path fill="#4740af" d="M546.27,750.74l1-181.84c.15-26.49,29.41-41.65,52.66-27.29l159.84,98.76A36.13,36.13,0,0,1,777.11,671l-1,180.38C776,877.81,746.94,893,723.68,878.8L563.83,781.53A36.14,36.14,0,0,1,546.27,750.74Z" transform="translate(-502.23 -454.29)"/><path fill="url(#z)" d="M537.35,755.53l1-181.84c.15-26.48,29.41-41.64,52.66-27.28l159.84,98.76a36.13,36.13,0,0,1,17.33,30.67l-1,180.37C767,882.6,738,897.76,714.76,883.59L554.91,786.32A36.12,36.12,0,0,1,537.35,755.53Z" transform="translate(-502.23 -454.29)"/><line x1="148.81" x2="149.68" y1="240.55" y2="158.12" fill="none" stroke="#f9df41" stroke-miterlimit="10" stroke-width="7"/><line x1="126.83" x2="53.55" y1="247.16" y2="199.65" fill="none" stroke="#f9df41" stroke-miterlimit="10" stroke-width="7"/><line x1="238.99" x2="166.16" y1="318.39" y2="271.02" fill="none" stroke="#f9df41" stroke-miterlimit="10" stroke-width="7"/><line x1="147.4" x2="148.09" y1="366.29" y2="285.86" fill="none" stroke="#f9df41" stroke-miterlimit="10" stroke-width="7"/><path fill="#f9df41" stroke="#f9df41" stroke-miterlimit="10" d="M664.83,687.44c3.37,5.85,8.81,9.27,12.15,7.65s3.31-7.68-.06-13.53-8.81-9.27-12.15-7.65S661.46,681.59,664.83,687.44Z" transform="translate(-502.23 -454.29)"/><path fill="#f9df41" stroke="#f9df41" stroke-miterlimit="10" d="M683.76,720.27c3.37,5.85,8.81,9.27,12.15,7.65s3.31-7.68-.06-13.53-8.81-9.27-12.15-7.65S680.39,714.42,683.76,720.27Z" transform="translate(-502.23 -454.29)"/><path fill="#f9df41" stroke="#f9df41" stroke-miterlimit="10" d="M645.52,696.83c3.37,5.85,8.81,9.27,12.15,7.65s3.31-7.68-.06-13.53-8.81-9.27-12.15-7.65S642.15,691,645.52,696.83Z" transform="translate(-502.23 -454.29)"/><path fill="#f9df41" stroke="#f9df41" stroke-miterlimit="10" d="M664.45,729.65c3.37,5.85,8.81,9.27,12.15,7.65s3.31-7.68-.06-13.53-8.81-9.27-12.15-7.65S661.08,723.8,664.45,729.65Z" transform="translate(-502.23 -454.29)"/><path fill="#f9df41" d="M625.47,664.06c3.37,5.85,8.81,9.27,12.15,7.65s3.31-7.68-.06-13.53-8.81-9.27-12.15-7.65S622.09,658.21,625.47,664.06Z" transform="translate(-502.23 -454.29)"/><path fill="#f9df41" d="M645.83,697c3.37,5.85,8.81,9.27,12.15,7.65s3.31-7.68-.06-13.53-8.81-9.27-12.15-7.65S642.46,691.16,645.83,697Z" transform="translate(-502.23 -454.29)"/><path fill="#f9df41" d="M606.16,673.45c3.37,5.85,8.81,9.27,12.15,7.65s3.31-7.68-.06-13.52-8.81-9.27-12.15-7.65S602.79,667.6,606.16,673.45Z" transform="translate(-502.23 -454.29)"/><path fill="#f9df41" d="M625.09,706.26c3.37,5.85,8.81,9.27,12.15,7.65s3.31-7.68-.06-13.53-8.81-9.27-12.15-7.65S621.71,700.42,625.09,706.26Z" transform="translate(-502.23 -454.29)"/><path fill="#f9df41" stroke="#f9df41" stroke-miterlimit="10" d="M625.16,705.92c3.37,5.85,8.81,9.27,12.15,7.65s3.31-7.68-.06-13.53-8.81-9.27-12.15-7.65S621.79,700.07,625.16,705.92Z" transform="translate(-502.23 -454.29)"/><path fill="#f9df41" stroke="#f9df41" stroke-miterlimit="10" d="M644.09,738.74c3.37,5.85,8.81,9.27,12.15,7.65s3.31-7.68-.06-13.53-8.81-9.27-12.15-7.65S640.71,732.9,644.09,738.74Z" transform="translate(-502.23 -454.29)"/><path fill="#f9df41" stroke="#f9df41" stroke-miterlimit="10" d="M605.85,715.31c3.37,5.85,8.81,9.27,12.15,7.65s3.31-7.68-.06-13.52-8.81-9.27-12.15-7.65S602.48,709.46,605.85,715.31Z" transform="translate(-502.23 -454.29)"/><path fill="#f9df41" stroke="#f9df41" stroke-miterlimit="10" d="M624.78,748.13c3.37,5.85,8.81,9.27,12.15,7.65s3.31-7.68-.06-13.53-8.81-9.27-12.15-7.65S621.41,742.28,624.78,748.13Z" transform="translate(-502.23 -454.29)"/><path fill="#f9df41" d="M663.56,729c3.37,5.85,8.81,9.27,12.15,7.65s3.31-7.68-.06-13.53-8.81-9.27-12.15-7.65S660.18,723.12,663.56,729Z" transform="translate(-502.23 -454.29)"/><path fill="#f9df41" d="M682.48,761.8c3.37,5.85,8.81,9.28,12.15,7.65s3.31-7.68-.06-13.53-8.81-9.28-12.15-7.65S679.11,756,682.48,761.8Z" transform="translate(-502.23 -454.29)"/><path fill="#f9df41" d="M644.25,738.35c3.37,5.85,8.81,9.27,12.15,7.65s3.31-7.68-.06-13.53-8.81-9.27-12.15-7.65S640.88,732.5,644.25,738.35Z" transform="translate(-502.23 -454.29)"/><path fill="#f9df41" d="M663.18,771.18c3.37,5.85,8.81,9.28,12.15,7.65s3.31-7.68-.06-13.53-8.81-9.27-12.15-7.65S659.8,765.33,663.18,771.18Z" transform="translate(-502.23 -454.29)"/><line x1="168.71" x2="168.97" y1="229.97" y2="198" fill="none" stroke="#f9df41" stroke-miterlimit="10" stroke-width="7"/><line x1="194.49" x2="194.69" y1="209.43" y2="186.1" fill="none" stroke="#f9df41" stroke-miterlimit="10" stroke-width="7"/><line x1="105.41" x2="105.39" y1="148.86" y2="128.44" fill="none" stroke="#f9df41" stroke-miterlimit="10" stroke-width="7"/><line x1="129.35" x2="130.07" y1="204" y2="174.75" fill="none" stroke="#f9df41" stroke-miterlimit="10" stroke-width="7"/><line x1="188.89" x2="188.89" y1="391.6" y2="367.68" fill="none" stroke="#f9df41" stroke-miterlimit="10" stroke-width="7"/><line x1="104.69" x2="105.41" y1="337.46" y2="314.68" fill="none" stroke="#f9df41" stroke-miterlimit="10" stroke-width="7"/><line x1="220.51" x2="241.48" y1="260.21" y2="273.53" fill="none" stroke="#f9df41" stroke-miterlimit="10" stroke-width="7"/><line x1="79.83" x2="52.87" y1="169.79" y2="152.4" fill="none" stroke="#f9df41" stroke-miterlimit="10" stroke-width="7"/><line x1="241.4" x2="220.28" y1="368.67" y2="355.02" fill="none" stroke="#f9df41" stroke-miterlimit="10" stroke-width="7"/><line x1="75.68" x2="50.76" y1="257.6" y2="242.71" fill="none" stroke="#f9df41" stroke-miterlimit="10" stroke-width="7"/><line x1="166.68" x2="166.94" y1="345.33" y2="313.36" fill="none" stroke="#f9df41" stroke-miterlimit="10" stroke-width="7"/><line x1="128.57" x2="128.84" y1="320.85" y2="288.89" fill="none" stroke="#f9df41" stroke-miterlimit="10" stroke-width="7"/><line x1="217.32" x2="188.37" y1="281.78" y2="263.09" fill="none" stroke="#f9df41" stroke-miterlimit="10" stroke-width="7"/><line x1="111.75" x2="82.8" y1="217.36" y2="198.69" fill="none" stroke="#f9df41" stroke-miterlimit="10" stroke-width="7"/><line x1="109.8" x2="82.01" y1="257.83" y2="239.49" fill="none" stroke="#f9df41" stroke-miterlimit="10" stroke-width="7"/><line x1="216.96" x2="188.02" y1="324.37" y2="305.68" fill="none" stroke="#f9df41" stroke-miterlimit="10" stroke-width="7"/><line x1="195.76" x2="167.89" y1="206.66" y2="200.68" fill="none" stroke="#f9df41" stroke-miterlimit="10" stroke-width="7"/><line x1="104.16" x2="130.87" y1="147.56" y2="176.13" fill="none" stroke="#f9df41" stroke-miterlimit="10" stroke-width="7"/><line x1="223.23" x2="215.45" y1="260.34" y2="280.23" fill="none" stroke="#f9df41" stroke-miterlimit="10" stroke-width="7"/><path fill="#86eace" d="M720.53,776.65l4.11,34.22" transform="translate(-502.23 -454.29)"/><line x1="130.11" x2="103.35" y1="318.81" y2="316.35" fill="none" stroke="#f9df41" stroke-miterlimit="10" stroke-width="7"/><line x1="166.12" x2="189.75" y1="343.69" y2="369.03" fill="none" stroke="#f9df41" stroke-miterlimit="10" stroke-width="7"/><line x1="84.54" x2="73.16" y1="239.6" y2="258.11" fill="none" stroke="#f9df41" stroke-miterlimit="10" stroke-width="7"/><line x1="78.85" x2="83.91" y1="168.26" y2="200.35" fill="none" stroke="#f9df41" stroke-miterlimit="10" stroke-width="7"/><path fill="none" stroke="#f9df41" stroke-miterlimit="10" stroke-width="7" d="M563.85,763.93l148.34,95.82c13.44,8.69,30.42-.37,30.55-16.3l1.35-160.62a21.86,21.86,0,0,0-10-18.43L585.78,568.7c-13.44-8.66-30.42.41-30.55,16.32l-1.35,160.49A21.84,21.84,0,0,0,563.85,763.93Z" transform="translate(-502.23 -454.29)"/><path fill="url(#aa)" d="M827.64,908.45l-6.85,4.15A40.19,40.19,0,0,0,827.64,908.45Z" transform="translate(-502.23 -454.29)"/><path fill="url(#ab)" d="M569.07,481.09l6.74-4A42.56,42.56,0,0,0,569.07,481.09Z" transform="translate(-502.23 -454.29)"/><path fill="url(#ac)" d="M575.8,477c.65-.32,1.31-.62,2-.9l0-.28Z" transform="translate(-502.23 -454.29)"/><path fill="#f9df41" d="M694.6,657.78l-21.5-5.22v5.52l21.5,5.22Z" transform="translate(-502.23 -454.29)"/><path fill="none" stroke="#f9df41" stroke-miterlimit="10" d="M727.48,715l-8.22,23.56L715.47,736l7.59-23.59Z" transform="translate(-502.23 -454.29)"/><path fill="#f9df41" stroke="#f9df41" stroke-miterlimit="10" d="M721.16,811q-2.22-16.65-4.43-33.31l3.79-1.06q1.89,15.72,3.79,31.44C723.27,809.07,722.21,810.05,721.16,811Z" transform="translate(-502.23 -454.29)"/></svg>